<?xml version="1.0" standalone="no"?>
<!DOCTYPE svg PUBLIC "-//W3C//DTD SVG 1.1//EN" "http://www.w3.org/Graphics/SVG/1.1/DTD/svg11.dtd">
<svg xmlns="http://www.w3.org/2000/svg" xmlns:xlink="http://www.w3.org/1999/xlink" version="1.1" width="4.00177cm" height="1.670685cm" viewBox="0 0 113.436 47.358">
<clipPath id="cp0">
<path transform="matrix(1,0,0,-1,-83.736,727.506)" d="M 0 0 L 595.28 0 L 595.28 841.889963 L 0 841.889963 Z "/>
</clipPath>
<g clip-path="url(#cp0)">
<text fill-opacity="0" transform="matrix(1,0,0,1,-74.398,-22.964034)" font-size="9.9626" font-family="CMMI10" x="76.099" y="33.142">
X
</text>
<symbol id="font_1_3"><path d="M .458 .411 L .374 .61 C .37100003 .61800004 .36900001 .62200003 .36900001 .623 C .36900001 .629 .386 .648 .428 .652 C .43800002 .65300007 .448 .65400005 .448 .671 C .448 .683 .43600002 .683 .433 .683 C .39200001 .683 .349 .68 .307 .68 C .282 .68 .22000001 .683 .19500003 .683 C .18900001 .683 .17700002 .683 .17700002 .66300006 C .17700002 .652 .18700002 .652 .20000002 .652 C .26 .652 .266 .642 .275 .62 L .393 .34100003 L .18200001 .11400001 L .16900002 .10300001 C .12 .05 .073 .034 .022000002 .031000002 C .0090000019 .030000001 0 .030000001 0 .011000001 C 0 .010000001 0 0 .013000002 0 C .042999998 0 .076000004 .003 .107 .003 C .14400001 .003 .18300002 0 .21900001 0 C .22500001 0 .237 0 .237 .020000002 C .237 .030000001 .22700002 .031000002 .22500001 .031000002 C .21600002 .032 .18500002 .034 .18500002 .062000003 C .18500002 .078 .20000002 .094000006 .21200001 .10700001 L .314 .215 L .404 .31300002 L .505 .074 C .509 .063 .51 .062000003 .51 .060000001 C .51 .052 .491 .035 .45200003 .031000002 C .441 .030000001 .432 .029000001 .432 .012 C .432 0 .44300003 0 .44700003 0 C .47500001 0 .545 .003 .573 .003 C .598 .003 .65900002 0 .684 0 C .69100004 0 .703 0 .703 .019000001 C .703 .031000002 .693 .031000002 .685 .031000002 C .61800004 .032 .616 .035 .59900003 .075 C .56 .16800001 .49300004 .324 .47 .384 C .538 .45400004 .643 .573 .675 .601 C .704 .625 .74200006 .64900007 .80200005 .652 C .81500006 .65300007 .824 .65300007 .824 .67200003 C .824 .67300005 .824 .683 .81100007 .683 C .781 .683 .748 .68 .717 .68 C .68 .68 .642 .683 .606 .683 C .6 .683 .587 .683 .587 .66300006 C .587 .656 .592 .65300007 .59900003 .652 C .60800005 .651 .639 .64900007 .639 .62100006 C .639 .60700007 .628 .59400006 .62 .58500004 L .458 .411 Z "/>
</symbol><use xlink:href="#font_1_3" transform="matrix(9.9626,0,0,-9.9626,1.9699866,10.177965)"/>
<text fill-opacity="0" transform="matrix(1,0,0,1,-78.29301,-22.964034)" font-size="9.9626" font-family="CMMI10" x="121.519 129.29979" y="33.142 33.142">
FX
</text>
<symbol id="font_1_1"><path d="M .265 .32500003 L .362 .32500003 C .43700004 .32500003 .445 .30900002 .445 .28 C .445 .273 .445 .261 .43800002 .231 C .43600006 .22600001 .435 .22200002 .435 .22000001 C .435 .21200001 .44100004 .208 .44700003 .208 C .45700002 .208 .45700002 .21100001 .462 .22900002 L .517 .446 C .52000003 .45700002 .52000003 .45900002 .52000003 .462 C .52000003 .46400003 .51800008 .47300001 .508 .47300001 C .49800004 .47300001 .49700003 .46800003 .49300004 .45200003 C .47200007 .374 .449 .356 .36400003 .356 L .273 .356 L .337 .61 C .34600001 .64500003 .347 .64900007 .39100004 .64900007 L .52300005 .64900007 C .646 .64900007 .669 .61600008 .669 .53900004 C .669 .51600004 .669 .512 .66600009 .485 C .66400004 .47200003 .66400004 .47000003 .66400004 .467 C .66400004 .462 .66700006 .455 .67600008 .455 C .68700004 .455 .688 .46100002 .69000006 .48000002 L .71000004 .65300007 C .71300006 .68 .70800009 .68 .683 .68 L .193 .68 C .17300001 .68 .163 .68 .163 .66 C .163 .64900007 .172 .64900007 .19100001 .64900007 C .228 .64900007 .25599999 .64900007 .25599999 .63100005 C .25599999 .62700005 .25599999 .625 .251 .60700007 L .119 .078 C .109 .039 .10700001 .031000002 .027999998 .031000002 C .011 .031000002 0 .031000002 0 .012 C 0 0 .011999998 0 .015000001 0 C .044 0 .118 .003 .147 .003 C .18 .003 .263 0 .296 0 C .305 0 .31700004 0 .31700004 .019000001 C .31700004 .027 .311 .029000001 .311 .030000001 C .30800004 .031000002 .306 .031000002 .283 .031000002 C .26100004 .031000002 .25599999 .031000002 .23100002 .033 C .202 .036000002 .19900002 .040000004 .19900002 .053000002 C .19900002 .055000005 .19900002 .061000004 .20300001 .076000004 L .265 .32500003 Z "/>
</symbol><use xlink:href="#font_1_1" transform="matrix(9.9626,0,0,-9.9626,43.60457,10.177965)"/>
<use xlink:href="#font_1_3" transform="matrix(9.9626,0,0,-9.9626,51.275774,10.177965)"/>
<text fill-opacity="0" transform="matrix(1,0,0,1,-78.314,-22.964034)" font-size="9.9626" font-family="CMMI10" x="170.855 178.6856" y="33.142 33.142">
GX
</text>
<symbol id="font_1_2"><path d="M .71000004 .71700006 C .71000004 .72 .708 .72700005 .699 .72700005 C .69600006 .72700005 .69500008 .7260001 .684 .71500006 L .614 .6380001 C .605 .65200009 .559 .72700005 .448 .72700005 C .22500001 .72700005 0 .50600005 0 .27400003 C 0 .115 .11100002 0 .273 0 C .317 0 .36200002 .0090000019 .398 .024000002 C .448 .044000005 .467 .065000005 .485 .085 C .49400001 .060000001 .52000003 .023000002 .53000002 .023000002 C .535 .023000002 .537 .026000002 .537 .027000003 C .53900004 .029000003 .549 .067 .554 .088 L .573 .165 C .577 .18200001 .582 .199 .586 .216 C .597 .261 .598 .263 .65500002 .26400004 C .66 .26400004 .671 .26500001 .671 .28400004 C .671 .29100004 .666 .29500003 .658 .29500003 C .63500004 .29500003 .57600003 .29200003 .55300003 .29200003 C .522 .29200003 .444 .29500003 .41300002 .29500003 C .404 .29500003 .39200001 .29500003 .39200001 .27500005 C .39200001 .26400004 .4 .26400004 .42200003 .26400004 C .423 .26400004 .45200003 .26400004 .47500001 .26200003 C .501 .25900004 .50600005 .256 .50600005 .24300001 C .50600005 .23400001 .495 .18900001 .485 .15200001 C .45700002 .042000003 .327 .031000004 .292 .031000004 C .19600001 .031000004 .091000004 .088 .091000004 .24100001 C .091000004 .272 .10100001 .43700004 .20600002 .56700001 C .26 .63500004 .357 .69600006 .45600004 .69600006 C .558 .69600006 .61700006 .619 .61700006 .503 C .61700006 .46300002 .614 .46200004 .614 .45200003 C .614 .44200002 .625 .44200002 .629 .44200002 C .642 .44200002 .642 .44400005 .647 .46200004 L .71000004 .71700006 Z "/>
</symbol><use xlink:href="#font_1_2" transform="matrix(9.9626,0,0,-9.9626,93.03912,10.397142)"/>
<use xlink:href="#font_1_3" transform="matrix(9.9626,0,0,-9.9626,100.64058,10.177965)"/>
<text fill-opacity="0" transform="matrix(1,0,0,1,-73.879009,-22.964035)" font-size="9.9626" font-family="CMMI10" x="76.099" y="65.175">
Y
</text>
<symbol id="font_1_4"><path d="M .562 .569 L .576 .583 C .606 .61300002 .639 .647 .707 .652 C .718 .65300007 .727 .65300007 .727 .671 C .727 .679 .722 .683 .714 .683 C .688 .683 .659 .68 .632 .68 C .599 .68 .564 .683 .532 .683 C .526 .683 .513 .683 .513 .66400004 C .513 .65300007 .523 .652 .528 .652 C .535 .652 .564 .65000005 .564 .629 C .564 .61200004 .541 .586 .537 .58100005 L .305 .314 L .19500001 .611 C .18900001 .625 .18900001 .62700005 .18900001 .628 C .18900001 .652 .238 .652 .24800003 .652 C .26200003 .652 .272 .652 .272 .67200003 C .272 .683 .26000002 .683 .25700002 .683 C .229 .683 .15900001 .68 .13100001 .68 C .106000009 .68 .044000005 .683 .019000001 .683 C .013 .683 0 .683 0 .66300006 C 0 .652 .010000002 .652 .023000002 .652 C .083000002 .652 .08700001 .643 .096000014 .61800004 L .21900001 .289 C .22000003 .286 .22300002 .275 .22300002 .272 C .22300002 .26900003 .18300002 .108 .17800002 .09 C .165 .035 .16400002 .032 .08400001 .031000002 C .065 .031000002 .057000008 .031000002 .057000008 .011000001 C .057000008 0 .069000006 0 .07100001 0 C .09900001 0 .16900002 .003 .19700001 .003 C .22500003 .003 .29700003 0 .32500003 0 C .33200002 0 .344 0 .344 .020000002 C .344 .031000002 .335 .031000002 .316 .031000002 C .314 .031000002 .29500003 .031000002 .27800003 .033 C .25700002 .035 .25100003 .037 .25100003 .049000001 C .25100003 .056 .26000002 .091000004 .26500001 .112 L .3 .25300003 C .305 .272 .30600002 .275 .314 .284 L .562 .569 Z "/>
</symbol><use xlink:href="#font_1_4" transform="matrix(9.9626,0,0,-9.9626,2.5686846,42.210969)"/>
<text fill-opacity="0" transform="matrix(1,0,0,1,-77.774,-22.964035)" font-size="9.9626" font-family="CMMI10" x="121.519 129.29979" y="65.175 65.175">
FY
</text>
<use xlink:href="#font_1_1" transform="matrix(9.9626,0,0,-9.9626,44.123574,42.210969)"/>
<use xlink:href="#font_1_4" transform="matrix(9.9626,0,0,-9.9626,51.874479,42.210969)"/>
<text fill-opacity="0" transform="matrix(1,0,0,1,-77.796007,-22.964035)" font-size="9.9626" font-family="CMMI10" x="170.855 178.6856" y="65.175 65.175">
GY
</text>
<use xlink:href="#font_1_2" transform="matrix(9.9626,0,0,-9.9626,93.55712,42.430147)"/>
<use xlink:href="#font_1_4" transform="matrix(9.9626,0,0,-9.9626,101.23828,42.210969)"/>
<path transform="matrix(1,0,0,-1,55.556,22.79097)" stroke-width=".39848" stroke-linecap="butt" stroke-miterlimit="10" stroke-linejoin="miter" fill="none" stroke="rgb(0,0,0)" d="M -49.33707 8.76726 L -49.33707 -8.36877 "/>
<path transform="matrix(0,1,1,0,6.2189293,31.35898)" stroke-width=".39848" stroke-linecap="round" stroke-linejoin="round" fill="none" stroke="rgb(0,0,0)" d="M -2.07213 2.39091 C -1.69356 .95633 -.84995 .27893 0 0 C -.84995 -.27893 -1.69356 -.95633 -2.07213 -2.39091 "/>
<text fill-opacity="0" transform="matrix(1,0,0,1,-67.550998,-41.56103)" font-size="6.9738" font-family="CMMI7" x="67.292" y="65.175">
&#x03c1;
</text>
<symbol id="font_2_1"><path d="M .0040000005 .053000002 C 0 .038000002 0 .033000007 0 .032000006 C 0 .010000005 .018000003 0 .034000006 0 C .07000001 0 .07800001 .030000001 .08500001 .062000008 C .09900001 .114000012 .127 .22800002 .13700001 .26600004 C .14600002 .25100003 .17800002 .20400001 .24700003 .20400001 C .375 .20400001 .51100006 .34000004 .51100006 .48600002 C .51100006 .592 .44 .65500002 .352 .65500002 C .254 .65500002 .13300002 .569 .098000002 .42800003 L .0040000005 .053000002 M .246 .23200002 C .17200002 .23200002 .15 .30600002 .15 .319 C .15 .32100005 .15600002 .34300003 .15900001 .35500002 C .18900001 .47800002 .19500001 .50100003 .22400002 .5450001 C .26 .59800005 .31 .62700005 .35 .62700005 C .391 .62700005 .43 .59800005 .43 .526 C .43 .48000002 .404 .36900001 .373 .319 C .327 .24800003 .277 .23200002 .246 .23200002 Z "/>
</symbol><use xlink:href="#font_2_1" transform="matrix(6.9738,0,0,-6.9738,.089694958,25.106366)"/>
<path transform="matrix(1,0,0,-1,55.556,22.79097)" stroke-width=".39848" stroke-linecap="butt" stroke-miterlimit="10" stroke-linejoin="miter" fill="none" stroke="rgb(0,0,0)" d="M 8.98515 15.10332 L 32.09879 15.10332 "/>
<path transform="matrix(1,0,0,-1,87.85402,7.6876498)" stroke-width=".39848" stroke-linecap="round" stroke-linejoin="round" fill="none" stroke="rgb(0,0,0)" d="M -2.07213 2.39091 C -1.69356 .95633 -.84995 .27893 0 0 C -.84995 -.27893 -1.69356 -.95633 -2.07213 -2.39091 "/>
<text fill-opacity="0" transform="matrix(1,0,0,1,4.288,-60.83303)" font-size="6.9738" font-family="CMMI7" x="67.292" y="65.175">
t
</text>
<symbol id="font_2_4"><path d="M .204 .405 L .30600002 .405 C .32500003 .405 .33800004 .405 .33800004 .42700001 C .33800004 .441 .32500003 .441 .30800004 .441 L .21300003 .441 L .25000003 .58900004 C .25100003 .59400006 .25300003 .59900003 .25300003 .60300007 C .25300003 .621 .23900002 .635 .21900001 .635 C .194 .635 .17900002 .61800004 .17200002 .592 C .16500002 .56700001 .178 .615 .134 .441 L .031999999 .441 C .013 .441 0 .441 0 .419 C 0 .405 .011999998 .405 .030000001 .405 L .125 .405 L .066 .16900002 C .060000001 .14400001 .051 .108 .051 .095 C .051 .036000002 .101 0 .15799999 0 C .26900003 0 .33200002 .14000001 .33200002 .15300001 C .33200002 .16600001 .31900003 .16600001 .316 .16600001 C .30400003 .16600001 .30300003 .16400002 .29500003 .14700002 C .26700001 .084 .21600002 .028 .16100002 .028 C .14000001 .028 .12600002 .041 .12600002 .077 C .12600002 .087000008 .13 .108 .132 .118 L .204 .405 Z "/>
</symbol><use xlink:href="#font_2_4" transform="matrix(6.9738,0,0,-6.9738,71.8729,4.4117103)"/>
<text fill-opacity="0" transform="matrix(1,0,0,1,4.288,-60.83303)" font-size="4.9813" font-family="CMMI5" x="70.301" y="66.177">
X
</text>
<symbol id="font_3_1"><path d="M .554 .381 L .76800008 .57100006 C .82800007 .625 .88100005 .63600006 .9410001 .638 C .95500002 .63900004 .9610001 .656 .9610001 .666 C .9610001 .675 .95300007 .683 .944000043 .683 C .9280001 .683 .908 .68 .890999994 .68 C .8740001 .68 .85600005 .679 .83900004 .679 C .81700001 .679 .79600006 .68 .77500005 .68 C .75600005 .68 .73300005 .683 .71400004 .683 C .707 .683 .69000006 .683 .69000006 .65500002 C .69000006 .64100004 .70100003 .638 .70900007 .638 C .72300005 .637 .74100008 .633 .74100008 .61800004 C .74100008 .60400005 .73200007 .596 .70000005 .56700001 L .53300005 .416 L .411 .62 C .42700005 .633 .44700003 .637 .46500004 .638 C .47100001 .638 .48800003 .63900004 .48800003 .666 C .48800003 .67800003 .47800005 .683 .47000003 .683 C .44700003 .683 .421 .68 .39800004 .68 C .37500003 .68 .351 .679 .328 .679 C .307 .679 .28500004 .68 .26400004 .68 C .243 .68 .22100001 .683 .201 .683 C .18400002 .683 .17700002 .671 .17700002 .65500002 C .17700002 .638 .192 .638 .21000001 .638 C .27600003 .638 .282 .62700005 .291 .61200004 L .45200003 .34300003 L .21000001 .124000009 C .20700002 .12100001 .19800002 .115 .194 .113000009 C .153 .079 .11400001 .048 .019000001 .045 C .001000002 .044000005 0 .019000001 0 .017 C 0 .006 .009000003 0 .016000003 0 C .033000007 0 .052 .003 .069000006 .003 C .08600001 .003 .104 .004 .12100001 .004 C .143 .004 .164 .003 .185 .003 C .20500002 .003 .227 0 .24700001 0 C .261 0 .27100003 .007 .27100003 .028 C .27100003 .044000005 .256 .045 .252 .045 C .224 .047000003 .22 .059000005 .22 .065000005 C .22 .076000004 .23400003 .09200001 .236 .095000009 C .24100003 .1 .43400002 .272 .472 .30800004 L .61200004 .076000004 C .614 .072000003 .61800004 .066 .61800004 .064 C .61800004 .060000001 .601 .047000003 .56500006 .045 C .559 .045 .54200006 .044000005 .54200006 .017 C .54200006 .006 .55 0 .56 0 C .583 0 .609 .003 .632 .003 C .65500002 .003 .679 .004 .702 .004 C .72300005 .004 .74500008 .003 .76600004 .003 C .786 .003 .809 0 .82900008 0 C .846 0 .85300007 .012 .85300007 .028 C .85300007 .045 .838000096 .045 .82000008 .045 C .75500007 .045 .749 .056 .74 .07 L .554 .381 Z "/>
</symbol><use xlink:href="#font_3_1" transform="matrix(4.9813,0,0,-4.9813,75.07219,5.3439713)"/>
<path transform="matrix(1,0,0,-1,55.556,22.79097)" stroke-width=".39848" stroke-linecap="butt" stroke-miterlimit="10" stroke-linejoin="miter" fill="none" stroke="rgb(0,0,0)" d="M -3.9166 8.76726 L -3.9166 -8.36877 "/>
<path transform="matrix(0,1,1,0,51.6394,31.35898)" stroke-width=".39848" stroke-linecap="round" stroke-linejoin="round" fill="none" stroke="rgb(0,0,0)" d="M -2.07213 2.39091 C -1.69356 .95633 -.84995 .27893 0 0 C -.84995 -.27893 -1.69356 -.95633 -2.07213 -2.39091 "/>
<text fill-opacity="0" transform="matrix(1,0,0,1,-28.255,-40.67903)" font-size="6.9738" font-family="CMMI7" x="67.292 73.415" y="65.175 65.175">
F&#x03c1;
</text>
<symbol id="font_2_2"><path d="M .273 .32200003 L .38000002 .32200003 C .45600004 .32200003 .46900005 .31 .46900005 .277 C .46900005 .26200003 .46900005 .26000002 .462 .23200001 C .46000004 .22600001 .459 .223 .459 .22000001 C .459 .21000001 .46600003 .20500002 .476 .20500002 C .48900003 .20500002 .49 .21000001 .495 .22800002 L .549 .44000002 C .55 .44300003 .55300003 .45800004 .55300003 .46 C .55300003 .47000003 .546 .47500001 .536 .47500001 C .522 .47500001 .521 .469 .51600004 .45100003 C .496 .37300003 .467 .358 .38200002 .358 L .282 .358 L .34500003 .609 C .35300002 .64000006 .354 .643 .39600003 .643 L .549 .643 C .68200007 .643 .707 .611 .707 .528 C .707 .49500003 .703 .47400003 .703 .46600003 C .703 .45800004 .70600005 .44900003 .72 .44900003 C .735 .44900003 .73600007 .45800004 .73800002 .47500001 L .75600005 .64900007 C .75900007 .679 .75200005 .679 .72700005 .679 L .19300002 .679 C .17400001 .679 .161 .679 .161 .657 C .161 .643 .17300001 .643 .19300002 .643 C .194 .643 .213 .643 .231 .64100004 C .252 .63900004 .254 .637 .254 .62700005 C .254 .62 .25100003 .61 .25 .605 L .119 .082 C .109 .043 .107999999 .036000002 .030000001 .036000002 C .012999997 .036000002 0 .036000002 0 .015000001 C 0 .0050000005 .0069999991 0 .015999996 0 C .045 0 .119 .004 .148 .004 L .225 .003 C .25100003 .003 .279 0 .30400003 0 C .31100002 0 .326 0 .326 .022000002 C .326 .036000002 .314 .036000002 .291 .036000002 C .289 .036000002 .264 .036000002 .23900002 .038000002 C .218 .040000004 .208 .041 .208 .055000005 C .208 .059000005 .208 .062000003 .211 .07300001 L .273 .32200003 Z "/>
</symbol><use xlink:href="#font_2_2" transform="matrix(6.9738,0,0,-6.9738,39.518197,24.495972)"/>
<use xlink:href="#font_2_1" transform="matrix(6.9738,0,0,-6.9738,45.508695,25.988366)"/>
<text fill-opacity="0" transform="matrix(1,0,0,1,3.8170004,-39.83803)" font-size="9.9626" font-family="MSAM10" x="67.292" y="65.175">
&#x27f3;
</text>
<symbol id="font_4_1"><path d="M .25000003 .60800005 C .21400002 .56000004 .19900003 .513 .19300002 .476 L .22300002 .485 C .23000002 .526 .24800003 .573 .28800002 .61700006 C .31000004 .64000006 .31500004 .64100004 .32400003 .64100004 C .33400002 .64100004 .34500003 .642 .34500003 .65300007 C .34500003 .666 .33200002 .666 .32400003 .666 C .30800004 .666 .28000002 .66200008 .277 .66200008 C .27400003 .66200008 .20700002 .67600008 .15 .73800002 C .143 .73600007 .12600002 .731 .121 .73 C .16600001 .67800003 .22600001 .652 .23000002 .65000005 C .07 .59400006 0 .455 0 .333 C 0 .148 .15100003 0 .33200002 0 C .517 0 .665 .15100001 .665 .333 C .665 .538 .48900003 .634 .47100001 .634 C .46000004 .634 .45900006 .624 .45900006 .62200003 C .45900006 .615 .46400004 .61200004 .472 .60800005 C .614 .53000002 .64000006 .402 .64000006 .333 C .64000006 .162 .50000005 .025000003 .33300004 .025000003 C .162 .025000003 .024999998 .164 .024999998 .333 C .024999998 .46400003 .109000003 .587 .24500003 .628 L .25000003 .60800005 Z "/>
</symbol><use xlink:href="#font_4_1" transform="matrix(9.9626,0,0,-9.9626,71.66691,26.163868)"/>
<path transform="matrix(1,0,0,-1,55.556,22.79097)" stroke-width=".39848" stroke-linecap="butt" stroke-miterlimit="10" stroke-linejoin="miter" fill="none" stroke="rgb(0,0,0)" d="M 45.42046 8.76726 L 45.42046 -8.36877 "/>
<path transform="matrix(0,1,1,0,100.976459,31.35898)" stroke-width=".39848" stroke-linecap="round" stroke-linejoin="round" fill="none" stroke="rgb(0,0,0)" d="M -2.07213 2.39091 C -1.69356 .95633 -.84995 .27893 0 0 C -.84995 -.27893 -1.69356 -.95633 -2.07213 -2.39091 "/>
<text fill-opacity="0" transform="matrix(1,0,0,1,36.028,-40.67903)" font-size="6.9738" font-family="CMMI7" x="67.292 73.49171" y="65.175 65.175">
G&#x03c1;
</text>
<symbol id="font_2_3"><path d="M .77300005 .71000004 C .77300005 .71500006 .77000003 .723 .76000004 .723 C .753 .723 .75100003 .721 .74200006 .711 L .669 .634 C .66 .646 .60400005 .723 .481 .723 C .23800004 .723 0 .508 0 .28200004 C 0 .127 .11800001 0 .31000004 0 C .39800004 0 .49100007 .023000002 .54300004 .079 C .55300003 .057000003 .58000002 .021000002 .59200006 .021000002 C .601 .021000002 .60300007 .025000003 .60800005 .046000004 L .62700005 .12300001 C .632 .141 .646 .201 .64900007 .213 C .661 .25800002 .66200008 .259 .721 .26000002 C .72800007 .26000002 .74300004 .26000002 .74300004 .28100003 C .74300004 .29100004 .73600007 .29600003 .72800007 .29600003 C .69500008 .29600003 .65300007 .29200003 .61800004 .29200003 C .59300004 .29200003 .56000004 .29200003 .535 .293 C .51000004 .29400004 .481 .29600003 .45600004 .29600003 C .44900007 .29600003 .43400002 .29600003 .43400002 .27400003 C .43400002 .26000002 .44500006 .26000002 .47000003 .26000002 C .48900003 .26000002 .50900007 .26000002 .52800007 .25800002 C .56000004 .25500002 .56100007 .25100003 .56100007 .23900001 C .56100007 .235 .56100007 .23300001 .554 .207 C .54700003 .179 .536 .134 .53200007 .124000009 C .503 .063 .41000004 .036000002 .33200002 .036000002 C .23200002 .036000002 .101 .08400001 .101 .25300003 C .101 .36 .15100003 .49400006 .22500003 .569 C .32800005 .671 .435 .68700004 .49100007 .68700004 C .60700007 .68700004 .6750001 .603 .6750001 .49100004 C .6750001 .46300002 .67200003 .45600004 .67200003 .45000001 C .67200003 .43700004 .68500004 .43700004 .69000006 .43700004 C .70600005 .43700004 .70600005 .44000002 .711 .45900002 L .77300005 .71000004 Z "/>
</symbol><use xlink:href="#font_2_3" transform="matrix(6.9738,0,0,-6.9738,103.80817,24.635449)"/>
<use xlink:href="#font_2_1" transform="matrix(6.9738,0,0,-6.9738,109.86839,25.988366)"/>
<path transform="matrix(1,0,0,-1,55.556,22.79097)" stroke-width=".39848" stroke-linecap="butt" stroke-miterlimit="10" stroke-linejoin="miter" fill="none" stroke="rgb(0,0,0)" d="M 8.46626 -16.92978 L 32.61768 -16.92978 "/>
<path transform="matrix(1,0,0,-1,88.37291,39.72075)" stroke-width=".39848" stroke-linecap="round" stroke-linejoin="round" fill="none" stroke="rgb(0,0,0)" d="M -2.07213 2.39091 C -1.69356 .95633 -.84995 .27893 0 0 C -.84995 -.27893 -1.69356 -.95633 -2.07213 -2.39091 "/>
<text fill-opacity="0" transform="matrix(1,0,0,1,4.5060006,-18.821034)" font-size="6.9738" font-family="CMMI7" x="67.292" y="65.175">
t
</text>
<use xlink:href="#font_2_4" transform="matrix(6.9738,0,0,-6.9738,72.090908,46.423707)"/>
<text fill-opacity="0" transform="matrix(1,0,0,1,4.5060006,-18.821034)" font-size="4.9813" font-family="CMMI5" x="70.301" y="66.177">
Y
</text>
<symbol id="font_3_2"><path d="M .69200001 .558 L .72 .58100005 C .74700003 .60300007 .786 .634 .856 .638 C .87 .63900004 .884 .63900004 .884 .666 C .884 .68 .87200003 .683 .86800004 .683 C .85400001 .683 .838 .68 .823 .68 C .808 .68 .792 .679 .776 .679 L .717 .68 C .70000005 .68 .68 .683 .663 .683 C .65000005 .683 .639 .67600008 .639 .65500002 C .639 .64100004 .651 .638 .658 .638 C .683 .637 .689 .63100005 .689 .624 C .689 .61 .665 .588 .657 .58000002 L .393 .32700003 L .23800002 .61200004 C .23200001 .62200003 .23200001 .624 .23200001 .625 C .23200001 .638 .27500005 .638 .283 .638 C .29800005 .638 .314 .638 .314 .666 C .314 .67800003 .30400003 .683 .296 .683 C .273 .683 .24700003 .68 .22400002 .68 C .2 .68 .17600002 .679 .152 .679 C .13100001 .679 .10900001 .68 .088 .68 C .075 .68 .025000006 .683 .024000004 .683 C .009999998 .683 0 .67600008 0 .65500002 C 0 .638 .013999999 .638 .032000006 .638 C .096 .638 .10000001 .63100005 .112 .609 L .29500003 .27400003 L .25 .091000004 C .23800002 .046000004 .23300002 .045 .159 .045 C .136 .045 .120000004 .045 .120000004 .017 C .120000004 .009000001 .127 0 .13800001 0 C .159 0 .18300002 .003 .205 .003 C .22900002 .003 .25300003 .004 .277 .004 C .302 .004 .32600003 .003 .351 .003 C .37300003 .003 .398 0 .41900004 0 C .426 0 .444 0 .444 .028 C .444 .045 .43 .045 .411 .045 C .40899997 .045 .385 .045 .36800004 .047000003 C .343 .049000001 .342 .05 .342 .058000002 C .342 .065000005 .342 .067 .35400004 .112 L .394 .273 L .69200001 .558 Z "/>
</symbol><use xlink:href="#font_3_2" transform="matrix(4.9813,0,0,-4.9813,75.33004,47.35597)"/>
</g>
</svg>
