<?xml version="1.0" standalone="no"?>
<!DOCTYPE svg PUBLIC "-//W3C//DTD SVG 1.1//EN" "http://www.w3.org/Graphics/SVG/1.1/DTD/svg11.dtd">
<svg xmlns="http://www.w3.org/2000/svg" xmlns:xlink="http://www.w3.org/1999/xlink" version="1.1" width="3.239135cm" height="2.71526cm" viewBox="0 0 91.818 76.968">
<clipPath id="cp0">
<path transform="matrix(1,0,0,-1,-85.68,725.922)" d="M 0 0 L 595.28 0 L 595.28 841.889963 L 0 841.889963 Z "/>
</clipPath>
<g clip-path="url(#cp0)">
<text fill-opacity="0" transform="matrix(1,0,0,1,-67.259,-8.531017)" font-size="9.9626" font-family="CMMI10" x="67.016" y="15.309">
X
</text>
<symbol id="font_1_3"><path d="M .458 .411 L .374 .61 C .37100003 .61800004 .36900001 .62200003 .36900001 .623 C .36900001 .629 .386 .648 .428 .652 C .43800002 .65300007 .448 .65400005 .448 .671 C .448 .683 .43600002 .683 .433 .683 C .39200001 .683 .349 .68 .307 .68 C .282 .68 .22000001 .683 .19500003 .683 C .18900001 .683 .17700002 .683 .17700002 .66300006 C .17700002 .652 .18700002 .652 .20000002 .652 C .26 .652 .266 .642 .275 .62 L .393 .34100003 L .18200001 .11400001 L .16900002 .10300001 C .12 .05 .073 .034 .022000002 .031000002 C .0090000019 .030000001 0 .030000001 0 .011000001 C 0 .010000001 0 0 .013000002 0 C .042999998 0 .076000004 .003 .107 .003 C .14400001 .003 .18300002 0 .21900001 0 C .22500001 0 .237 0 .237 .020000002 C .237 .030000001 .22700002 .031000002 .22500001 .031000002 C .21600002 .032 .18500002 .034 .18500002 .062000003 C .18500002 .078 .20000002 .094000006 .21200001 .10700001 L .314 .215 L .404 .31300002 L .505 .074 C .509 .063 .51 .062000003 .51 .060000001 C .51 .052 .491 .035 .45200003 .031000002 C .441 .030000001 .432 .029000001 .432 .012 C .432 0 .44300003 0 .44700003 0 C .47500001 0 .545 .003 .573 .003 C .598 .003 .65900002 0 .684 0 C .69100004 0 .703 0 .703 .019000001 C .703 .031000002 .693 .031000002 .685 .031000002 C .61800004 .032 .616 .035 .59900003 .075 C .56 .16800001 .49300004 .324 .47 .384 C .538 .45400004 .643 .573 .675 .601 C .704 .625 .74200006 .64900007 .80200005 .652 C .81500006 .65300007 .824 .65300007 .824 .67200003 C .824 .67300005 .824 .683 .81100007 .683 C .781 .683 .748 .68 .717 .68 C .68 .68 .642 .683 .606 .683 C .6 .683 .587 .683 .587 .66300006 C .587 .656 .592 .65300007 .59900003 .652 C .60800005 .651 .639 .64900007 .639 .62100006 C .639 .60700007 .628 .59400006 .62 .58500004 L .458 .411 Z "/>
</symbol><use xlink:href="#font_1_3" transform="matrix(9.9626,0,0,-9.9626,.025986355,6.7779828)"/>
<text fill-opacity="0" transform="matrix(1,0,0,1,-66.477008,-8.531017)" font-size="9.9626" font-family="CMMI10" x="107.759" y="47.342">
A
</text>
<symbol id="font_1_1"><path d="M .14400001 .115 C .10400002 .048 .065 .034 .021000002 .031000002 C .009000003 .030000001 0 .030000001 0 .011000001 C 0 .0050000005 .0050000029 0 .013 0 C .040000004 0 .07100001 .003 .09900001 .003 C .13200002 .003 .16700001 0 .19900002 0 C .20500002 0 .21800003 0 .21800003 .019000001 C .21800003 .030000001 .20900002 .031000002 .20200002 .031000002 C .17900002 .033 .15500002 .041 .15500002 .066 C .15500002 .078 .16100002 .089 .16900002 .10300001 L .245 .231 L .49600001 .231 C .49800005 .21000001 .512 .074 .512 .064 C .512 .034 .46000004 .031000002 .44000002 .031000002 C .42600003 .031000002 .41600004 .031000002 .41600004 .011000001 C .41600004 0 .42800003 0 .43000003 0 C .47100006 0 .514 .003 .555 .003 C .58 .003 .643 0 .668 0 C .674 0 .686 0 .686 .020000002 C .686 .031000002 .676 .031000002 .663 .031000002 C .601 .031000002 .601 .038000002 .598 .067 L .537 .69200001 C .535 .712 .535 .716 .518 .716 C .502 .716 .49800005 .70900007 .492 .69900008 L .14400001 .115 M .26400004 .26200003 L .46100002 .592 L .493 .26200003 L .26400004 .26200003 Z "/>
</symbol><use xlink:href="#font_1_1" transform="matrix(9.9626,0,0,-9.9626,41.630688,38.81098)"/>
<text fill-opacity="0" transform="matrix(1,0,0,1,-66.477,-8.531017)" font-size="9.9626" font-family="CMMI10" x="148.013" y="47.342">
A
</text>
<use xlink:href="#font_1_1" transform="matrix(9.9626,0,0,-9.9626,81.8847,38.81098)"/>
<text fill-opacity="0" transform="matrix(1,0,0,1,-66.477008,-8.5310135)" font-size="9.9626" font-family="CMMI10" x="107.759" y="79.374">
A
</text>
<use xlink:href="#font_1_1" transform="matrix(9.9626,0,0,-9.9626,41.630688,70.84299)"/>
<text fill-opacity="0" transform="matrix(1,0,0,1,-66.769,-8.5310135)" font-size="9.9626" font-family="CMMI10" x="148.013" y="79.374">
B
</text>
<symbol id="font_1_2"><path d="M .11800001 .078 C .108 .039 .106 .031000002 .027000003 .031000002 C .009999998 .031000002 0 .031000002 0 .011000001 C 0 0 .009 0 .027000003 0 L .38400004 0 C .54200006 0 .66 .11800001 .66 .216 C .66 .28800002 .60200005 .34600001 .50500007 .35700002 C .609 .37600003 .71400004 .45000001 .71400004 .545 C .71400004 .619 .64800005 .683 .52800007 .683 L .192 .683 C .17300001 .683 .16300002 .683 .16300002 .66300006 C .16300002 .652 .17200002 .652 .19100001 .652 C .19300002 .652 .21200001 .652 .22900003 .65000005 C .24700001 .648 .256 .647 .256 .634 C .256 .63000007 .25500002 .62700005 .252 .615 L .11800001 .078 M .26900003 .36600004 L .33100004 .614 C .34000004 .64900007 .342 .652 .38500002 .652 L .51400004 .652 C .60200005 .652 .623 .59300004 .623 .549 C .623 .46100002 .53700008 .36600004 .41500001 .36600004 L .26900003 .36600004 M .224 .031000002 C .21000001 .031000002 .208 .031000002 .20200002 .032 C .192 .033 .18900001 .034 .18900001 .042000003 C .18900001 .045 .18900001 .047000003 .194 .065000005 L .263 .344 L .45200003 .344 C .54800005 .344 .56700001 .27 .56700001 .22700002 C .56700001 .128 .47800005 .031000002 .36 .031000002 L .224 .031000002 Z "/>
</symbol><use xlink:href="#font_1_2" transform="matrix(9.9626,0,0,-9.9626,81.6624345,70.84299)"/>
<path transform="matrix(1,0,0,-1,44.529,35.405984)" stroke-width=".39848" stroke-linecap="butt" stroke-miterlimit="10" stroke-linejoin="miter" fill="none" stroke="rgb(0,0,0)" d="M -39.98264 24.78381 C -39.51279 .4422 -29.05066 -16.89656 -8.08417 -28.46799 "/>
<path transform="matrix(.87549,.48317,.48317,-.87549,36.61927,63.970223)" stroke-width=".39848" stroke-linecap="round" stroke-linejoin="round" fill="none" stroke="rgb(0,0,0)" d="M -2.07213 2.39091 C -1.69356 .95633 -.84995 .27893 0 0 C -.84995 -.27893 -1.69356 -.95633 -2.07213 -2.39091 "/>
<text fill-opacity="0" transform="matrix(1,0,0,1,-52.41,-31.966019)" font-size="6.9738" font-family="CMMI7" x="58.209" y="79.374">
u
</text>
<symbol id="font_2_3"><path d="M .37600003 .172 C .37100003 .15200001 .36200002 .114 .36 .113000009 C .34100003 .082 .30100003 .028 .23900001 .028 C .17 .028 .17 .093 .17 .111 C .17 .17000002 .198 .24100001 .226 .314 C .23400001 .334 .24 .349 .24 .365 C .24 .417 .19600001 .451 .145 .451 C .045000005 .451 0 .314 0 .298 C 0 .285 .014000002 .285 .017 .285 C .031 .285 .032 .29 .035 .301 C .059000005 .38300002 .103 .423 .142 .423 C .15900001 .423 .16700001 .412 .16700001 .388 C .16700001 .365 .15900001 .344 .149 .321 C .095 .18300002 .095 .15400002 .095 .127 C .095 .11 .095 .064 .132 .032 C .161 .008 .2 0 .235 0 C .29800005 0 .33200002 .034 .36500004 .066 C .38700003 .0020000003 .45400005 0 .46600003 0 C .50000005 0 .526 .020000002 .545 .053000002 C .56700001 .092 .58100005 .15 .58100005 .15300001 C .58100005 .16600001 .56700001 .16600001 .564 .16600001 C .55 .16600001 .549 .16200002 .54200006 .135 C .53000002 .088 .51100006 .028 .46900005 .028 C .44300003 .028 .43600002 .051000004 .43600002 .077 C .43600002 .094000006 .44400005 .13000001 .45100003 .15600002 C .458 .18300002 .46800005 .22400002 .47300005 .24600002 L .49600006 .335 C .50200005 .36 .513 .404 .513 .409 C .513 .42900001 .49700003 .441 .48000002 .441 C .44300003 .441 .43600002 .412 .42800003 .38 L .37600003 .172 Z "/>
</symbol><use xlink:href="#font_2_3" transform="matrix(6.9738,0,0,-6.9738,6.1267686,47.47772)"/>
<path transform="matrix(1,0,0,-1,44.529,35.405984)" stroke-width=".39848" stroke-linecap="butt" stroke-miterlimit="10" stroke-linejoin="miter" fill="none" stroke="rgb(0,0,0)" d="M -31.24742 32.45197 C -4.10759 36.732 16.99763 28.613 34.0237 7.5591 "/>
<path transform="matrix(.62878,.77754,.77754,-.62878,78.67796,28.001784)" stroke-width=".39848" stroke-linecap="round" stroke-linejoin="round" fill="none" stroke="rgb(0,0,0)" d="M -2.07213 2.39091 C -1.69356 .95633 -.84995 .27893 0 0 C -.84995 -.27893 -1.69356 -.95633 -2.07213 -2.39091 "/>
<text fill-opacity="0" transform="matrix(1,0,0,1,-6.124,-75.77902)" font-size="6.9738" font-family="CMMI7" x="58.209" y="79.374">
v
</text>
<symbol id="font_2_4"><path d="M .48700004 .373 C .48700004 .451 .44000002 .45200003 .43700004 .45200003 C .41100005 .45200003 .38300002 .425 .38300002 .39900003 C .38300002 .382 .39300004 .374 .40000005 .368 C .41700002 .354 .43700004 .328 .43700004 .28800002 C .43700004 .24300001 .37100003 .028 .25200004 .028 C .171 .028 .171 .1 .171 .117000009 C .171 .16300002 .18900001 .21900001 .226 .312 C .23400001 .333 .24 .34800003 .24 .365 C .24 .417 .19600001 .451 .145 .451 C .045000005 .451 0 .314 0 .298 C 0 .285 .014000002 .285 .017 .285 C .031 .285 .032 .29 .035 .301 C .059000005 .38300002 .102 .423 .142 .423 C .15900001 .423 .16700001 .412 .16700001 .388 C .16700001 .365 .15900001 .344 .149 .321 C .106000009 .21000001 .095 .16700001 .095 .13100001 C .095 .032 .17300001 0 .249 0 C .41700002 0 .48700004 .291 .48700004 .373 Z "/>
</symbol><use xlink:href="#font_2_4" transform="matrix(6.9738,0,0,-6.9738,52.41277,3.6647163)"/>
<path transform="matrix(1,0,0,-1,44.529,35.405984)" stroke-width=".39848" stroke-linecap="butt" stroke-miterlimit="10" stroke-linejoin="miter" fill="none" stroke="rgb(0,0,0)" d="M -32.19765 24.78381 L -8.04854 5.7973 "/>
<path transform="matrix(.7861,.61804,.61804,-.7861,36.63706,29.731823)" stroke-width=".39848" stroke-linecap="round" stroke-linejoin="round" fill="none" stroke="rgb(0,0,0)" d="M -2.07213 2.39091 C -1.69356 .95633 -.84995 .27893 0 0 C -.84995 -.27893 -1.69356 -.95633 -2.07213 -2.39091 "/>
<text fill-opacity="0" transform="matrix(1,0,0,1,-31.302,-61.47902)" font-size="6.9738" font-family="CMMI7" x="58.209" y="79.374">
h
</text>
<symbol id="font_2_2"><path d="M .23800002 .674 C .23900001 .676 .242 .689 .242 .69 C .242 .69500008 .23800002 .704 .22600003 .704 C .20600002 .704 .12300001 .69600006 .098000002 .694 C .09 .693 .076000004 .69200001 .076000004 .671 C .076000004 .657 .09 .657 .102 .657 C .15 .657 .15 .65000005 .15 .642 C .15 .635 .148 .629 .14600002 .62 L .0050000029 .054000006 C 0 .036000002 0 .034 0 .032 C 0 .017 .012000002 0 .034 0 C .045 0 .06400001 .0050000005 .075 .026 C .07800001 .032 .087 .068 .09200001 .089 L .11500001 .17800002 C .118 .19300002 .128 .23100002 .13100001 .24600002 C .141 .284 .141 .285 .16100002 .317 C .193 .366 .24300001 .423 .32100005 .423 C .37700004 .423 .38 .377 .38 .35300002 C .38 .293 .337 .18200001 .32100005 .14000001 C .31 .112 .306 .103 .306 .086 C .306 .033000005 .35000003 0 .40100003 0 C .50100003 0 .545 .13800001 .545 .15300001 C .545 .16600001 .53200007 .16600001 .52900005 .16600001 C .51500006 .16600001 .51400004 .16000001 .51000004 .14900002 C .48700004 .069000006 .44300003 .028 .40400005 .028 C .38300002 .028 .379 .042000003 .379 .063 C .379 .086 .384 .099 .402 .14400001 C .41400004 .17500001 .45500003 .28100003 .45500003 .337 C .45500003 .35300002 .45500003 .395 .41800004 .42400003 C .40100003 .437 .37200003 .451 .325 .451 C .25200004 .451 .19900002 .411 .16200002 .368 L .23800002 .674 Z "/>
</symbol><use xlink:href="#font_2_2" transform="matrix(6.9738,0,0,-6.9738,27.430035,17.96472)"/>
<path transform="matrix(1,0,0,-1,44.529,35.405984)" stroke-width=".39848" stroke-linecap="butt" stroke-miterlimit="10" stroke-linejoin="miter" fill="none" stroke="rgb(0,0,0)" d="M 8.71428 -.91324 L 32.12022 -.91324 "/>
<path transform="matrix(1,0,0,-1,76.848465,36.31922)" stroke-width=".39848" stroke-linecap="round" stroke-linejoin="round" fill="none" stroke="rgb(0,0,0)" d="M -2.07213 2.39091 C -1.69356 .95633 -.84995 .27893 0 0 C -.84995 -.27893 -1.69356 -.95633 -2.07213 -2.39091 "/>
<text fill-opacity="0" transform="matrix(1,0,0,1,.7789993,-46.401018)" font-size="6.9738" font-family="CMR7" x="58.209 60.461536" y="79.374 79.374">
id
</text>
<symbol id="font_3_3"><path d="M .155 .61700006 C .155 .646 .13100001 .674 .09700001 .674 C .067 .674 .04 .65000005 .04 .61700006 C .04 .58100005 .069 .559 .09700001 .559 C .12900001 .559 .155 .58400007 .155 .61700006 M .0030000024 .43 L .0030000024 .39400003 C .06600001 .39400003 .07500001 .388 .07500001 .33900002 L .07500001 .079 C .07500001 .036000002 .065000005 .036000002 0 .036000002 L 0 0 C .0020000003 0 .072000003 .004 .11200001 .004 C .14700002 .004 .183 .003 .21800003 0 L .21800003 .036000002 C .16 .036000002 .15 .036000002 .15 .078 L .15 .441 L .0030000024 .43 Z "/>
</symbol><symbol id="font_3_2"><path d="M .31 .693 L .31 .657 C .377 .657 .38500002 .65000005 .38500002 .601 L .38500002 .394 C .34800003 .43 .3 .451 .245 .451 C .112 .451 0 .351 0 .22500001 C 0 .1 .106000009 0 .23300001 0 C .31500004 0 .36400003 .044000005 .381 .062000003 L .381 0 L .535 .010000001 L .535 .046000004 C .468 .046000004 .46000004 .053000002 .46000004 .102000009 L .46000004 .704 L .31 .693 M .381 .115 C .35500002 .068 .30400003 .028 .23900002 .028 C .18300002 .028 .143 .061000004 .12300001 .09 C .103 .120000004 .091000004 .16000001 .091000004 .22400002 C .091000004 .24700003 .091000004 .322 .132 .36900001 C .172 .414 .22100001 .423 .25 .423 C .298 .423 .34100003 .40100003 .36900001 .365 C .381 .349 .381 .34800003 .381 .329 L .381 .115 Z "/>
</symbol><use xlink:href="#font_3_3" transform="matrix(6.9738,0,0,-6.9738,59.378534,32.972985)"/>
<use xlink:href="#font_3_2" transform="matrix(6.9738,0,0,-6.9738,61.56133,33.04272)"/>
<text fill-opacity="0" transform="matrix(1,0,0,1,.7789993,-46.401018)" font-size="4.9813" font-family="CMMI5" x="64.865" y="80.3760041">
A
</text>
<symbol id="font_4_1"><path d="M .623 .689 C .6190001 .71000004 .615 .716 .59300004 .716 C .569 .716 .5630001 .708 .553 .693 L .16100002 .125 C .119 .064 .08400001 .048 .019000001 .045 C 0 .044000005 0 .018000001 0 .017 C 0 .003 .012000002 0 .016000003 0 C .030000001 0 .047000007 .003 .061000004 .003 C .07800001 .003 .09500001 .004 .112 .004 C .13100001 .004 .14900002 .003 .16700003 .003 C .185 .003 .206 0 .224 0 C .231 0 .24800003 0 .24800003 .028 C .24800003 .044000005 .23300001 .045 .229 .045 C .22100001 .045 .18200001 .047000003 .18200001 .071 C .18200001 .083000002 .194 .1 .201 .11000001 L .27400003 .21700001 C .279 .223 .28 .224 .29900003 .224 L .602 .224 C .604 .21200001 .605 .20700002 .60800005 .19500001 C .61100007 .177 .63100005 .07700001 .63100005 .067 C .63100005 .045 .5680001 .045 .5630001 .045 C .548 .045 .53200007 .045 .53200007 .017 C .53200007 .007 .53900004 0 .5500001 0 C .571 0 .595 .003 .617 .003 C .64100004 .003 .66400004 .004 .6880001 .004 C .709 .004 .73100005 .003 .7520001 .003 C .7720001 .003 .7950001 0 .81500006 0 C .832 0 .838999948 .012 .838999948 .028 C .838999948 .045 .8230001 .045 .809 .045 C .74300004 .045 .742 .052 .73800002 .074 L .623 .689 M .533 .59300004 L .594 .26900003 L .31000004 .26900003 L .533 .59300004 Z "/>
</symbol><use xlink:href="#font_4_1" transform="matrix(4.9813,0,0,-4.9813,66.162057,33.974984)"/>
<text fill-opacity="0" transform="matrix(1,0,0,1,3.8780003,-38.032017)" font-size="6.9738" font-family="CMR7" x="58.209" y="79.374">
=
</text>
<symbol id="font_3_1"><path d="M .698 .22000003 C .71300006 .22000003 .73600007 .22000003 .73600007 .24500003 C .73600007 .26900003 .7120001 .26900003 .69900008 .26900003 L .037000008 .26900003 C .024000004 .26900003 0 .26900003 0 .24500003 C 0 .22000003 .023000002 .22000003 .038000002 .22000003 L .698 .22000003 M .69900008 0 C .7120001 0 .73600007 0 .73600007 .023999997 C .73600007 .049000001 .71300006 .049000001 .698 .049000001 L .038000002 .049000001 C .023000002 .049000001 0 .049000001 0 .023999997 C 0 0 .024000004 0 .037000008 0 L .69900008 0 Z "/>
</symbol><use xlink:href="#font_3_1" transform="matrix(6.9738,0,0,-6.9738,62.575164,40.533023)"/>
<path transform="matrix(1,0,0,-1,44.529,35.405984)" stroke-width=".39848" stroke-linecap="butt" stroke-miterlimit="10" stroke-linejoin="miter" fill="none" stroke="rgb(0,0,0)" d="M .48949 -7.24928 L .48949 -24.38533 "/>
<path transform="matrix(0,1,1,0,45.01849,59.990545)" stroke-width=".39848" stroke-linecap="round" stroke-linejoin="round" fill="none" stroke="rgb(0,0,0)" d="M -2.07213 2.39091 C -1.69356 .95633 -.84995 .27893 0 0 C -.84995 -.27893 -1.69356 -.95633 -2.07213 -2.39091 "/>
<text fill-opacity="0" transform="matrix(1,0,0,1,-10.847,-26.612017)" font-size="6.9738" font-family="CMR7" x="58.209" y="79.374">
=
</text>
<use xlink:href="#font_3_1" transform="matrix(6.9738,0,0,-6.9738,47.850166,51.953025)"/>
<text fill-opacity="0" transform="matrix(1,0,0,1,-27.85,-26.031018)" font-size="6.9738" font-family="CMR7" x="58.209 60.461536" y="79.374 79.374">
id
</text>
<use xlink:href="#font_3_3" transform="matrix(6.9738,0,0,-6.9738,30.749533,53.342985)"/>
<use xlink:href="#font_3_2" transform="matrix(6.9738,0,0,-6.9738,32.932327,53.41272)"/>
<text fill-opacity="0" transform="matrix(1,0,0,1,-27.85,-26.031018)" font-size="4.9813" font-family="CMMI5" x="64.865" y="80.3760041">
A
</text>
<use xlink:href="#font_4_1" transform="matrix(4.9813,0,0,-4.9813,37.533055,54.344984)"/>
<path transform="matrix(1,0,0,-1,44.529,35.405984)" stroke-width=".39848" stroke-linecap="butt" stroke-miterlimit="10" stroke-linejoin="miter" fill="none" stroke="rgb(0,0,0)" d="M 40.7435 -7.24928 L 40.7435 -24.38533 "/>
<path transform="matrix(0,1,1,0,85.2725,59.990545)" stroke-width=".39848" stroke-linecap="round" stroke-linejoin="round" fill="none" stroke="rgb(0,0,0)" d="M -2.07213 2.39091 C -1.69356 .95633 -.84995 .27893 0 0 C -.84995 -.27893 -1.69356 -.95633 -2.07213 -2.39091 "/>
<text fill-opacity="0" transform="matrix(1,0,0,1,29.407002,-26.208017)" font-size="6.9738" font-family="CMMI7" x="58.209" y="79.374">
f
</text>
<symbol id="font_2_1"><path d="M .334 .59900003 L .43199997 .59900003 C .45200003 .59900003 .46500004 .59900003 .46500004 .62100006 C .46500004 .63500004 .45200003 .63500004 .43400002 .63500004 L .34100003 .63500004 C .364 .762 .372 .808 .38 .837 C .38500002 .859 .407 .88000003 .431 .88000003 C .43199997 .88000003 .459 .88000003 .478 .86800004 C .43700004 .855 .43400002 .819000043 .43400002 .813 C .43400002 .791 .45100003 .776 .47400003 .776 C .501 .776 .531 .799 .531 .837 C .531 .883 .482 .90800008 .431 .90800008 C .387 .90800008 .338 .883 .311 .833 C .291 .796 .283 .75100003 .262 .63500004 L .183 .63500004 C .16300002 .63500004 .15 .63500004 .15 .61300002 C .15 .59900003 .16300002 .59900003 .181 .59900003 L .255 .59900003 C .254 .59300004 .19099999 .23300001 .167 .12600002 C .162 .10400001 .14500001 .027999998 .096999999 .027999998 C .09600001 .027999998 .072000003 .027999998 .052999997 .040000005 C .094000006 .053000002 .096999999 .08900001 .096999999 .095000009 C .096999999 .117000009 .080000009 .132 .057000003 .132 C .030000001 .132 0 .109000003 0 .07100001 C 0 .026000008 .047 0 .096999999 0 C .16100002 0 .20500002 .066 .21700001 .08800001 C .253 .155 .276 .278 .278 .29000001 L .334 .59900003 Z "/>
</symbol><use xlink:href="#font_2_1" transform="matrix(6.9738,0,0,-6.9738,88.125086,54.588643)"/>
<path transform="matrix(1,0,0,-1,44.529,35.405984)" stroke-width=".39848" stroke-linecap="butt" stroke-miterlimit="10" stroke-linejoin="miter" fill="none" stroke="rgb(0,0,0)" d="M 8.71428 -32.94635 L 31.82791 -32.94635 "/>
<path transform="matrix(1,0,0,-1,76.55616,68.35233)" stroke-width=".39848" stroke-linecap="round" stroke-linejoin="round" fill="none" stroke="rgb(0,0,0)" d="M -2.07213 2.39091 C -1.69356 .95633 -.84995 .27893 0 0 C -.84995 -.27893 -1.69356 -.95633 -2.07213 -2.39091 "/>
<text fill-opacity="0" transform="matrix(1,0,0,1,4.456999,-3.8350182)" font-size="6.9738" font-family="CMMI7" x="58.209" y="79.374">
f
</text>
<use xlink:href="#font_2_1" transform="matrix(6.9738,0,0,-6.9738,63.175087,76.96164)"/>
</g>
</svg>
