<?xml version="1.0" standalone="no"?>
<!DOCTYPE svg PUBLIC "-//W3C//DTD SVG 1.1//EN" "http://www.w3.org/Graphics/SVG/1.1/DTD/svg11.dtd">
<svg xmlns="http://www.w3.org/2000/svg" xmlns:xlink="http://www.w3.org/1999/xlink" version="1.1" width="2.15519cm" height="1.72212cm" viewBox="0 0 61.092 48.816">
<clipPath id="cp0">
<path transform="matrix(1,0,0,-1,-83.646,727.43393)" d="M 0 0 L 595.28 0 L 595.28 841.889963 L 0 841.889963 Z "/>
</clipPath>
<g clip-path="url(#cp0)">
<text fill-opacity="0" transform="matrix(1,0,0,1,-43.681005,-23.036055)" font-size="9.9626" font-family="CMMI10" x="54.25" y="33.695">
A
</text>
<symbol id="font_1_1"><path d="M .14400001 .115 C .10400002 .048 .065 .034 .021000002 .031000002 C .009000003 .030000001 0 .030000001 0 .011000001 C 0 .0050000005 .0050000029 0 .013 0 C .040000004 0 .07100001 .003 .09900001 .003 C .13200002 .003 .16700001 0 .19900002 0 C .20500002 0 .21800003 0 .21800003 .019000001 C .21800003 .030000001 .20900002 .031000002 .20200002 .031000002 C .17900002 .033 .15500002 .041 .15500002 .066 C .15500002 .078 .16100002 .089 .16900002 .10300001 L .245 .231 L .49600001 .231 C .49800005 .21000001 .512 .074 .512 .064 C .512 .034 .46000004 .031000002 .44000002 .031000002 C .42600003 .031000002 .41600004 .031000002 .41600004 .011000001 C .41600004 0 .42800003 0 .43000003 0 C .47100006 0 .514 .003 .555 .003 C .58 .003 .643 0 .668 0 C .674 0 .686 0 .686 .020000002 C .686 .031000002 .676 .031000002 .663 .031000002 C .601 .031000002 .601 .038000002 .598 .067 L .537 .69200001 C .535 .712 .535 .716 .518 .716 C .502 .716 .49800005 .70900007 .492 .69900008 L .14400001 .115 M .26400004 .26200003 L .46100002 .592 L .493 .26200003 L .26400004 .26200003 Z "/>
</symbol><use xlink:href="#font_1_1" transform="matrix(9.9626,0,0,-9.9626,10.917687,10.658945)"/>
<text fill-opacity="0" transform="matrix(1,0,0,1,-43.681005,-23.036055)" font-size="9.9626" font-family="CMMI10" x="94.5040025" y="33.695">
A
</text>
<use xlink:href="#font_1_1" transform="matrix(9.9626,0,0,-9.9626,51.171685,10.658945)"/>
<text fill-opacity="0" transform="matrix(1,0,0,1,-43.681005,-23.036057)" font-size="9.9626" font-family="CMMI10" x="54.25" y="65.728">
A
</text>
<use xlink:href="#font_1_1" transform="matrix(9.9626,0,0,-9.9626,10.917687,42.69194)"/>
<text fill-opacity="0" transform="matrix(1,0,0,1,-43.973003,-23.036057)" font-size="9.9626" font-family="CMMI10" x="94.5040025" y="65.728">
B
</text>
<symbol id="font_1_2"><path d="M .11800001 .078 C .108 .039 .106 .031000002 .027000003 .031000002 C .009999998 .031000002 0 .031000002 0 .011000001 C 0 0 .009 0 .027000003 0 L .38400004 0 C .54200006 0 .66 .11800001 .66 .216 C .66 .28800002 .60200005 .34600001 .50500007 .35700002 C .609 .37600003 .71400004 .45000001 .71400004 .545 C .71400004 .619 .64800005 .683 .52800007 .683 L .192 .683 C .17300001 .683 .16300002 .683 .16300002 .66300006 C .16300002 .652 .17200002 .652 .19100001 .652 C .19300002 .652 .21200001 .652 .22900003 .65000005 C .24700001 .648 .256 .647 .256 .634 C .256 .63000007 .25500002 .62700005 .252 .615 L .11800001 .078 M .26900003 .36600004 L .33100004 .614 C .34000004 .64900007 .342 .652 .38500002 .652 L .51400004 .652 C .60200005 .652 .623 .59300004 .623 .549 C .623 .46100002 .53700008 .36600004 .41500001 .36600004 L .26900003 .36600004 M .224 .031000002 C .21000001 .031000002 .208 .031000002 .20200002 .032 C .192 .033 .18900001 .034 .18900001 .042000003 C .18900001 .045 .18900001 .047000003 .194 .065000005 L .263 .344 L .45200003 .344 C .54800005 .344 .56700001 .27 .56700001 .22700002 C .56700001 .128 .47800005 .031000002 .36 .031000002 L .224 .031000002 Z "/>
</symbol><use xlink:href="#font_1_2" transform="matrix(9.9626,0,0,-9.9626,50.949426,42.69194)"/>
<path transform="matrix(1,0,0,-1,34.578996,23.271943)" stroke-width=".39848" stroke-linecap="butt" stroke-miterlimit="10" stroke-linejoin="miter" fill="none" stroke="rgb(0,0,0)" d="M -12.04836 15.10332 L 11.35757 15.10332 "/>
<path transform="matrix(1,0,0,-1,46.135803,8.168622)" stroke-width=".39848" stroke-linecap="round" stroke-linejoin="round" fill="none" stroke="rgb(0,0,0)" d="M -2.07213 2.39091 C -1.69356 .95633 -.84995 .27893 0 0 C -.84995 -.27893 -1.69356 -.95633 -2.07213 -2.39091 "/>
<text fill-opacity="0" transform="matrix(1,0,0,1,-17.950005,-60.905052)" font-size="6.9738" font-family="CMR7" x="46.225 48.477536" y="65.728 65.728">
id
</text>
<symbol id="font_2_3"><path d="M .155 .61700006 C .155 .646 .13100001 .674 .09700001 .674 C .067 .674 .04 .65000005 .04 .61700006 C .04 .58100005 .069 .559 .09700001 .559 C .12900001 .559 .155 .58400007 .155 .61700006 M .0030000024 .43 L .0030000024 .39400003 C .06600001 .39400003 .07500001 .388 .07500001 .33900002 L .07500001 .079 C .07500001 .036000002 .065000005 .036000002 0 .036000002 L 0 0 C .0020000003 0 .072000003 .004 .11200001 .004 C .14700002 .004 .183 .003 .21800003 0 L .21800003 .036000002 C .16 .036000002 .15 .036000002 .15 .078 L .15 .441 L .0030000024 .43 Z "/>
</symbol><symbol id="font_2_2"><path d="M .31 .693 L .31 .657 C .377 .657 .38500002 .65000005 .38500002 .601 L .38500002 .394 C .34800003 .43 .3 .451 .245 .451 C .112 .451 0 .351 0 .22500001 C 0 .1 .106000009 0 .23300001 0 C .31500004 0 .36400003 .044000005 .381 .062000003 L .381 0 L .535 .010000001 L .535 .046000004 C .468 .046000004 .46000004 .053000002 .46000004 .102000009 L .46000004 .704 L .31 .693 M .381 .115 C .35500002 .068 .30400003 .028 .23900002 .028 C .18300002 .028 .143 .061000004 .12300001 .09 C .103 .120000004 .091000004 .16000001 .091000004 .22400002 C .091000004 .24700003 .091000004 .322 .132 .36900001 C .172 .414 .22100001 .423 .25 .423 C .298 .423 .34100003 .40100003 .36900001 .365 C .381 .349 .381 .34800003 .381 .329 L .381 .115 Z "/>
</symbol><use xlink:href="#font_2_3" transform="matrix(6.9738,0,0,-6.9738,28.665528,4.8229447)"/>
<use xlink:href="#font_2_2" transform="matrix(6.9738,0,0,-6.9738,30.848326,4.8926826)"/>
<text fill-opacity="0" transform="matrix(1,0,0,1,-17.950005,-60.905052)" font-size="4.9813" font-family="CMMI5" x="52.879997" y="66.729999">
A
</text>
<symbol id="font_3_1"><path d="M .623 .689 C .6190001 .71000004 .615 .716 .59300004 .716 C .569 .716 .5630001 .708 .553 .693 L .16100002 .125 C .119 .064 .08400001 .048 .019000001 .045 C 0 .044000005 0 .018000001 0 .017 C 0 .003 .012000002 0 .016000003 0 C .030000001 0 .047000007 .003 .061000004 .003 C .07800001 .003 .09500001 .004 .112 .004 C .13100001 .004 .14900002 .003 .16700003 .003 C .185 .003 .206 0 .224 0 C .231 0 .24800003 0 .24800003 .028 C .24800003 .044000005 .23300001 .045 .229 .045 C .22100001 .045 .18200001 .047000003 .18200001 .071 C .18200001 .083000002 .194 .1 .201 .11000001 L .27400003 .21700001 C .279 .223 .28 .224 .29900003 .224 L .602 .224 C .604 .21200001 .605 .20700002 .60800005 .19500001 C .61100007 .177 .63100005 .07700001 .63100005 .067 C .63100005 .045 .5680001 .045 .5630001 .045 C .548 .045 .53200007 .045 .53200007 .017 C .53200007 .007 .53900004 0 .5500001 0 C .571 0 .595 .003 .617 .003 C .64100004 .003 .66400004 .004 .6880001 .004 C .709 .004 .73100005 .003 .7520001 .003 C .7720001 .003 .7950001 0 .81500006 0 C .832 0 .838999948 .012 .838999948 .028 C .838999948 .045 .8230001 .045 .809 .045 C .74300004 .045 .742 .052 .73800002 .074 L .623 .689 M .533 .59300004 L .594 .26900003 L .31000004 .26900003 L .533 .59300004 Z "/>
</symbol><use xlink:href="#font_3_1" transform="matrix(4.9813,0,0,-4.9813,35.448049,5.8249436)"/>
<text fill-opacity="0" transform="matrix(1,0,0,1,-14.850004,-52.537056)" font-size="6.9738" font-family="CMR7" x="46.225" y="65.728">
=
</text>
<symbol id="font_2_1"><path d="M .698 .22000003 C .71300006 .22000003 .73600007 .22000003 .73600007 .24500003 C .73600007 .26900003 .7120001 .26900003 .69900008 .26900003 L .037000008 .26900003 C .024000004 .26900003 0 .26900003 0 .24500003 C 0 .22000003 .023000002 .22000003 .038000002 .22000003 L .698 .22000003 M .69900008 0 C .7120001 0 .73600007 0 .73600007 .023999997 C .73600007 .049000001 .71300006 .049000001 .698 .049000001 L .038000002 .049000001 C .023000002 .049000001 0 .049000001 0 .023999997 C 0 0 .024000004 0 .037000008 0 L .69900008 0 Z "/>
</symbol><use xlink:href="#font_2_1" transform="matrix(6.9738,0,0,-6.9738,31.863162,12.38198)"/>
<path transform="matrix(1,0,0,-1,34.578996,23.271943)" stroke-width=".39848" stroke-linecap="butt" stroke-miterlimit="10" stroke-linejoin="miter" fill="none" stroke="rgb(0,0,0)" d="M -20.27315 8.76726 L -20.27315 -8.36877 "/>
<path transform="matrix(0,1,1,0,14.305845,31.839953)" stroke-width=".39848" stroke-linecap="round" stroke-linejoin="round" fill="none" stroke="rgb(0,0,0)" d="M -2.07213 2.39091 C -1.69356 .95633 -.84995 .27893 0 0 C -.84995 -.27893 -1.69356 -.95633 -2.07213 -2.39091 "/>
<text fill-opacity="0" transform="matrix(1,0,0,1,-29.575005,-41.117054)" font-size="6.9738" font-family="CMR7" x="46.225" y="65.728">
=
</text>
<use xlink:href="#font_2_1" transform="matrix(6.9738,0,0,-6.9738,17.13816,23.801983)"/>
<text fill-opacity="0" transform="matrix(1,0,0,1,-46.578002,-40.535055)" font-size="6.9738" font-family="CMR7" x="46.225 48.477536" y="65.728 65.728">
id
</text>
<use xlink:href="#font_2_3" transform="matrix(6.9738,0,0,-6.9738,.037528367,25.192944)"/>
<use xlink:href="#font_2_2" transform="matrix(6.9738,0,0,-6.9738,2.2203272,25.262682)"/>
<text fill-opacity="0" transform="matrix(1,0,0,1,-46.578002,-40.535055)" font-size="4.9813" font-family="CMMI5" x="52.879997" y="66.729999">
A
</text>
<use xlink:href="#font_3_1" transform="matrix(4.9813,0,0,-4.9813,6.8200493,26.194942)"/>
<path transform="matrix(1,0,0,-1,34.578996,23.271943)" stroke-width=".39848" stroke-linecap="butt" stroke-miterlimit="10" stroke-linejoin="miter" fill="none" stroke="rgb(0,0,0)" d="M 19.98085 8.76726 L 19.98085 -8.36877 "/>
<path transform="matrix(0,1,1,0,54.559846,31.839953)" stroke-width=".39848" stroke-linecap="round" stroke-linejoin="round" fill="none" stroke="rgb(0,0,0)" d="M -2.07213 2.39091 C -1.69356 .95633 -.84995 .27893 0 0 C -.84995 -.27893 -1.69356 -.95633 -2.07213 -2.39091 "/>
<text fill-opacity="0" transform="matrix(1,0,0,1,10.678997,-40.713056)" font-size="6.9738" font-family="CMMI7" x="46.225" y="65.728">
f
</text>
<symbol id="font_4_1"><path d="M .334 .59900003 L .43199997 .59900003 C .45200003 .59900003 .46500004 .59900003 .46500004 .62100006 C .46500004 .63500004 .45200003 .63500004 .43400002 .63500004 L .34100003 .63500004 C .364 .762 .372 .808 .38 .837 C .38500002 .859 .407 .88000003 .431 .88000003 C .43199997 .88000003 .459 .88000003 .478 .86800004 C .43700004 .855 .43400002 .819000043 .43400002 .813 C .43400002 .791 .45100003 .776 .47400003 .776 C .501 .776 .531 .799 .531 .837 C .531 .883 .482 .90800008 .431 .90800008 C .387 .90800008 .338 .883 .311 .833 C .291 .796 .283 .75100003 .262 .63500004 L .183 .63500004 C .16300002 .63500004 .15 .63500004 .15 .61300002 C .15 .59900003 .16300002 .59900003 .181 .59900003 L .255 .59900003 C .254 .59300004 .19099999 .23300001 .167 .12600002 C .162 .10400001 .14500001 .027999998 .096999999 .027999998 C .09600001 .027999998 .072000003 .027999998 .052999997 .040000005 C .094000006 .053000002 .096999999 .08900001 .096999999 .095000009 C .096999999 .117000009 .080000009 .132 .057000003 .132 C .030000001 .132 0 .109000003 0 .07100001 C 0 .026000008 .047 0 .096999999 0 C .16100002 0 .20500002 .066 .21700001 .08800001 C .253 .155 .276 .278 .278 .29000001 L .334 .59900003 Z "/>
</symbol><use xlink:href="#font_4_1" transform="matrix(6.9738,0,0,-6.9738,57.413083,26.437598)"/>
<path transform="matrix(1,0,0,-1,34.578996,23.271943)" stroke-width=".39848" stroke-linecap="butt" stroke-miterlimit="10" stroke-linejoin="miter" fill="none" stroke="rgb(0,0,0)" d="M -12.04836 -16.92978 L 11.06526 -16.92978 "/>
<path transform="matrix(1,0,0,-1,45.843506,40.20172)" stroke-width=".39848" stroke-linecap="round" stroke-linejoin="round" fill="none" stroke="rgb(0,0,0)" d="M -2.07213 2.39091 C -1.69356 .95633 -.84995 .27893 0 0 C -.84995 -.27893 -1.69356 -.95633 -2.07213 -2.39091 "/>
<text fill-opacity="0" transform="matrix(1,0,0,1,-14.272003,-18.339055)" font-size="6.9738" font-family="CMMI7" x="46.225" y="65.728">
f
</text>
<use xlink:href="#font_4_1" transform="matrix(6.9738,0,0,-6.9738,32.462082,48.8116)"/>
</g>
</svg>
