<?xml version="1.0" standalone="no"?>
<!DOCTYPE svg PUBLIC "-//W3C//DTD SVG 1.1//EN" "http://www.w3.org/Graphics/SVG/1.1/DTD/svg11.dtd">
<svg xmlns="http://www.w3.org/2000/svg" xmlns:xlink="http://www.w3.org/1999/xlink" version="1.1" width="2.2580603cm" height="1.369695cm" viewBox="0 0 64.008 38.826">
<clipPath id="cp0">
<path transform="matrix(1,0,0,-1,-83.736,725.94)" d="M 0 0 L 595.28 0 L 595.28 841.889963 L 0 841.889963 Z "/>
</clipPath>
<g clip-path="url(#cp0)">
<text fill-opacity="0" transform="matrix(1,0,0,1,-49.719,-24.530013)" font-size="9.9626" font-family="CMMI10" x="51.42" y="31.325">
X
</text>
<symbol id="font_1_2"><path d="M .458 .411 L .374 .61 C .37100003 .61800004 .36900001 .62200003 .36900001 .623 C .36900001 .629 .386 .648 .428 .652 C .43800002 .65300007 .448 .65400005 .448 .671 C .448 .683 .43600002 .683 .433 .683 C .39200001 .683 .349 .68 .307 .68 C .282 .68 .22000001 .683 .19500003 .683 C .18900001 .683 .17700002 .683 .17700002 .66300006 C .17700002 .652 .18700002 .652 .20000002 .652 C .26 .652 .266 .642 .275 .62 L .393 .34100003 L .18200001 .11400001 L .16900002 .10300001 C .12 .05 .073 .034 .022000002 .031000002 C .0090000019 .030000001 0 .030000001 0 .011000001 C 0 .010000001 0 0 .013000002 0 C .042999998 0 .076000004 .003 .107 .003 C .14400001 .003 .18300002 0 .21900001 0 C .22500001 0 .237 0 .237 .020000002 C .237 .030000001 .22700002 .031000002 .22500001 .031000002 C .21600002 .032 .18500002 .034 .18500002 .062000003 C .18500002 .078 .20000002 .094000006 .21200001 .10700001 L .314 .215 L .404 .31300002 L .505 .074 C .509 .063 .51 .062000003 .51 .060000001 C .51 .052 .491 .035 .45200003 .031000002 C .441 .030000001 .432 .029000001 .432 .012 C .432 0 .44300003 0 .44700003 0 C .47500001 0 .545 .003 .573 .003 C .598 .003 .65900002 0 .684 0 C .69100004 0 .703 0 .703 .019000001 C .703 .031000002 .693 .031000002 .685 .031000002 C .61800004 .032 .616 .035 .59900003 .075 C .56 .16800001 .49300004 .324 .47 .384 C .538 .45400004 .643 .573 .675 .601 C .704 .625 .74200006 .64900007 .80200005 .652 C .81500006 .65300007 .824 .65300007 .824 .67200003 C .824 .67300005 .824 .683 .81100007 .683 C .781 .683 .748 .68 .717 .68 C .68 .68 .642 .683 .606 .683 C .6 .683 .587 .683 .587 .66300006 C .587 .656 .592 .65300007 .59900003 .652 C .60800005 .651 .639 .64900007 .639 .62100006 C .639 .60700007 .628 .59400006 .62 .58500004 L .458 .411 Z "/>
</symbol><use xlink:href="#font_1_2" transform="matrix(9.9626,0,0,-9.9626,1.9699866,6.7949887)"/>
<text fill-opacity="0" transform="matrix(1,0,0,1,-53.614,-24.530013)" font-size="9.9626" font-family="CMMI10" x="96.84 104.62079" y="31.325 31.325">
FX
</text>
<symbol id="font_1_1"><path d="M .265 .32500003 L .362 .32500003 C .43700004 .32500003 .445 .30900002 .445 .28 C .445 .273 .445 .261 .43800002 .231 C .43600006 .22600001 .435 .22200002 .435 .22000001 C .435 .21200001 .44100004 .208 .44700003 .208 C .45700002 .208 .45700002 .21100001 .462 .22900002 L .517 .446 C .52000003 .45700002 .52000003 .45900002 .52000003 .462 C .52000003 .46400003 .51800008 .47300001 .508 .47300001 C .49800004 .47300001 .49700003 .46800003 .49300004 .45200003 C .47200007 .374 .449 .356 .36400003 .356 L .273 .356 L .337 .61 C .34600001 .64500003 .347 .64900007 .39100004 .64900007 L .52300005 .64900007 C .646 .64900007 .669 .61600008 .669 .53900004 C .669 .51600004 .669 .512 .66600009 .485 C .66400004 .47200003 .66400004 .47000003 .66400004 .467 C .66400004 .462 .66700006 .455 .67600008 .455 C .68700004 .455 .688 .46100002 .69000006 .48000002 L .71000004 .65300007 C .71300006 .68 .70800009 .68 .683 .68 L .193 .68 C .17300001 .68 .163 .68 .163 .66 C .163 .64900007 .172 .64900007 .19100001 .64900007 C .228 .64900007 .25599999 .64900007 .25599999 .63100005 C .25599999 .62700005 .25599999 .625 .251 .60700007 L .119 .078 C .109 .039 .10700001 .031000002 .027999998 .031000002 C .011 .031000002 0 .031000002 0 .012 C 0 0 .011999998 0 .015000001 0 C .044 0 .118 .003 .147 .003 C .18 .003 .263 0 .296 0 C .305 0 .31700004 0 .31700004 .019000001 C .31700004 .027 .311 .029000001 .311 .030000001 C .30800004 .031000002 .306 .031000002 .283 .031000002 C .26100004 .031000002 .25599999 .031000002 .23100002 .033 C .202 .036000002 .19900002 .040000004 .19900002 .053000002 C .19900002 .055000005 .19900002 .061000004 .20300001 .076000004 L .265 .32500003 Z "/>
</symbol><use xlink:href="#font_1_1" transform="matrix(9.9626,0,0,-9.9626,43.604578,6.7949887)"/>
<use xlink:href="#font_1_2" transform="matrix(9.9626,0,0,-9.9626,51.27578,6.7949887)"/>
<text fill-opacity="0" transform="matrix(1,0,0,1,-49.2,-24.530014)" font-size="9.9626" font-family="CMMI10" x="51.42" y="63.358">
Y
</text>
<symbol id="font_1_3"><path d="M .562 .569 L .576 .583 C .606 .61300002 .639 .647 .707 .652 C .718 .65300007 .727 .65300007 .727 .671 C .727 .679 .722 .683 .714 .683 C .688 .683 .659 .68 .632 .68 C .599 .68 .564 .683 .532 .683 C .526 .683 .513 .683 .513 .66400004 C .513 .65300007 .523 .652 .528 .652 C .535 .652 .564 .65000005 .564 .629 C .564 .61200004 .541 .586 .537 .58100005 L .305 .314 L .19500001 .611 C .18900001 .625 .18900001 .62700005 .18900001 .628 C .18900001 .652 .238 .652 .24800003 .652 C .26200003 .652 .272 .652 .272 .67200003 C .272 .683 .26000002 .683 .25700002 .683 C .229 .683 .15900001 .68 .13100001 .68 C .106000009 .68 .044000005 .683 .019000001 .683 C .013 .683 0 .683 0 .66300006 C 0 .652 .010000002 .652 .023000002 .652 C .083000002 .652 .08700001 .643 .096000014 .61800004 L .21900001 .289 C .22000003 .286 .22300002 .275 .22300002 .272 C .22300002 .26900003 .18300002 .108 .17800002 .09 C .165 .035 .16400002 .032 .08400001 .031000002 C .065 .031000002 .057000008 .031000002 .057000008 .011000001 C .057000008 0 .069000006 0 .07100001 0 C .09900001 0 .16900002 .003 .19700001 .003 C .22500003 .003 .29700003 0 .32500003 0 C .33200002 0 .344 0 .344 .020000002 C .344 .031000002 .335 .031000002 .316 .031000002 C .314 .031000002 .29500003 .031000002 .27800003 .033 C .25700002 .035 .25100003 .037 .25100003 .049000001 C .25100003 .056 .26000002 .091000004 .26500001 .112 L .3 .25300003 C .305 .272 .30600002 .275 .314 .284 L .562 .569 Z "/>
</symbol><use xlink:href="#font_1_3" transform="matrix(9.9626,0,0,-9.9626,2.5686884,38.827989)"/>
<text fill-opacity="0" transform="matrix(1,0,0,1,-53.095,-24.530014)" font-size="9.9626" font-family="CMMI10" x="96.84 104.62079" y="63.358 63.358">
FY
</text>
<use xlink:href="#font_1_1" transform="matrix(9.9626,0,0,-9.9626,44.123574,38.827989)"/>
<use xlink:href="#font_1_3" transform="matrix(9.9626,0,0,-9.9626,51.874479,38.827989)"/>
<path transform="matrix(1,0,0,-1,30.876999,19.40799)" stroke-width=".39848" stroke-linecap="butt" stroke-miterlimit="10" stroke-linejoin="miter" fill="none" stroke="rgb(0,0,0)" d="M 20.76263 8.76726 L 20.76263 -8.36877 "/>
<path transform="matrix(0,1,1,0,51.63963,27.976)" stroke-width=".39848" stroke-linecap="round" stroke-linejoin="round" fill="none" stroke="rgb(0,0,0)" d="M -2.07213 2.39091 C -1.69356 .95633 -.84995 .27893 0 0 C -.84995 -.27893 -1.69356 -.95633 -2.07213 -2.39091 "/>
<text fill-opacity="0" transform="matrix(1,0,0,1,11.371,-42.24501)" font-size="6.9738" font-family="CMMI7" x="42.613 48.735996" y="63.358 63.358">
F&#x03c1;
</text>
<symbol id="font_2_2"><path d="M .273 .32200003 L .38000002 .32200003 C .45600004 .32200003 .46900005 .31 .46900005 .277 C .46900005 .26200003 .46900005 .26000002 .462 .23200001 C .46000004 .22600001 .459 .223 .459 .22000001 C .459 .21000001 .46600003 .20500002 .476 .20500002 C .48900003 .20500002 .49 .21000001 .495 .22800002 L .549 .44000002 C .55 .44300003 .55300003 .45800004 .55300003 .46 C .55300003 .47000003 .546 .47500001 .536 .47500001 C .522 .47500001 .521 .469 .51600004 .45100003 C .496 .37300003 .467 .358 .38200002 .358 L .282 .358 L .34500003 .609 C .35300002 .64000006 .354 .643 .39600003 .643 L .549 .643 C .68200007 .643 .707 .611 .707 .528 C .707 .49500003 .703 .47400003 .703 .46600003 C .703 .45800004 .70600005 .44900003 .72 .44900003 C .735 .44900003 .73600007 .45800004 .73800002 .47500001 L .75600005 .64900007 C .75900007 .679 .75200005 .679 .72700005 .679 L .19300002 .679 C .17400001 .679 .161 .679 .161 .657 C .161 .643 .17300001 .643 .19300002 .643 C .194 .643 .213 .643 .231 .64100004 C .252 .63900004 .254 .637 .254 .62700005 C .254 .62 .25100003 .61 .25 .605 L .119 .082 C .109 .043 .107999999 .036000002 .030000001 .036000002 C .012999997 .036000002 0 .036000002 0 .015000001 C 0 .0050000005 .0069999991 0 .015999996 0 C .045 0 .119 .004 .148 .004 L .225 .003 C .25100003 .003 .279 0 .30400003 0 C .31100002 0 .326 0 .326 .022000002 C .326 .036000002 .314 .036000002 .291 .036000002 C .289 .036000002 .264 .036000002 .23900002 .038000002 C .218 .040000004 .208 .041 .208 .055000005 C .208 .059000005 .208 .062000003 .211 .07300001 L .273 .32200003 Z "/>
</symbol><symbol id="font_2_1"><path d="M .0040000005 .053000002 C 0 .038000002 0 .033000007 0 .032000006 C 0 .010000005 .018000003 0 .034000006 0 C .07000001 0 .07800001 .030000001 .08500001 .062000008 C .09900001 .114000012 .127 .22800002 .13700001 .26600004 C .14600002 .25100003 .17800002 .20400001 .24700003 .20400001 C .375 .20400001 .51100006 .34000004 .51100006 .48600002 C .51100006 .592 .44 .65500002 .352 .65500002 C .254 .65500002 .13300002 .569 .098000002 .42800003 L .0040000005 .053000002 M .246 .23200002 C .17200002 .23200002 .15 .30600002 .15 .319 C .15 .32100005 .15600002 .34300003 .15900001 .35500002 C .18900001 .47800002 .19500001 .50100003 .22400002 .5450001 C .26 .59800005 .31 .62700005 .35 .62700005 C .391 .62700005 .43 .59800005 .43 .526 C .43 .48000002 .404 .36900001 .373 .319 C .327 .24800003 .277 .23200002 .246 .23200002 Z "/>
</symbol><use xlink:href="#font_2_2" transform="matrix(6.9738,0,0,-6.9738,54.465194,21.112992)"/>
<use xlink:href="#font_2_1" transform="matrix(6.9738,0,0,-6.9738,60.455685,22.605385)"/>
<path transform="matrix(1,0,0,-1,30.876999,19.40799)" stroke-width=".39848" stroke-linecap="butt" stroke-miterlimit="10" stroke-linejoin="miter" fill="none" stroke="rgb(0,0,0)" d="M -24.65782 -8.76724 L -24.65782 8.36879 "/>
<path transform="matrix(0,-1,-1,0,6.219179,10.83997)" stroke-width=".39848" stroke-linecap="round" stroke-linejoin="round" fill="none" stroke="rgb(0,0,0)" d="M -2.07213 2.39091 C -1.69356 .95633 -.84995 .27893 0 0 C -.84995 -.27893 -1.69356 -.95633 -2.07213 -2.39091 "/>
<text fill-opacity="0" transform="matrix(1,0,0,1,-42.871004,-43.12701)" font-size="6.9738" font-family="CMMI7" x="42.613" y="63.358">
&#x03c1;
</text>
<use xlink:href="#font_2_1" transform="matrix(6.9738,0,0,-6.9738,.090686779,21.723385)"/>
<path transform="matrix(1,0,0,-1,30.876999,19.40799)" stroke-width=".39848" stroke-linecap="butt" stroke-dasharray="2.78941,1.59395" stroke-miterlimit="10" stroke-linejoin="miter" fill="none" stroke="rgb(0,0,0)" d="M -19.96983 0 L 15.67618 0 "/>
<path transform="matrix(1,0,0,-1,46.75241,19.40799)" stroke-width=".39848" stroke-linecap="round" stroke-linejoin="round" fill="none" stroke="rgb(0,0,0)" d="M -2.07213 2.39091 C -1.69356 .95633 -.84995 .27893 0 0 C -.84995 -.27893 -1.69356 -.95633 -2.07213 -2.39091 "/>
<text fill-opacity="0" transform="matrix(1,0,0,1,-16.746,-46.294015)" font-size="6.9738" font-family="CMMI7" x="42.613" y="63.358">
F
</text>
<use xlink:href="#font_2_2" transform="matrix(6.9738,0,0,-6.9738,26.34819,17.063988)"/>
</g>
</svg>
