<?xml version="1.0" standalone="no"?>
<!DOCTYPE svg PUBLIC "-//W3C//DTD SVG 1.1//EN" "http://www.w3.org/Graphics/SVG/1.1/DTD/svg11.dtd">
<svg xmlns="http://www.w3.org/2000/svg" xmlns:xlink="http://www.w3.org/1999/xlink" version="1.1" width="4.407535cm" height="1.843405cm" viewBox="0 0 124.938 52.254">
<clipPath id="cp0">
<path transform="matrix(1,0,0,-1,-83.736,727.452)" d="M 0 0 L 595.28 0 L 595.28 841.889963 L 0 841.889963 Z "/>
</clipPath>
<g clip-path="url(#cp0)">
<text fill-opacity="0" transform="matrix(1,0,0,1,-79.12299,-22.906988)" font-size="9.9626" font-family="CMMI10" x="80.823" y="34.714">
X
</text>
<symbol id="font_1_1"><path d="M .458 .411 L .374 .61 C .37100003 .61800004 .36900001 .62200003 .36900001 .623 C .36900001 .629 .386 .648 .428 .652 C .43800002 .65300007 .448 .65400005 .448 .671 C .448 .683 .43600002 .683 .433 .683 C .39200001 .683 .349 .68 .307 .68 C .282 .68 .22000001 .683 .19500003 .683 C .18900001 .683 .17700002 .683 .17700002 .66300006 C .17700002 .652 .18700002 .652 .20000002 .652 C .26 .652 .266 .642 .275 .62 L .393 .34100003 L .18200001 .11400001 L .16900002 .10300001 C .12 .05 .073 .034 .022000002 .031000002 C .0090000019 .030000001 0 .030000001 0 .011000001 C 0 .010000001 0 0 .013000002 0 C .042999998 0 .076000004 .003 .107 .003 C .14400001 .003 .18300002 0 .21900001 0 C .22500001 0 .237 0 .237 .020000002 C .237 .030000001 .22700002 .031000002 .22500001 .031000002 C .21600002 .032 .18500002 .034 .18500002 .062000003 C .18500002 .078 .20000002 .094000006 .21200001 .10700001 L .314 .215 L .404 .31300002 L .505 .074 C .509 .063 .51 .062000003 .51 .060000001 C .51 .052 .491 .035 .45200003 .031000002 C .441 .030000001 .432 .029000001 .432 .012 C .432 0 .44300003 0 .44700003 0 C .47500001 0 .545 .003 .573 .003 C .598 .003 .65900002 0 .684 0 C .69100004 0 .703 0 .703 .019000001 C .703 .031000002 .693 .031000002 .685 .031000002 C .61800004 .032 .616 .035 .59900003 .075 C .56 .16800001 .49300004 .324 .47 .384 C .538 .45400004 .643 .573 .675 .601 C .704 .625 .74200006 .64900007 .80200005 .652 C .81500006 .65300007 .824 .65300007 .824 .67200003 C .824 .67300005 .824 .683 .81100007 .683 C .781 .683 .748 .68 .717 .68 C .68 .68 .642 .683 .606 .683 C .6 .683 .587 .683 .587 .66300006 C .587 .656 .592 .65300007 .59900003 .652 C .60800005 .651 .639 .64900007 .639 .62100006 C .639 .60700007 .628 .59400006 .62 .58500004 L .458 .411 Z "/>
</symbol><use xlink:href="#font_1_1" transform="matrix(9.9626,0,0,-9.9626,1.9689947,11.807013)"/>
<text fill-opacity="0" transform="matrix(1,0,0,1,-85.329998,-22.906988)" font-size="9.9626" font-family="CMMI10" x="128.555" y="34.714">
h
</text>
<symbol id="font_1_3"><path d="M .232 .694 C .232 .695 .232 .705 .21900001 .705 C .19600001 .705 .122999999 .697 .097 .695 C .089 .694 .077999993 .693 .077999993 .675 C .077999993 .663 .087 .663 .102 .663 C .15 .663 .15200001 .656 .15200001 .646 L .149 .626 L .0040000005 .05 C 0 .036000002 0 .034 0 .028 C 0 .005000001 .02 0 .029000003 0 C .044999999 0 .061 .012000001 .066 .026 L .08499999 .102000009 L .10699999 .19200002 C .113000009 .21400002 .119 .23600002 .124 .259 C .126 .26500001 .134 .298 .135 .30400003 C .138 .31300002 .169 .36900001 .20300001 .39600003 C .225 .41200004 .256 .43100003 .299 .43100003 C .342 .43100003 .35300002 .397 .35300002 .36100004 C .35300002 .307 .315 .19800002 .291 .13700001 C .28300002 .11400001 .278 .102000009 .278 .082 C .278 .035 .31300002 0 .36 0 C .454 0 .491 .14600002 .491 .15400002 C .491 .16400002 .482 .16400002 .47900004 .16400002 C .46900005 .16400002 .46900005 .16100002 .46400004 .14600002 C .449 .093 .41700002 .022000002 .36200002 .022000002 C .345 .022000002 .338 .032 .338 .055000005 C .338 .080000009 .347 .104 .356 .126 C .372 .16900002 .41700002 .28800002 .41700002 .34600001 C .41700002 .411 .377 .45300003 .30200003 .45300003 C .239 .45300003 .191 .42200003 .154 .37600003 L .232 .694 Z "/>
</symbol><use xlink:href="#font_1_3" transform="matrix(9.9626,0,0,-9.9626,43.77294,11.916601)"/>
<text fill-opacity="0" transform="matrix(1,0,0,1,-85.329998,-22.906988)" font-size="6.9738" font-family="CMMI7" x="134.295" y="36.208">
U
</text>
<symbol id="font_2_3"><path d="M .615 .594 C .625 .633 .64100004 .665 .721 .667 C .726 .667 .74100008 .668 .74100008 .689 C .74100008 .695 .73600007 .703 .726 .703 C .694 .703 .656 .699 .623 .699 C .59000006 .699 .54800005 .703 .518 .703 C .513 .703 .49800004 .703 .49800004 .681 C .49800004 .668 .51100006 .667 .52000003 .667 C .56700001 .666 .58400007 .651 .58400007 .626 C .58400007 .621 .583 .616 .582 .612 C .56700001 .547 .49400001 .246 .481 .215 C .425 .087000008 .308 .036000002 .22600001 .036000002 C .15900001 .036000002 .088 .07 .088 .169 C .088 .193 .091000004 .21700001 .097 .24000001 L .194 .625 C .20300001 .65900002 .20500002 .667 .282 .667 C .29900003 .667 .312 .667 .312 .689 C .312 .693 .30900002 .703 .296 .703 C .26700001 .703 .194 .699 .16499999 .699 C .148 .699 .113000009 .699 .096 .7 C .076000004 .70100003 .052 .703 .032999993 .703 C .026999996 .703 .0119999949 .703 .0119999949 .681 C .0119999949 .667 .023999997 .667 .044 .667 C .045 .667 .063999997 .667 .082 .665 C .103 .663 .105000007 .661 .105000007 .651 C .105000007 .645 .095 .606 .089 .584 L .067 .49600001 L .009999998 .26700001 C 0 .22600001 0 .21800001 0 .198 C 0 .074 .102 0 .222 0 C .36 0 .49400001 .11200001 .527 .243 L .615 .594 Z "/>
</symbol><use xlink:href="#font_2_3" transform="matrix(6.9738,0,0,-6.9738,49.606595,13.440488)"/>
<text fill-opacity="0" transform="matrix(1,0,0,1,-85.329998,-22.906988)" font-size="9.9626" font-family="CMMI10" x="140.968" y="34.714">
X
</text>
<use xlink:href="#font_1_1" transform="matrix(9.9626,0,0,-9.9626,55.906997,11.807013)"/>
<text fill-opacity="0" transform="matrix(1,0,0,1,-85.451994,-22.906988)" font-size="9.9626" font-family="CMMI10" x="182.615" y="34.714">
h
</text>
<use xlink:href="#font_1_3" transform="matrix(9.9626,0,0,-9.9626,97.71095,11.916601)"/>
<text fill-opacity="0" transform="matrix(1,0,0,1,-85.451994,-22.906988)" font-size="6.9738" font-family="CMMI7" x="188.35501" y="36.208">
V
</text>
<symbol id="font_2_4"><path d="M .63600006 .584 C .67300005 .638 .70500002 .663 .75900007 .667 C .771 .668 .78200007 .669 .78200007 .689 C .78200007 .69200001 .78000002 .703 .76800008 .703 C .744 .703 .71300006 .699 .688 .699 C .656 .699 .614 .703 .58400007 .703 C .57500005 .703 .564 .7 .564 .681 C .564 .668 .578 .667 .582 .667 C .614 .665 .623 .653 .623 .638 C .623 .624 .61600008 .614 .605 .598 L .277 .11400001 L .18600002 .625 C .18400002 .634 .18400002 .63600006 .18400002 .64 C .18400002 .667 .24000001 .667 .24700001 .667 C .26400004 .667 .277 .667 .277 .689 C .277 .69 .27600003 .703 .26000002 .703 C .231 .703 .16 .699 .13100001 .699 C .106 .699 .045 .703 .020000003 .703 C .011 .703 0 .7 0 .681 C 0 .667 .013999999 .667 .024999998 .667 C .08100001 .667 .08200001 .661 .087000008 .635 L .19600001 .027000003 C .20000002 .006000001 .201 0 .22000003 0 C .23900002 0 .24400002 .007000001 .254 .022000002 L .63600006 .584 Z "/>
</symbol><use xlink:href="#font_2_4" transform="matrix(6.9738,0,0,-6.9738,103.45395,13.440488)"/>
<text fill-opacity="0" transform="matrix(1,0,0,1,-85.451994,-22.906988)" font-size="9.9626" font-family="CMMI10" x="195.27402" y="34.714">
X
</text>
<use xlink:href="#font_1_1" transform="matrix(9.9626,0,0,-9.9626,110.09101,11.807013)"/>
<text fill-opacity="0" transform="matrix(1,0,0,1,-78.604,-22.90699)" font-size="9.9626" font-family="CMMI10" x="80.823" y="68.352">
Y
</text>
<symbol id="font_1_2"><path d="M .562 .569 L .576 .583 C .606 .61300002 .639 .647 .707 .652 C .718 .65300007 .727 .65300007 .727 .671 C .727 .679 .722 .683 .714 .683 C .688 .683 .659 .68 .632 .68 C .599 .68 .564 .683 .532 .683 C .526 .683 .513 .683 .513 .66400004 C .513 .65300007 .523 .652 .528 .652 C .535 .652 .564 .65000005 .564 .629 C .564 .61200004 .541 .586 .537 .58100005 L .305 .314 L .19500001 .611 C .18900001 .625 .18900001 .62700005 .18900001 .628 C .18900001 .652 .238 .652 .24800003 .652 C .26200003 .652 .272 .652 .272 .67200003 C .272 .683 .26000002 .683 .25700002 .683 C .229 .683 .15900001 .68 .13100001 .68 C .106000009 .68 .044000005 .683 .019000001 .683 C .013 .683 0 .683 0 .66300006 C 0 .652 .010000002 .652 .023000002 .652 C .083000002 .652 .08700001 .643 .096000014 .61800004 L .21900001 .289 C .22000003 .286 .22300002 .275 .22300002 .272 C .22300002 .26900003 .18300002 .108 .17800002 .09 C .165 .035 .16400002 .032 .08400001 .031000002 C .065 .031000002 .057000008 .031000002 .057000008 .011000001 C .057000008 0 .069000006 0 .07100001 0 C .09900001 0 .16900002 .003 .19700001 .003 C .22500003 .003 .29700003 0 .32500003 0 C .33200002 0 .344 0 .344 .020000002 C .344 .031000002 .335 .031000002 .316 .031000002 C .314 .031000002 .29500003 .031000002 .27800003 .033 C .25700002 .035 .25100003 .037 .25100003 .049000001 C .25100003 .056 .26000002 .091000004 .26500001 .112 L .3 .25300003 C .305 .272 .30600002 .275 .314 .284 L .562 .569 Z "/>
</symbol><use xlink:href="#font_1_2" transform="matrix(9.9626,0,0,-9.9626,2.5676928,45.445009)"/>
<text fill-opacity="0" transform="matrix(1,0,0,1,-84.811,-22.90699)" font-size="9.9626" font-family="CMMI10" x="128.555" y="68.352">
h
</text>
<use xlink:href="#font_1_3" transform="matrix(9.9626,0,0,-9.9626,44.29194,45.554595)"/>
<text fill-opacity="0" transform="matrix(1,0,0,1,-84.811,-22.90699)" font-size="6.9738" font-family="CMMI7" x="134.295" y="69.846">
U
</text>
<use xlink:href="#font_2_3" transform="matrix(6.9738,0,0,-6.9738,50.12559,47.078489)"/>
<text fill-opacity="0" transform="matrix(1,0,0,1,-84.811,-22.90699)" font-size="9.9626" font-family="CMMI10" x="140.968" y="68.352">
Y
</text>
<use xlink:href="#font_1_2" transform="matrix(9.9626,0,0,-9.9626,56.505695,45.445009)"/>
<text fill-opacity="0" transform="matrix(1,0,0,1,-84.9330033,-22.90699)" font-size="9.9626" font-family="CMMI10" x="182.615" y="68.352">
h
</text>
<use xlink:href="#font_1_3" transform="matrix(9.9626,0,0,-9.9626,98.22995,45.554595)"/>
<text fill-opacity="0" transform="matrix(1,0,0,1,-84.9330033,-22.90699)" font-size="6.9738" font-family="CMMI7" x="188.35501" y="69.846">
V
</text>
<use xlink:href="#font_2_4" transform="matrix(6.9738,0,0,-6.9738,103.972949,47.078489)"/>
<text fill-opacity="0" transform="matrix(1,0,0,1,-84.9330033,-22.90699)" font-size="9.9626" font-family="CMMI10" x="195.27402" y="68.352">
Y
</text>
<use xlink:href="#font_1_2" transform="matrix(9.9626,0,0,-9.9626,110.68971,45.445009)"/>
<path transform="matrix(1,0,0,-1,60.28,25.91401)" stroke-width=".39848" stroke-linecap="butt" stroke-miterlimit="10" stroke-linejoin="miter" fill="none" stroke="rgb(0,0,0)" d="M -6.32936 8.76724 L -6.32936 -8.36879 "/>
<path transform="matrix(0,1,1,0,53.950639,34.48203)" stroke-width=".39848" stroke-linecap="round" stroke-linejoin="round" fill="none" stroke="rgb(0,0,0)" d="M -2.07213 2.39091 C -1.69356 .95633 -.84995 .27893 0 0 C -.84995 -.27893 -1.69356 -.95633 -2.07213 -2.39091 "/>
<text fill-opacity="0" transform="matrix(1,0,0,1,-34.95,-40.69499)" font-size="6.9738" font-family="CMMI7" x="72.016" y="68.352">
h
</text>
<symbol id="font_2_5"><path d="M .23800002 .674 C .23900001 .676 .242 .689 .242 .69 C .242 .69500008 .23800002 .704 .22600003 .704 C .20600002 .704 .12300001 .69600006 .098000002 .694 C .09 .693 .076000004 .69200001 .076000004 .671 C .076000004 .657 .09 .657 .102 .657 C .15 .657 .15 .65000005 .15 .642 C .15 .635 .148 .629 .14600002 .62 L .0050000029 .054000006 C 0 .036000002 0 .034 0 .032 C 0 .017 .012000002 0 .034 0 C .045 0 .06400001 .0050000005 .075 .026 C .07800001 .032 .087 .068 .09200001 .089 L .11500001 .17800002 C .118 .19300002 .128 .23100002 .13100001 .24600002 C .141 .284 .141 .285 .16100002 .317 C .193 .366 .24300001 .423 .32100005 .423 C .37700004 .423 .38 .377 .38 .35300002 C .38 .293 .337 .18200001 .32100005 .14000001 C .31 .112 .306 .103 .306 .086 C .306 .033000005 .35000003 0 .40100003 0 C .50100003 0 .545 .13800001 .545 .15300001 C .545 .16600001 .53200007 .16600001 .52900005 .16600001 C .51500006 .16600001 .51400004 .16000001 .51000004 .14900002 C .48700004 .069000006 .44300003 .028 .40400005 .028 C .38300002 .028 .379 .042000003 .379 .063 C .379 .086 .384 .099 .402 .14400001 C .41400004 .17500001 .45500003 .28100003 .45500003 .337 C .45500003 .35300002 .45500003 .395 .41800004 .42400003 C .40100003 .437 .37200003 .451 .325 .451 C .25200004 .451 .19900002 .411 .16200002 .368 L .23800002 .674 Z "/>
</symbol><use xlink:href="#font_2_5" transform="matrix(6.9738,0,0,-6.9738,37.58903,27.726748)"/>
<text fill-opacity="0" transform="matrix(1,0,0,1,-34.95,-40.69499)" font-size="4.9813" font-family="CMMI5" x="76.68" y="69.353">
U
</text>
<symbol id="font_3_1"><path d="M .68 .591 C .68700004 .619 .697 .65700007 .78800006 .66 C .79600006 .66 .814 .6610001 .814 .688 C .814 .69200001 .81100007 .70500002 .79700003 .70500002 C .77900005 .70500002 .758 .702 .74 .702 C .72200008 .702 .703 .70100003 .684 .70100003 C .66400004 .70100003 .64500003 .702 .625 .702 C .60700007 .702 .586 .70500002 .569 .70500002 C .56200004 .70500002 .545 .70500002 .545 .67700005 C .545 .66 .56 .66 .57000008 .66 C .63600006 .65900002 .64000006 .6380001 .64000006 .62100006 C .64000006 .61600008 .63900004 .61200004 .638 .60700007 L .54800005 .246 C .518 .14000001 .40000005 .045 .26000002 .045 C .20200002 .045 .10000001 .065000005 .10000001 .18200001 C .10000001 .20400001 .103 .22500001 .10800001 .246 L .20200002 .62000008 C .21000001 .65200009 .21200001 .66 .28800002 .66 C .314 .66 .316 .66 .32000003 .66300006 C .326 .669 .32900003 .68100005 .32900003 .688 C .32900003 .69000006 .328 .70500002 .31100002 .70500002 C .29000001 .70500002 .266 .702 .24400002 .702 C .22 .702 .19500003 .70100003 .171 .70100003 C .146 .70100003 .12200001 .702 .097 .702 C .074 .702 .048999996 .70500002 .026999996 .70500002 C .019999996 .70500002 .002000004 .70500002 .002000004 .67700005 C .002000004 .66 .013999999 .66 .039000006 .66 C .048999996 .66 .082 .66 .103 .65400005 C .103 .64100004 .103 .63900004 .102 .63400007 C .09900001 .623 .072 .51600004 .066 .49400006 C .046000004 .41100005 .024000004 .33000005 .004999995 .24700001 C .002000004 .23500002 0 .21700001 0 .20500002 C 0 .092 .10100001 0 .25500002 0 C .41000004 0 .559 .109000003 .59400006 .24800001 L .68 .591 Z "/>
</symbol><use xlink:href="#font_3_1" transform="matrix(4.9813,0,0,-4.9813,42.442327,28.767598)"/>
<text fill-opacity="0" transform="matrix(1,0,0,1,-34.95,-40.69499)" font-size="6.9738" font-family="CMMI7" x="82.4230088" y="68.352">
&#x03c1;
</text>
<symbol id="font_2_1"><path d="M .0040000005 .053000002 C 0 .038000002 0 .033000007 0 .032000006 C 0 .010000005 .018000003 0 .034000006 0 C .07000001 0 .07800001 .030000001 .08500001 .062000008 C .09900001 .114000012 .127 .22800002 .13700001 .26600004 C .14600002 .25100003 .17800002 .20400001 .24700003 .20400001 C .375 .20400001 .51100006 .34000004 .51100006 .48600002 C .51100006 .592 .44 .65500002 .352 .65500002 C .254 .65500002 .13300002 .569 .098000002 .42800003 L .0040000005 .053000002 M .246 .23200002 C .17200002 .23200002 .15 .30600002 .15 .319 C .15 .32100005 .15600002 .34300003 .15900001 .35500002 C .18900001 .47800002 .19500001 .50100003 .22400002 .5450001 C .26 .59800005 .31 .62700005 .35 .62700005 C .391 .62700005 .43 .59800005 .43 .526 C .43 .48000002 .404 .36900001 .373 .319 C .327 .24800003 .277 .23200002 .246 .23200002 Z "/>
</symbol><use xlink:href="#font_2_1" transform="matrix(6.9738,0,0,-6.9738,47.821694,29.149403)"/>
<path transform="matrix(1,0,0,-1,60.28,25.91401)" stroke-width=".39848" stroke-linecap="butt" stroke-miterlimit="10" stroke-linejoin="miter" fill="none" stroke="rgb(0,0,0)" d="M 8.88391 16.5977 L 31.99754 16.5977 "/>
<path transform="matrix(1,0,0,-1,92.476779,9.316309)" stroke-width=".39848" stroke-linecap="round" stroke-linejoin="round" fill="none" stroke="rgb(0,0,0)" d="M -2.07213 2.39091 C -1.69356 .95633 -.84995 .27893 0 0 C -.84995 -.27893 -1.69356 -.95633 -2.07213 -2.39091 "/>
<text fill-opacity="0" transform="matrix(1,0,0,1,-2.1490002,-63.122987)" font-size="6.9738" font-family="CMR7" x="72.016" y="68.352">
(
</text>
<symbol id="font_4_1"><path d="M .24000001 .9990001 C .050000005 .86500006 0 .653 0 .5 C 0 .35900002 .042000003 .14000001 .24000001 0 C .248 0 .26000002 0 .26000002 .0119999949 C .26000002 .018000007 .257 .019999996 .25 .026999996 C .117000009 .14700002 .06800001 .31700004 .06800001 .499 C .06800001 .76900006 .171 .901 .25300003 .975 C .257 .97900001 .26000002 .98200007 .26000002 .98700007 C .26000002 .9990001 .248 .9990001 .24000001 .9990001 Z "/>
</symbol><use xlink:href="#font_4_1" transform="matrix(6.9738,0,0,-6.9738,70.66898,6.965488)"/>
<text fill-opacity="0" transform="matrix(1,0,0,1,-2.1490002,-63.122987)" font-size="6.9738" font-family="CMMI7" x="75.129 79.79447" y="68.352 68.352">
h&#x03d5;
</text>
<symbol id="font_2_2"><path d="M .42200003 .88500004 C .42200003 .897999964 .41000004 .897999964 .40500002 .897999964 C .39000001 .897999964 .38900004 .893 .38500002 .87600003 L .32800005 .647 C .15100003 .63900004 0 .512 0 .37800003 C 0 .26500001 .10300001 .19700001 .21400002 .193 C .20600003 .162 .19900003 .13000001 .19100001 .09900001 C .17900002 .052 .17000002 .015000001 .17000002 .012000009 C .17000002 0 .18300003 0 .18600002 0 C .20100003 0 .20200002 .003000006 .20700002 .024000004 L .24900002 .19200002 C .42000003 .19900002 .577 .32500003 .577 .46100002 C .577 .56600004 .485 .64100004 .36300004 .646 L .42200003 .88500004 M .22100001 .22100001 C .14400003 .22500001 .07300001 .26700001 .07300001 .361 C .07300001 .46100002 .14900002 .60200005 .32000003 .61800004 L .22100001 .22100001 M .35500002 .61800004 C .43200005 .615 .504 .573 .504 .47800005 C .504 .36900001 .41800004 .23500002 .256 .22100001 L .35500002 .61800004 Z "/>
</symbol><use xlink:href="#font_2_5" transform="matrix(6.9738,0,0,-6.9738,73.50303,5.2987495)"/>
<use xlink:href="#font_2_2" transform="matrix(6.9738,0,0,-6.9738,78.13364,6.6516667)"/>
<text fill-opacity="0" transform="matrix(1,0,0,1,-2.1490002,-63.122987)" font-size="6.9738" font-family="CMR7" x="84.584" y="68.352">
)
</text>
<symbol id="font_4_2"><path d="M .019000001 .9990001 C .012000002 .9990001 0 .9990001 0 .98700007 C 0 .98200007 .0029999986 .97900001 .009000003 .97200004 C .095000009 .89300004 .19100001 .758 .19100001 .5 C .19100001 .291 .12600002 .13300002 .018 .034999996 C .001000002 .018000007 0 .017000005 0 .0119999949 C 0 .0069999991 .0029999986 0 .013000004 0 C .024999998 0 .12000001 .066 .18599999 .19100001 C .23000002 .27400003 .259 .38200002 .259 .499 C .259 .64000006 .21700001 .859 .019000001 .9990001 Z "/>
</symbol><use xlink:href="#font_4_2" transform="matrix(6.9738,0,0,-6.9738,82.93014,6.965488)"/>
<text fill-opacity="0" transform="matrix(1,0,0,1,-2.1490002,-63.122987)" font-size="4.9813" font-family="CMMI5" x="87.697" y="69.353">
X
</text>
<symbol id="font_3_3"><path d="M .554 .381 L .76800008 .57100006 C .82800007 .625 .88100005 .63600006 .9410001 .638 C .95500002 .63900004 .9610001 .656 .9610001 .666 C .9610001 .675 .95300007 .683 .944000043 .683 C .9280001 .683 .908 .68 .890999994 .68 C .8740001 .68 .85600005 .679 .83900004 .679 C .81700001 .679 .79600006 .68 .77500005 .68 C .75600005 .68 .73300005 .683 .71400004 .683 C .707 .683 .69000006 .683 .69000006 .65500002 C .69000006 .64100004 .70100003 .638 .70900007 .638 C .72300005 .637 .74100008 .633 .74100008 .61800004 C .74100008 .60400005 .73200007 .596 .70000005 .56700001 L .53300005 .416 L .411 .62 C .42700005 .633 .44700003 .637 .46500004 .638 C .47100001 .638 .48800003 .63900004 .48800003 .666 C .48800003 .67800003 .47800005 .683 .47000003 .683 C .44700003 .683 .421 .68 .39800004 .68 C .37500003 .68 .351 .679 .328 .679 C .307 .679 .28500004 .68 .26400004 .68 C .243 .68 .22100001 .683 .201 .683 C .18400002 .683 .17700002 .671 .17700002 .65500002 C .17700002 .638 .192 .638 .21000001 .638 C .27600003 .638 .282 .62700005 .291 .61200004 L .45200003 .34300003 L .21000001 .124000009 C .20700002 .12100001 .19800002 .115 .194 .113000009 C .153 .079 .11400001 .048 .019000001 .045 C .001000002 .044000005 0 .019000001 0 .017 C 0 .006 .009000003 0 .016000003 0 C .033000007 0 .052 .003 .069000006 .003 C .08600001 .003 .104 .004 .12100001 .004 C .143 .004 .164 .003 .185 .003 C .20500002 .003 .227 0 .24700001 0 C .261 0 .27100003 .007 .27100003 .028 C .27100003 .044000005 .256 .045 .252 .045 C .224 .047000003 .22 .059000005 .22 .065000005 C .22 .076000004 .23400003 .09200001 .236 .095000009 C .24100003 .1 .43400002 .272 .472 .30800004 L .61200004 .076000004 C .614 .072000003 .61800004 .066 .61800004 .064 C .61800004 .060000001 .601 .047000003 .56500006 .045 C .559 .045 .54200006 .044000005 .54200006 .017 C .54200006 .006 .55 0 .56 0 C .583 0 .609 .003 .632 .003 C .65500002 .003 .679 .004 .702 .004 C .72300005 .004 .74500008 .003 .76600004 .003 C .786 .003 .809 0 .82900008 0 C .846 0 .85300007 .012 .85300007 .028 C .85300007 .045 .838000096 .045 .82000008 .045 C .75500007 .045 .749 .056 .74 .07 L .554 .381 Z "/>
</symbol><use xlink:href="#font_3_3" transform="matrix(4.9813,0,0,-4.9813,86.03118,6.230011)"/>
<path transform="matrix(1,0,0,-1,60.28,25.91401)" stroke-width=".39848" stroke-linecap="butt" stroke-miterlimit="10" stroke-linejoin="miter" fill="none" stroke="rgb(0,0,0)" d="M 47.73198 8.76724 L 47.73198 -8.36879 "/>
<path transform="matrix(0,1,1,0,108.01198,34.48203)" stroke-width=".39848" stroke-linecap="round" stroke-linejoin="round" fill="none" stroke="rgb(0,0,0)" d="M -2.07213 2.39091 C -1.69356 .95633 -.84995 .27893 0 0 C -.84995 -.27893 -1.69356 -.95633 -2.07213 -2.39091 "/>
<text fill-opacity="0" transform="matrix(1,0,0,1,38.34,-40.69499)" font-size="6.9738" font-family="CMMI7" x="72.016" y="68.352">
h
</text>
<use xlink:href="#font_2_5" transform="matrix(6.9738,0,0,-6.9738,110.879039,27.726748)"/>
<text fill-opacity="0" transform="matrix(1,0,0,1,38.34,-40.69499)" font-size="4.9813" font-family="CMMI5" x="76.68" y="69.353">
V
</text>
<symbol id="font_3_2"><path d="M .713 .58100005 C .72 .59000006 .72 .59200006 .73300005 .60600005 C .75100003 .62600003 .78000002 .656 .845000066 .66 C .856 .6610001 .871999941 .6610001 .871999941 .688 C .871999941 .69400006 .86800004 .70500002 .856 .70500002 C .842 .70500002 .82600003 .702 .81100007 .702 C .796 .702 .78000002 .70100003 .76500006 .70100003 C .746 .70100003 .72800007 .702 .71000004 .702 C .69200001 .702 .671 .70500002 .653 .70500002 C .637 .70500002 .629 .69400006 .629 .67700005 C .629 .6610001 .64500003 .66 .652 .66 C .667 .65900002 .693 .65500002 .693 .63500004 C .693 .628 .689 .61600008 .675 .59700008 L .324 .115 L .20800002 .62500005 C .20600002 .63500004 .20600002 .637 .20600002 .64000006 C .20600002 .65400005 .23800002 .66 .273 .66 C .286 .66 .30300003 .66 .30300003 .688 C .30300003 .69600006 .297 .70500002 .28500004 .70500002 C .264 .70500002 .24000003 .702 .21800001 .702 C .19400002 .702 .17100002 .70100003 .147 .70100003 C .126 .70100003 .104 .702 .083000002 .702 C .063999997 .702 .041999997 .70500002 .024000004 .70500002 C .017000005 .70500002 0 .70500002 0 .67700005 C 0 .66 .013999999 .66 .032000006 .66 C .091000004 .66 .09200001 .65300007 .097 .632 L .23400001 .029000003 C .23900001 .008000001 .24100001 0 .26600004 0 C .278 0 .291 0 .30800004 .023000002 L .713 .58100005 Z "/>
</symbol><use xlink:href="#font_3_2" transform="matrix(4.9813,0,0,-4.9813,115.65761,28.767598)"/>
<text fill-opacity="0" transform="matrix(1,0,0,1,38.34,-40.69499)" font-size="6.9738" font-family="CMMI7" x="82.686" y="68.352">
&#x03c1;
</text>
<use xlink:href="#font_2_1" transform="matrix(6.9738,0,0,-6.9738,121.37469,29.149403)"/>
<path transform="matrix(1,0,0,-1,60.28,25.91401)" stroke-width=".39848" stroke-linecap="butt" stroke-miterlimit="10" stroke-linejoin="miter" fill="none" stroke="rgb(0,0,0)" d="M -54.06136 -8.87798 L -54.06136 9.86317 "/>
<path transform="matrix(0,-1,-1,0,6.2186394,15.851599)" stroke-width=".39848" stroke-linecap="round" stroke-linejoin="round" fill="none" stroke="rgb(0,0,0)" d="M -2.07213 2.39091 C -1.69356 .95633 -.84995 .27893 0 0 C -.84995 -.27893 -1.69356 -.95633 -2.07213 -2.39091 "/>
<text fill-opacity="0" transform="matrix(1,0,0,1,-72.275,-42.306989)" font-size="6.9738" font-family="CMMI7" x="72.016" y="68.352">
&#x03c1;
</text>
<use xlink:href="#font_2_1" transform="matrix(6.9738,0,0,-6.9738,.089687328,27.537404)"/>
<path transform="matrix(1,0,0,-1,60.28,25.91401)" stroke-width=".39848" stroke-linecap="butt" stroke-miterlimit="10" stroke-linejoin="miter" fill="none" stroke="rgb(0,0,0)" d="M 8.36502 -17.04051 L 32.51643 -17.04051 "/>
<path transform="matrix(1,0,0,-1,92.9956712,42.95452)" stroke-width=".39848" stroke-linecap="round" stroke-linejoin="round" fill="none" stroke="rgb(0,0,0)" d="M -2.07213 2.39091 C -1.69356 .95633 -.84995 .27893 0 0 C -.84995 -.27893 -1.69356 -.95633 -2.07213 -2.39091 "/>
<text fill-opacity="0" transform="matrix(1,0,0,1,-1.9309998,-17.822989)" font-size="6.9738" font-family="CMR7" x="72.016" y="68.352">
(
</text>
<use xlink:href="#font_4_1" transform="matrix(6.9738,0,0,-6.9738,70.886989,52.265485)"/>
<text fill-opacity="0" transform="matrix(1,0,0,1,-1.9309998,-17.822989)" font-size="6.9738" font-family="CMMI7" x="75.129 79.79447" y="68.352 68.352">
h&#x03d5;
</text>
<use xlink:href="#font_2_5" transform="matrix(6.9738,0,0,-6.9738,73.72103,50.598745)"/>
<use xlink:href="#font_2_2" transform="matrix(6.9738,0,0,-6.9738,78.35164,51.951665)"/>
<text fill-opacity="0" transform="matrix(1,0,0,1,-1.9309998,-17.822989)" font-size="6.9738" font-family="CMR7" x="84.584" y="68.352">
)
</text>
<use xlink:href="#font_4_2" transform="matrix(6.9738,0,0,-6.9738,83.1481446,52.265485)"/>
<text fill-opacity="0" transform="matrix(1,0,0,1,-1.9309998,-17.822989)" font-size="4.9813" font-family="CMMI5" x="87.697" y="69.353">
Y
</text>
<symbol id="font_3_4"><path d="M .69200001 .558 L .72 .58100005 C .74700003 .60300007 .786 .634 .856 .638 C .87 .63900004 .884 .63900004 .884 .666 C .884 .68 .87200003 .683 .86800004 .683 C .85400001 .683 .838 .68 .823 .68 C .808 .68 .792 .679 .776 .679 L .717 .68 C .70000005 .68 .68 .683 .663 .683 C .65000005 .683 .639 .67600008 .639 .65500002 C .639 .64100004 .651 .638 .658 .638 C .683 .637 .689 .63100005 .689 .624 C .689 .61 .665 .588 .657 .58000002 L .393 .32700003 L .23800002 .61200004 C .23200001 .62200003 .23200001 .624 .23200001 .625 C .23200001 .638 .27500005 .638 .283 .638 C .29800005 .638 .314 .638 .314 .666 C .314 .67800003 .30400003 .683 .296 .683 C .273 .683 .24700003 .68 .22400002 .68 C .2 .68 .17600002 .679 .152 .679 C .13100001 .679 .10900001 .68 .088 .68 C .075 .68 .025000006 .683 .024000004 .683 C .009999998 .683 0 .67600008 0 .65500002 C 0 .638 .013999999 .638 .032000006 .638 C .096 .638 .10000001 .63100005 .112 .609 L .29500003 .27400003 L .25 .091000004 C .23800002 .046000004 .23300002 .045 .159 .045 C .136 .045 .120000004 .045 .120000004 .017 C .120000004 .009000001 .127 0 .13800001 0 C .159 0 .18300002 .003 .205 .003 C .22900002 .003 .25300003 .004 .277 .004 C .302 .004 .32600003 .003 .351 .003 C .37300003 .003 .398 0 .41900004 0 C .426 0 .444 0 .444 .028 C .444 .045 .43 .045 .411 .045 C .40899997 .045 .385 .045 .36800004 .047000003 C .343 .049000001 .342 .05 .342 .058000002 C .342 .065000005 .342 .067 .35400004 .112 L .394 .273 L .69200001 .558 Z "/>
</symbol><use xlink:href="#font_3_4" transform="matrix(4.9813,0,0,-4.9813,86.28903,51.530008)"/>
</g>
</svg>
