<?xml version="1.0" standalone="no"?>
<!DOCTYPE svg PUBLIC "-//W3C//DTD SVG 1.1//EN" "http://www.w3.org/Graphics/SVG/1.1/DTD/svg11.dtd">
<svg xmlns="http://www.w3.org/2000/svg" xmlns:xlink="http://www.w3.org/1999/xlink" version="1.1" width="4.032885cm" height="1.647825cm" viewBox="0 0 114.318 46.71">
<clipPath id="cp0">
<path transform="matrix(1,0,0,-1,-83.25,727.50602)" d="M 0 0 L 595.28 0 L 595.28 841.889963 L 0 841.889963 Z "/>
</clipPath>
<g clip-path="url(#cp0)">
<text fill-opacity="0" transform="matrix(1,0,0,1,-77.005005,-22.963973)" font-size="9.9626" font-family="CMMI10" x="80.37 85.042468" y="31.855 31.855">
jX
</text>
<symbol id="font_1_4"><path d="M .41000004 .83000002 C .41000004 .8490001 .39600003 .86600008 .37200003 .86600008 C .34900003 .86600008 .31900003 .84300004 .31900003 .8130001 C .31900003 .793 .33300004 .77700009 .35600005 .77700009 C .38300002 .77700009 .41000004 .8030001 .41000004 .83000002 M .209 .15500002 C .19 .07900001 .142 .022 .08600001 .022 C .08 .022 .065 .022 .047000003 .031000004 C .07700001 .038000002 .09200001 .06400001 .09200001 .08400001 C .09200001 .10000001 .081 .11900001 .054 .11900001 C .029000001 .11900001 0 .098000002 0 .062000008 C 0 .022 .04 0 .088 0 C .158 0 .25100003 .053000002 .27600003 .15200001 L .36800004 .518 C .37300003 .538 .37300003 .55200005 .37300003 .55500007 C .37300003 .612 .33100004 .6470001 .28100003 .6470001 C .179 .6470001 .12200001 .50200005 .12200001 .49300004 C .12200001 .48300005 .132 .48300005 .134 .48300005 C .143 .48300005 .14400001 .48400002 .15200001 .503 C .177 .564 .223 .625 .27800003 .625 C .29200003 .625 .31000004 .62100006 .31000004 .579 C .31000004 .556 .307 .545 .30300003 .528 L .209 .15500002 Z "/>
</symbol><symbol id="font_1_2"><path d="M .458 .411 L .374 .61 C .37100003 .61800004 .36900001 .62200003 .36900001 .623 C .36900001 .629 .386 .648 .428 .652 C .43800002 .65300007 .448 .65400005 .448 .671 C .448 .683 .43600002 .683 .433 .683 C .39200001 .683 .349 .68 .307 .68 C .282 .68 .22000001 .683 .19500003 .683 C .18900001 .683 .17700002 .683 .17700002 .66300006 C .17700002 .652 .18700002 .652 .20000002 .652 C .26 .652 .266 .642 .275 .62 L .393 .34100003 L .18200001 .11400001 L .16900002 .10300001 C .12 .05 .073 .034 .022000002 .031000002 C .0090000019 .030000001 0 .030000001 0 .011000001 C 0 .010000001 0 0 .013000002 0 C .042999998 0 .076000004 .003 .107 .003 C .14400001 .003 .18300002 0 .21900001 0 C .22500001 0 .237 0 .237 .020000002 C .237 .030000001 .22700002 .031000002 .22500001 .031000002 C .21600002 .032 .18500002 .034 .18500002 .062000003 C .18500002 .078 .20000002 .094000006 .21200001 .10700001 L .314 .215 L .404 .31300002 L .505 .074 C .509 .063 .51 .062000003 .51 .060000001 C .51 .052 .491 .035 .45200003 .031000002 C .441 .030000001 .432 .029000001 .432 .012 C .432 0 .44300003 0 .44700003 0 C .47500001 0 .545 .003 .573 .003 C .598 .003 .65900002 0 .684 0 C .69100004 0 .703 0 .703 .019000001 C .703 .031000002 .693 .031000002 .685 .031000002 C .61800004 .032 .616 .035 .59900003 .075 C .56 .16800001 .49300004 .324 .47 .384 C .538 .45400004 .643 .573 .675 .601 C .704 .625 .74200006 .64900007 .80200005 .652 C .81500006 .65300007 .824 .65300007 .824 .67200003 C .824 .67300005 .824 .683 .81100007 .683 C .781 .683 .748 .68 .717 .68 C .68 .68 .642 .683 .606 .683 C .6 .683 .587 .683 .587 .66300006 C .587 .656 .592 .65300007 .59900003 .652 C .60800005 .651 .639 .64900007 .639 .62100006 C .639 .60700007 .628 .59400006 .62 .58500004 L .458 .411 Z "/>
</symbol><use xlink:href="#font_1_4" transform="matrix(9.9626,0,0,-9.9626,3.2354842,10.93336)"/>
<use xlink:href="#font_1_2" transform="matrix(9.9626,0,0,-9.9626,8.306451,8.891027)"/>
<text fill-opacity="0" transform="matrix(1,0,0,1,-80.901,-22.963973)" font-size="9.9626" font-family="CMMI10" x="130.463 138.24378 142.9262" y="31.855 31.855 31.855">
FjX
</text>
<symbol id="font_1_1"><path d="M .265 .32500003 L .362 .32500003 C .43700004 .32500003 .445 .30900002 .445 .28 C .445 .273 .445 .261 .43800002 .231 C .43600006 .22600001 .435 .22200002 .435 .22000001 C .435 .21200001 .44100004 .208 .44700003 .208 C .45700002 .208 .45700002 .21100001 .462 .22900002 L .517 .446 C .52000003 .45700002 .52000003 .45900002 .52000003 .462 C .52000003 .46400003 .51800008 .47300001 .508 .47300001 C .49800004 .47300001 .49700003 .46800003 .49300004 .45200003 C .47200007 .374 .449 .356 .36400003 .356 L .273 .356 L .337 .61 C .34600001 .64500003 .347 .64900007 .39100004 .64900007 L .52300005 .64900007 C .646 .64900007 .669 .61600008 .669 .53900004 C .669 .51600004 .669 .512 .66600009 .485 C .66400004 .47200003 .66400004 .47000003 .66400004 .467 C .66400004 .462 .66700006 .455 .67600008 .455 C .68700004 .455 .688 .46100002 .69000006 .48000002 L .71000004 .65300007 C .71300006 .68 .70800009 .68 .683 .68 L .193 .68 C .17300001 .68 .163 .68 .163 .66 C .163 .64900007 .172 .64900007 .19100001 .64900007 C .228 .64900007 .25599999 .64900007 .25599999 .63100005 C .25599999 .62700005 .25599999 .625 .251 .60700007 L .119 .078 C .109 .039 .10700001 .031000002 .027999998 .031000002 C .011 .031000002 0 .031000002 0 .012 C 0 0 .011999998 0 .015000001 0 C .044 0 .118 .003 .147 .003 C .18 .003 .263 0 .296 0 C .305 0 .31700004 0 .31700004 .019000001 C .31700004 .027 .311 .029000001 .311 .030000001 C .30800004 .031000002 .306 .031000002 .283 .031000002 C .26100004 .031000002 .25599999 .031000002 .23100002 .033 C .202 .036000002 .19900002 .040000004 .19900002 .053000002 C .19900002 .055000005 .19900002 .061000004 .20300001 .076000004 L .265 .32500003 Z "/>
</symbol><use xlink:href="#font_1_1" transform="matrix(9.9626,0,0,-9.9626,49.940576,8.891027)"/>
<use xlink:href="#font_1_4" transform="matrix(9.9626,0,0,-9.9626,57.21326,10.93336)"/>
<use xlink:href="#font_1_2" transform="matrix(9.9626,0,0,-9.9626,62.29418,8.891027)"/>
<text fill-opacity="0" transform="matrix(1,0,0,1,-74.669,-22.963973)" font-size="9.9626" font-family="CMMI10" x="178.219" y="31.855">
X
</text>
<use xlink:href="#font_1_2" transform="matrix(9.9626,0,0,-9.9626,103.818982,8.891027)"/>
<text fill-opacity="0" transform="matrix(1,0,0,1,-76.486,-22.963974)" font-size="9.9626" font-family="CMMI10" x="80.37 85.042468" y="65.825 65.825">
jY
</text>
<symbol id="font_1_3"><path d="M .562 .569 L .576 .583 C .606 .61300002 .639 .647 .707 .652 C .718 .65300007 .727 .65300007 .727 .671 C .727 .679 .722 .683 .714 .683 C .688 .683 .659 .68 .632 .68 C .599 .68 .564 .683 .532 .683 C .526 .683 .513 .683 .513 .66400004 C .513 .65300007 .523 .652 .528 .652 C .535 .652 .564 .65000005 .564 .629 C .564 .61200004 .541 .586 .537 .58100005 L .305 .314 L .19500001 .611 C .18900001 .625 .18900001 .62700005 .18900001 .628 C .18900001 .652 .238 .652 .24800003 .652 C .26200003 .652 .272 .652 .272 .67200003 C .272 .683 .26000002 .683 .25700002 .683 C .229 .683 .15900001 .68 .13100001 .68 C .106000009 .68 .044000005 .683 .019000001 .683 C .013 .683 0 .683 0 .66300006 C 0 .652 .010000002 .652 .023000002 .652 C .083000002 .652 .08700001 .643 .096000014 .61800004 L .21900001 .289 C .22000003 .286 .22300002 .275 .22300002 .272 C .22300002 .26900003 .18300002 .108 .17800002 .09 C .165 .035 .16400002 .032 .08400001 .031000002 C .065 .031000002 .057000008 .031000002 .057000008 .011000001 C .057000008 0 .069000006 0 .07100001 0 C .09900001 0 .16900002 .003 .19700001 .003 C .22500003 .003 .29700003 0 .32500003 0 C .33200002 0 .344 0 .344 .020000002 C .344 .031000002 .335 .031000002 .316 .031000002 C .314 .031000002 .29500003 .031000002 .27800003 .033 C .25700002 .035 .25100003 .037 .25100003 .049000001 C .25100003 .056 .26000002 .091000004 .26500001 .112 L .3 .25300003 C .305 .272 .30600002 .275 .314 .284 L .562 .569 Z "/>
</symbol><use xlink:href="#font_1_4" transform="matrix(9.9626,0,0,-9.9626,3.754489,44.903355)"/>
<use xlink:href="#font_1_3" transform="matrix(9.9626,0,0,-9.9626,8.905156,42.861023)"/>
<text fill-opacity="0" transform="matrix(1,0,0,1,-80.382,-22.963974)" font-size="9.9626" font-family="CMMI10" x="130.463 138.24378 142.9262" y="65.825 65.825 65.825">
FjY
</text>
<use xlink:href="#font_1_1" transform="matrix(9.9626,0,0,-9.9626,50.45957,42.861023)"/>
<use xlink:href="#font_1_4" transform="matrix(9.9626,0,0,-9.9626,57.732258,44.903355)"/>
<use xlink:href="#font_1_3" transform="matrix(9.9626,0,0,-9.9626,62.89288,42.861023)"/>
<text fill-opacity="0" transform="matrix(1,0,0,1,-74.15,-22.963974)" font-size="9.9626" font-family="CMMI10" x="178.219" y="65.825">
Y
</text>
<use xlink:href="#font_1_3" transform="matrix(9.9626,0,0,-9.9626,104.41769,42.861023)"/>
<path transform="matrix(1,0,0,-1,57.975998,23.441025)" stroke-width=".39848" stroke-linecap="butt" stroke-miterlimit="10" stroke-linejoin="miter" fill="none" stroke="rgb(0,0,0)" d="M -47.75697 8.76726 L -47.75697 -8.36877 "/>
<path transform="matrix(0,1,1,0,10.219028,32.009035)" stroke-width=".39848" stroke-linecap="round" stroke-linejoin="round" fill="none" stroke="rgb(0,0,0)" d="M -2.07213 2.39091 C -1.69356 .95633 -.84995 .27893 0 0 C -.84995 -.27893 -1.69356 -.95633 -2.07213 -2.39091 "/>
<text fill-opacity="0" transform="matrix(1,0,0,1,-69.184,-40.75497)" font-size="6.9738" font-family="CMMI7" x="69.226 72.92211" y="65.825 65.825">
j&#x03c1;
</text>
<symbol id="font_2_3"><path d="M .439 .829 C .439 .846 .42600003 .86700002 .39900003 .86700002 C .37 .86700002 .34300003 .83900004 .34300003 .812000073 C .34300003 .796 .35500002 .77400007 .38300002 .77400007 C .41000004 .77400007 .439 .8 .439 .829 M .22700002 .155 C .21000001 .086 .157 .027999998 .098000002 .027999998 C .085 .027999998 .07300001 .030000001 .062000003 .03400001 C .08800001 .046000004 .096 .07000001 .096 .08500001 C .096 .109000003 .07700001 .12200001 .057000003 .12200001 C .026 .12200001 0 .095000009 0 .06300001 C 0 .025000006 .039 0 .09900001 0 C .15900001 0 .27600003 .036 .307 .158 L .397 .51600004 C .4 .527 .402 .536 .402 .551 C .402 .606 .35500002 .64500003 .29500003 .64500003 C .18400002 .64500003 .120000004 .50600005 .120000004 .49200005 C .120000004 .47900004 .134 .47900004 .13700001 .47900004 C .149 .47900004 .15 .48200006 .157 .49700003 C .18200001 .555 .23400001 .61700006 .29200003 .61700006 C .317 .61700006 .326 .6 .326 .568 C .326 .55700007 .324 .54300004 .323 .53800006 L .22700002 .155 Z "/>
</symbol><symbol id="font_2_1"><path d="M .0040000005 .053000002 C 0 .038000002 0 .033000007 0 .032000006 C 0 .010000005 .018000003 0 .034000006 0 C .07000001 0 .07800001 .030000001 .08500001 .062000008 C .09900001 .114000012 .127 .22800002 .13700001 .26600004 C .14600002 .25100003 .17800002 .20400001 .24700003 .20400001 C .375 .20400001 .51100006 .34000004 .51100006 .48600002 C .51100006 .592 .44 .65500002 .352 .65500002 C .254 .65500002 .13300002 .569 .098000002 .42800003 L .0040000005 .053000002 M .246 .23200002 C .17200002 .23200002 .15 .30600002 .15 .319 C .15 .32100005 .15600002 .34300003 .15900001 .35500002 C .18900001 .47800002 .19500001 .50100003 .22400002 .5450001 C .26 .59800005 .31 .62700005 .35 .62700005 C .391 .62700005 .43 .59800005 .43 .526 C .43 .48000002 .404 .36900001 .373 .319 C .327 .24800003 .277 .23200002 .246 .23200002 Z "/>
</symbol><use xlink:href="#font_2_3" transform="matrix(6.9738,0,0,-6.9738,.041999817,26.492682)"/>
<use xlink:href="#font_2_1" transform="matrix(6.9738,0,0,-6.9738,4.0868035,26.56242)"/>
<path transform="matrix(1,0,0,-1,57.975998,23.441025)" stroke-width=".39848" stroke-linecap="butt" stroke-miterlimit="10" stroke-linejoin="miter" fill="none" stroke="rgb(0,0,0)" d="M 17.57478 17.0405 L 40.68842 17.0405 "/>
<path transform="matrix(1,0,0,-1,98.8636674,6.400524)" stroke-width=".39848" stroke-linecap="round" stroke-linejoin="round" fill="none" stroke="rgb(0,0,0)" d="M -2.07213 2.39091 C -1.69356 .95633 -.84995 .27893 0 0 C -.84995 -.27893 -1.69356 -.95633 -2.07213 -2.39091 "/>
<text fill-opacity="0" transform="matrix(1,0,0,1,12.989,-62.769975)" font-size="6.9738" font-family="CMMI7" x="69.226" y="65.825">
s
</text>
<symbol id="font_2_4"><path d="M .36 .386 C .33400002 .38 .31800003 .359 .31800003 .33900002 C .31800003 .316 .338 .307 .351 .307 C .361 .307 .39900003 .313 .39900003 .364 C .39900003 .42900001 .32700003 .451 .266 .451 C .11000001 .451 .08200001 .336 .08200001 .305 C .08200001 .268 .10300001 .24400002 .117000009 .23200002 C .143 .21200001 .16100002 .20800002 .23000002 .19600001 C .25100003 .19200002 .315 .18 .315 .13000001 C .315 .113000009 .30400003 .075 .262 .050000005 C .22299999 .028 .174 .028 .162 .028 C .122 .028 .065000005 .037 .042000003 .07 C .07500001 .074 .09700001 .099 .09700001 .127 C .09700001 .15200001 .079 .16400002 .058000007 .16400002 C .029 .16400002 0 .14100002 0 .097 C 0 .037 .064 0 .16100002 0 C .345 0 .379 .126 .379 .165 C .379 .257 .278 .275 .241 .282 C .232 .284 .20700002 .28800002 .201 .29 C .164 .297 .146 .31800003 .146 .34 C .146 .363 .164 .39000001 .18599999 .404 C .213 .421 .248 .423 .26500001 .423 C .286 .423 .338 .42000003 .36 .386 Z "/>
</symbol><use xlink:href="#font_2_4" transform="matrix(6.9738,0,0,-6.9738,82.7101411,3.124761)"/>
<text fill-opacity="0" transform="matrix(1,0,0,1,12.989,-62.769975)" font-size="4.9813" font-family="CMMI5" x="72.987" y="66.826997">
X
</text>
<symbol id="font_3_2"><path d="M .554 .381 L .76800008 .57100006 C .82800007 .625 .88100005 .63600006 .9410001 .638 C .95500002 .63900004 .9610001 .656 .9610001 .666 C .9610001 .675 .95300007 .683 .944000043 .683 C .9280001 .683 .908 .68 .890999994 .68 C .8740001 .68 .85600005 .679 .83900004 .679 C .81700001 .679 .79600006 .68 .77500005 .68 C .75600005 .68 .73300005 .683 .71400004 .683 C .707 .683 .69000006 .683 .69000006 .65500002 C .69000006 .64100004 .70100003 .638 .70900007 .638 C .72300005 .637 .74100008 .633 .74100008 .61800004 C .74100008 .60400005 .73200007 .596 .70000005 .56700001 L .53300005 .416 L .411 .62 C .42700005 .633 .44700003 .637 .46500004 .638 C .47100001 .638 .48800003 .63900004 .48800003 .666 C .48800003 .67800003 .47800005 .683 .47000003 .683 C .44700003 .683 .421 .68 .39800004 .68 C .37500003 .68 .351 .679 .328 .679 C .307 .679 .28500004 .68 .26400004 .68 C .243 .68 .22100001 .683 .201 .683 C .18400002 .683 .17700002 .671 .17700002 .65500002 C .17700002 .638 .192 .638 .21000001 .638 C .27600003 .638 .282 .62700005 .291 .61200004 L .45200003 .34300003 L .21000001 .124000009 C .20700002 .12100001 .19800002 .115 .194 .113000009 C .153 .079 .11400001 .048 .019000001 .045 C .001000002 .044000005 0 .019000001 0 .017 C 0 .006 .009000003 0 .016000003 0 C .033000007 0 .052 .003 .069000006 .003 C .08600001 .003 .104 .004 .12100001 .004 C .143 .004 .164 .003 .185 .003 C .20500002 .003 .227 0 .24700001 0 C .261 0 .27100003 .007 .27100003 .028 C .27100003 .044000005 .256 .045 .252 .045 C .224 .047000003 .22 .059000005 .22 .065000005 C .22 .076000004 .23400003 .09200001 .236 .095000009 C .24100003 .1 .43400002 .272 .472 .30800004 L .61200004 .076000004 C .614 .072000003 .61800004 .066 .61800004 .064 C .61800004 .060000001 .601 .047000003 .56500006 .045 C .559 .045 .54200006 .044000005 .54200006 .017 C .54200006 .006 .55 0 .56 0 C .583 0 .609 .003 .632 .003 C .65500002 .003 .679 .004 .702 .004 C .72300005 .004 .74500008 .003 .76600004 .003 C .786 .003 .809 0 .82900008 0 C .846 0 .85300007 .012 .85300007 .028 C .85300007 .045 .838000096 .045 .82000008 .045 C .75500007 .045 .749 .056 .74 .07 L .554 .381 Z "/>
</symbol><use xlink:href="#font_3_2" transform="matrix(4.9813,0,0,-4.9813,86.4591874,4.057022)"/>
<text fill-opacity="0" transform="matrix(1,0,0,1,14.966999,-53.63597)" font-size="6.9738" font-family="CMSY7" x="69.226" y="65.825">
&#x2243;
</text>
<symbol id="font_4_1"><path d="M .73800002 .449 C .73800002 .486 .72400003 .48700003 .721 .48700003 C .711 .48700003 .70500002 .47 .704 .46 C .703 .44 .7 .393 .661 .357 C .62200003 .32 .583 .313 .55300003 .313 C .485 .313 .436 .351 .362 .40800003 C .31200004 .446 .254 .488 .18500002 .488 C .077999993 .488 0 .391 0 .283 C 0 .24700003 .013999999 .24500002 .016999998 .24500002 C .027999998 .24500002 .033 .264 .034 .272 C .034999996 .292 .037999995 .33900002 .07700001 .375 C .116 .412 .155 .419 .18500002 .419 C .25300003 .419 .302 .381 .376 .324 C .426 .286 .48400002 .244 .55300003 .244 C .66 .244 .73800002 .341 .73800002 .449 M .04 .049000001 C .022999995 .049000001 0 .049000001 0 .024 C 0 0 .023999997 0 .04 0 L .698 0 C .714 0 .73800002 0 .73800002 .024 C .73800002 .049000001 .71500006 .049000001 .698 .049000001 L .04 .049000001 Z "/>
</symbol><use xlink:href="#font_4_1" transform="matrix(6.9738,0,0,-6.9738,84.72997,12.147183)"/>
<path transform="matrix(1,0,0,-1,57.975998,23.441025)" stroke-width=".39848" stroke-linecap="butt" stroke-dasharray="2.78941,1.59395" stroke-miterlimit="10" stroke-linejoin="miter" fill="none" stroke="rgb(0,0,0)" d="M 2.3365 8.76726 L 2.3365 -8.36877 "/>
<path transform="matrix(0,1,1,0,60.312496,32.009035)" stroke-width=".39848" stroke-linecap="round" stroke-linejoin="round" fill="none" stroke="rgb(0,0,0)" d="M -2.07213 2.39091 C -1.69356 .95633 -.84995 .27893 0 0 C -.84995 -.27893 -1.69356 -.95633 -2.07213 -2.39091 "/>
<text fill-opacity="0" transform="matrix(1,0,0,1,12.660999,-38.82997)" font-size="9.9626" font-family="MSAM10" x="69.226" y="65.825">
&#x27f3;
</text>
<symbol id="font_5_1"><path d="M .25000003 .60800005 C .21400002 .56000004 .19900003 .513 .19300002 .476 L .22300002 .485 C .23000002 .526 .24800003 .573 .28800002 .61700006 C .31000004 .64000006 .31500004 .64100004 .32400003 .64100004 C .33400002 .64100004 .34500003 .642 .34500003 .65300007 C .34500003 .666 .33200002 .666 .32400003 .666 C .30800004 .666 .28000002 .66200008 .277 .66200008 C .27400003 .66200008 .20700002 .67600008 .15 .73800002 C .143 .73600007 .12600002 .731 .121 .73 C .16600001 .67800003 .22600001 .652 .23000002 .65000005 C .07 .59400006 0 .455 0 .333 C 0 .148 .15100003 0 .33200002 0 C .517 0 .665 .15100001 .665 .333 C .665 .538 .48900003 .634 .47100001 .634 C .46000004 .634 .45900006 .624 .45900006 .62200003 C .45900006 .615 .46400004 .61200004 .472 .60800005 C .614 .53000002 .64000006 .402 .64000006 .333 C .64000006 .162 .50000005 .025000003 .33300004 .025000003 C .162 .025000003 .024999998 .164 .024999998 .333 C .024999998 .46400003 .109000003 .587 .24500003 .628 L .25000003 .60800005 Z "/>
</symbol><use xlink:href="#font_5_1" transform="matrix(9.9626,0,0,-9.9626,82.4449052,27.821923)"/>
<path transform="matrix(1,0,0,-1,57.975998,23.441025)" stroke-width=".39848" stroke-linecap="butt" stroke-miterlimit="10" stroke-linejoin="miter" fill="none" stroke="rgb(0,0,0)" d="M 50.09349 10.70445 L 50.09349 -8.36877 "/>
<path transform="matrix(0,1,1,0,108.06949,32.009035)" stroke-width=".39848" stroke-linecap="round" stroke-linejoin="round" fill="none" stroke="rgb(0,0,0)" d="M -2.07213 2.39091 C -1.69356 .95633 -.84995 .27893 0 0 C -.84995 -.27893 -1.69356 -.95633 -2.07213 -2.39091 "/>
<text fill-opacity="0" transform="matrix(1,0,0,1,41.187,-42.528973)" font-size="6.9738" font-family="CMMI7" x="69.226" y="65.825">
&#x03c1;
</text>
<use xlink:href="#font_2_1" transform="matrix(6.9738,0,0,-6.9738,110.76168,24.788418)"/>
<path transform="matrix(1,0,0,-1,57.975998,23.441025)" stroke-width=".39848" stroke-linecap="butt" stroke-miterlimit="10" stroke-linejoin="miter" fill="none" stroke="rgb(0,0,0)" d="M 17.0559 -16.92978 L 41.2073 -16.92978 "/>
<path transform="matrix(1,0,0,-1,99.38255,40.370803)" stroke-width=".39848" stroke-linecap="round" stroke-linejoin="round" fill="none" stroke="rgb(0,0,0)" d="M -2.07213 2.39091 C -1.69356 .95633 -.84995 .27893 0 0 C -.84995 -.27893 -1.69356 -.95633 -2.07213 -2.39091 "/>
<text fill-opacity="0" transform="matrix(1,0,0,1,14.966999,-27.797972)" font-size="6.9738" font-family="CMSY7" x="69.226" y="65.825">
&#x2243;
</text>
<use xlink:href="#font_4_1" transform="matrix(6.9738,0,0,-6.9738,84.72997,37.98518)"/>
<text fill-opacity="0" transform="matrix(1,0,0,1,13.207001,-20.107973)" font-size="6.9738" font-family="CMMI7" x="69.226" y="65.825">
s
</text>
<use xlink:href="#font_2_4" transform="matrix(6.9738,0,0,-6.9738,82.92814,45.786763)"/>
<text fill-opacity="0" transform="matrix(1,0,0,1,13.207001,-20.107973)" font-size="4.9813" font-family="CMMI5" x="72.987" y="66.826997">
Y
</text>
<symbol id="font_3_3"><path d="M .69200001 .558 L .72 .58100005 C .74700003 .60300007 .786 .634 .856 .638 C .87 .63900004 .884 .63900004 .884 .666 C .884 .68 .87200003 .683 .86800004 .683 C .85400001 .683 .838 .68 .823 .68 C .808 .68 .792 .679 .776 .679 L .717 .68 C .70000005 .68 .68 .683 .663 .683 C .65000005 .683 .639 .67600008 .639 .65500002 C .639 .64100004 .651 .638 .658 .638 C .683 .637 .689 .63100005 .689 .624 C .689 .61 .665 .588 .657 .58000002 L .393 .32700003 L .23800002 .61200004 C .23200001 .62200003 .23200001 .624 .23200001 .625 C .23200001 .638 .27500005 .638 .283 .638 C .29800005 .638 .314 .638 .314 .666 C .314 .67800003 .30400003 .683 .296 .683 C .273 .683 .24700003 .68 .22400002 .68 C .2 .68 .17600002 .679 .152 .679 C .13100001 .679 .10900001 .68 .088 .68 C .075 .68 .025000006 .683 .024000004 .683 C .009999998 .683 0 .67600008 0 .65500002 C 0 .638 .013999999 .638 .032000006 .638 C .096 .638 .10000001 .63100005 .112 .609 L .29500003 .27400003 L .25 .091000004 C .23800002 .046000004 .23300002 .045 .159 .045 C .136 .045 .120000004 .045 .120000004 .017 C .120000004 .009000001 .127 0 .13800001 0 C .159 0 .18300002 .003 .205 .003 C .22900002 .003 .25300003 .004 .277 .004 C .302 .004 .32600003 .003 .351 .003 C .37300003 .003 .398 0 .41900004 0 C .426 0 .444 0 .444 .028 C .444 .045 .43 .045 .411 .045 C .40899997 .045 .385 .045 .36800004 .047000003 C .343 .049000001 .342 .05 .342 .058000002 C .342 .065000005 .342 .067 .35400004 .112 L .394 .273 L .69200001 .558 Z "/>
</symbol><use xlink:href="#font_3_3" transform="matrix(4.9813,0,0,-4.9813,86.71703,46.719026)"/>
<path transform="matrix(1,0,0,-1,57.975998,23.441025)" stroke-width=".39848" stroke-linecap="butt" stroke-miterlimit="10" stroke-linejoin="miter" fill="none" stroke="rgb(0,0,0)" d="M -43.06898 0 L -2.74994 0 "/>
<path transform="matrix(1,0,0,-1,55.425296,23.441025)" stroke-width=".39848" stroke-linecap="round" stroke-linejoin="round" fill="none" stroke="rgb(0,0,0)" d="M -2.07213 2.39091 C -1.69356 .95633 -.84995 .27893 0 0 C -.84995 -.27893 -1.69356 -.95633 -2.07213 -2.39091 "/>
<text fill-opacity="0" transform="matrix(1,0,0,1,-46.636,-46.69797)" font-size="6.9738" font-family="CMMI7" x="69.226" y="65.825">
F
</text>
<symbol id="font_2_2"><path d="M .273 .32200003 L .38000002 .32200003 C .45600004 .32200003 .46900005 .31 .46900005 .277 C .46900005 .26200003 .46900005 .26000002 .462 .23200001 C .46000004 .22600001 .459 .223 .459 .22000001 C .459 .21000001 .46600003 .20500002 .476 .20500002 C .48900003 .20500002 .49 .21000001 .495 .22800002 L .549 .44000002 C .55 .44300003 .55300003 .45800004 .55300003 .46 C .55300003 .47000003 .546 .47500001 .536 .47500001 C .522 .47500001 .521 .469 .51600004 .45100003 C .496 .37300003 .467 .358 .38200002 .358 L .282 .358 L .34500003 .609 C .35300002 .64000006 .354 .643 .39600003 .643 L .549 .643 C .68200007 .643 .707 .611 .707 .528 C .707 .49500003 .703 .47400003 .703 .46600003 C .703 .45800004 .70600005 .44900003 .72 .44900003 C .735 .44900003 .73600007 .45800004 .73800002 .47500001 L .75600005 .64900007 C .75900007 .679 .75200005 .679 .72700005 .679 L .19300002 .679 C .17400001 .679 .161 .679 .161 .657 C .161 .643 .17300001 .643 .19300002 .643 C .194 .643 .213 .643 .231 .64100004 C .252 .63900004 .254 .637 .254 .62700005 C .254 .62 .25100003 .61 .25 .605 L .119 .082 C .109 .043 .107999999 .036000002 .030000001 .036000002 C .012999997 .036000002 0 .036000002 0 .015000001 C 0 .0050000005 .0069999991 0 .015999996 0 C .045 0 .119 .004 .148 .004 L .225 .003 C .25100003 .003 .279 0 .30400003 0 C .31100002 0 .326 0 .326 .022000002 C .326 .036000002 .314 .036000002 .291 .036000002 C .289 .036000002 .264 .036000002 .23900002 .038000002 C .218 .040000004 .208 .041 .208 .055000005 C .208 .059000005 .208 .062000003 .211 .07300001 L .273 .32200003 Z "/>
</symbol><use xlink:href="#font_2_2" transform="matrix(6.9738,0,0,-6.9738,23.071188,19.127026)"/>
<text fill-opacity="0" transform="matrix(1,0,0,1,-46.636,-46.69797)" font-size="4.9813" font-family="CMMI5" x="74.279 77.49692 83.080959 85.36239 88.58529" y="66.826997 66.826997 66.826997 66.826997 66.826997">
jX,jY
</text>
<symbol id="font_3_4"><path d="M .47300005 .829 C .47300005 .852000035 .45600004 .8720001 .42900001 .8720001 C .39800004 .8720001 .367 .842 .367 .812000073 C .367 .788 .386 .76900006 .411 .76900006 C .44500003 .76900006 .47300005 .801 .47300005 .829 M .25500002 .16000001 C .236 .08400001 .17300001 .03400001 .112 .03400001 C .095 .03400001 .08400001 .037 .076000004 .039000006 C .10000001 .053000002 .10700001 .07900001 .10700001 .09200001 C .10700001 .10900001 .095 .13300002 .062000008 .13300002 C .028000004 .13300002 0 .102000009 0 .069000006 C 0 .026000008 .045 0 .113000009 0 C .18100001 0 .31100002 .03500001 .342 .15900001 L .432 .517 C .43400002 .52700009 .43700004 .536 .43700004 .5500001 C .43700004 .607 .38400004 .6470001 .314 .6470001 C .193 .6470001 .119 .512 .119 .492 C .119 .47800002 .135 .47800002 .14 .47800002 C .155 .47800002 .157 .48200002 .16200002 .492 C .208 .59000006 .27600003 .61300002 .31 .61300002 C .35000003 .61300002 .35200003 .577 .35200003 .56000004 C .35200003 .546 .351 .54200006 .349 .53400002 L .25500002 .16000001 Z "/>
</symbol><symbol id="font_3_1"><path d="M .102 .208 C .102 .112 .049999996 .056999998 .023000002 .034999996 C .012999997 .026999996 .0109999929 .024999991 .0109999929 .017999992 C .0109999929 .0119999949 .019999996 0 .029 0 C .041999997 0 .136 .078 .136 .20300001 C .136 .27100003 .106000009 .316 .061000004 .316 C .023000002 .316 0 .286 0 .255 C 0 .223 .023000002 .194 .061000004 .194 C .076000004 .194 .09099999 .198 .102 .208 Z "/>
</symbol><use xlink:href="#font_3_4" transform="matrix(4.9813,0,0,-4.9813,27.827307,21.15019)"/>
<use xlink:href="#font_3_2" transform="matrix(4.9813,0,0,-4.9813,31.344103,20.129025)"/>
<use xlink:href="#font_3_1" transform="matrix(4.9813,0,0,-4.9813,37.28181,21.095396)"/>
<use xlink:href="#font_3_4" transform="matrix(4.9813,0,0,-4.9813,38.910695,21.15019)"/>
<use xlink:href="#font_3_3" transform="matrix(4.9813,0,0,-4.9813,42.472325,20.129025)"/>
<text fill-opacity="0" transform="matrix(1,0,0,1,-37.073999,-36.59597)" font-size="6.9738" font-family="CMSY7" x="69.226" y="65.825">
&#x2243;
</text>
<use xlink:href="#font_4_1" transform="matrix(6.9738,0,0,-6.9738,32.688985,29.187184)"/>
</g>
</svg>
