<?xml version="1.0" standalone="no"?>
<!DOCTYPE svg PUBLIC "-//W3C//DTD SVG 1.1//EN" "http://www.w3.org/Graphics/SVG/1.1/DTD/svg11.dtd">
<svg xmlns="http://www.w3.org/2000/svg" xmlns:xlink="http://www.w3.org/1999/xlink" version="1.1" width="3.851275cm" height="1.670685cm" viewBox="0 0 109.17 47.358">
<clipPath id="cp0">
<path transform="matrix(1,0,0,-1,-83.5380067,727.506)" d="M 0 0 L 595.28 0 L 595.28 841.889963 L 0 841.889963 Z "/>
</clipPath>
<g clip-path="url(#cp0)">
<text fill-opacity="0" transform="matrix(1,0,0,1,-71.921,-22.964034)" font-size="9.9626" font-family="CMMI10" x="74.416" y="33.142">
A
</text>
<symbol id="font_1_1"><path d="M .14400001 .115 C .10400002 .048 .065 .034 .021000002 .031000002 C .009000003 .030000001 0 .030000001 0 .011000001 C 0 .0050000005 .0050000029 0 .013 0 C .040000004 0 .07100001 .003 .09900001 .003 C .13200002 .003 .16700001 0 .19900002 0 C .20500002 0 .21800003 0 .21800003 .019000001 C .21800003 .030000001 .20900002 .031000002 .20200002 .031000002 C .17900002 .033 .15500002 .041 .15500002 .066 C .15500002 .078 .16100002 .089 .16900002 .10300001 L .245 .231 L .49600001 .231 C .49800005 .21000001 .512 .074 .512 .064 C .512 .034 .46000004 .031000002 .44000002 .031000002 C .42600003 .031000002 .41600004 .031000002 .41600004 .011000001 C .41600004 0 .42800003 0 .43000003 0 C .47100006 0 .514 .003 .555 .003 C .58 .003 .643 0 .668 0 C .674 0 .686 0 .686 .020000002 C .686 .031000002 .676 .031000002 .663 .031000002 C .601 .031000002 .601 .038000002 .598 .067 L .537 .69200001 C .535 .712 .535 .716 .518 .716 C .502 .716 .49800005 .70900007 .492 .69900008 L .14400001 .115 M .26400004 .26200003 L .46100002 .592 L .493 .26200003 L .26400004 .26200003 Z "/>
</symbol><use xlink:href="#font_1_1" transform="matrix(9.9626,0,0,-9.9626,2.8436938,10.177965)"/>
<text fill-opacity="0" transform="matrix(1,0,0,1,-79.733,-22.964034)" font-size="9.9626" font-family="CMMI10" x="122.774 130.6046 138.38537" y="33.142 33.142 33.142">
GFA
</text>
<symbol id="font_1_4"><path d="M .71000004 .71700006 C .71000004 .72 .708 .72700005 .699 .72700005 C .69600006 .72700005 .69500008 .7260001 .684 .71500006 L .614 .6380001 C .605 .65200009 .559 .72700005 .448 .72700005 C .22500001 .72700005 0 .50600005 0 .27400003 C 0 .115 .11100002 0 .273 0 C .317 0 .36200002 .0090000019 .398 .024000002 C .448 .044000005 .467 .065000005 .485 .085 C .49400001 .060000001 .52000003 .023000002 .53000002 .023000002 C .535 .023000002 .537 .026000002 .537 .027000003 C .53900004 .029000003 .549 .067 .554 .088 L .573 .165 C .577 .18200001 .582 .199 .586 .216 C .597 .261 .598 .263 .65500002 .26400004 C .66 .26400004 .671 .26500001 .671 .28400004 C .671 .29100004 .666 .29500003 .658 .29500003 C .63500004 .29500003 .57600003 .29200003 .55300003 .29200003 C .522 .29200003 .444 .29500003 .41300002 .29500003 C .404 .29500003 .39200001 .29500003 .39200001 .27500005 C .39200001 .26400004 .4 .26400004 .42200003 .26400004 C .423 .26400004 .45200003 .26400004 .47500001 .26200003 C .501 .25900004 .50600005 .256 .50600005 .24300001 C .50600005 .23400001 .495 .18900001 .485 .15200001 C .45700002 .042000003 .327 .031000004 .292 .031000004 C .19600001 .031000004 .091000004 .088 .091000004 .24100001 C .091000004 .272 .10100001 .43700004 .20600002 .56700001 C .26 .63500004 .357 .69600006 .45600004 .69600006 C .558 .69600006 .61700006 .619 .61700006 .503 C .61700006 .46300002 .614 .46200004 .614 .45200003 C .614 .44200002 .625 .44200002 .629 .44200002 C .642 .44200002 .642 .44400005 .647 .46200004 L .71000004 .71700006 Z "/>
</symbol><symbol id="font_1_3"><path d="M .265 .32500003 L .362 .32500003 C .43700004 .32500003 .445 .30900002 .445 .28 C .445 .273 .445 .261 .43800002 .231 C .43600006 .22600001 .435 .22200002 .435 .22000001 C .435 .21200001 .44100004 .208 .44700003 .208 C .45700002 .208 .45700002 .21100001 .462 .22900002 L .517 .446 C .52000003 .45700002 .52000003 .45900002 .52000003 .462 C .52000003 .46400003 .51800008 .47300001 .508 .47300001 C .49800004 .47300001 .49700003 .46800003 .49300004 .45200003 C .47200007 .374 .449 .356 .36400003 .356 L .273 .356 L .337 .61 C .34600001 .64500003 .347 .64900007 .39100004 .64900007 L .52300005 .64900007 C .646 .64900007 .669 .61600008 .669 .53900004 C .669 .51600004 .669 .512 .66600009 .485 C .66400004 .47200003 .66400004 .47000003 .66400004 .467 C .66400004 .462 .66700006 .455 .67600008 .455 C .68700004 .455 .688 .46100002 .69000006 .48000002 L .71000004 .65300007 C .71300006 .68 .70800009 .68 .683 .68 L .193 .68 C .17300001 .68 .163 .68 .163 .66 C .163 .64900007 .172 .64900007 .19100001 .64900007 C .228 .64900007 .25599999 .64900007 .25599999 .63100005 C .25599999 .62700005 .25599999 .625 .251 .60700007 L .119 .078 C .109 .039 .10700001 .031000002 .027999998 .031000002 C .011 .031000002 0 .031000002 0 .012 C 0 0 .011999998 0 .015000001 0 C .044 0 .118 .003 .147 .003 C .18 .003 .263 0 .296 0 C .305 0 .31700004 0 .31700004 .019000001 C .31700004 .027 .311 .029000001 .311 .030000001 C .30800004 .031000002 .306 .031000002 .283 .031000002 C .26100004 .031000002 .25599999 .031000002 .23100002 .033 C .202 .036000002 .19900002 .040000004 .19900002 .053000002 C .19900002 .055000005 .19900002 .061000004 .20300001 .076000004 L .265 .32500003 Z "/>
</symbol><use xlink:href="#font_1_4" transform="matrix(9.9626,0,0,-9.9626,43.53913,10.397142)"/>
<use xlink:href="#font_1_3" transform="matrix(9.9626,0,0,-9.9626,51.250177,10.177965)"/>
<use xlink:href="#font_1_1" transform="matrix(9.9626,0,0,-9.9626,59.001065,10.177965)"/>
<text fill-opacity="0" transform="matrix(1,0,0,1,-71.921,-22.964034)" font-size="9.9626" font-family="CMMI10" x="171.102" y="33.142">
A
</text>
<use xlink:href="#font_1_1" transform="matrix(9.9626,0,0,-9.9626,99.5297,10.177965)"/>
<text fill-opacity="0" transform="matrix(1,0,0,1,-72.213,-22.964035)" font-size="9.9626" font-family="CMMI10" x="74.416" y="65.175">
B
</text>
<symbol id="font_1_2"><path d="M .11800001 .078 C .108 .039 .106 .031000002 .027000003 .031000002 C .009999998 .031000002 0 .031000002 0 .011000001 C 0 0 .009 0 .027000003 0 L .38400004 0 C .54200006 0 .66 .11800001 .66 .216 C .66 .28800002 .60200005 .34600001 .50500007 .35700002 C .609 .37600003 .71400004 .45000001 .71400004 .545 C .71400004 .619 .64800005 .683 .52800007 .683 L .192 .683 C .17300001 .683 .16300002 .683 .16300002 .66300006 C .16300002 .652 .17200002 .652 .19100001 .652 C .19300002 .652 .21200001 .652 .22900003 .65000005 C .24700001 .648 .256 .647 .256 .634 C .256 .63000007 .25500002 .62700005 .252 .615 L .11800001 .078 M .26900003 .36600004 L .33100004 .614 C .34000004 .64900007 .342 .652 .38500002 .652 L .51400004 .652 C .60200005 .652 .623 .59300004 .623 .549 C .623 .46100002 .53700008 .36600004 .41500001 .36600004 L .26900003 .36600004 M .224 .031000002 C .21000001 .031000002 .208 .031000002 .20200002 .032 C .192 .033 .18900001 .034 .18900001 .042000003 C .18900001 .045 .18900001 .047000003 .194 .065000005 L .263 .344 L .45200003 .344 C .54800005 .344 .56700001 .27 .56700001 .22700002 C .56700001 .128 .47800005 .031000002 .36 .031000002 L .224 .031000002 Z "/>
</symbol><use xlink:href="#font_1_2" transform="matrix(9.9626,0,0,-9.9626,2.621432,42.210969)"/>
<text fill-opacity="0" transform="matrix(1,0,0,1,-80.024996,-22.964035)" font-size="9.9626" font-family="CMMI10" x="122.774 130.6046 138.38537" y="65.175 65.175 65.175">
GFB
</text>
<use xlink:href="#font_1_4" transform="matrix(9.9626,0,0,-9.9626,43.24714,42.430147)"/>
<use xlink:href="#font_1_3" transform="matrix(9.9626,0,0,-9.9626,50.958185,42.210969)"/>
<use xlink:href="#font_1_2" transform="matrix(9.9626,0,0,-9.9626,58.778814,42.210969)"/>
<text fill-opacity="0" transform="matrix(1,0,0,1,-72.184,-22.964035)" font-size="9.9626" font-family="CMMI10" x="171.102" y="65.175">
Y
</text>
<symbol id="font_1_5"><path d="M .562 .569 L .576 .583 C .606 .61300002 .639 .647 .707 .652 C .718 .65300007 .727 .65300007 .727 .671 C .727 .679 .722 .683 .714 .683 C .688 .683 .659 .68 .632 .68 C .599 .68 .564 .683 .532 .683 C .526 .683 .513 .683 .513 .66400004 C .513 .65300007 .523 .652 .528 .652 C .535 .652 .564 .65000005 .564 .629 C .564 .61200004 .541 .586 .537 .58100005 L .305 .314 L .19500001 .611 C .18900001 .625 .18900001 .62700005 .18900001 .628 C .18900001 .652 .238 .652 .24800003 .652 C .26200003 .652 .272 .652 .272 .67200003 C .272 .683 .26000002 .683 .25700002 .683 C .229 .683 .15900001 .68 .13100001 .68 C .106000009 .68 .044000005 .683 .019000001 .683 C .013 .683 0 .683 0 .66300006 C 0 .652 .010000002 .652 .023000002 .652 C .083000002 .652 .08700001 .643 .096000014 .61800004 L .21900001 .289 C .22000003 .286 .22300002 .275 .22300002 .272 C .22300002 .26900003 .18300002 .108 .17800002 .09 C .165 .035 .16400002 .032 .08400001 .031000002 C .065 .031000002 .057000008 .031000002 .057000008 .011000001 C .057000008 0 .069000006 0 .07100001 0 C .09900001 0 .16900002 .003 .19700001 .003 C .22500003 .003 .29700003 0 .32500003 0 C .33200002 0 .344 0 .344 .020000002 C .344 .031000002 .335 .031000002 .316 .031000002 C .314 .031000002 .29500003 .031000002 .27800003 .033 C .25700002 .035 .25100003 .037 .25100003 .049000001 C .25100003 .056 .26000002 .091000004 .26500001 .112 L .3 .25300003 C .305 .272 .30600002 .275 .314 .284 L .562 .569 Z "/>
</symbol><use xlink:href="#font_1_5" transform="matrix(9.9626,0,0,-9.9626,99.2667,42.210969)"/>
<path transform="matrix(1,0,0,-1,54.559999,22.79097)" stroke-width=".39848" stroke-linecap="butt" stroke-miterlimit="10" stroke-linejoin="miter" fill="none" stroke="rgb(0,0,0)" d="M -48.32869 8.76726 L -48.32869 -8.36877 "/>
<path transform="matrix(0,1,1,0,6.231308,31.35898)" stroke-width=".39848" stroke-linecap="round" stroke-linejoin="round" fill="none" stroke="rgb(0,0,0)" d="M -2.07213 2.39091 C -1.69356 .95633 -.84995 .27893 0 0 C -.84995 -.27893 -1.69356 -.95633 -2.07213 -2.39091 "/>
<text fill-opacity="0" transform="matrix(1,0,0,1,-66.344,-41.56103)" font-size="6.9738" font-family="CMMI7" x="66.098" y="65.175">
&#x03c1;
</text>
<symbol id="font_2_1"><path d="M .0040000005 .053000002 C 0 .038000002 0 .033000007 0 .032000006 C 0 .010000005 .018000003 0 .034000006 0 C .07000001 0 .07800001 .030000001 .08500001 .062000008 C .09900001 .114000012 .127 .22800002 .13700001 .26600004 C .14600002 .25100003 .17800002 .20400001 .24700003 .20400001 C .375 .20400001 .51100006 .34000004 .51100006 .48600002 C .51100006 .592 .44 .65500002 .352 .65500002 C .254 .65500002 .13300002 .569 .098000002 .42800003 L .0040000005 .053000002 M .246 .23200002 C .17200002 .23200002 .15 .30600002 .15 .319 C .15 .32100005 .15600002 .34300003 .15900001 .35500002 C .18900001 .47800002 .19500001 .50100003 .22400002 .5450001 C .26 .59800005 .31 .62700005 .35 .62700005 C .391 .62700005 .43 .59800005 .43 .526 C .43 .48000002 .404 .36900001 .373 .319 C .327 .24800003 .277 .23200002 .246 .23200002 Z "/>
</symbol><use xlink:href="#font_2_1" transform="matrix(6.9738,0,0,-6.9738,.10268781,25.106366)"/>
<path transform="matrix(1,0,0,-1,54.559999,22.79097)" stroke-width=".39848" stroke-linecap="butt" stroke-miterlimit="10" stroke-linejoin="miter" fill="none" stroke="rgb(0,0,0)" d="M 16.06598 15.10332 L 39.73482 15.10332 "/>
<path transform="matrix(1,0,0,-1,94.49405,7.6876498)" stroke-width=".39848" stroke-linecap="round" stroke-linejoin="round" fill="none" stroke="rgb(0,0,0)" d="M -2.07213 2.39091 C -1.69356 .95633 -.84995 .27893 0 0 C -.84995 -.27893 -1.69356 -.95633 -2.07213 -2.39091 "/>
<text fill-opacity="0" transform="matrix(1,0,0,1,12.226997,-60.83303)" font-size="6.9738" font-family="CMMI7" x="66.098" y="65.175">
t
</text>
<symbol id="font_2_4"><path d="M .204 .405 L .30600002 .405 C .32500003 .405 .33800004 .405 .33800004 .42700001 C .33800004 .441 .32500003 .441 .30800004 .441 L .21300003 .441 L .25000003 .58900004 C .25100003 .59400006 .25300003 .59900003 .25300003 .60300007 C .25300003 .621 .23900002 .635 .21900001 .635 C .194 .635 .17900002 .61800004 .17200002 .592 C .16500002 .56700001 .178 .615 .134 .441 L .031999999 .441 C .013 .441 0 .441 0 .419 C 0 .405 .011999998 .405 .030000001 .405 L .125 .405 L .066 .16900002 C .060000001 .14400001 .051 .108 .051 .095 C .051 .036000002 .101 0 .15799999 0 C .26900003 0 .33200002 .14000001 .33200002 .15300001 C .33200002 .16600001 .31900003 .16600001 .316 .16600001 C .30400003 .16600001 .30300003 .16400002 .29500003 .14700002 C .26700001 .084 .21600002 .028 .16100002 .028 C .14000001 .028 .12600002 .041 .12600002 .077 C .12600002 .087000008 .13 .108 .132 .118 L .204 .405 Z "/>
</symbol><use xlink:href="#font_2_4" transform="matrix(6.9738,0,0,-6.9738,78.6179,4.4117103)"/>
<text fill-opacity="0" transform="matrix(1,0,0,1,12.226997,-60.83303)" font-size="4.9813" font-family="CMMI5" x="69.108" y="66.177">
A
</text>
<symbol id="font_3_1"><path d="M .623 .689 C .6190001 .71000004 .615 .716 .59300004 .716 C .569 .716 .5630001 .708 .553 .693 L .16100002 .125 C .119 .064 .08400001 .048 .019000001 .045 C 0 .044000005 0 .018000001 0 .017 C 0 .003 .012000002 0 .016000003 0 C .030000001 0 .047000007 .003 .061000004 .003 C .07800001 .003 .09500001 .004 .112 .004 C .13100001 .004 .14900002 .003 .16700003 .003 C .185 .003 .206 0 .224 0 C .231 0 .24800003 0 .24800003 .028 C .24800003 .044000005 .23300001 .045 .229 .045 C .22100001 .045 .18200001 .047000003 .18200001 .071 C .18200001 .083000002 .194 .1 .201 .11000001 L .27400003 .21700001 C .279 .223 .28 .224 .29900003 .224 L .602 .224 C .604 .21200001 .605 .20700002 .60800005 .19500001 C .61100007 .177 .63100005 .07700001 .63100005 .067 C .63100005 .045 .5680001 .045 .5630001 .045 C .548 .045 .53200007 .045 .53200007 .017 C .53200007 .007 .53900004 0 .5500001 0 C .571 0 .595 .003 .617 .003 C .64100004 .003 .66400004 .004 .6880001 .004 C .709 .004 .73100005 .003 .7520001 .003 C .7720001 .003 .7950001 0 .81500006 0 C .832 0 .838999948 .012 .838999948 .028 C .838999948 .045 .8230001 .045 .809 .045 C .74300004 .045 .742 .052 .73800002 .074 L .623 .689 M .533 .59300004 L .594 .26900003 L .31000004 .26900003 L .533 .59300004 Z "/>
</symbol><use xlink:href="#font_3_1" transform="matrix(4.9813,0,0,-4.9813,81.85306,5.3439713)"/>
<text fill-opacity="0" transform="matrix(1,0,0,1,13.447998,-51.69903)" font-size="6.9738" font-family="CMSY7" x="66.098" y="65.175">
&#x2243;
</text>
<symbol id="font_4_1"><path d="M .73800002 .449 C .73800002 .486 .72400003 .48700003 .721 .48700003 C .711 .48700003 .70500002 .47 .704 .46 C .703 .44 .7 .393 .661 .357 C .62200003 .32 .583 .313 .55300003 .313 C .485 .313 .436 .351 .362 .40800003 C .31200004 .446 .254 .488 .18500002 .488 C .077999993 .488 0 .391 0 .283 C 0 .24700003 .013999999 .24500002 .016999998 .24500002 C .027999998 .24500002 .033 .264 .034 .272 C .034999996 .292 .037999995 .33900002 .07700001 .375 C .116 .412 .155 .419 .18500002 .419 C .25300003 .419 .302 .381 .376 .324 C .426 .286 .48400002 .244 .55300003 .244 C .66 .244 .73800002 .341 .73800002 .449 M .04 .049000001 C .022999995 .049000001 0 .049000001 0 .024 C 0 0 .023999997 0 .04 0 L .698 0 C .714 0 .73800002 0 .73800002 .024 C .73800002 .049000001 .71500006 .049000001 .698 .049000001 L .04 .049000001 Z "/>
</symbol><use xlink:href="#font_4_1" transform="matrix(6.9738,0,0,-6.9738,80.08298,13.434129)"/>
<path transform="matrix(1,0,0,-1,54.559999,22.79097)" stroke-width=".39848" stroke-linecap="butt" stroke-miterlimit="10" stroke-linejoin="miter" fill="none" stroke="rgb(0,0,0)" d="M .02939 8.76726 L .02939 -8.36877 "/>
<path transform="matrix(0,1,1,0,54.589386,31.35898)" stroke-width=".39848" stroke-linecap="round" stroke-linejoin="round" fill="none" stroke="rgb(0,0,0)" d="M -2.07213 2.39091 C -1.69356 .95633 -.84995 .27893 0 0 C -.84995 -.27893 -1.69356 -.95633 -2.07213 -2.39091 "/>
<text fill-opacity="0" transform="matrix(1,0,0,1,-30.314002,-40.67903)" font-size="6.9738" font-family="CMMI7" x="66.098 72.29771 78.42071" y="65.175 65.175 65.175">
GF&#x03c1;
</text>
<symbol id="font_2_3"><path d="M .77300005 .71000004 C .77300005 .71500006 .77000003 .723 .76000004 .723 C .753 .723 .75100003 .721 .74200006 .711 L .669 .634 C .66 .646 .60400005 .723 .481 .723 C .23800004 .723 0 .508 0 .28200004 C 0 .127 .11800001 0 .31000004 0 C .39800004 0 .49100007 .023000002 .54300004 .079 C .55300003 .057000003 .58000002 .021000002 .59200006 .021000002 C .601 .021000002 .60300007 .025000003 .60800005 .046000004 L .62700005 .12300001 C .632 .141 .646 .201 .64900007 .213 C .661 .25800002 .66200008 .259 .721 .26000002 C .72800007 .26000002 .74300004 .26000002 .74300004 .28100003 C .74300004 .29100004 .73600007 .29600003 .72800007 .29600003 C .69500008 .29600003 .65300007 .29200003 .61800004 .29200003 C .59300004 .29200003 .56000004 .29200003 .535 .293 C .51000004 .29400004 .481 .29600003 .45600004 .29600003 C .44900007 .29600003 .43400002 .29600003 .43400002 .27400003 C .43400002 .26000002 .44500006 .26000002 .47000003 .26000002 C .48900003 .26000002 .50900007 .26000002 .52800007 .25800002 C .56000004 .25500002 .56100007 .25100003 .56100007 .23900001 C .56100007 .235 .56100007 .23300001 .554 .207 C .54700003 .179 .536 .134 .53200007 .124000009 C .503 .063 .41000004 .036000002 .33200002 .036000002 C .23200002 .036000002 .101 .08400001 .101 .25300003 C .101 .36 .15100003 .49400006 .22500003 .569 C .32800005 .671 .435 .68700004 .49100007 .68700004 C .60700007 .68700004 .6750001 .603 .6750001 .49100004 C .6750001 .46300002 .67200003 .45600004 .67200003 .45000001 C .67200003 .43700004 .68500004 .43700004 .69000006 .43700004 C .70600005 .43700004 .70600005 .44000002 .711 .45900002 L .77300005 .71000004 Z "/>
</symbol><symbol id="font_2_2"><path d="M .273 .32200003 L .38000002 .32200003 C .45600004 .32200003 .46900005 .31 .46900005 .277 C .46900005 .26200003 .46900005 .26000002 .462 .23200001 C .46000004 .22600001 .459 .223 .459 .22000001 C .459 .21000001 .46600003 .20500002 .476 .20500002 C .48900003 .20500002 .49 .21000001 .495 .22800002 L .549 .44000002 C .55 .44300003 .55300003 .45800004 .55300003 .46 C .55300003 .47000003 .546 .47500001 .536 .47500001 C .522 .47500001 .521 .469 .51600004 .45100003 C .496 .37300003 .467 .358 .38200002 .358 L .282 .358 L .34500003 .609 C .35300002 .64000006 .354 .643 .39600003 .643 L .549 .643 C .68200007 .643 .707 .611 .707 .528 C .707 .49500003 .703 .47400003 .703 .46600003 C .703 .45800004 .70600005 .44900003 .72 .44900003 C .735 .44900003 .73600007 .45800004 .73800002 .47500001 L .75600005 .64900007 C .75900007 .679 .75200005 .679 .72700005 .679 L .19300002 .679 C .17400001 .679 .161 .679 .161 .657 C .161 .643 .17300001 .643 .19300002 .643 C .194 .643 .213 .643 .231 .64100004 C .252 .63900004 .254 .637 .254 .62700005 C .254 .62 .25100003 .61 .25 .605 L .119 .082 C .109 .043 .107999999 .036000002 .030000001 .036000002 C .012999997 .036000002 0 .036000002 0 .015000001 C 0 .0050000005 .0069999991 0 .015999996 0 C .045 0 .119 .004 .148 .004 L .225 .003 C .25100003 .003 .279 0 .30400003 0 C .31100002 0 .326 0 .326 .022000002 C .326 .036000002 .314 .036000002 .291 .036000002 C .289 .036000002 .264 .036000002 .23900002 .038000002 C .218 .040000004 .208 .041 .208 .055000005 C .208 .059000005 .208 .062000003 .211 .07300001 L .273 .32200003 Z "/>
</symbol><use xlink:href="#font_2_3" transform="matrix(6.9738,0,0,-6.9738,36.272164,24.635449)"/>
<use xlink:href="#font_2_2" transform="matrix(6.9738,0,0,-6.9738,42.464899,24.495972)"/>
<use xlink:href="#font_2_1" transform="matrix(6.9738,0,0,-6.9738,48.455396,25.988366)"/>
<text fill-opacity="0" transform="matrix(1,0,0,1,9.315998,-38.62303)" font-size="9.9626" font-family="MSAM10" x="66.098" y="65.175">
&#x27f3;
</text>
<symbol id="font_5_1"><path d="M .25000003 .60800005 C .21400002 .56000004 .19900003 .513 .19300002 .476 L .22300002 .485 C .23000002 .526 .24800003 .573 .28800002 .61700006 C .31000004 .64000006 .31500004 .64100004 .32400003 .64100004 C .33400002 .64100004 .34500003 .642 .34500003 .65300007 C .34500003 .666 .33200002 .666 .32400003 .666 C .30800004 .666 .28000002 .66200008 .277 .66200008 C .27400003 .66200008 .20700002 .67600008 .15 .73800002 C .143 .73600007 .12600002 .731 .121 .73 C .16600001 .67800003 .22600001 .652 .23000002 .65000005 C .07 .59400006 0 .455 0 .333 C 0 .148 .15100003 0 .33200002 0 C .517 0 .665 .15100001 .665 .333 C .665 .538 .48900003 .634 .47100001 .634 C .46000004 .634 .45900006 .624 .45900006 .62200003 C .45900006 .615 .46400004 .61200004 .472 .60800005 C .614 .53000002 .64000006 .402 .64000006 .333 C .64000006 .162 .50000005 .025000003 .33300004 .025000003 C .162 .025000003 .024999998 .164 .024999998 .333 C .024999998 .46400003 .109000003 .587 .24500003 .628 L .25000003 .60800005 Z "/>
</symbol><use xlink:href="#font_5_1" transform="matrix(9.9626,0,0,-9.9626,75.97191,27.378869)"/>
<path transform="matrix(1,0,0,-1,54.559999,22.79097)" stroke-width=".39848" stroke-linecap="butt" stroke-miterlimit="10" stroke-linejoin="miter" fill="none" stroke="rgb(0,0,0)" d="M 48.3581 8.76726 L 48.3581 -8.36877 "/>
<path transform="matrix(0,1,1,0,102.9181,31.35898)" stroke-width=".39848" stroke-linecap="round" stroke-linejoin="round" fill="none" stroke="rgb(0,0,0)" d="M -2.07213 2.39091 C -1.69356 .95633 -.84995 .27893 0 0 C -.84995 -.27893 -1.69356 -.95633 -2.07213 -2.39091 "/>
<text fill-opacity="0" transform="matrix(1,0,0,1,39.163998,-41.56103)" font-size="6.9738" font-family="CMMI7" x="66.098" y="65.175">
&#x03c1;
</text>
<use xlink:href="#font_2_1" transform="matrix(6.9738,0,0,-6.9738,105.61068,25.106366)"/>
<path transform="matrix(1,0,0,-1,54.559999,22.79097)" stroke-width=".39848" stroke-linecap="butt" stroke-miterlimit="10" stroke-linejoin="miter" fill="none" stroke="rgb(0,0,0)" d="M 16.35828 -16.92978 L 39.47191 -16.92978 "/>
<path transform="matrix(1,0,0,-1,94.231158,39.72075)" stroke-width=".39848" stroke-linecap="round" stroke-linejoin="round" fill="none" stroke="rgb(0,0,0)" d="M -2.07213 2.39091 C -1.69356 .95633 -.84995 .27893 0 0 C -.84995 -.27893 -1.69356 -.95633 -2.07213 -2.39091 "/>
<text fill-opacity="0" transform="matrix(1,0,0,1,13.462997,-27.798033)" font-size="6.9738" font-family="CMSY7" x="66.098" y="65.175">
&#x2243;
</text>
<use xlink:href="#font_4_1" transform="matrix(6.9738,0,0,-6.9738,80.09798,37.335126)"/>
<text fill-opacity="0" transform="matrix(1,0,0,1,12.122997,-18.821034)" font-size="6.9738" font-family="CMMI7" x="66.098" y="65.175">
t
</text>
<use xlink:href="#font_2_4" transform="matrix(6.9738,0,0,-6.9738,78.51389,46.423707)"/>
<text fill-opacity="0" transform="matrix(1,0,0,1,12.122997,-18.821034)" font-size="4.9813" font-family="CMMI5" x="69.108" y="66.177">
B
</text>
<symbol id="font_3_2"><path d="M .127 .083000002 C .119 .053000002 .118 .045 .041999997 .045 C .016000003 .045 0 .045 0 .017 C 0 0 .016000003 0 .033000007 0 L .46800005 0 C .64800005 0 .794 .112 .794 .21200001 C .794 .27400003 .73600007 .34100003 .6 .358 C .69900008 .37100003 .84000006 .437 .84000006 .537 C .84000006 .62100006 .74100008 .683 .605 .683 L .19500001 .683 C .17600002 .683 .16000001 .683 .16000001 .65500002 C .16000001 .638 .173 .638 .19700001 .638 C .207 .638 .24000003 .638 .26100004 .632 C .26100004 .62 .26100004 .61800004 .25800002 .60700007 L .127 .083000002 M .296 .372 L .35400004 .605 C .362 .63600006 .362 .638 .40400005 .638 L .587 .638 C .68600007 .638 .73300005 .587 .73300005 .53400002 C .73300005 .453 .62500005 .372 .485 .372 L .296 .372 M .24800001 .045 C .24000003 .045 .226 .045 .216 .047000003 C .21700002 .055000005 .21700002 .057000003 .219 .065000005 L .287 .33800004 L .531 .33800004 C .633 .33800004 .6840001 .279 .6840001 .216 C .6840001 .119 .56500006 .045 .44100004 .045 L .24800001 .045 Z "/>
</symbol><use xlink:href="#font_3_2" transform="matrix(4.9813,0,0,-4.9813,81.83374,47.35597)"/>
</g>
</svg>
