<?xml version="1.0" standalone="no"?>
<!DOCTYPE svg PUBLIC "-//W3C//DTD SVG 1.1//EN" "http://www.w3.org/Graphics/SVG/1.1/DTD/svg11.dtd">
<svg xmlns="http://www.w3.org/2000/svg" xmlns:xlink="http://www.w3.org/1999/xlink" version="1.1" width="5.45719cm" height="1.674495cm" viewBox="0 0 154.692 47.466">
<clipPath id="cp0">
<path transform="matrix(1,0,0,-1,-83.5380067,727.506)" d="M 0 0 L 595.28 0 L 595.28 841.889963 L 0 841.889963 Z "/>
</clipPath>
<g clip-path="url(#cp0)">
<text fill-opacity="0" transform="matrix(1,0,0,1,-94.508,-22.964034)" font-size="9.9626" font-family="CMMI10" x="105.164" y="33.142">
A
</text>
<symbol id="font_1_1"><path d="M .14400001 .115 C .10400002 .048 .065 .034 .021000002 .031000002 C .009000003 .030000001 0 .030000001 0 .011000001 C 0 .0050000005 .0050000029 0 .013 0 C .040000004 0 .07100001 .003 .09900001 .003 C .13200002 .003 .16700001 0 .19900002 0 C .20500002 0 .21800003 0 .21800003 .019000001 C .21800003 .030000001 .20900002 .031000002 .20200002 .031000002 C .17900002 .033 .15500002 .041 .15500002 .066 C .15500002 .078 .16100002 .089 .16900002 .10300001 L .245 .231 L .49600001 .231 C .49800005 .21000001 .512 .074 .512 .064 C .512 .034 .46000004 .031000002 .44000002 .031000002 C .42600003 .031000002 .41600004 .031000002 .41600004 .011000001 C .41600004 0 .42800003 0 .43000003 0 C .47100006 0 .514 .003 .555 .003 C .58 .003 .643 0 .668 0 C .674 0 .686 0 .686 .020000002 C .686 .031000002 .676 .031000002 .663 .031000002 C .601 .031000002 .601 .038000002 .598 .067 L .537 .69200001 C .535 .712 .535 .716 .518 .716 C .502 .716 .49800005 .70900007 .492 .69900008 L .14400001 .115 M .26400004 .26200003 L .46100002 .592 L .493 .26200003 L .26400004 .26200003 Z "/>
</symbol><use xlink:href="#font_1_1" transform="matrix(9.9626,0,0,-9.9626,11.004689,10.177965)"/>
<text fill-opacity="0" transform="matrix(1,0,0,1,-102.32001,-22.964034)" font-size="9.9626" font-family="CMMI10" x="168.561 176.3916 184.17238" y="33.142 33.142 33.142">
GFA
</text>
<symbol id="font_1_3"><path d="M .71000004 .71700006 C .71000004 .72 .708 .72700005 .699 .72700005 C .69600006 .72700005 .69500008 .7260001 .684 .71500006 L .614 .6380001 C .605 .65200009 .559 .72700005 .448 .72700005 C .22500001 .72700005 0 .50600005 0 .27400003 C 0 .115 .11100002 0 .273 0 C .317 0 .36200002 .0090000019 .398 .024000002 C .448 .044000005 .467 .065000005 .485 .085 C .49400001 .060000001 .52000003 .023000002 .53000002 .023000002 C .535 .023000002 .537 .026000002 .537 .027000003 C .53900004 .029000003 .549 .067 .554 .088 L .573 .165 C .577 .18200001 .582 .199 .586 .216 C .597 .261 .598 .263 .65500002 .26400004 C .66 .26400004 .671 .26500001 .671 .28400004 C .671 .29100004 .666 .29500003 .658 .29500003 C .63500004 .29500003 .57600003 .29200003 .55300003 .29200003 C .522 .29200003 .444 .29500003 .41300002 .29500003 C .404 .29500003 .39200001 .29500003 .39200001 .27500005 C .39200001 .26400004 .4 .26400004 .42200003 .26400004 C .423 .26400004 .45200003 .26400004 .47500001 .26200003 C .501 .25900004 .50600005 .256 .50600005 .24300001 C .50600005 .23400001 .495 .18900001 .485 .15200001 C .45700002 .042000003 .327 .031000004 .292 .031000004 C .19600001 .031000004 .091000004 .088 .091000004 .24100001 C .091000004 .272 .10100001 .43700004 .20600002 .56700001 C .26 .63500004 .357 .69600006 .45600004 .69600006 C .558 .69600006 .61700006 .619 .61700006 .503 C .61700006 .46300002 .614 .46200004 .614 .45200003 C .614 .44200002 .625 .44200002 .629 .44200002 C .642 .44200002 .642 .44400005 .647 .46200004 L .71000004 .71700006 Z "/>
</symbol><symbol id="font_1_2"><path d="M .265 .32500003 L .362 .32500003 C .43700004 .32500003 .445 .30900002 .445 .28 C .445 .273 .445 .261 .43800002 .231 C .43600006 .22600001 .435 .22200002 .435 .22000001 C .435 .21200001 .44100004 .208 .44700003 .208 C .45700002 .208 .45700002 .21100001 .462 .22900002 L .517 .446 C .52000003 .45700002 .52000003 .45900002 .52000003 .462 C .52000003 .46400003 .51800008 .47300001 .508 .47300001 C .49800004 .47300001 .49700003 .46800003 .49300004 .45200003 C .47200007 .374 .449 .356 .36400003 .356 L .273 .356 L .337 .61 C .34600001 .64500003 .347 .64900007 .39100004 .64900007 L .52300005 .64900007 C .646 .64900007 .669 .61600008 .669 .53900004 C .669 .51600004 .669 .512 .66600009 .485 C .66400004 .47200003 .66400004 .47000003 .66400004 .467 C .66400004 .462 .66700006 .455 .67600008 .455 C .68700004 .455 .688 .46100002 .69000006 .48000002 L .71000004 .65300007 C .71300006 .68 .70800009 .68 .683 .68 L .193 .68 C .17300001 .68 .163 .68 .163 .66 C .163 .64900007 .172 .64900007 .19100001 .64900007 C .228 .64900007 .25599999 .64900007 .25599999 .63100005 C .25599999 .62700005 .25599999 .625 .251 .60700007 L .119 .078 C .109 .039 .10700001 .031000002 .027999998 .031000002 C .011 .031000002 0 .031000002 0 .012 C 0 0 .011999998 0 .015000001 0 C .044 0 .118 .003 .147 .003 C .18 .003 .263 0 .296 0 C .305 0 .31700004 0 .31700004 .019000001 C .31700004 .027 .311 .029000001 .311 .030000001 C .30800004 .031000002 .306 .031000002 .283 .031000002 C .26100004 .031000002 .25599999 .031000002 .23100002 .033 C .202 .036000002 .19900002 .040000004 .19900002 .053000002 C .19900002 .055000005 .19900002 .061000004 .20300001 .076000004 L .265 .32500003 Z "/>
</symbol><use xlink:href="#font_1_3" transform="matrix(9.9626,0,0,-9.9626,66.73913,10.397142)"/>
<use xlink:href="#font_1_2" transform="matrix(9.9626,0,0,-9.9626,74.45017,10.177965)"/>
<use xlink:href="#font_1_1" transform="matrix(9.9626,0,0,-9.9626,82.2010697,10.177965)"/>
<text fill-opacity="0" transform="matrix(1,0,0,1,-94.508,-22.964034)" font-size="9.9626" font-family="CMMI10" x="231.957" y="33.142">
A
</text>
<use xlink:href="#font_1_1" transform="matrix(9.9626,0,0,-9.9626,137.7977,10.177965)"/>
<text fill-opacity="0" transform="matrix(1,0,0,1,-102.32001,-22.964035)" font-size="9.9626" font-family="CMMI10" x="105.164 112.994609 120.7754" y="65.175 65.175 65.175">
GFA
</text>
<use xlink:href="#font_1_3" transform="matrix(9.9626,0,0,-9.9626,3.3421243,42.430147)"/>
<use xlink:href="#font_1_2" transform="matrix(9.9626,0,0,-9.9626,11.053178,42.210969)"/>
<use xlink:href="#font_1_1" transform="matrix(9.9626,0,0,-9.9626,18.804083,42.210969)"/>
<text fill-opacity="0" transform="matrix(1,0,0,1,-110.132,-22.964035)" font-size="9.9626" font-family="CMMI10" x="168.561 176.3916 184.17238 192.00298 199.79372" y="65.175 65.175 65.175 65.175 65.175">
GFGFA
</text>
<use xlink:href="#font_1_3" transform="matrix(9.9626,0,0,-9.9626,58.92713,42.430147)"/>
<use xlink:href="#font_1_2" transform="matrix(9.9626,0,0,-9.9626,66.638179,42.210969)"/>
<use xlink:href="#font_1_3" transform="matrix(9.9626,0,0,-9.9626,74.538508,42.430147)"/>
<use xlink:href="#font_1_2" transform="matrix(9.9626,0,0,-9.9626,82.2495545,42.210969)"/>
<use xlink:href="#font_1_1" transform="matrix(9.9626,0,0,-9.9626,90.01041,42.210969)"/>
<text fill-opacity="0" transform="matrix(1,0,0,1,-102.32001,-22.964035)" font-size="9.9626" font-family="CMMI10" x="231.957 239.7876 247.56837" y="65.175 65.175 65.175">
GFA
</text>
<use xlink:href="#font_1_3" transform="matrix(9.9626,0,0,-9.9626,130.13512,42.430147)"/>
<use xlink:href="#font_1_2" transform="matrix(9.9626,0,0,-9.9626,137.84618,42.210969)"/>
<use xlink:href="#font_1_1" transform="matrix(9.9626,0,0,-9.9626,145.59706,42.210969)"/>
<path transform="matrix(1,0,0,-1,77.789,22.79097)" stroke-width=".39848" stroke-linecap="butt" stroke-miterlimit="10" stroke-linejoin="miter" fill="none" stroke="rgb(0,0,0)" d="M -63.39705 8.76726 L -63.39705 -8.36877 "/>
<path transform="matrix(0,1,1,0,14.3919529,31.35898)" stroke-width=".39848" stroke-linecap="round" stroke-linejoin="round" fill="none" stroke="rgb(0,0,0)" d="M -2.07213 2.39091 C -1.69356 .95633 -.84995 .27893 0 0 C -.84995 -.27893 -1.69356 -.95633 -2.07213 -2.39091 "/>
<text fill-opacity="0" transform="matrix(1,0,0,1,-89.5730103,-40.286035)" font-size="6.9738" font-family="CMMI7" x="89.327" y="65.175">
t
</text>
<symbol id="font_2_3"><path d="M .204 .405 L .30600002 .405 C .32500003 .405 .33800004 .405 .33800004 .42700001 C .33800004 .441 .32500003 .441 .30800004 .441 L .21300003 .441 L .25000003 .58900004 C .25100003 .59400006 .25300003 .59900003 .25300003 .60300007 C .25300003 .621 .23900002 .635 .21900001 .635 C .194 .635 .17900002 .61800004 .17200002 .592 C .16500002 .56700001 .178 .615 .134 .441 L .031999999 .441 C .013 .441 0 .441 0 .419 C 0 .405 .011999998 .405 .030000001 .405 L .125 .405 L .066 .16900002 C .060000001 .14400001 .051 .108 .051 .095 C .051 .036000002 .101 0 .15799999 0 C .26900003 0 .33200002 .14000001 .33200002 .15300001 C .33200002 .16600001 .31900003 .16600001 .316 .16600001 C .30400003 .16600001 .30300003 .16400002 .29500003 .14700002 C .26700001 .084 .21600002 .028 .16100002 .028 C .14000001 .028 .12600002 .041 .12600002 .077 C .12600002 .087000008 .13 .108 .132 .118 L .204 .405 Z "/>
</symbol><use xlink:href="#font_2_3" transform="matrix(6.9738,0,0,-6.9738,.046897435,24.958708)"/>
<text fill-opacity="0" transform="matrix(1,0,0,1,-89.5730103,-40.286035)" font-size="4.9813" font-family="CMSY5" x="92.337008" y="61.942">
&#x2212;
</text>
<symbol id="font_3_1"><path d="M .72 0 C .736 0 .763 0 .763 .027999983 C .763 .05600001 .736 .05600001 .72 .05600001 L .042999998 .05600001 C .026999996 .05600001 0 .05600001 0 .027999983 C 0 0 .026999996 0 .042999998 0 L .72 0 Z "/>
</symbol><use xlink:href="#font_3_1" transform="matrix(4.9813,0,0,-4.9813,3.561008,20.55012)"/>
<text fill-opacity="0" transform="matrix(1,0,0,1,-89.5730103,-40.286035)" font-size="4.9813" font-family="CMR5" x="97.733" y="61.942">
1
</text>
<symbol id="font_4_1"><path d="M .25500002 .63600006 C .25500002 .666 .252 .666 .21900001 .666 C .148 .60200005 .037 .60200005 .017000005 .60200005 L 0 .60200005 L 0 .558 L .017000005 .558 C .040000005 .558 .105000007 .56100007 .16300002 .586 L .16300002 .086 C .16300002 .055000005 .16300002 .044000005 .056999998 .044000005 L .0069999991 .044000005 L .0069999991 0 C .062000008 .004 .151 .004 .20900002 .004 C .26700001 .004 .356 .004 .411 0 L .411 .044000005 L .361 .044000005 C .25500002 .044000005 .25500002 .055000005 .25500002 .086 L .25500002 .63600006 Z "/>
</symbol><use xlink:href="#font_4_1" transform="matrix(4.9813,0,0,-4.9813,8.872322,21.655968)"/>
<text fill-opacity="0" transform="matrix(1,0,0,1,-89.5730103,-40.286035)" font-size="4.9813" font-family="CMMI5" x="92.337008" y="67.531">
A
</text>
<symbol id="font_5_1"><path d="M .623 .689 C .6190001 .71000004 .615 .716 .59300004 .716 C .569 .716 .5630001 .708 .553 .693 L .16100002 .125 C .119 .064 .08400001 .048 .019000001 .045 C 0 .044000005 0 .018000001 0 .017 C 0 .003 .012000002 0 .016000003 0 C .030000001 0 .047000007 .003 .061000004 .003 C .07800001 .003 .09500001 .004 .112 .004 C .13100001 .004 .14900002 .003 .16700003 .003 C .185 .003 .206 0 .224 0 C .231 0 .24800003 0 .24800003 .028 C .24800003 .044000005 .23300001 .045 .229 .045 C .22100001 .045 .18200001 .047000003 .18200001 .071 C .18200001 .083000002 .194 .1 .201 .11000001 L .27400003 .21700001 C .279 .223 .28 .224 .29900003 .224 L .602 .224 C .604 .21200001 .605 .20700002 .60800005 .19500001 C .61100007 .177 .63100005 .07700001 .63100005 .067 C .63100005 .045 .5680001 .045 .5630001 .045 C .548 .045 .53200007 .045 .53200007 .017 C .53200007 .007 .53900004 0 .5500001 0 C .571 0 .595 .003 .617 .003 C .64100004 .003 .66400004 .004 .6880001 .004 C .709 .004 .73100005 .003 .7520001 .003 C .7720001 .003 .7950001 0 .81500006 0 C .832 0 .838999948 .012 .838999948 .028 C .838999948 .045 .8230001 .045 .809 .045 C .74300004 .045 .742 .052 .73800002 .074 L .623 .689 M .533 .59300004 L .594 .26900003 L .31000004 .26900003 L .533 .59300004 Z "/>
</symbol><use xlink:href="#font_5_1" transform="matrix(4.9813,0,0,-4.9813,3.2820552,27.244965)"/>
<text fill-opacity="0" transform="matrix(1,0,0,1,-72.591,-40.662034)" font-size="6.9738" font-family="CMSY7" x="89.327" y="65.175">
&#x2243;
</text>
<symbol id="font_6_1"><path d="M .73800002 .449 C .73800002 .486 .72400003 .48700003 .721 .48700003 C .711 .48700003 .70500002 .47 .704 .46 C .703 .44 .7 .393 .661 .357 C .62200003 .32 .583 .313 .55300003 .313 C .485 .313 .436 .351 .362 .40800003 C .31200004 .446 .254 .488 .18500002 .488 C .077999993 .488 0 .391 0 .283 C 0 .24700003 .013999999 .24500002 .016999998 .24500002 C .027999998 .24500002 .033 .264 .034 .272 C .034999996 .292 .037999995 .33900002 .07700001 .375 C .116 .412 .155 .419 .18500002 .419 C .25300003 .419 .302 .381 .376 .324 C .426 .286 .48400002 .244 .55300003 .244 C .66 .244 .73800002 .341 .73800002 .449 M .04 .049000001 C .022999995 .049000001 0 .049000001 0 .024 C 0 0 .023999997 0 .04 0 L .698 0 C .714 0 .73800002 0 .73800002 .024 C .73800002 .049000001 .71500006 .049000001 .698 .049000001 L .04 .049000001 Z "/>
</symbol><use xlink:href="#font_6_1" transform="matrix(6.9738,0,0,-6.9738,17.272984,24.471127)"/>
<path transform="matrix(1,0,0,-1,77.789,22.79097)" stroke-width=".39848" stroke-linecap="butt" stroke-miterlimit="10" stroke-linejoin="miter" fill="none" stroke="rgb(0,0,0)" d="M 16.03658 15.10332 L 54.77377 15.10332 "/>
<path transform="matrix(1,0,0,-1,132.762,7.6876498)" stroke-width=".39848" stroke-linecap="round" stroke-linejoin="round" fill="none" stroke="rgb(0,0,0)" d="M -2.07213 2.39091 C -1.69356 .95633 -.84995 .27893 0 0 C -.84995 -.27893 -1.69356 -.95633 -2.07213 -2.39091 "/>
<text fill-opacity="0" transform="matrix(1,0,0,1,19.731999,-60.83303)" font-size="6.9738" font-family="CMMI7" x="89.327" y="65.175">
t
</text>
<use xlink:href="#font_2_3" transform="matrix(6.9738,0,0,-6.9738,109.351909,4.4117103)"/>
<text fill-opacity="0" transform="matrix(1,0,0,1,19.731999,-60.83303)" font-size="4.9813" font-family="CMMI5" x="92.337008" y="66.177">
A
</text>
<use xlink:href="#font_5_1" transform="matrix(4.9813,0,0,-4.9813,112.58706,5.3439713)"/>
<text fill-opacity="0" transform="matrix(1,0,0,1,20.953,-51.69903)" font-size="6.9738" font-family="CMSY7" x="89.327" y="65.175">
&#x2243;
</text>
<use xlink:href="#font_6_1" transform="matrix(6.9738,0,0,-6.9738,110.81698,13.434129)"/>
<path transform="matrix(1,0,0,-1,77.789,22.79097)" stroke-width=".39848" stroke-linecap="butt" stroke-miterlimit="10" stroke-linejoin="miter" fill="none" stroke="rgb(0,0,0)" d="M 0 8.76726 L 0 -8.36877 "/>
<path transform="matrix(0,1,1,0,77.789,31.35898)" stroke-width=".39848" stroke-linecap="round" stroke-linejoin="round" fill="none" stroke="rgb(0,0,0)" d="M -2.07213 2.39091 C -1.69356 .95633 -.84995 .27893 0 0 C -.84995 -.27893 -1.69356 -.95633 -2.07213 -2.39091 "/>
<text fill-opacity="0" transform="matrix(1,0,0,1,-38.504,-40.286035)" font-size="6.9738" font-family="CMMI7" x="89.327 95.52671 101.64971" y="65.175 65.175 65.175">
GFt
</text>
<symbol id="font_2_2"><path d="M .77300005 .71000004 C .77300005 .71500006 .77000003 .723 .76000004 .723 C .753 .723 .75100003 .721 .74200006 .711 L .669 .634 C .66 .646 .60400005 .723 .481 .723 C .23800004 .723 0 .508 0 .28200004 C 0 .127 .11800001 0 .31000004 0 C .39800004 0 .49100007 .023000002 .54300004 .079 C .55300003 .057000003 .58000002 .021000002 .59200006 .021000002 C .601 .021000002 .60300007 .025000003 .60800005 .046000004 L .62700005 .12300001 C .632 .141 .646 .201 .64900007 .213 C .661 .25800002 .66200008 .259 .721 .26000002 C .72800007 .26000002 .74300004 .26000002 .74300004 .28100003 C .74300004 .29100004 .73600007 .29600003 .72800007 .29600003 C .69500008 .29600003 .65300007 .29200003 .61800004 .29200003 C .59300004 .29200003 .56000004 .29200003 .535 .293 C .51000004 .29400004 .481 .29600003 .45600004 .29600003 C .44900007 .29600003 .43400002 .29600003 .43400002 .27400003 C .43400002 .26000002 .44500006 .26000002 .47000003 .26000002 C .48900003 .26000002 .50900007 .26000002 .52800007 .25800002 C .56000004 .25500002 .56100007 .25100003 .56100007 .23900001 C .56100007 .235 .56100007 .23300001 .554 .207 C .54700003 .179 .536 .134 .53200007 .124000009 C .503 .063 .41000004 .036000002 .33200002 .036000002 C .23200002 .036000002 .101 .08400001 .101 .25300003 C .101 .36 .15100003 .49400006 .22500003 .569 C .32800005 .671 .435 .68700004 .49100007 .68700004 C .60700007 .68700004 .6750001 .603 .6750001 .49100004 C .6750001 .46300002 .67200003 .45600004 .67200003 .45000001 C .67200003 .43700004 .68500004 .43700004 .69000006 .43700004 C .70600005 .43700004 .70600005 .44000002 .711 .45900002 L .77300005 .71000004 Z "/>
</symbol><symbol id="font_2_1"><path d="M .273 .32200003 L .38000002 .32200003 C .45600004 .32200003 .46900005 .31 .46900005 .277 C .46900005 .26200003 .46900005 .26000002 .462 .23200001 C .46000004 .22600001 .459 .223 .459 .22000001 C .459 .21000001 .46600003 .20500002 .476 .20500002 C .48900003 .20500002 .49 .21000001 .495 .22800002 L .549 .44000002 C .55 .44300003 .55300003 .45800004 .55300003 .46 C .55300003 .47000003 .546 .47500001 .536 .47500001 C .522 .47500001 .521 .469 .51600004 .45100003 C .496 .37300003 .467 .358 .38200002 .358 L .282 .358 L .34500003 .609 C .35300002 .64000006 .354 .643 .39600003 .643 L .549 .643 C .68200007 .643 .707 .611 .707 .528 C .707 .49500003 .703 .47400003 .703 .46600003 C .703 .45800004 .70600005 .44900003 .72 .44900003 C .735 .44900003 .73600007 .45800004 .73800002 .47500001 L .75600005 .64900007 C .75900007 .679 .75200005 .679 .72700005 .679 L .19300002 .679 C .17400001 .679 .161 .679 .161 .657 C .161 .643 .17300001 .643 .19300002 .643 C .194 .643 .213 .643 .231 .64100004 C .252 .63900004 .254 .637 .254 .62700005 C .254 .62 .25100003 .61 .25 .605 L .119 .082 C .109 .043 .107999999 .036000002 .030000001 .036000002 C .012999997 .036000002 0 .036000002 0 .015000001 C 0 .0050000005 .0069999991 0 .015999996 0 C .045 0 .119 .004 .148 .004 L .225 .003 C .25100003 .003 .279 0 .30400003 0 C .31100002 0 .326 0 .326 .022000002 C .326 .036000002 .314 .036000002 .291 .036000002 C .289 .036000002 .264 .036000002 .23900002 .038000002 C .218 .040000004 .208 .041 .208 .055000005 C .208 .059000005 .208 .062000003 .211 .07300001 L .273 .32200003 Z "/>
</symbol><use xlink:href="#font_2_2" transform="matrix(6.9738,0,0,-6.9738,51.31117,25.028446)"/>
<use xlink:href="#font_2_1" transform="matrix(6.9738,0,0,-6.9738,57.503904,24.88897)"/>
<use xlink:href="#font_2_3" transform="matrix(6.9738,0,0,-6.9738,63.43861,24.958708)"/>
<text fill-opacity="0" transform="matrix(1,0,0,1,-38.504,-40.286035)" font-size="4.9813" font-family="CMSY5" x="104.665" y="61.942">
&#x2212;
</text>
<use xlink:href="#font_3_1" transform="matrix(4.9813,0,0,-4.9813,66.958,20.55012)"/>
<text fill-opacity="0" transform="matrix(1,0,0,1,-38.504,-40.286035)" font-size="4.9813" font-family="CMR5" x="110.061001" y="61.942">
1
</text>
<use xlink:href="#font_4_1" transform="matrix(4.9813,0,0,-4.9813,72.26933,21.655968)"/>
<text fill-opacity="0" transform="matrix(1,0,0,1,-38.504,-40.286035)" font-size="4.9813" font-family="CMMI5" x="104.66501" y="67.531">
A
</text>
<use xlink:href="#font_5_1" transform="matrix(4.9813,0,0,-4.9813,66.67907,27.244965)"/>
<text fill-opacity="0" transform="matrix(1,0,0,1,-9.194002,-40.662034)" font-size="6.9738" font-family="CMSY7" x="89.327" y="65.175">
&#x2243;
</text>
<use xlink:href="#font_6_1" transform="matrix(6.9738,0,0,-6.9738,80.66998,24.471127)"/>
<text fill-opacity="0" transform="matrix(1,0,0,1,14.5339989,-39.860036)" font-size="9.9626" font-family="MSAM10" x="89.327" y="65.175">
&#x27f3;
</text>
<symbol id="font_7_1"><path d="M .25000003 .60800005 C .21400002 .56000004 .19900003 .513 .19300002 .476 L .22300002 .485 C .23000002 .526 .24800003 .573 .28800002 .61700006 C .31000004 .64000006 .31500004 .64100004 .32400003 .64100004 C .33400002 .64100004 .34500003 .642 .34500003 .65300007 C .34500003 .666 .33200002 .666 .32400003 .666 C .30800004 .666 .28000002 .66200008 .277 .66200008 C .27400003 .66200008 .20700002 .67600008 .15 .73800002 C .143 .73600007 .12600002 .731 .121 .73 C .16600001 .67800003 .22600001 .652 .23000002 .65000005 C .07 .59400006 0 .455 0 .333 C 0 .148 .15100003 0 .33200002 0 C .517 0 .665 .15100001 .665 .333 C .665 .538 .48900003 .634 .47100001 .634 C .46000004 .634 .45900006 .624 .45900006 .62200003 C .45900006 .615 .46400004 .61200004 .472 .60800005 C .614 .53000002 .64000006 .402 .64000006 .333 C .64000006 .162 .50000005 .025000003 .33300004 .025000003 C .162 .025000003 .024999998 .164 .024999998 .333 C .024999998 .46400003 .109000003 .587 .24500003 .628 L .25000003 .60800005 Z "/>
</symbol><use xlink:href="#font_7_1" transform="matrix(9.9626,0,0,-9.9626,104.41891,26.141865)"/>
<path transform="matrix(1,0,0,-1,77.789,22.79097)" stroke-width=".39848" stroke-linecap="butt" stroke-miterlimit="10" stroke-linejoin="miter" fill="none" stroke="rgb(0,0,0)" d="M 63.39705 8.76726 L 63.39705 -8.36877 "/>
<path transform="matrix(0,1,1,0,141.18605,31.35898)" stroke-width=".39848" stroke-linecap="round" stroke-linejoin="round" fill="none" stroke="rgb(0,0,0)" d="M -2.07213 2.39091 C -1.69356 .95633 -.84995 .27893 0 0 C -.84995 -.27893 -1.69356 -.95633 -2.07213 -2.39091 "/>
<text fill-opacity="0" transform="matrix(1,0,0,1,54.202996,-40.286035)" font-size="6.9738" font-family="CMMI7" x="89.327" y="65.175">
t
</text>
<use xlink:href="#font_2_3" transform="matrix(6.9738,0,0,-6.9738,143.82289,24.958708)"/>
<text fill-opacity="0" transform="matrix(1,0,0,1,54.202996,-40.286035)" font-size="4.9813" font-family="CMSY5" x="92.337008" y="61.942">
&#x2212;
</text>
<use xlink:href="#font_3_1" transform="matrix(4.9813,0,0,-4.9813,147.33702,20.55012)"/>
<text fill-opacity="0" transform="matrix(1,0,0,1,54.202996,-40.286035)" font-size="4.9813" font-family="CMR5" x="97.733" y="61.942">
1
</text>
<use xlink:href="#font_4_1" transform="matrix(4.9813,0,0,-4.9813,152.64833,21.655968)"/>
<text fill-opacity="0" transform="matrix(1,0,0,1,54.202996,-40.286035)" font-size="4.9813" font-family="CMMI5" x="92.337008" y="67.531">
A
</text>
<use xlink:href="#font_5_1" transform="matrix(4.9813,0,0,-4.9813,147.05806,27.244965)"/>
<text fill-opacity="0" transform="matrix(1,0,0,1,43.288,-40.662034)" font-size="6.9738" font-family="CMSY7" x="89.327" y="65.175">
&#x2243;
</text>
<use xlink:href="#font_6_1" transform="matrix(6.9738,0,0,-6.9738,133.152,24.471127)"/>
<path transform="matrix(1,0,0,-1,77.789,22.79097)" stroke-width=".39848" stroke-linecap="butt" stroke-miterlimit="10" stroke-linejoin="miter" fill="none" stroke="rgb(0,0,0)" d="M 23.84836 -16.92978 L 46.96199 -16.92978 "/>
<path transform="matrix(1,0,0,-1,124.950229,39.72075)" stroke-width=".39848" stroke-linecap="round" stroke-linejoin="round" fill="none" stroke="rgb(0,0,0)" d="M -2.07213 2.39091 C -1.69356 .95633 -.84995 .27893 0 0 C -.84995 -.27893 -1.69356 -.95633 -2.07213 -2.39091 "/>
<text fill-opacity="0" transform="matrix(1,0,0,1,20.953,-27.798033)" font-size="6.9738" font-family="CMSY7" x="89.327" y="65.175">
&#x2243;
</text>
<use xlink:href="#font_6_1" transform="matrix(6.9738,0,0,-6.9738,110.81698,37.335126)"/>
<text fill-opacity="0" transform="matrix(1,0,0,1,14.488998,-18.821034)" font-size="6.9738" font-family="CMMI7" x="89.327" y="65.175">
t
</text>
<use xlink:href="#font_2_3" transform="matrix(6.9738,0,0,-6.9738,104.1089,46.423707)"/>
<text fill-opacity="0" transform="matrix(1,0,0,1,14.488998,-18.821034)" font-size="4.9813" font-family="CMMI5" x="92.337008 97.63711 102.81766" y="66.177 66.177 66.177">
GFA
</text>
<symbol id="font_5_3"><path d="M .74 .23300001 C .74700003 .25000003 .75200005 .254 .809 .25500002 C .822 .25500002 .83900004 .25500002 .83900004 .28300002 C .83900004 .29300004 .83100005 .30000005 .822 .30000005 C .80200005 .30000005 .78000002 .29700003 .76000004 .29700003 C .73800002 .29700003 .71500006 .29600003 .693 .29600003 C .66300006 .29600003 .634 .29700003 .60400005 .29700003 C .57600003 .29700003 .545 .30000005 .517 .30000005 C .51 .30000005 .491 .30000005 .491 .272 C .491 .25500002 .50600005 .25500002 .523 .25500002 L .544 .25500002 C .565 .25500002 .60300007 .254 .623 .25000003 C .63000007 .24800001 .63600006 .24700001 .63600006 .238 C .63600006 .231 .616 .15100001 .61300002 .13900002 C .587 .058000007 .459 .045 .393 .045 C .257 .045 .11100001 .102000009 .11100001 .272 C .11100001 .36500004 .155 .48600002 .241 .56500006 C .34600001 .66300006 .472 .68200007 .542 .68200007 C .671 .68200007 .75100003 .59800005 .75100003 .48400002 C .75100003 .46200004 .749 .45700006 .749 .45100003 C .749 .43600006 .763 .43600006 .772 .43600006 C .791 .43600006 .791 .43900004 .79600006 .45800004 L .859 .71300006 C .859 .71400004 .859 .72700005 .84300004 .72700005 C .837 .72700005 .836 .7260001 .82400008 .71500006 L .75500007 .646 C .753 .64400006 .74600006 .637 .744 .637 C .74200006 .637 .74200006 .6380001 .739 .64100004 C .717 .66400004 .657 .72700005 .527 .72700005 C .254 .72700005 0 .513 0 .29300004 C 0 .142 .124000009 0 .35900002 0 C .39500003 0 .45 .0020000003 .503 .0150000019 C .57600003 .032 .61 .061000004 .624 .076000004 C .63600006 .055 .665 .022000002 .67700005 .022000002 C .68 .022000002 .68700004 .025000003 .69000006 .032 C .69200001 .041 .70500002 .095000009 .70900007 .109000003 L .74 .23300001 Z "/>
</symbol><symbol id="font_5_2"><path d="M .29 .317 L .414 .317 C .503 .317 .51100006 .303 .51100006 .27 C .51100006 .254 .50600005 .22900002 .50400009 .224 C .50400009 .22100001 .503 .21900001 .503 .21700001 C .503 .21100001 .507 .2 .52400007 .2 C .53800006 .2 .54300004 .20400001 .54700003 .22100001 L .60600005 .462 C .60600005 .46300002 .60600005 .47900004 .586 .47900004 C .56900006 .47900004 .56700001 .47300001 .563 .45600004 C .54 .377 .5130001 .36200002 .418 .36200002 L .301 .36200002 L .361 .601 C .36900001 .632 .36900001 .634 .41099997 .634 L .59400006 .634 C .73600007 .634 .7710001 .60800005 .7710001 .509 C .7710001 .48700003 .76800008 .46100002 .76800008 .45900002 C .76800008 .44500003 .77800007 .44000002 .78900004 .44000002 C .8080001 .44000002 .8090001 .44900003 .81100007 .46800003 L .8270001 .646 L .82900008 .661 C .82900008 .679 .81400009 .679 .79600006 .679 L .194 .679 C .174 .679 .15900001 .679 .15900001 .651 C .15900001 .634 .171 .634 .19600001 .634 C .206 .634 .239 .634 .26 .628 C .26 .61600008 .26 .614 .257 .60300007 L .127 .083000002 C .11900001 .053000002 .11800001 .045 .041 .045 C .015999996 .045 0 .045 0 .017 C 0 .009000001 .0069999991 0 .018 0 C .04 0 .065000005 .003 .087000008 .003 C .11200001 .003 .13800001 .004 .164 .004 C .192 .004 .21900001 .003 .24700001 .003 C .27400003 .003 .303 0 .33 0 C .336 0 .356 0 .356 .028 C .356 .045 .342 .045 .316 .045 C .292 .045 .284 .045 .25800002 .047000003 C .234 .049000001 .227 .05 .227 .062000003 C .227 .068 .227 .07 .231 .08400001 L .29 .317 Z "/>
</symbol><use xlink:href="#font_5_3" transform="matrix(4.9813,0,0,-4.9813,107.39886,47.465559)"/>
<use xlink:href="#font_5_2" transform="matrix(4.9813,0,0,-4.9813,112.708919,47.35597)"/>
<use xlink:href="#font_5_1" transform="matrix(4.9813,0,0,-4.9813,117.824711,47.35597)"/>
</g>
</svg>
