<?xml version="1.0" standalone="no"?>
<!DOCTYPE svg PUBLIC "-//W3C//DTD SVG 1.1//EN" "http://www.w3.org/Graphics/SVG/1.1/DTD/svg11.dtd">
<svg xmlns="http://www.w3.org/2000/svg" xmlns:xlink="http://www.w3.org/1999/xlink" version="1.1" width="1.87579cm" height="1.604645cm" viewBox="0 0 53.172 45.486">
<clipPath id="cp0">
<path transform="matrix(1,0,0,-1,-83.682,727.50602)" d="M 0 0 L 595.28 0 L 595.28 841.889963 L 0 841.889963 Z "/>
</clipPath>
<g clip-path="url(#cp0)">
<text fill-opacity="0" transform="matrix(1,0,0,1,-44.130998,-22.963973)" font-size="9.9626" font-family="CMMI10" x="47.017" y="32.209">
A
</text>
<symbol id="font_1_1"><path d="M .14400001 .115 C .10400002 .048 .065 .034 .021000002 .031000002 C .009000003 .030000001 0 .030000001 0 .011000001 C 0 .0050000005 .0050000029 0 .013 0 C .040000004 0 .07100001 .003 .09900001 .003 C .13200002 .003 .16700001 0 .19900002 0 C .20500002 0 .21800003 0 .21800003 .019000001 C .21800003 .030000001 .20900002 .031000002 .20200002 .031000002 C .17900002 .033 .15500002 .041 .15500002 .066 C .15500002 .078 .16100002 .089 .16900002 .10300001 L .245 .231 L .49600001 .231 C .49800005 .21000001 .512 .074 .512 .064 C .512 .034 .46000004 .031000002 .44000002 .031000002 C .42600003 .031000002 .41600004 .031000002 .41600004 .011000001 C .41600004 0 .42800003 0 .43000003 0 C .47100006 0 .514 .003 .555 .003 C .58 .003 .643 0 .668 0 C .674 0 .686 0 .686 .020000002 C .686 .031000002 .676 .031000002 .663 .031000002 C .601 .031000002 .601 .038000002 .598 .067 L .537 .69200001 C .535 .712 .535 .716 .518 .716 C .502 .716 .49800005 .70900007 .492 .69900008 L .14400001 .115 M .26400004 .26200003 L .46100002 .592 L .493 .26200003 L .26400004 .26200003 Z "/>
</symbol><use xlink:href="#font_1_1" transform="matrix(9.9626,0,0,-9.9626,3.2346926,9.245028)"/>
<text fill-opacity="0" transform="matrix(1,0,0,1,-44.422998,-22.963973)" font-size="9.9626" font-family="CMMI10" x="87.6850022" y="32.209">
B
</text>
<symbol id="font_1_2"><path d="M .11800001 .078 C .108 .039 .106 .031000002 .027000003 .031000002 C .009999998 .031000002 0 .031000002 0 .011000001 C 0 0 .009 0 .027000003 0 L .38400004 0 C .54200006 0 .66 .11800001 .66 .216 C .66 .28800002 .60200005 .34600001 .50500007 .35700002 C .609 .37600003 .71400004 .45000001 .71400004 .545 C .71400004 .619 .64800005 .683 .52800007 .683 L .192 .683 C .17300001 .683 .16300002 .683 .16300002 .66300006 C .16300002 .652 .17200002 .652 .19100001 .652 C .19300002 .652 .21200001 .652 .22900003 .65000005 C .24700001 .648 .256 .647 .256 .634 C .256 .63000007 .25500002 .62700005 .252 .615 L .11800001 .078 M .26900003 .36600004 L .33100004 .614 C .34000004 .64900007 .342 .652 .38500002 .652 L .51400004 .652 C .60200005 .652 .623 .59300004 .623 .549 C .623 .46100002 .53700008 .36600004 .41500001 .36600004 L .26900003 .36600004 M .224 .031000002 C .21000001 .031000002 .208 .031000002 .20200002 .032 C .192 .033 .18900001 .034 .18900001 .042000003 C .18900001 .045 .18900001 .047000003 .194 .065000005 L .263 .344 L .45200003 .344 C .54800005 .344 .56700001 .27 .56700001 .22700002 C .56700001 .128 .47800005 .031000002 .36 .031000002 L .224 .031000002 Z "/>
</symbol><use xlink:href="#font_1_2" transform="matrix(9.9626,0,0,-9.9626,43.68043,9.245028)"/>
<text fill-opacity="0" transform="matrix(1,0,0,1,-44.311996,-22.963974)" font-size="9.9626" font-family="CMMI10" x="47.017" y="64.242">
C
</text>
<symbol id="font_1_3"><path d="M .71000004 .71700006 C .71000004 .72 .708 .72700005 .699 .72700005 C .69600006 .72700005 .69500008 .7260001 .684 .71500006 L .614 .6380001 C .605 .65200009 .559 .72700005 .448 .72700005 C .22500001 .72700005 0 .50600005 0 .27400003 C 0 .109000003 .118000019 0 .271 0 C .358 0 .43400002 .040000004 .487 .086 C .58000002 .16800001 .597 .25900004 .597 .26200003 C .597 .272 .587 .272 .58500004 .272 C .579 .272 .574 .27 .572 .26200003 C .563 .23300001 .54 .162 .47100001 .104 C .402 .048 .33900002 .031000004 .287 .031000004 C .19700001 .031000004 .091000004 .083000002 .091000004 .23900001 C .091000004 .29600003 .112 .45800004 .21200003 .57500005 C .273 .646 .367 .69600006 .45600004 .69600006 C .558 .69600006 .61700006 .619 .61700006 .503 C .61700006 .46300002 .614 .46200004 .614 .45200003 C .614 .44200002 .625 .44200002 .629 .44200002 C .642 .44200002 .642 .44400005 .647 .46200004 L .71000004 .71700006 Z "/>
</symbol><use xlink:href="#font_1_3" transform="matrix(9.9626,0,0,-9.9626,3.203132,41.4972)"/>
<text fill-opacity="0" transform="matrix(1,0,0,1,-44.657999,-22.963974)" font-size="9.9626" font-family="CMMI10" x="87.6850022" y="64.242">
D
</text>
<symbol id="font_1_4"><path d="M .119 .078 C .109 .039 .10699999 .031000002 .028 .031000002 C .011 .031000002 0 .031000002 0 .012 C 0 0 .009 0 .028 0 L .35900002 0 C .56700001 0 .764 .21100001 .764 .43 C .764 .57100006 .679 .683 .529 .683 L .193 .683 C .17400001 .683 .163 .683 .163 .66400004 C .163 .652 .172 .652 .192 .652 C .205 .652 .223 .651 .235 .65000005 C .25100003 .648 .25700002 .64500003 .25700002 .634 C .25700002 .63000007 .256 .62700005 .25300003 .615 L .119 .078 M .33500004 .614 C .344 .64900007 .34600001 .652 .38900004 .652 L .49600001 .652 C .594 .652 .677 .59900003 .677 .467 C .677 .418 .657 .254 .572 .14400001 C .543 .10700001 .46400003 .031000002 .34100003 .031000002 L .228 .031000002 C .214 .031000002 .212 .031000002 .206 .032 C .19600001 .033 .193 .034 .193 .042000003 C .193 .045 .193 .047000003 .198 .065000005 L .33500004 .614 Z "/>
</symbol><use xlink:href="#font_1_4" transform="matrix(9.9626,0,0,-9.9626,43.425503,41.278024)"/>
<path transform="matrix(1,0,0,-1,27.129002,21.858025)" stroke-width=".39848" stroke-linecap="butt" stroke-miterlimit="10" stroke-linejoin="miter" fill="none" stroke="rgb(0,0,0)" d="M -20.50735 8.76726 L -20.50735 -8.36877 "/>
<path transform="matrix(0,1,1,0,6.6216507,30.426035)" stroke-width=".39848" stroke-linecap="round" stroke-linejoin="round" fill="none" stroke="rgb(0,0,0)" d="M -2.07213 2.39091 C -1.69356 .95633 -.84995 .27893 0 0 C -.84995 -.27893 -1.69356 -.95633 -2.07213 -2.39091 "/>
<text fill-opacity="0" transform="matrix(1,0,0,1,-39.199998,-40.640974)" font-size="6.9738" font-family="CMMI7" x="38.811" y="64.242">
f
</text>
<symbol id="font_2_1"><path d="M .334 .59900003 L .43199997 .59900003 C .45200003 .59900003 .46500004 .59900003 .46500004 .62100006 C .46500004 .63500004 .45200003 .63500004 .43400002 .63500004 L .34100003 .63500004 C .364 .762 .372 .808 .38 .837 C .38500002 .859 .407 .88000003 .431 .88000003 C .43199997 .88000003 .459 .88000003 .478 .86800004 C .43700004 .855 .43400002 .819000043 .43400002 .813 C .43400002 .791 .45100003 .776 .47400003 .776 C .501 .776 .531 .799 .531 .837 C .531 .883 .482 .90800008 .431 .90800008 C .387 .90800008 .338 .883 .311 .833 C .291 .796 .283 .75100003 .262 .63500004 L .183 .63500004 C .16300002 .63500004 .15 .63500004 .15 .61300002 C .15 .59900003 .16300002 .59900003 .181 .59900003 L .255 .59900003 C .254 .59300004 .19099999 .23300001 .167 .12600002 C .162 .10400001 .14500001 .027999998 .096999999 .027999998 C .09600001 .027999998 .072000003 .027999998 .052999997 .040000005 C .094000006 .053000002 .096999999 .08900001 .096999999 .095000009 C .096999999 .117000009 .080000009 .132 .057000003 .132 C .030000001 .132 0 .109000003 0 .07100001 C 0 .026000008 .047 0 .096999999 0 C .16100002 0 .20500002 .066 .21700001 .08800001 C .253 .155 .276 .278 .278 .29000001 L .334 .59900003 Z "/>
</symbol><use xlink:href="#font_2_1" transform="matrix(6.9738,0,0,-6.9738,.120091331,25.02368)"/>
<path transform="matrix(1,0,0,-1,27.129002,21.858025)" stroke-width=".39848" stroke-linecap="butt" stroke-miterlimit="10" stroke-linejoin="miter" fill="none" stroke="rgb(0,0,0)" d="M -12.28255 15.10332 L 11.24583 15.10332 "/>
<path transform="matrix(1,0,0,-1,38.574074,6.7547045)" stroke-width=".39848" stroke-linecap="round" stroke-linejoin="round" fill="none" stroke="rgb(0,0,0)" d="M -2.07213 2.39091 C -1.69356 .95633 -.84995 .27893 0 0 C -.84995 -.27893 -1.69356 -.95633 -2.07213 -2.39091 "/>
<text fill-opacity="0" transform="matrix(1,0,0,1,-14.07,-61.186975)" font-size="6.9738" font-family="CMMI7" x="38.811" y="64.242">
g
</text>
<symbol id="font_2_2"><path d="M .489 .573 C .493 .588 .493 .59300004 .493 .59400006 C .493 .61600008 .475 .62600003 .45900002 .62600003 C .43600002 .62600003 .417 .60700007 .41300002 .588 C .396 .615 .36200002 .64500003 .31 .64500003 C .18500002 .64500003 .054 .51100006 .054 .36800004 C .054 .26500001 .12400001 .20400001 .20600002 .20400001 C .252 .20400001 .296 .22700002 .331 .25800002 L .30900002 .16800001 C .298 .12600002 .291 .09900001 .253 .065 C .209 .027999998 .16600001 .027999998 .14100002 .027999998 C .09500001 .027999998 .082 .031000004 .06400001 .034999996 C .089 .047000007 .096000014 .07100001 .096000014 .08500001 C .096000014 .109000003 .07700001 .12200001 .057 .12200001 C .029000003 .12200001 0 .09900001 0 .061000004 C 0 .001000002 .08600001 0 .142 0 C .299 0 .366 .080000009 .38 .13700001 L .489 .573 M .351 .337 C .347 .32200003 .347 .32000003 .33 .3 C .29500003 .25800002 .24700003 .23200001 .209 .23200001 C .158 .23200001 .134 .275 .134 .32700003 C .134 .37100003 .16100002 .48300005 .187 .527 C .22900002 .597 .276 .61700006 .31 .61700006 C .38 .61700006 .39900003 .54200006 .39900003 .532 C .39900003 .53000002 .39900003 .528 .396 .517 L .351 .337 Z "/>
</symbol><use xlink:href="#font_2_2" transform="matrix(6.9738,0,0,-6.9738,25.040875,4.4776783)"/>
<path transform="matrix(1,0,0,-1,27.129002,21.858025)" stroke-width=".39848" stroke-linecap="butt" stroke-miterlimit="10" stroke-linejoin="miter" fill="none" stroke="rgb(0,0,0)" d="M 20.16142 8.76726 L 20.16142 -8.36877 "/>
<path transform="matrix(0,1,1,0,47.29042,30.426035)" stroke-width=".39848" stroke-linecap="round" stroke-linejoin="round" fill="none" stroke="rgb(0,0,0)" d="M -2.07213 2.39091 C -1.69356 .95633 -.84995 .27893 0 0 C -.84995 -.27893 -1.69356 -.95633 -2.07213 -2.39091 "/>
<text fill-opacity="0" transform="matrix(1,0,0,1,10.823,-41.56097)" font-size="6.9738" font-family="CMMI7" x="38.811" y="64.242">
q
</text>
<symbol id="font_2_4"><path d="M .448 .60600005 C .44900007 .61 .45000005 .61600008 .45000005 .62100006 C .45000005 .62700005 .44600005 .635 .43700004 .635 C .42700005 .635 .385 .601 .365 .569 C .35500002 .589 .32200003 .635 .25800002 .635 C .13000001 .635 0 .49400001 0 .35000003 C 0 .25300003 .065 .184 .15100001 .184 C .20800002 .184 .255 .22 .277 .23900001 C .27600003 .236 .24500002 .11 .24100001 .093 C .22700002 .038000002 .226 .037 .164 .036 C .15200001 .036 .13800001 .036 .13800001 .013999999 C .13800001 .008000001 .143 0 .15300001 0 C .186 0 .223 .003999993 .25700002 .003999993 C .291 .003999993 .333 0 .36400003 0 C .37300003 0 .384 .0029999912 .384 .022 C .384 .036 .37 .036 .35800005 .036 C .33600002 .036 .30900002 .036 .30900002 .047999993 C .30900002 .051 .30900002 .053000002 .314 .07 L .448 .60600005 M .297 .32 C .292 .303 .292 .301 .27899999 .28500004 C .24000003 .23900001 .193 .21200001 .154 .21200001 C .117 .21200001 .081 .238 .081 .30900002 C .081 .36200002 .11 .47200003 .133 .512 C .179 .592 .23 .607 .25800002 .607 C .328 .607 .347 .53000002 .347 .52 C .347 .515 .34500003 .50900007 .34400005 .505 L .297 .32 Z "/>
</symbol><use xlink:href="#font_2_4" transform="matrix(6.9738,0,0,-6.9738,50.059408,24.033944)"/>
<path transform="matrix(1,0,0,-1,27.129002,21.858025)" stroke-width=".39848" stroke-linecap="butt" stroke-miterlimit="10" stroke-linejoin="miter" fill="none" stroke="rgb(0,0,0)" d="M -12.10199 -16.92978 L 11.01164 -16.92978 "/>
<path transform="matrix(1,0,0,-1,38.33988,38.787804)" stroke-width=".39848" stroke-linecap="round" stroke-linejoin="round" fill="none" stroke="rgb(0,0,0)" d="M -2.07213 2.39091 C -1.69356 .95633 -.84995 .27893 0 0 C -.84995 -.27893 -1.69356 -.95633 -2.07213 -2.39091 "/>
<text fill-opacity="0" transform="matrix(1,0,0,1,-14.080999,-20.107973)" font-size="6.9738" font-family="CMMI7" x="38.811" y="64.242">
p
</text>
<symbol id="font_2_3"><path d="M .076000004 .072 C .069000006 .044 .067 .036 .027 .036 C .014 .036 0 .036 0 .015000001 C 0 .003999993 .009000001 0 .014 0 C .04 0 .07300001 .003999993 .10000001 .003999993 C .134 .003999993 .172 0 .20500002 0 C .21400002 0 .22500001 .0029999912 .22500001 .022 C .22500001 .036 .21100001 .036 .19900002 .036 C .17700002 .036 .15 .036 .15 .047999993 C .15 .053000002 .157 .079 .16100002 .094000006 C .17300001 .147 .187 .201 .19800002 .243 C .21000001 .223 .24100001 .184 .301 .184 C .423 .184 .558 .319 .558 .46800003 C .558 .58500004 .477 .635 .408 .635 C .34600001 .635 .293 .59300004 .266 .56500006 C .24900002 .62200003 .193 .635 .163 .635 C .124000009 .635 .10000001 .609 .08400001 .582 C .064 .548 .048 .488 .048 .48200002 C .048 .469 .062000003 .469 .065000005 .469 C .079 .469 .080000009 .47200003 .087000008 .499 C .102000009 .55700007 .12100001 .607 .16000001 .607 C .186 .607 .193 .58500004 .193 .558 C .193 .54700003 .19100001 .53400002 .19000001 .528 L .076000004 .072 M .265 .515 C .323 .592 .373 .607 .405 .607 C .444 .607 .47800002 .578 .47800002 .51 C .47800002 .469 .456 .367 .426 .30900002 C .401 .26 .352 .21200001 .301 .21200001 C .23000002 .21200001 .21200001 .289 .21200001 .29900003 C .21200001 .303 .21400002 .31 .21500002 .314 L .265 .515 Z "/>
</symbol><use xlink:href="#font_2_3" transform="matrix(6.9738,0,0,-6.9738,24.723029,45.486942)"/>
</g>
</svg>
