<?xml version="1.0" standalone="no"?>
<!DOCTYPE svg PUBLIC "-//W3C//DTD SVG 1.1//EN" "http://www.w3.org/Graphics/SVG/1.1/DTD/svg11.dtd">
<svg xmlns="http://www.w3.org/2000/svg" xmlns:xlink="http://www.w3.org/1999/xlink" version="1.1" width="1.70307cm" height=".344805cm" viewBox="0 0 48.276 9.774">
<clipPath id="cp0">
<path transform="matrix(1,0,0,-1,-85.68,726.552)" d="M 0 0 L 595.28 0 L 595.28 841.889963 L 0 841.889963 Z "/>
</clipPath>
<g clip-path="url(#cp0)">
<text fill-opacity="0" transform="matrix(1,0,0,1,-46.853,-39.934014)" font-size="9.9626" font-family="CMMI10" x="46.61" y="49.601">
X
</text>
<symbol id="font_1_2"><path d="M .458 .411 L .374 .61 C .37100003 .61800004 .36900001 .62200003 .36900001 .623 C .36900001 .629 .386 .648 .428 .652 C .43800002 .65300007 .448 .65400005 .448 .671 C .448 .683 .43600002 .683 .433 .683 C .39200001 .683 .349 .68 .307 .68 C .282 .68 .22000001 .683 .19500003 .683 C .18900001 .683 .17700002 .683 .17700002 .66300006 C .17700002 .652 .18700002 .652 .20000002 .652 C .26 .652 .266 .642 .275 .62 L .393 .34100003 L .18200001 .11400001 L .16900002 .10300001 C .12 .05 .073 .034 .022000002 .031000002 C .0090000019 .030000001 0 .030000001 0 .011000001 C 0 .010000001 0 0 .013000002 0 C .042999998 0 .076000004 .003 .107 .003 C .14400001 .003 .18300002 0 .21900001 0 C .22500001 0 .237 0 .237 .020000002 C .237 .030000001 .22700002 .031000002 .22500001 .031000002 C .21600002 .032 .18500002 .034 .18500002 .062000003 C .18500002 .078 .20000002 .094000006 .21200001 .10700001 L .314 .215 L .404 .31300002 L .505 .074 C .509 .063 .51 .062000003 .51 .060000001 C .51 .052 .491 .035 .45200003 .031000002 C .441 .030000001 .432 .029000001 .432 .012 C .432 0 .44300003 0 .44700003 0 C .47500001 0 .545 .003 .573 .003 C .598 .003 .65900002 0 .684 0 C .69100004 0 .703 0 .703 .019000001 C .703 .031000002 .693 .031000002 .685 .031000002 C .61800004 .032 .616 .035 .59900003 .075 C .56 .16800001 .49300004 .324 .47 .384 C .538 .45400004 .643 .573 .675 .601 C .704 .625 .74200006 .64900007 .80200005 .652 C .81500006 .65300007 .824 .65300007 .824 .67200003 C .824 .67300005 .824 .683 .81100007 .683 C .781 .683 .748 .68 .717 .68 C .68 .68 .642 .683 .606 .683 C .6 .683 .587 .683 .587 .66300006 C .587 .656 .592 .65300007 .59900003 .652 C .60800005 .651 .639 .64900007 .639 .62100006 C .639 .60700007 .628 .59400006 .62 .58500004 L .458 .411 Z "/>
</symbol><use xlink:href="#font_1_2" transform="matrix(9.9626,0,0,-9.9626,.02599017,9.666988)"/>
<text fill-opacity="0" transform="matrix(1,0,0,1,-45.938,-39.934014)" font-size="9.9626" font-family="CMMI10" x="87.22" y="49.601">
T
</text>
<symbol id="font_1_1"><path d="M .40300003 .60700007 C .41000004 .63500004 .41400004 .64100004 .42600003 .64400006 C .43500004 .646 .46800003 .646 .48900003 .646 C .59000006 .646 .63500004 .642 .63500004 .564 C .63500004 .549 .63100005 .51000004 .62700005 .48400002 C .62600003 .48000002 .624 .46800003 .624 .46500004 C .624 .45900002 .62700005 .45200003 .63600006 .45200003 C .647 .45200003 .64900007 .46 .651 .47500001 L .67800003 .64900007 C .679 .65300007 .68000007 .66300006 .68000007 .666 C .68000007 .67700005 .67 .67700005 .65300007 .67700005 L .098000002 .67700005 C .074 .67700005 .073 .67600008 .066 .657 L .006000001 .48100005 C .005000001 .47900004 0 .46500004 0 .46300002 C 0 .45700002 .005000001 .45200003 .012000002 .45200003 C .022000003 .45200003 .023000002 .45700002 .029000003 .47300001 C .083000002 .628 .109 .646 .25700002 .646 L .29600003 .646 C .32400003 .646 .32400003 .642 .32400003 .634 C .32400003 .628 .32100005 .61600008 .32000003 .61300002 L .186 .079 C .177 .042000003 .17400001 .031000002 .067 .031000002 C .031000004 .031000002 .025000003 .031000002 .025000003 .012 C .025000003 0 .036000002 0 .042 0 C .069000006 0 .097 .002 .124 .002 C .15200001 .002 .18100001 .003 .209 .003 C .237 .003 .26500001 .002 .29200003 .002 C .32100005 .002 .35100005 0 .37900005 0 C .38900004 0 .40100003 0 .40100003 .020000002 C .40100003 .031000002 .39300004 .031000002 .36700005 .031000002 C .34200004 .031000002 .32900003 .031000002 .30300003 .033 C .27400003 .036000002 .26600004 .039 .26600004 .055000005 C .26600004 .056 .26600004 .061000004 .27 .076000004 L .40300003 .60700007 Z "/>
</symbol><use xlink:href="#font_1_1" transform="matrix(9.9626,0,0,-9.9626,41.521104,9.666988)"/>
<path transform="matrix(1,0,0,-1,24.123002,6.262989)" stroke-width=".39848" stroke-linecap="butt" stroke-dasharray="2.78941,1.59395" stroke-miterlimit="10" stroke-linejoin="miter" fill="none" stroke="rgb(0,0,0)" d="M -10.84106 -.91324 L 12.27255 -.91324 "/>
<path transform="matrix(1,0,0,-1,36.59479,7.176229)" stroke-width=".39848" stroke-linecap="round" stroke-linejoin="round" fill="none" stroke="rgb(0,0,0)" d="M -2.07213 2.39091 C -1.69356 .95633 -.84995 .27893 0 0 C -.84995 -.27893 -1.69356 -.95633 -2.07213 -2.39091 "/>
<text fill-opacity="0" transform="matrix(1,0,0,1,-17.006,-44.769014)" font-size="6.9738" font-family="CMSY7" x="37.803" y="49.601">
&#x2203;
</text>
<symbol id="font_2_1"><path d="M .49199999 .65500002 C .49199999 .689 .486 .694 .45200003 .694 L .04 .694 C .022999995 .694 0 .694 0 .669 C 0 .64500003 .023999997 .64500003 .04 .64500003 L .44300003 .64500003 L .44300003 .372 L .058 .372 C .041 .372 .015999996 .372 .015999996 .347 C .015999996 .323 .037999995 .323 .053000002 .323 L .44300003 .323 L .44300003 .049000001 L .04 .049000001 C .022999995 .049000001 0 .049000001 0 .024 C 0 0 .023999997 0 .04 0 L .45200003 0 C .486 0 .49199999 .0050000005 .49199999 .039 L .49199999 .65500002 Z "/>
</symbol><use xlink:href="#font_2_1" transform="matrix(6.9738,0,0,-6.9738,21.333985,4.8319893)"/>
<text fill-opacity="0" transform="matrix(1,0,0,1,-17.006,-44.769014)" font-size="6.9738" font-family="CMR7" x="42.314004" y="49.601">
1
</text>
<symbol id="font_3_1"><path d="M .22600001 .63600006 C .22600001 .66300006 .224 .66400004 .19600001 .66400004 C .132 .601 .041 .6 0 .6 L 0 .564 C .023999997 .564 .09000001 .564 .14500001 .592 L .14500001 .082 C .14500001 .049000001 .14500001 .036000002 .04500001 .036000002 L .0069999991 .036000002 L .0069999991 0 C .024999998 .001 .148 .004 .185 .004 C .21600002 .004 .34200004 .001 .36400003 0 L .36400003 .036000002 L .32600003 .036000002 C .22600001 .036000002 .22600001 .049000001 .22600001 .082 L .22600001 .63600006 Z "/>
</symbol><use xlink:href="#font_3_1" transform="matrix(6.9738,0,0,-6.9738,26.068148,4.8319893)"/>
</g>
</svg>
