<?xml version="1.0" standalone="no"?>
<!DOCTYPE svg PUBLIC "-//W3C//DTD SVG 1.1//EN" "http://www.w3.org/Graphics/SVG/1.1/DTD/svg11.dtd">
<svg xmlns="http://www.w3.org/2000/svg" xmlns:xlink="http://www.w3.org/1999/xlink" version="1.1" width="3.88747cm" height="1.693545cm" viewBox="0 0 110.196 48.006">
<clipPath id="cp0">
<path transform="matrix(1,0,0,-1,-85.806,727.506)" d="M 0 0 L 595.28 0 L 595.28 841.889963 L 0 841.889963 Z "/>
</clipPath>
<g clip-path="url(#cp0)">
<text fill-opacity="0" transform="matrix(1,0,0,1,-88.961,-21.386034)" font-size="9.9626" font-family="CMMI10" x="88.591" y="34.874">
E
</text>
<symbol id="font_1_4"><path d="M .67 .23300001 C .67200003 .238 .6750001 .245 .6750001 .24700001 C .6750001 .24800001 .6750001 .25800002 .66300006 .25800002 C .65400005 .25800002 .65200009 .252 .65000005 .246 C .58500004 .098000002 .54800005 .031000002 .37700004 .031000002 L .23100002 .031000002 C .21700002 .031000002 .21500002 .031000002 .209 .032 C .19900002 .033 .19600001 .034 .19600001 .042000003 C .19600001 .045 .19600001 .047000003 .201 .065000005 L .269 .33800004 L .36800004 .33800004 C .453 .33800004 .453 .317 .453 .29200003 C .453 .28500004 .453 .273 .44600005 .24300001 C .444 .238 .44300003 .23500002 .44300003 .23200001 C .44300003 .22700002 .44700003 .22100001 .45600004 .22100001 C .46400004 .22100001 .467 .22600001 .47100001 .24100001 L .52800007 .47500001 C .52800007 .48100005 .52300005 .48600002 .51600004 .48600002 C .507 .48600002 .50500007 .48000002 .50200005 .46800003 C .48100006 .39200001 .46300006 .36900001 .371 .36900001 L .277 .36900001 L .337 .61 C .34600001 .64500003 .347 .64900007 .39100004 .64900007 L .53200007 .64900007 C .65400005 .64900007 .6840001 .62 .6840001 .53800006 C .6840001 .514 .6840001 .512 .68000007 .485 C .68000007 .47900004 .679 .47200003 .679 .467 C .679 .462 .68200007 .455 .69100004 .455 C .702 .455 .70300007 .46100002 .70500002 .48000002 L .725 .65300007 C .72800007 .68 .72300005 .68 .6980001 .68 L .193 .68 C .17300001 .68 .163 .68 .163 .66 C .163 .64900007 .172 .64900007 .19100001 .64900007 C .228 .64900007 .25599999 .64900007 .25599999 .63100005 C .25599999 .62700005 .25599999 .625 .251 .60700007 L .119 .078 C .109 .039 .10700001 .031000002 .027999998 .031000002 C .011 .031000002 0 .031000002 0 .012 C 0 0 .009 0 .027999998 0 L .54700003 0 C .57000008 0 .57100006 .001 .57800007 .017 L .67 .23300001 Z "/>
</symbol><use xlink:href="#font_1_4" transform="matrix(9.9626,0,0,-9.9626,.008583698,13.487967)"/>
<text fill-opacity="0" transform="matrix(1,0,0,1,-88.961,-21.386034)" font-size="9.9626" font-family="CMR10" x="96.520005" y="34.874">
(
</text>
<symbol id="font_2_1"><path d="M .23200002 .00999999 C .23200002 .012999982 .23200002 .014999986 .215 .03199999 C .09 .15799999 .058 .347 .058 .5 C .058 .674 .096 .84800005 .21900001 .97300005 C .23200002 .985 .23200002 .98700007 .23200002 .989999971 C .23200002 .99700003 .22800002 1 .222 1 C .21200001 1 .12200001 .93200007 .06299999 .805 C .012000002 .69500008 0 .584 0 .5 C 0 .422 .011 .301 .066 .188 C .126 .065 .21200001 0 .222 0 C .22800002 0 .23200002 .0029999912 .23200002 .00999999 Z "/>
</symbol><use xlink:href="#font_2_1" transform="matrix(9.9626,0,0,-9.9626,8.545303,15.978617)"/>
<text fill-opacity="0" transform="matrix(1,0,0,1,-88.961,-21.386034)" font-size="9.9626" font-family="CMMI10" x="100.394002 105.79374 110.21713" y="34.874 34.874 34.874">
f,g
</text>
<symbol id="font_1_6"><path d="M .314 .605 L .4 .605 C .42000003 .605 .43 .605 .43 .625 C .43 .63600006 .42000003 .63600006 .40300003 .63600006 L .32000003 .63600006 L .34100003 .75 C .34500003 .771 .35900002 .842 .365 .8540001 C .374 .873 .39100004 .888 .41200004 .888 C .416 .888 .44200002 .888 .461 .87 C .41700002 .86600008 .407 .831000127 .407 .816 C .407 .793 .425 .781 .444 .781 C .47 .781 .49900003 .8030001 .49900003 .8410001 C .49900003 .8870001 .45300003 .910000048 .41200004 .910000048 C .37800003 .910000048 .31500004 .8920001 .28500004 .793 C .279 .7720001 .27600003 .7620001 .252 .63600006 L .18300002 .63600006 C .164 .63600006 .15300001 .63600006 .15300001 .61700006 C .15300001 .605 .162 .605 .18100001 .605 L .24700001 .605 L .172 .21000001 C .15400002 .113000009 .13700001 .022 .08500001 .022 C .081 .022 .056 .022 .037 .040000005 C .083000002 .043000012 .09200001 .07900001 .09200001 .094000006 C .09200001 .117000009 .074 .12900001 .055 .12900001 C .029 .12900001 0 .10700001 0 .069000006 C 0 .024000004 .044 0 .08500001 0 C .14 0 .18 .059 .19800002 .09700001 C .23000002 .16000001 .25300003 .28100003 .254 .28800002 L .314 .605 Z "/>
</symbol><symbol id="font_1_1"><path d="M .117000009 .194 C .117000009 .26 .092 .29900003 .05300001 .29900003 C .020000003 .29900003 0 .274 0 .246 C 0 .21900001 .020000003 .193 .05300001 .193 C .065000005 .193 .078 .197 .08800001 .206 C .091 .208 .092 .209 .093 .209 C .094000006 .209 .095000009 .208 .095000009 .194 C .095000009 .12 .06000001 .060000001 .027000003 .026999996 C .016000003 .016000003 .016000003 .013999999 .016000003 .0109999929 C .016000003 .003999993 .021000006 0 .026 0 C .037 0 .117000009 .077 .117000009 .194 Z "/>
</symbol><symbol id="font_1_7"><path d="M .45600004 .582 C .45700002 .58800006 .45900006 .59300004 .45900006 .6 C .45900006 .61700006 .44700003 .62700005 .43 .62700005 C .42000003 .62700005 .393 .62 .389 .584 C .371 .62100006 .33600002 .6470001 .296 .6470001 C .18200001 .6470001 .058000007 .507 .058000007 .36300004 C .058000007 .26400004 .119 .20500002 .19100001 .20500002 C .25 .20500002 .297 .252 .30700005 .263 L .30800004 .26200003 C .287 .17300001 .27500005 .132 .27500005 .13000001 C .27100003 .12100001 .237 .022 .13100001 .022 C .112 .022 .079 .023000002 .051 .032000006 C .081 .04100001 .09200001 .067 .09200001 .08400001 C .09200001 .10000001 .081 .11900001 .054000006 .11900001 C .032 .11900001 0 .10100001 0 .061000004 C 0 .02000001 .037 0 .133 0 C .25800002 0 .33000005 .07800001 .34500003 .13800001 L .45600004 .582 M .32600003 .333 C .32 .307 .297 .282 .27500005 .263 C .254 .24500002 .223 .22700002 .194 .22700002 C .14400001 .22700002 .12900001 .279 .12900001 .319 C .12900001 .367 .158 .485 .185 .536 C .21200001 .58500004 .255 .625 .297 .625 C .36300004 .625 .37700004 .544 .37700004 .53900004 C .37700004 .53400002 .375 .528 .374 .52400007 L .32600003 .333 Z "/>
</symbol><use xlink:href="#font_1_6" transform="matrix(9.9626,0,0,-9.9626,11.961024,15.530299)"/>
<use xlink:href="#font_1_1" transform="matrix(9.9626,0,0,-9.9626,17.689524,15.4107489)"/>
<use xlink:href="#font_1_7" transform="matrix(9.9626,0,0,-9.9626,21.405573,15.530299)"/>
<text fill-opacity="0" transform="matrix(1,0,0,1,-88.961,-21.386034)" font-size="9.9626" font-family="CMR10" x="115.328" y="34.874">
)
</text>
<symbol id="font_2_2"><path d="M .232 .5 C .232 .578 .22100001 .699 .16600001 .812000073 C .106 .93500004 .020000003 1 .009999998 1 C .0040000005 1 0 .99600008 0 .989999971 C 0 .98700007 0 .985 .019000001 .967 C .117000009 .86800004 .174 .709 .174 .5 C .174 .329 .137 .153 .012999997 .026999996 C 0 .014999986 0 .012999982 0 .00999999 C 0 .003999993 .0040000005 0 .009999998 0 C .020000003 0 .11000001 .06799999 .169 .195 C .22 .305 .232 .416 .232 .5 Z "/>
</symbol><use xlink:href="#font_2_2" transform="matrix(9.9626,0,0,-9.9626,26.934872,15.978617)"/>
<text fill-opacity="0" transform="matrix(1,0,0,1,-77.391,-21.386034)" font-size="9.9626" font-family="CMMI10" x="140.122" y="34.874">
A
</text>
<symbol id="font_1_2"><path d="M .14400001 .115 C .10400002 .048 .065 .034 .021000002 .031000002 C .009000003 .030000001 0 .030000001 0 .011000001 C 0 .0050000005 .0050000029 0 .013 0 C .040000004 0 .07100001 .003 .09900001 .003 C .13200002 .003 .16700001 0 .19900002 0 C .20500002 0 .21800003 0 .21800003 .019000001 C .21800003 .030000001 .20900002 .031000002 .20200002 .031000002 C .17900002 .033 .15500002 .041 .15500002 .066 C .15500002 .078 .16100002 .089 .16900002 .10300001 L .245 .231 L .49600001 .231 C .49800005 .21000001 .512 .074 .512 .064 C .512 .034 .46000004 .031000002 .44000002 .031000002 C .42600003 .031000002 .41600004 .031000002 .41600004 .011000001 C .41600004 0 .42800003 0 .43000003 0 C .47100006 0 .514 .003 .555 .003 C .58 .003 .643 0 .668 0 C .674 0 .686 0 .686 .020000002 C .686 .031000002 .676 .031000002 .663 .031000002 C .601 .031000002 .601 .038000002 .598 .067 L .537 .69200001 C .535 .712 .535 .716 .518 .716 C .502 .716 .49800005 .70900007 .492 .69900008 L .14400001 .115 M .26400004 .26200003 L .46100002 .592 L .493 .26200003 L .26400004 .26200003 Z "/>
</symbol><use xlink:href="#font_1_2" transform="matrix(9.9626,0,0,-9.9626,63.079687,13.487967)"/>
<text fill-opacity="0" transform="matrix(1,0,0,1,-77.683,-21.386034)" font-size="9.9626" font-family="CMMI10" x="180.376" y="34.874">
B
</text>
<symbol id="font_1_3"><path d="M .11800001 .078 C .108 .039 .106 .031000002 .027000003 .031000002 C .009999998 .031000002 0 .031000002 0 .011000001 C 0 0 .009 0 .027000003 0 L .38400004 0 C .54200006 0 .66 .11800001 .66 .216 C .66 .28800002 .60200005 .34600001 .50500007 .35700002 C .609 .37600003 .71400004 .45000001 .71400004 .545 C .71400004 .619 .64800005 .683 .52800007 .683 L .192 .683 C .17300001 .683 .16300002 .683 .16300002 .66300006 C .16300002 .652 .17200002 .652 .19100001 .652 C .19300002 .652 .21200001 .652 .22900003 .65000005 C .24700001 .648 .256 .647 .256 .634 C .256 .63000007 .25500002 .62700005 .252 .615 L .11800001 .078 M .26900003 .36600004 L .33100004 .614 C .34000004 .64900007 .342 .652 .38500002 .652 L .51400004 .652 C .60200005 .652 .623 .59300004 .623 .549 C .623 .46100002 .53700008 .36600004 .41500001 .36600004 L .26900003 .36600004 M .224 .031000002 C .21000001 .031000002 .208 .031000002 .20200002 .032 C .192 .033 .18900001 .034 .18900001 .042000003 C .18900001 .045 .18900001 .047000003 .194 .065000005 L .263 .344 L .45200003 .344 C .54800005 .344 .56700001 .27 .56700001 .22700002 C .56700001 .128 .47800005 .031000002 .36 .031000002 L .224 .031000002 Z "/>
</symbol><use xlink:href="#font_1_3" transform="matrix(9.9626,0,0,-9.9626,103.111433,13.487967)"/>
<text fill-opacity="0" transform="matrix(1,0,0,1,-78.173,-21.386033)" font-size="9.9626" font-family="CMMI10" x="88.591" y="69.398">
X
</text>
<symbol id="font_1_5"><path d="M .458 .411 L .374 .61 C .37100003 .61800004 .36900001 .62200003 .36900001 .623 C .36900001 .629 .386 .648 .428 .652 C .43800002 .65300007 .448 .65400005 .448 .671 C .448 .683 .43600002 .683 .433 .683 C .39200001 .683 .349 .68 .307 .68 C .282 .68 .22000001 .683 .19500003 .683 C .18900001 .683 .17700002 .683 .17700002 .66300006 C .17700002 .652 .18700002 .652 .20000002 .652 C .26 .652 .266 .642 .275 .62 L .393 .34100003 L .18200001 .11400001 L .16900002 .10300001 C .12 .05 .073 .034 .022000002 .031000002 C .0090000019 .030000001 0 .030000001 0 .011000001 C 0 .010000001 0 0 .013000002 0 C .042999998 0 .076000004 .003 .107 .003 C .14400001 .003 .18300002 0 .21900001 0 C .22500001 0 .237 0 .237 .020000002 C .237 .030000001 .22700002 .031000002 .22500001 .031000002 C .21600002 .032 .18500002 .034 .18500002 .062000003 C .18500002 .078 .20000002 .094000006 .21200001 .10700001 L .314 .215 L .404 .31300002 L .505 .074 C .509 .063 .51 .062000003 .51 .060000001 C .51 .052 .491 .035 .45200003 .031000002 C .441 .030000001 .432 .029000001 .432 .012 C .432 0 .44300003 0 .44700003 0 C .47500001 0 .545 .003 .573 .003 C .598 .003 .65900002 0 .684 0 C .69100004 0 .703 0 .703 .019000001 C .703 .031000002 .693 .031000002 .685 .031000002 C .61800004 .032 .616 .035 .59900003 .075 C .56 .16800001 .49300004 .324 .47 .384 C .538 .45400004 .643 .573 .675 .601 C .704 .625 .74200006 .64900007 .80200005 .652 C .81500006 .65300007 .824 .65300007 .824 .67200003 C .824 .67300005 .824 .683 .81100007 .683 C .781 .683 .748 .68 .717 .68 C .68 .68 .642 .683 .606 .683 C .6 .683 .587 .683 .587 .66300006 C .587 .656 .592 .65300007 .59900003 .652 C .60800005 .651 .639 .64900007 .639 .62100006 C .639 .60700007 .628 .59400006 .62 .58500004 L .458 .411 Z "/>
</symbol><use xlink:href="#font_1_5" transform="matrix(9.9626,0,0,-9.9626,10.686997,48.01197)"/>
<path transform="matrix(1,0,0,-1,55.191,27.01397)" stroke-width=".39848" stroke-linecap="butt" stroke-miterlimit="10" stroke-linejoin="miter" fill="none" stroke="rgb(0,0,0)" d="M -20.45961 16.01656 L 2.654 16.01656 "/>
<path transform="matrix(1,0,0,-1,58.044262,10.99741)" stroke-width=".39848" stroke-linecap="round" stroke-linejoin="round" fill="none" stroke="rgb(0,0,0)" d="M -2.07213 2.39091 C -1.69356 .95633 -.84995 .27893 0 0 C -.84995 -.27893 -1.69356 -.95633 -2.07213 -2.39091 "/>
<text fill-opacity="0" transform="matrix(1,0,0,1,-24.4,-60.745035)" font-size="6.9738" font-family="CMMI7" x="68.997" y="69.398">
e
</text>
<symbol id="font_3_1"><path d="M .157 .23800002 C .185 .23800002 .26400004 .24000001 .31800003 .259 C .39200001 .285 .40600003 .333 .40600003 .363 C .40600003 .418 .351 .451 .282 .451 C .16200002 .451 0 .359 0 .18800001 C 0 .087000008 .06300001 0 .18 0 C .349 0 .42800003 .099 .42800003 .113000009 C .42800003 .119 .41900004 .13000001 .411 .13000001 C .40500002 .13000001 .40300003 .128 .395 .120000004 C .317 .028 .20000002 .028 .18200001 .028 C .12200001 .028 .082 .068 .082 .14900002 C .082 .16300002 .082 .18300002 .09400001 .23800002 L .157 .23800002 M .10200001 .266 C .143 .411 .254 .423 .282 .423 C .326 .423 .363 .40100003 .363 .363 C .363 .266 .194 .266 .15100001 .266 L .10200001 .266 Z "/>
</symbol><use xlink:href="#font_3_1" transform="matrix(6.9738,0,0,-6.9738,45.064245,8.722708)"/>
<path transform="matrix(1,0,0,-1,55.191,27.01397)" stroke-width=".39848" stroke-linecap="butt" stroke-miterlimit="10" stroke-linejoin="miter" fill="none" stroke="rgb(0,0,0)" d="M 19.50209 18.41867 L 42.61572 18.41867 "/>
<path transform="matrix(1,0,0,-1,98.00597,8.595299)" stroke-width=".39848" stroke-linecap="round" stroke-linejoin="round" fill="none" stroke="rgb(0,0,0)" d="M -2.07213 2.39091 C -1.69356 .95633 -.84995 .27893 0 0 C -.84995 -.27893 -1.69356 -.95633 -2.07213 -2.39091 "/>
<text fill-opacity="0" transform="matrix(1,0,0,1,15.1189999,-64.50304)" font-size="6.9738" font-family="CMMI7" x="68.997" y="69.398">
f
</text>
<symbol id="font_3_2"><path d="M .334 .59900003 L .43199997 .59900003 C .45200003 .59900003 .46500004 .59900003 .46500004 .62100006 C .46500004 .63500004 .45200003 .63500004 .43400002 .63500004 L .34100003 .63500004 C .364 .762 .372 .808 .38 .837 C .38500002 .859 .407 .88000003 .431 .88000003 C .43199997 .88000003 .459 .88000003 .478 .86800004 C .43700004 .855 .43400002 .819000043 .43400002 .813 C .43400002 .791 .45100003 .776 .47400003 .776 C .501 .776 .531 .799 .531 .837 C .531 .883 .482 .90800008 .431 .90800008 C .387 .90800008 .338 .883 .311 .833 C .291 .796 .283 .75100003 .262 .63500004 L .183 .63500004 C .16300002 .63500004 .15 .63500004 .15 .61300002 C .15 .59900003 .16300002 .59900003 .181 .59900003 L .255 .59900003 C .254 .59300004 .19099999 .23300001 .167 .12600002 C .162 .10400001 .14500001 .027999998 .096999999 .027999998 C .09600001 .027999998 .072000003 .027999998 .052999997 .040000005 C .094000006 .053000002 .096999999 .08900001 .096999999 .095000009 C .096999999 .117000009 .080000009 .132 .057000003 .132 C .030000001 .132 0 .109000003 0 .07100001 C 0 .026000008 .047 0 .096999999 0 C .16100002 0 .20500002 .066 .21700001 .08800001 C .253 .155 .276 .278 .278 .29000001 L .334 .59900003 Z "/>
</symbol><use xlink:href="#font_3_2" transform="matrix(6.9738,0,0,-6.9738,84.625083,6.317621)"/>
<path transform="matrix(1,0,0,-1,55.191,27.01397)" stroke-width=".39848" stroke-linecap="butt" stroke-miterlimit="10" stroke-linejoin="miter" fill="none" stroke="rgb(0,0,0)" d="M 19.50209 13.61444 L 42.61572 13.61444 "/>
<path transform="matrix(1,0,0,-1,98.00597,13.399529)" stroke-width=".39848" stroke-linecap="round" stroke-linejoin="round" fill="none" stroke="rgb(0,0,0)" d="M -2.07213 2.39091 C -1.69356 .95633 -.84995 .27893 0 0 C -.84995 -.27893 -1.69356 -.95633 -2.07213 -2.39091 "/>
<text fill-opacity="0" transform="matrix(1,0,0,1,15.384001,-50.65203)" font-size="6.9738" font-family="CMMI7" x="68.997" y="69.398">
g
</text>
<symbol id="font_3_3"><path d="M .489 .573 C .493 .588 .493 .59300004 .493 .59400006 C .493 .61600008 .475 .62600003 .45900002 .62600003 C .43600002 .62600003 .417 .60700007 .41300002 .588 C .396 .615 .36200002 .64500003 .31 .64500003 C .18500002 .64500003 .054 .51100006 .054 .36800004 C .054 .26500001 .12400001 .20400001 .20600002 .20400001 C .252 .20400001 .296 .22700002 .331 .25800002 L .30900002 .16800001 C .298 .12600002 .291 .09900001 .253 .065 C .209 .027999998 .16600001 .027999998 .14100002 .027999998 C .09500001 .027999998 .082 .031000004 .06400001 .034999996 C .089 .047000007 .096000014 .07100001 .096000014 .08500001 C .096000014 .109000003 .07700001 .12200001 .057 .12200001 C .029000003 .12200001 0 .09900001 0 .061000004 C 0 .001000002 .08600001 0 .142 0 C .299 0 .366 .080000009 .38 .13700001 L .489 .573 M .351 .337 C .347 .32200003 .347 .32000003 .33 .3 C .29500003 .25800002 .24700003 .23200001 .209 .23200001 C .158 .23200001 .134 .275 .134 .32700003 C .134 .37100003 .16100002 .48300005 .187 .527 C .22900002 .597 .276 .61700006 .31 .61700006 C .38 .61700006 .39900003 .54200006 .39900003 .532 C .39900003 .53000002 .39900003 .528 .396 .517 L .351 .337 Z "/>
</symbol><use xlink:href="#font_3_3" transform="matrix(6.9738,0,0,-6.9738,84.68088,20.168627)"/>
<path transform="matrix(1,0,0,-1,55.191,27.01397)" stroke-width=".39848" stroke-linecap="butt" stroke-dasharray="2.78941,1.59395" stroke-miterlimit="10" stroke-linejoin="miter" fill="none" stroke="rgb(0,0,0)" d="M -40.25401 -10.3447 L -40.25401 6.79134 "/>
<path transform="matrix(0,-1,-1,0,14.936993,20.0234)" stroke-width=".39848" stroke-linecap="round" stroke-linejoin="round" fill="none" stroke="rgb(0,0,0)" d="M -2.07213 2.39091 C -1.69356 .95633 -.84995 .27893 0 0 C -.84995 -.27893 -1.69356 -.95633 -2.07213 -2.39091 "/>
<text fill-opacity="0" transform="matrix(1,0,0,1,-61.068,-38.385034)" font-size="6.9738" font-family="CMMI7" x="68.997" y="69.398">
h
</text>
<symbol id="font_3_4"><path d="M .23800002 .674 C .23900001 .676 .242 .689 .242 .69 C .242 .69500008 .23800002 .704 .22600003 .704 C .20600002 .704 .12300001 .69600006 .098000002 .694 C .09 .693 .076000004 .69200001 .076000004 .671 C .076000004 .657 .09 .657 .102 .657 C .15 .657 .15 .65000005 .15 .642 C .15 .635 .148 .629 .14600002 .62 L .0050000029 .054000006 C 0 .036000002 0 .034 0 .032 C 0 .017 .012000002 0 .034 0 C .045 0 .06400001 .0050000005 .075 .026 C .07800001 .032 .087 .068 .09200001 .089 L .11500001 .17800002 C .118 .19300002 .128 .23100002 .13100001 .24600002 C .141 .284 .141 .285 .16100002 .317 C .193 .366 .24300001 .423 .32100005 .423 C .37700004 .423 .38 .377 .38 .35300002 C .38 .293 .337 .18200001 .32100005 .14000001 C .31 .112 .306 .103 .306 .086 C .306 .033000005 .35000003 0 .40100003 0 C .50100003 0 .545 .13800001 .545 .15300001 C .545 .16600001 .53200007 .16600001 .52900005 .16600001 C .51500006 .16600001 .51400004 .16000001 .51000004 .14900002 C .48700004 .069000006 .44300003 .028 .40400005 .028 C .38300002 .028 .379 .042000003 .379 .063 C .379 .086 .384 .099 .402 .14400001 C .41400004 .17500001 .45500003 .28100003 .45500003 .337 C .45500003 .35300002 .45500003 .395 .41800004 .42400003 C .40100003 .437 .37200003 .451 .325 .451 C .25200004 .451 .19900002 .411 .16200002 .368 L .23800002 .674 Z "/>
</symbol><use xlink:href="#font_3_4" transform="matrix(6.9738,0,0,-6.9738,8.452036,31.082709)"/>
<path transform="matrix(1,0,0,-1,55.191,27.01397)" stroke-width=".39848" stroke-linecap="butt" stroke-miterlimit="10" stroke-linejoin="miter" fill="none" stroke="rgb(0,0,0)" d="M -31.24742 -12.47586 L 2.72148 10.28468 "/>
<path transform="matrix(.83072,-.55661,-.55661,-.83072,58.07798,16.6184)" stroke-width=".39848" stroke-linecap="round" stroke-linejoin="round" fill="none" stroke="rgb(0,0,0)" d="M -2.07213 2.39091 C -1.69356 .95633 -.84995 .27893 0 0 C -.84995 -.27893 -1.69356 -.95633 -2.07213 -2.39091 "/>
<text fill-opacity="0" transform="matrix(1,0,0,1,-36.474,-44.605035)" font-size="6.9738" font-family="MSAM7" x="68.997" y="69.398">
&#x27f3;
</text>
<symbol id="font_4_1"><path d="M .28300002 .69200001 C .215 .632 .19600001 .549 .19600001 .53800006 C .19600001 .52900005 .20300001 .52400007 .21000001 .52400007 C .21900001 .52400007 .22800002 .52800007 .231 .53900004 C .26700001 .67100006 .361 .70300007 .36400003 .70300007 C .37100003 .70400005 .38500002 .70500002 .38500002 .7200001 C .38500002 .73700004 .367 .73700004 .359 .73700004 C .345 .73700004 .324 .7350001 .31 .73200007 C .307 .73200007 .303 .73100005 .3 .73100005 C .29700003 .73100005 .262 .7340001 .22 .75500007 C .18900001 .7710001 .17300001 .7860001 .157 .8000001 C .153 .8040001 .15 .80700007 .14500001 .80700007 C .141 .80700007 .123 .805000104 .123 .79100009 C .123 .77700009 .17199999 .73700004 .23300001 .7110001 C .108 .66400004 0 .53400002 0 .36900001 C 0 .16200002 .16600001 0 .368 0 C .572 0 .736 .165 .736 .368 C .736 .59900003 .54 .7020001 .521 .7020001 C .513 .7020001 .504 .69400006 .504 .68500004 C .504 .6750001 .509 .67200003 .526 .66400004 C .64000006 .60300007 .702 .48400002 .702 .36900001 C .702 .18300002 .55200005 .034 .368 .034 C .18200001 .034 .034 .185 .034 .368 C .034 .50100003 .115 .64500003 .28300002 .69200001 Z "/>
</symbol><use xlink:href="#font_4_1" transform="matrix(6.9738,0,0,-6.9738,33.06696,25.615878)"/>
<text fill-opacity="0" transform="matrix(1,0,0,1,-25.559,-36.053033)" font-size="6.9738" font-family="CMMI7" x="68.997" y="69.398">
x
</text>
<symbol id="font_3_5"><path d="M .201 .116000007 C .19100001 .082 .15800002 .028 .107 .028 C .10400001 .028 .07400001 .028 .053000002 .042000003 C .094000006 .055000005 .09700001 .091 .09700001 .097 C .09700001 .119 .080000009 .134 .057000003 .134 C .029000006 .134 0 .11 0 .073 C 0 .023000002 .056 0 .10500001 0 C .15100003 0 .192 .029000003 .21700001 .071 C .241 .018000001 .296 0 .336 0 C .451 0 .512 .125 .512 .15300001 C .512 .16600001 .49900003 .16600001 .49600001 .16600001 C .48200002 .16600001 .48100005 .16100002 .47700004 .14900002 C .456 .08 .39600003 .028 .34 .028 C .3 .028 .279 .055000005 .279 .093 C .279 .119 .303 .21000001 .331 .321 C .351 .398 .39600003 .423 .42900001 .423 C .43100003 .423 .46200004 .423 .483 .409 C .451 .4 .439 .372 .439 .354 C .439 .33200002 .456 .317 .479 .317 C .50200005 .317 .535 .336 .535 .37800003 C .535 .43400002 .47100006 .451 .43100003 .451 C .381 .451 .34100003 .418 .319 .38 C .301 .421 .255 .451 .199 .451 C .087000008 .451 .023000002 .328 .023000002 .298 C .023000002 .285 .037 .285 .040000005 .285 C .053000002 .285 .054000006 .289 .059000007 .30200003 C .084 .38 .14700002 .423 .19600001 .423 C .229 .423 .256 .405 .256 .357 C .256 .337 .24400002 .287 .23500002 .25300003 L .201 .116000007 Z "/>
</symbol><use xlink:href="#font_3_5" transform="matrix(6.9738,0,0,-6.9738,43.772748,33.414708)"/>
</g>
</svg>
