<?xml version="1.0" standalone="no"?>
<!DOCTYPE svg PUBLIC "-//W3C//DTD SVG 1.1//EN" "http://www.w3.org/Graphics/SVG/1.1/DTD/svg11.dtd">
<svg xmlns="http://www.w3.org/2000/svg" xmlns:xlink="http://www.w3.org/1999/xlink" version="1.1" width="4.290695cm" height="3.428365cm" viewBox="0 0 121.626 97.182">
<clipPath id="cp0">
<path transform="matrix(1,0,0,-1,-85.662,725.418)" d="M 0 0 L 595.28 0 L 595.28 841.889963 L 0 841.889963 Z "/>
</clipPath>
<g clip-path="url(#cp0)">
<text fill-opacity="0" transform="matrix(1,0,0,1,-82.371,-.040985108)" font-size="9.9626" font-family="CMMI10" x="82.145" y="9.054">
X
</text>
<symbol id="font_1_4"><path d="M .458 .411 L .374 .61 C .37100003 .61800004 .36900001 .62200003 .36900001 .623 C .36900001 .629 .386 .648 .428 .652 C .43800002 .65300007 .448 .65400005 .448 .671 C .448 .683 .43600002 .683 .433 .683 C .39200001 .683 .349 .68 .307 .68 C .282 .68 .22000001 .683 .19500003 .683 C .18900001 .683 .17700002 .683 .17700002 .66300006 C .17700002 .652 .18700002 .652 .20000002 .652 C .26 .652 .266 .642 .275 .62 L .393 .34100003 L .18200001 .11400001 L .16900002 .10300001 C .12 .05 .073 .034 .022000002 .031000002 C .0090000019 .030000001 0 .030000001 0 .011000001 C 0 .010000001 0 0 .013000002 0 C .042999998 0 .076000004 .003 .107 .003 C .14400001 .003 .18300002 0 .21900001 0 C .22500001 0 .237 0 .237 .020000002 C .237 .030000001 .22700002 .031000002 .22500001 .031000002 C .21600002 .032 .18500002 .034 .18500002 .062000003 C .18500002 .078 .20000002 .094000006 .21200001 .10700001 L .314 .215 L .404 .31300002 L .505 .074 C .509 .063 .51 .062000003 .51 .060000001 C .51 .052 .491 .035 .45200003 .031000002 C .441 .030000001 .432 .029000001 .432 .012 C .432 0 .44300003 0 .44700003 0 C .47500001 0 .545 .003 .573 .003 C .598 .003 .65900002 0 .684 0 C .69100004 0 .703 0 .703 .019000001 C .703 .031000002 .693 .031000002 .685 .031000002 C .61800004 .032 .616 .035 .59900003 .075 C .56 .16800001 .49300004 .324 .47 .384 C .538 .45400004 .643 .573 .675 .601 C .704 .625 .74200006 .64900007 .80200005 .652 C .81500006 .65300007 .824 .65300007 .824 .67200003 C .824 .67300005 .824 .683 .81100007 .683 C .781 .683 .748 .68 .717 .68 C .68 .68 .642 .683 .606 .683 C .6 .683 .587 .683 .587 .66300006 C .587 .656 .592 .65300007 .59900003 .652 C .60800005 .651 .639 .64900007 .639 .62100006 C .639 .60700007 .628 .59400006 .62 .58500004 L .458 .411 Z "/>
</symbol><use xlink:href="#font_1_4" transform="matrix(9.9626,0,0,-9.9626,.042984647,9.013015)"/>
<text fill-opacity="0" transform="matrix(1,0,0,1,-96.718,-.040985108)" font-size="9.9626" font-family="CMMI10" x="138.017" y="44.739">
A
</text>
<symbol id="font_1_1"><path d="M .14400001 .115 C .10400002 .048 .065 .034 .021000002 .031000002 C .009000003 .030000001 0 .030000001 0 .011000001 C 0 .0050000005 .0050000029 0 .013 0 C .040000004 0 .07100001 .003 .09900001 .003 C .13200002 .003 .16700001 0 .19900002 0 C .20500002 0 .21800003 0 .21800003 .019000001 C .21800003 .030000001 .20900002 .031000002 .20200002 .031000002 C .17900002 .033 .15500002 .041 .15500002 .066 C .15500002 .078 .16100002 .089 .16900002 .10300001 L .245 .231 L .49600001 .231 C .49800005 .21000001 .512 .074 .512 .064 C .512 .034 .46000004 .031000002 .44000002 .031000002 C .42600003 .031000002 .41600004 .031000002 .41600004 .011000001 C .41600004 0 .42800003 0 .43000003 0 C .47100006 0 .514 .003 .555 .003 C .58 .003 .643 0 .668 0 C .674 0 .686 0 .686 .020000002 C .686 .031000002 .676 .031000002 .663 .031000002 C .601 .031000002 .601 .038000002 .598 .067 L .537 .69200001 C .535 .712 .535 .716 .518 .716 C .502 .716 .49800005 .70900007 .492 .69900008 L .14400001 .115 M .26400004 .26200003 L .46100002 .592 L .493 .26200003 L .26400004 .26200003 Z "/>
</symbol><use xlink:href="#font_1_1" transform="matrix(9.9626,0,0,-9.9626,41.647687,44.698015)"/>
<text fill-opacity="0" transform="matrix(1,0,0,1,-96.718,-.040985108)" font-size="9.9626" font-family="CMEX10" x="150.225" y="35.274999">
&#x220f;
</text>
<symbol id="font_2_1"><path d="M 1.1650001 0 L 1.1650001 .05400002 C 1.0320001 .05400002 1.001 .100000023 1.001 .16400004 L 1.001 1.2360001 C 1.001 1.3010001 1.0330001 1.3460001 1.1650001 1.3460001 L 1.1650001 1.4000001 L 0 1.4000001 L 0 1.3460001 C .13300002 1.3460001 .164 1.3000001 .164 1.2360001 L .164 .16400004 C .164 .09899998 .132 .05400002 0 .05400002 L 0 0 L .481 0 L .481 .05400002 C .34800003 .05400002 .31700004 .100000023 .31700004 .16400004 L .31700004 1.3460001 L .84800005 1.3460001 L .84800005 .16400004 C .84800005 .09899998 .81600007 .05400002 .684 .05400002 L .684 0 L 1.1650001 0 Z "/>
</symbol><use xlink:href="#font_2_1" transform="matrix(9.9626,0,0,-9.9626,54.06491,49.181653)"/>
<text fill-opacity="0" transform="matrix(1,0,0,1,-96.718,-.040985108)" font-size="6.9738" font-family="CMMI7" x="147.149 151.38211 153.74623 159.52054 161.88466" y="56.722 56.722 56.722 56.722 56.722">
f,C,g
</text>
<symbol id="font_3_3"><path d="M .334 .59900003 L .43199997 .59900003 C .45200003 .59900003 .46500004 .59900003 .46500004 .62100006 C .46500004 .63500004 .45200003 .63500004 .43400002 .63500004 L .34100003 .63500004 C .364 .762 .372 .808 .38 .837 C .38500002 .859 .407 .88000003 .431 .88000003 C .43199997 .88000003 .459 .88000003 .478 .86800004 C .43700004 .855 .43400002 .819000043 .43400002 .813 C .43400002 .791 .45100003 .776 .47400003 .776 C .501 .776 .531 .799 .531 .837 C .531 .883 .482 .90800008 .431 .90800008 C .387 .90800008 .338 .883 .311 .833 C .291 .796 .283 .75100003 .262 .63500004 L .183 .63500004 C .16300002 .63500004 .15 .63500004 .15 .61300002 C .15 .59900003 .16300002 .59900003 .181 .59900003 L .255 .59900003 C .254 .59300004 .19099999 .23300001 .167 .12600002 C .162 .10400001 .14500001 .027999998 .096999999 .027999998 C .09600001 .027999998 .072000003 .027999998 .052999997 .040000005 C .094000006 .053000002 .096999999 .08900001 .096999999 .095000009 C .096999999 .117000009 .080000009 .132 .057000003 .132 C .030000001 .132 0 .109000003 0 .07100001 C 0 .026000008 .047 0 .096999999 0 C .16100002 0 .20500002 .066 .21700001 .08800001 C .253 .155 .276 .278 .278 .29000001 L .334 .59900003 Z "/>
</symbol><symbol id="font_3_1"><path d="M .09900001 .209 C .09900001 .154 .089 .089999999 .020999998 .025999994 C .017000005 .022 .013999999 .018999994 .013999999 .013999999 C .013999999 .0069999991 .022 0 .027999998 0 C .04200001 0 .127 .08 .127 .199 C .127 .261 .103 .308 .05700001 .308 C .024000004 .308 0 .282 0 .25100003 C 0 .21900001 .023000002 .193 .058 .193 C .082 .193 .098000002 .209 .09900001 .209 Z "/>
</symbol><symbol id="font_3_2"><path d="M .77300005 .71000004 C .77300005 .71500006 .77000003 .723 .76000004 .723 C .753 .723 .75100003 .721 .74200006 .711 L .669 .634 C .66 .646 .60400005 .723 .481 .723 C .23800004 .723 0 .508 0 .28200004 C 0 .11900001 .12800002 0 .307 0 C .36100004 0 .45700002 .011000001 .56000004 .098000002 C .63900004 .165 .661 .252 .661 .26000002 C .661 .27300003 .64900007 .27300003 .64400006 .27300003 C .63100005 .27300003 .62900009 .268 .62600003 .25700002 C .58500004 .120000004 .44500006 .036000002 .32400003 .036000002 C .21800003 .036000002 .1 .09300001 .1 .25100003 C .1 .28000002 .107 .43800002 .22200003 .564 C .29100004 .64100004 .39600003 .68700004 .49100007 .68700004 C .60700007 .68700004 .6750001 .603 .6750001 .49100004 C .6750001 .46300002 .67200003 .45600004 .67200003 .45000001 C .67200003 .43700004 .68500004 .43700004 .69000006 .43700004 C .70600005 .43700004 .70600005 .44000002 .711 .45900002 L .77300005 .71000004 Z "/>
</symbol><symbol id="font_3_4"><path d="M .489 .573 C .493 .588 .493 .59300004 .493 .59400006 C .493 .61600008 .475 .62600003 .45900002 .62600003 C .43600002 .62600003 .417 .60700007 .41300002 .588 C .396 .615 .36200002 .64500003 .31 .64500003 C .18500002 .64500003 .054 .51100006 .054 .36800004 C .054 .26500001 .12400001 .20400001 .20600002 .20400001 C .252 .20400001 .296 .22700002 .331 .25800002 L .30900002 .16800001 C .298 .12600002 .291 .09900001 .253 .065 C .209 .027999998 .16600001 .027999998 .14100002 .027999998 C .09500001 .027999998 .082 .031000004 .06400001 .034999996 C .089 .047000007 .096000014 .07100001 .096000014 .08500001 C .096000014 .109000003 .07700001 .12200001 .057 .12200001 C .029000003 .12200001 0 .09900001 0 .061000004 C 0 .001000002 .08600001 0 .142 0 C .299 0 .366 .080000009 .38 .13700001 L .489 .573 M .351 .337 C .347 .32200003 .347 .32000003 .33 .3 C .29500003 .25800002 .24700003 .23200001 .209 .23200001 C .158 .23200001 .134 .275 .134 .32700003 C .134 .37100003 .16100002 .48300005 .187 .527 C .22900002 .597 .276 .61700006 .31 .61700006 C .38 .61700006 .39900003 .54200006 .39900003 .532 C .39900003 .53000002 .39900003 .528 .396 .517 L .351 .337 Z "/>
</symbol><use xlink:href="#font_3_3" transform="matrix(6.9738,0,0,-6.9738,50.940088,58.103672)"/>
<use xlink:href="#font_3_1" transform="matrix(6.9738,0,0,-6.9738,55.445176,58.02696)"/>
<use xlink:href="#font_3_2" transform="matrix(6.9738,0,0,-6.9738,57.516397,56.82049)"/>
<use xlink:href="#font_3_1" transform="matrix(6.9738,0,0,-6.9738,63.583603,58.02696)"/>
<use xlink:href="#font_3_4" transform="matrix(6.9738,0,0,-6.9738,65.46653,58.103672)"/>
<text fill-opacity="0" transform="matrix(1,0,0,1,-96.718,-.040985108)" font-size="9.9626" font-family="CMMI10" x="167.69" y="44.739">
B
</text>
<symbol id="font_1_2"><path d="M .11800001 .078 C .108 .039 .106 .031000002 .027000003 .031000002 C .009999998 .031000002 0 .031000002 0 .011000001 C 0 0 .009 0 .027000003 0 L .38400004 0 C .54200006 0 .66 .11800001 .66 .216 C .66 .28800002 .60200005 .34600001 .50500007 .35700002 C .609 .37600003 .71400004 .45000001 .71400004 .545 C .71400004 .619 .64800005 .683 .52800007 .683 L .192 .683 C .17300001 .683 .16300002 .683 .16300002 .66300006 C .16300002 .652 .17200002 .652 .19100001 .652 C .19300002 .652 .21200001 .652 .22900003 .65000005 C .24700001 .648 .256 .647 .256 .634 C .256 .63000007 .25500002 .62700005 .252 .615 L .11800001 .078 M .26900003 .36600004 L .33100004 .614 C .34000004 .64900007 .342 .652 .38500002 .652 L .51400004 .652 C .60200005 .652 .623 .59300004 .623 .549 C .623 .46100002 .53700008 .36600004 .41500001 .36600004 L .26900003 .36600004 M .224 .031000002 C .21000001 .031000002 .208 .031000002 .20200002 .032 C .192 .033 .18900001 .034 .18900001 .042000003 C .18900001 .045 .18900001 .047000003 .194 .065000005 L .263 .344 L .45200003 .344 C .54800005 .344 .56700001 .27 .56700001 .22700002 C .56700001 .128 .47800005 .031000002 .36 .031000002 L .224 .031000002 Z "/>
</symbol><use xlink:href="#font_1_2" transform="matrix(9.9626,0,0,-9.9626,71.39043,44.698015)"/>
<text fill-opacity="0" transform="matrix(1,0,0,1,-81.881008,-.040985108)" font-size="9.9626" font-family="CMMI10" x="193.4" y="44.739">
B
</text>
<use xlink:href="#font_1_2" transform="matrix(9.9626,0,0,-9.9626,111.937419,44.698015)"/>
<text fill-opacity="0" transform="matrix(1,0,0,1,-81.589003,-.040985108)" font-size="9.9626" font-family="CMMI10" x="138.017" y="91.107">
A
</text>
<use xlink:href="#font_1_1" transform="matrix(9.9626,0,0,-9.9626,56.776685,91.06602)"/>
<text fill-opacity="0" transform="matrix(1,0,0,1,-81.770008,-.040985108)" font-size="9.9626" font-family="CMMI10" x="193.4" y="91.107">
C
</text>
<symbol id="font_1_3"><path d="M .71000004 .71700006 C .71000004 .72 .708 .72700005 .699 .72700005 C .69600006 .72700005 .69500008 .7260001 .684 .71500006 L .614 .6380001 C .605 .65200009 .559 .72700005 .448 .72700005 C .22500001 .72700005 0 .50600005 0 .27400003 C 0 .109000003 .118000019 0 .271 0 C .358 0 .43400002 .040000004 .487 .086 C .58000002 .16800001 .597 .25900004 .597 .26200003 C .597 .272 .587 .272 .58500004 .272 C .579 .272 .574 .27 .572 .26200003 C .563 .23300001 .54 .162 .47100001 .104 C .402 .048 .33900002 .031000004 .287 .031000004 C .19700001 .031000004 .091000004 .083000002 .091000004 .23900001 C .091000004 .29600003 .112 .45800004 .21200003 .57500005 C .273 .646 .367 .69600006 .45600004 .69600006 C .558 .69600006 .61700006 .619 .61700006 .503 C .61700006 .46300002 .614 .46200004 .614 .45200003 C .614 .44200002 .625 .44200002 .629 .44200002 C .642 .44200002 .642 .44400005 .647 .46200004 L .71000004 .71700006 Z "/>
</symbol><use xlink:href="#font_1_3" transform="matrix(9.9626,0,0,-9.9626,112.12812,91.2851991)"/>
<path transform="matrix(1,0,0,-1,59.675994,46.635018)" stroke-width=".39848" stroke-linecap="butt" stroke-miterlimit="10" stroke-linejoin="miter" fill="none" stroke="rgb(0,0,0)" d="M -46.3766 42.06131 C -8.53313 50.61699 22.1413 41.08594 48.20212 12.88304 "/>
<path transform="matrix(.67863,.7344,.7344,-.67863,108.013309,33.898297)" stroke-width=".39848" stroke-linecap="round" stroke-linejoin="round" fill="none" stroke="rgb(0,0,0)" d="M -2.07213 2.39091 C -1.69356 .95633 -.84995 .27893 0 0 C -.84995 -.27893 -1.69356 -.95633 -2.07213 -2.39091 "/>
<text fill-opacity="0" transform="matrix(1,0,0,1,-5.9530025,-88.03598)" font-size="6.9738" font-family="CMMI7" x="73.338" y="91.107">
v
</text>
<symbol id="font_3_9"><path d="M .48700004 .373 C .48700004 .451 .44000002 .45200003 .43700004 .45200003 C .41100005 .45200003 .38300002 .425 .38300002 .39900003 C .38300002 .382 .39300004 .374 .40000005 .368 C .41700002 .354 .43700004 .328 .43700004 .28800002 C .43700004 .24300001 .37100003 .028 .25200004 .028 C .171 .028 .171 .1 .171 .117000009 C .171 .16300002 .18900001 .21900001 .226 .312 C .23400001 .333 .24 .34800003 .24 .365 C .24 .417 .19600001 .451 .145 .451 C .045000005 .451 0 .314 0 .298 C 0 .285 .014000002 .285 .017 .285 C .031 .285 .032 .29 .035 .301 C .059000005 .38300002 .102 .423 .142 .423 C .15900001 .423 .16700001 .412 .16700001 .388 C .16700001 .365 .15900001 .344 .149 .321 C .106000009 .21000001 .095 .16700001 .095 .13100001 C .095 .032 .17300001 0 .249 0 C .41700002 0 .48700004 .291 .48700004 .373 Z "/>
</symbol><use xlink:href="#font_3_9" transform="matrix(6.9738,0,0,-6.9738,67.71276,3.14076)"/>
<path transform="matrix(1,0,0,-1,59.675994,46.635018)" stroke-width=".39848" stroke-linecap="butt" stroke-miterlimit="10" stroke-linejoin="miter" fill="none" stroke="rgb(0,0,0)" d="M -54.91257 33.77803 C -52.96397 .23244 -37.76091 -22.88954 -8.09134 -37.79602 "/>
<path transform="matrix(.89351,.44891,.44891,-.89351,51.762666,84.52046)" stroke-width=".39848" stroke-linecap="round" stroke-linejoin="round" fill="none" stroke="rgb(0,0,0)" d="M -2.07213 2.39091 C -1.69356 .95633 -.84995 .27893 0 0 C -.84995 -.27893 -1.69356 -.95633 -2.07213 -2.39091 "/>
<text fill-opacity="0" transform="matrix(1,0,0,1,-62.569004,-30.103985)" font-size="6.9738" font-family="CMMI7" x="73.338" y="91.107">
u
</text>
<symbol id="font_3_8"><path d="M .37600003 .172 C .37100003 .15200001 .36200002 .114 .36 .113000009 C .34100003 .082 .30100003 .028 .23900001 .028 C .17 .028 .17 .093 .17 .111 C .17 .17000002 .198 .24100001 .226 .314 C .23400001 .334 .24 .349 .24 .365 C .24 .417 .19600001 .451 .145 .451 C .045000005 .451 0 .314 0 .298 C 0 .285 .014000002 .285 .017 .285 C .031 .285 .032 .29 .035 .301 C .059000005 .38300002 .103 .423 .142 .423 C .15900001 .423 .16700001 .412 .16700001 .388 C .16700001 .365 .15900001 .344 .149 .321 C .095 .18300002 .095 .15400002 .095 .127 C .095 .11 .095 .064 .132 .032 C .161 .008 .2 0 .235 0 C .29800005 0 .33200002 .034 .36500004 .066 C .38700003 .0020000003 .45400005 0 .46600003 0 C .50000005 0 .526 .020000002 .545 .053000002 C .56700001 .092 .58100005 .15 .58100005 .15300001 C .58100005 .16600001 .56700001 .16600001 .564 .16600001 C .55 .16600001 .549 .16200002 .54200006 .135 C .53000002 .088 .51100006 .028 .46900005 .028 C .44300003 .028 .43600002 .051000004 .43600002 .077 C .43600002 .094000006 .44400005 .13000001 .45100003 .15600002 C .458 .18300002 .46800005 .22400002 .47300005 .24600002 L .49600006 .335 C .50200005 .36 .513 .404 .513 .409 C .513 .42900001 .49700003 .441 .48000002 .441 C .44300003 .441 .43600002 .412 .42800003 .38 L .37600003 .172 Z "/>
</symbol><use xlink:href="#font_3_8" transform="matrix(6.9738,0,0,-6.9738,11.096762,61.072755)"/>
<path transform="matrix(1,0,0,-1,59.675994,46.635018)" stroke-width=".39848" stroke-linecap="butt" stroke-dasharray="2.78941,1.59395" stroke-miterlimit="10" stroke-linejoin="miter" fill="none" stroke="rgb(0,0,0)" d="M -46.3766 34.36499 L -18.3394 16.45798 "/>
<path transform="matrix(.84273,.53824,.53824,-.84273,41.504487,30.284277)" stroke-width=".39848" stroke-linecap="round" stroke-linejoin="round" fill="none" stroke="rgb(0,0,0)" d="M -2.07213 2.39091 C -1.69356 .95633 -.84995 .27893 0 0 C -.84995 -.27893 -1.69356 -.95633 -2.07213 -2.39091 "/>
<text fill-opacity="0" transform="matrix(1,0,0,1,-43.508005,-72.11999)" font-size="6.9738" font-family="CMMI7" x="73.338" y="91.107">
h
</text>
<symbol id="font_3_5"><path d="M .23800002 .674 C .23900001 .676 .242 .689 .242 .69 C .242 .69500008 .23800002 .704 .22600003 .704 C .20600002 .704 .12300001 .69600006 .098000002 .694 C .09 .693 .076000004 .69200001 .076000004 .671 C .076000004 .657 .09 .657 .102 .657 C .15 .657 .15 .65000005 .15 .642 C .15 .635 .148 .629 .14600002 .62 L .0050000029 .054000006 C 0 .036000002 0 .034 0 .032 C 0 .017 .012000002 0 .034 0 C .045 0 .06400001 .0050000005 .075 .026 C .07800001 .032 .087 .068 .09200001 .089 L .11500001 .17800002 C .118 .19300002 .128 .23100002 .13100001 .24600002 C .141 .284 .141 .285 .16100002 .317 C .193 .366 .24300001 .423 .32100005 .423 C .37700004 .423 .38 .377 .38 .35300002 C .38 .293 .337 .18200001 .32100005 .14000001 C .31 .112 .306 .103 .306 .086 C .306 .033000005 .35000003 0 .40100003 0 C .50100003 0 .545 .13800001 .545 .15300001 C .545 .16600001 .53200007 .16600001 .52900005 .16600001 C .51500006 .16600001 .51400004 .16000001 .51000004 .14900002 C .48700004 .069000006 .44300003 .028 .40400005 .028 C .38300002 .028 .379 .042000003 .379 .063 C .379 .086 .384 .099 .402 .14400001 C .41400004 .17500001 .45500003 .28100003 .45500003 .337 C .45500003 .35300002 .45500003 .395 .41800004 .42400003 C .40100003 .437 .37200003 .451 .325 .451 C .25200004 .451 .19900002 .411 .16200002 .368 L .23800002 .674 Z "/>
</symbol><use xlink:href="#font_3_5" transform="matrix(6.9738,0,0,-6.9738,30.35303,19.056754)"/>
<path transform="matrix(1,0,0,-1,59.675994,46.635018)" stroke-width=".39848" stroke-linecap="butt" stroke-miterlimit="10" stroke-linejoin="miter" fill="none" stroke="rgb(0,0,0)" d="M .48949 -16.2435 L .48949 -33.37955 "/>
<path transform="matrix(0,1,1,0,60.165487,80.21382)" stroke-width=".39848" stroke-linecap="round" stroke-linejoin="round" fill="none" stroke="rgb(0,0,0)" d="M -2.07213 2.39091 C -1.69356 .95633 -.84995 .27893 0 0 C -.84995 -.27893 -1.69356 -.95633 -2.07213 -2.39091 "/>
<text fill-opacity="0" transform="matrix(1,0,0,1,-19.623003,-18.637986)" font-size="6.9738" font-family="CMMI7" x="73.338" y="91.107">
p
</text>
<symbol id="font_3_6"><path d="M .076000004 .072 C .069000006 .044 .067 .036 .027 .036 C .014 .036 0 .036 0 .015000001 C 0 .003999993 .009000001 0 .014 0 C .04 0 .07300001 .003999993 .10000001 .003999993 C .134 .003999993 .172 0 .20500002 0 C .21400002 0 .22500001 .0029999912 .22500001 .022 C .22500001 .036 .21100001 .036 .19900002 .036 C .17700002 .036 .15 .036 .15 .047999993 C .15 .053000002 .157 .079 .16100002 .094000006 C .17300001 .147 .187 .201 .19800002 .243 C .21000001 .223 .24100001 .184 .301 .184 C .423 .184 .558 .319 .558 .46800003 C .558 .58500004 .477 .635 .408 .635 C .34600001 .635 .293 .59300004 .266 .56500006 C .24900002 .62200003 .193 .635 .163 .635 C .124000009 .635 .10000001 .609 .08400001 .582 C .064 .548 .048 .488 .048 .48200002 C .048 .469 .062000003 .469 .065000005 .469 C .079 .469 .080000009 .47200003 .087000008 .499 C .102000009 .55700007 .12100001 .607 .16000001 .607 C .186 .607 .193 .58500004 .193 .558 C .193 .54700003 .19100001 .53400002 .19000001 .528 L .076000004 .072 M .265 .515 C .323 .592 .373 .607 .405 .607 C .444 .607 .47800002 .578 .47800002 .51 C .47800002 .469 .456 .367 .426 .30900002 C .401 .26 .352 .21200001 .301 .21200001 C .23000002 .21200001 .21200001 .289 .21200001 .29900003 C .21200001 .303 .21400002 .31 .21500002 .314 L .265 .515 Z "/>
</symbol><use xlink:href="#font_3_6" transform="matrix(6.9738,0,0,-6.9738,53.708024,73.82194)"/>
<path transform="matrix(1,0,0,-1,59.675994,46.635018)" stroke-width=".39848" stroke-linecap="butt" stroke-miterlimit="10" stroke-linejoin="miter" fill="none" stroke="rgb(0,0,0)" d="M 23.84348 4.42787 L 46.9571 4.42787 "/>
<path transform="matrix(1,0,0,-1,106.83234,42.207146)" stroke-width=".39848" stroke-linecap="round" stroke-linejoin="round" fill="none" stroke="rgb(0,0,0)" d="M -2.07213 2.39091 C -1.69356 .95633 -.84995 .27893 0 0 C -.84995 -.27893 -1.69356 -.95633 -2.07213 -2.39091 "/>
<text fill-opacity="0" transform="matrix(1,0,0,1,19.986996,-52.599984)" font-size="6.9738" font-family="CMMI7" x="73.338" y="91.107">
q
</text>
<symbol id="font_3_7"><path d="M .448 .60600005 C .44900007 .61 .45000005 .61600008 .45000005 .62100006 C .45000005 .62700005 .44600005 .635 .43700004 .635 C .42700005 .635 .385 .601 .365 .569 C .35500002 .589 .32200003 .635 .25800002 .635 C .13000001 .635 0 .49400001 0 .35000003 C 0 .25300003 .065 .184 .15100001 .184 C .20800002 .184 .255 .22 .277 .23900001 C .27600003 .236 .24500002 .11 .24100001 .093 C .22700002 .038000002 .226 .037 .164 .036 C .15200001 .036 .13800001 .036 .13800001 .013999999 C .13800001 .008000001 .143 0 .15300001 0 C .186 0 .223 .003999993 .25700002 .003999993 C .291 .003999993 .333 0 .36400003 0 C .37300003 0 .384 .0029999912 .384 .022 C .384 .036 .37 .036 .35800005 .036 C .33600002 .036 .30900002 .036 .30900002 .047999993 C .30900002 .051 .30900002 .053000002 .314 .07 L .448 .60600005 M .297 .32 C .292 .303 .292 .301 .27899999 .28500004 C .24000003 .23900001 .193 .21200001 .154 .21200001 C .117 .21200001 .081 .238 .081 .30900002 C .081 .36200002 .11 .47200003 .133 .512 C .179 .592 .23 .607 .25800002 .607 C .328 .607 .347 .53000002 .347 .52 C .347 .515 .34500003 .50900007 .34400005 .505 L .297 .32 Z "/>
</symbol><use xlink:href="#font_3_7" transform="matrix(6.9738,0,0,-6.9738,93.7504,39.859936)"/>
<path transform="matrix(1,0,0,-1,59.675994,46.635018)" stroke-width=".39848" stroke-linecap="butt" stroke-miterlimit="10" stroke-linejoin="miter" fill="none" stroke="rgb(0,0,0)" d="M 55.8727 -1.90816 L 55.8727 -33.37955 "/>
<path transform="matrix(0,1,1,0,115.54869,80.21382)" stroke-width=".39848" stroke-linecap="round" stroke-linejoin="round" fill="none" stroke="rgb(0,0,0)" d="M -2.07213 2.39091 C -1.69356 .95633 -.84995 .27893 0 0 C -.84995 -.27893 -1.69356 -.95633 -2.07213 -2.39091 "/>
<text fill-opacity="0" transform="matrix(1,0,0,1,44.554997,-25.805985)" font-size="6.9738" font-family="CMMI7" x="73.338" y="91.107">
g
</text>
<use xlink:href="#font_3_4" transform="matrix(6.9738,0,0,-6.9738,118.19286,66.72367)"/>
<path transform="matrix(1,0,0,-1,59.675994,46.635018)" stroke-width=".39848" stroke-linecap="butt" stroke-miterlimit="10" stroke-linejoin="miter" fill="none" stroke="rgb(0,0,0)" d="M 8.71428 -41.94057 L 47.06885 -41.94057 "/>
<path transform="matrix(1,0,0,-1,106.94408,88.57559)" stroke-width=".39848" stroke-linecap="round" stroke-linejoin="round" fill="none" stroke="rgb(0,0,0)" d="M -2.07213 2.39091 C -1.69356 .95633 -.84995 .27893 0 0 C -.84995 -.27893 -1.69356 -.95633 -2.07213 -2.39091 "/>
<text fill-opacity="0" transform="matrix(1,0,0,1,12.094997,4.6560135)" font-size="6.9738" font-family="CMMI7" x="73.338" y="91.107">
f
</text>
<use xlink:href="#font_3_3" transform="matrix(6.9738,0,0,-6.9738,85.942088,97.18567)"/>
</g>
</svg>
