<?xml version="1.0" standalone="no"?>
<!DOCTYPE svg PUBLIC "-//W3C//DTD SVG 1.1//EN" "http://www.w3.org/Graphics/SVG/1.1/DTD/svg11.dtd">
<svg xmlns="http://www.w3.org/2000/svg" xmlns:xlink="http://www.w3.org/1999/xlink" version="1.1" width="2.3882349cm" height="1.93675cm" viewBox="0 0 67.698 54.9">
<clipPath id="cp0">
<path transform="matrix(1,0,0,-1,-85.932,725.94)" d="M 0 0 L 595.28 0 L 595.28 841.889963 L 0 841.889963 Z "/>
</clipPath>
<g clip-path="url(#cp0)">
<text fill-opacity="0" transform="matrix(1,0,0,1,-57.409,-29.418013)" font-size="9.9626" font-family="CMMI10" x="64.986" y="36.213">
X
</text>
<symbol id="font_1_2"><path d="M .458 .411 L .374 .61 C .37100003 .61800004 .36900001 .62200003 .36900001 .623 C .36900001 .629 .386 .648 .428 .652 C .43800002 .65300007 .448 .65400005 .448 .671 C .448 .683 .43600002 .683 .433 .683 C .39200001 .683 .349 .68 .307 .68 C .282 .68 .22000001 .683 .19500003 .683 C .18900001 .683 .17700002 .683 .17700002 .66300006 C .17700002 .652 .18700002 .652 .20000002 .652 C .26 .652 .266 .642 .275 .62 L .393 .34100003 L .18200001 .11400001 L .16900002 .10300001 C .12 .05 .073 .034 .022000002 .031000002 C .0090000019 .030000001 0 .030000001 0 .011000001 C 0 .010000001 0 0 .013000002 0 C .042999998 0 .076000004 .003 .107 .003 C .14400001 .003 .18300002 0 .21900001 0 C .22500001 0 .237 0 .237 .020000002 C .237 .030000001 .22700002 .031000002 .22500001 .031000002 C .21600002 .032 .18500002 .034 .18500002 .062000003 C .18500002 .078 .20000002 .094000006 .21200001 .10700001 L .314 .215 L .404 .31300002 L .505 .074 C .509 .063 .51 .062000003 .51 .060000001 C .51 .052 .491 .035 .45200003 .031000002 C .441 .030000001 .432 .029000001 .432 .012 C .432 0 .44300003 0 .44700003 0 C .47500001 0 .545 .003 .573 .003 C .598 .003 .65900002 0 .684 0 C .69100004 0 .703 0 .703 .019000001 C .703 .031000002 .693 .031000002 .685 .031000002 C .61800004 .032 .616 .035 .59900003 .075 C .56 .16800001 .49300004 .324 .47 .384 C .538 .45400004 .643 .573 .675 .601 C .704 .625 .74200006 .64900007 .80200005 .652 C .81500006 .65300007 .824 .65300007 .824 .67200003 C .824 .67300005 .824 .683 .81100007 .683 C .781 .683 .748 .68 .717 .68 C .68 .68 .642 .683 .606 .683 C .6 .683 .587 .683 .587 .66300006 C .587 .656 .592 .65300007 .59900003 .652 C .60800005 .651 .639 .64900007 .639 .62100006 C .639 .60700007 .628 .59400006 .62 .58500004 L .458 .411 Z "/>
</symbol><use xlink:href="#font_1_2" transform="matrix(9.9626,0,0,-9.9626,7.8459898,6.7949887)"/>
<text fill-opacity="0" transform="matrix(1,0,0,1,-65.481,-29.418015)" font-size="9.9626" font-family="CMEX10" x="64.986" y="62.435">
&#x2a3f;
</text>
<symbol id="font_2_1"><path d="M 1.1650001 0 L 1.1650001 .05400002 C 1.0320001 .05400002 1.001 .100000023 1.001 .16400004 L 1.001 1.2360001 C 1.001 1.3010001 1.0330001 1.3460001 1.1650001 1.3460001 L 1.1650001 1.4000001 L .684 1.4000001 L .684 1.3460001 C .81700001 1.3460001 .84800005 1.3000001 .84800005 1.2360001 L .84800005 .05400002 L .31700004 .05400002 L .31700004 1.2360001 C .31700004 1.3010001 .34900003 1.3460001 .481 1.3460001 L .481 1.4000001 L 0 1.4000001 L 0 1.3460001 C .13300002 1.3460001 .164 1.3000001 .164 1.2360001 L .164 .16400004 C .164 .09899998 .132 .05400002 0 .05400002 L 0 0 L 1.1650001 0 Z "/>
</symbol><use xlink:href="#font_2_1" transform="matrix(9.9626,0,0,-9.9626,.06290286,46.964627)"/>
<text fill-opacity="0" transform="matrix(1,0,0,1,-65.481,-29.418015)" font-size="6.9738" font-family="CMMI7" x="65.221" y="83.805">
i
</text>
<symbol id="font_3_4"><path d="M .277 .635 C .277 .651 .26500001 .67300005 .237 .67300005 C .21 .67300005 .18100001 .647 .18100001 .61800004 C .18100001 .601 .194 .58000002 .221 .58000002 C .25000003 .58000002 .277 .60800005 .277 .635 M .073 .127 C .069000006 .114 .06400001 .102000009 .06400001 .085 C .06400001 .038000002 .104 0 .15900001 0 C .25900004 0 .30300003 .13800001 .30300003 .15300001 C .30300003 .16600001 .29000001 .16600001 .28700004 .16600001 C .27300003 .16600001 .272 .16000001 .26800004 .14900002 C .24500002 .069000006 .201 .028 .162 .028 C .142 .028 .13700001 .041 .13700001 .063 C .13700001 .086 .14400001 .105000007 .153 .127 C .163 .15400002 .17400001 .18100001 .185 .20700002 C .194 .23100002 .23 .322 .23400001 .334 C .237 .344 .24 .356 .24 .366 C .24 .41300002 .2 .451 .145 .451 C .046 .451 0 .315 0 .298 C 0 .285 .014000002 .285 .017 .285 C .031 .285 .032 .29 .035 .301 C .061 .387 .105000007 .423 .142 .423 C .158 .423 .16700001 .41500001 .16700001 .388 C .16700001 .365 .161 .35 .136 .28800002 L .073 .127 Z "/>
</symbol><use xlink:href="#font_3_4" transform="matrix(6.9738,0,0,-6.9738,.06776649,54.456724)"/>
<text fill-opacity="0" transform="matrix(1,0,0,1,-65.481,-29.418015)" font-size="6.9738" font-family="CMSY7" x="68.039" y="83.805">
&#x2208;
</text>
<symbol id="font_4_1"><path d="M .5130001 .30200003 C .52900005 .30200003 .55300003 .30200003 .55300003 .326 C .55300003 .351 .53000002 .351 .5130001 .351 L .050000005 .351 C .065000005 .49600001 .18599999 .604 .342 .604 L .5130001 .604 C .52900005 .604 .55300003 .604 .55300003 .628 C .55300003 .653 .53000002 .653 .5130001 .653 L .338 .653 C .15200001 .653 0 .507 0 .32700003 C 0 .143 .15400002 0 .338 0 L .5130001 0 C .52900005 0 .55300003 0 .55300003 .024000004 C .55300003 .049000001 .53000002 .049000001 .5130001 .049000001 L .342 .049000001 C .18599999 .049000001 .065000005 .157 .050000005 .30200003 L .5130001 .30200003 Z "/>
</symbol><use xlink:href="#font_4_1" transform="matrix(6.9738,0,0,-6.9738,3.3111692,54.916997)"/>
<text fill-opacity="0" transform="matrix(1,0,0,1,-65.481,-29.418015)" font-size="6.9738" font-family="CMMI7" x="73.408008" y="83.805">
I
</text>
<symbol id="font_3_1"><path d="M .349 .60400005 C .358 .638 .36 .647 .435 .647 C .46000004 .647 .472 .647 .472 .66800004 C .472 .67700005 .46500004 .683 .45600004 .683 C .435 .683 .41000004 .68 .389 .68 C .367 .68 .343 .679 .321 .679 L .252 .68 C .22999999 .68 .20500002 .683 .183 .683 C .17700002 .683 .162 .683 .162 .661 C .162 .647 .17300001 .647 .195 .647 C .19600001 .647 .21599999 .647 .23300001 .64500003 C .253 .643 .26 .642 .26 .63100005 C .26 .625 .25800002 .61800004 .256 .61 L .123 .079 C .115 .046000004 .11200001 .036000002 .037 .036000002 C .009999998 .036000002 0 .036000002 0 .014 C 0 .013 0 0 .016000003 0 C .046000004 0 .121 .004 .151 .004 L .22 .003 C .24200001 .003 .26700001 0 .289 0 C .29500003 0 .31 0 .31 .022000002 C .31 .036000002 .298 .036000002 .278 .036000002 C .276 .036000002 .255 .036000002 .23500002 .038000002 C .21200001 .040000004 .21200001 .044000005 .21200001 .053000002 C .21200001 .054 .21200001 .060000001 .21599999 .075 L .349 .60400005 Z "/>
</symbol><use xlink:href="#font_3_1" transform="matrix(6.9738,0,0,-6.9738,8.373325,54.386987)"/>
<text fill-opacity="0" transform="matrix(1,0,0,1,-65.481,-29.418015)" font-size="9.9626" font-family="CMMI10" x="79.37601" y="71.899">
A
</text>
<symbol id="font_1_1"><path d="M .14400001 .115 C .10400002 .048 .065 .034 .021000002 .031000002 C .009000003 .030000001 0 .030000001 0 .011000001 C 0 .0050000005 .0050000029 0 .013 0 C .040000004 0 .07100001 .003 .09900001 .003 C .13200002 .003 .16700001 0 .19900002 0 C .20500002 0 .21800003 0 .21800003 .019000001 C .21800003 .030000001 .20900002 .031000002 .20200002 .031000002 C .17900002 .033 .15500002 .041 .15500002 .066 C .15500002 .078 .16100002 .089 .16900002 .10300001 L .245 .231 L .49600001 .231 C .49800005 .21000001 .512 .074 .512 .064 C .512 .034 .46000004 .031000002 .44000002 .031000002 C .42600003 .031000002 .41600004 .031000002 .41600004 .011000001 C .41600004 0 .42800003 0 .43000003 0 C .47100006 0 .514 .003 .555 .003 C .58 .003 .643 0 .668 0 C .674 0 .686 0 .686 .020000002 C .686 .031000002 .676 .031000002 .663 .031000002 C .601 .031000002 .601 .038000002 .598 .067 L .537 .69200001 C .535 .712 .535 .716 .518 .716 C .502 .716 .49800005 .70900007 .492 .69900008 L .14400001 .115 M .26400004 .26200003 L .46100002 .592 L .493 .26200003 L .26400004 .26200003 Z "/>
</symbol><use xlink:href="#font_1_1" transform="matrix(9.9626,0,0,-9.9626,14.243695,42.480989)"/>
<text fill-opacity="0" transform="matrix(1,0,0,1,-65.481,-29.418015)" font-size="6.9738" font-family="CMMI7" x="86.84801" y="73.394008">
i
</text>
<use xlink:href="#font_3_4" transform="matrix(6.9738,0,0,-6.9738,21.694773,44.045728)"/>
<text fill-opacity="0" transform="matrix(1,0,0,1,-58.725999,-29.418015)" font-size="9.9626" font-family="CMMI10" x="115.9" y="71.899">
A
</text>
<use xlink:href="#font_1_1" transform="matrix(9.9626,0,0,-9.9626,57.522693,42.480989)"/>
<text fill-opacity="0" transform="matrix(1,0,0,1,-58.725999,-29.418015)" font-size="6.9738" font-family="CMMI7" x="123.372" y="73.394008">
j
</text>
<symbol id="font_3_5"><path d="M .439 .829 C .439 .846 .42600003 .86700002 .39900003 .86700002 C .37 .86700002 .34300003 .83900004 .34300003 .812000073 C .34300003 .796 .35500002 .77400007 .38300002 .77400007 C .41000004 .77400007 .439 .8 .439 .829 M .22700002 .155 C .21000001 .086 .157 .027999998 .098000002 .027999998 C .085 .027999998 .07300001 .030000001 .062000003 .03400001 C .08800001 .046000004 .096 .07000001 .096 .08500001 C .096 .109000003 .07700001 .12200001 .057000003 .12200001 C .026 .12200001 0 .095000009 0 .06300001 C 0 .025000006 .039 0 .09900001 0 C .15900001 0 .27600003 .036 .307 .158 L .397 .51600004 C .4 .527 .402 .536 .402 .551 C .402 .606 .35500002 .64500003 .29500003 .64500003 C .18400002 .64500003 .120000004 .50600005 .120000004 .49200005 C .120000004 .47900004 .134 .47900004 .13700001 .47900004 C .149 .47900004 .15 .48200006 .157 .49700003 C .18200001 .555 .23400001 .61700006 .29200003 .61700006 C .317 .61700006 .326 .6 .326 .568 C .326 .55700007 .324 .54300004 .323 .53800006 L .22700002 .155 Z "/>
</symbol><use xlink:href="#font_3_5" transform="matrix(6.9738,0,0,-6.9738,64.646,45.398649)"/>
<path transform="matrix(1,0,0,-1,34.175,27.94899)" stroke-width=".39848" stroke-linecap="butt" stroke-dasharray="2.78941,1.59395" stroke-miterlimit="10" stroke-linejoin="miter" fill="none" stroke="rgb(0,0,0)" d="M -22.07979 -.2259 L -22.07979 16.91013 "/>
<path transform="matrix(0,-1,-1,0,12.095209,10.83963)" stroke-width=".39848" stroke-linecap="round" stroke-linejoin="round" fill="none" stroke="rgb(0,0,0)" d="M -2.07213 2.39091 C -1.69356 .95633 -.84995 .27893 0 0 C -.84995 -.27893 -1.69356 -.95633 -2.07213 -2.39091 "/>
<text fill-opacity="0" transform="matrix(1,0,0,1,-43.019996,-50.07001)" font-size="6.9738" font-family="CMMI7" x="48.107" y="71.899">
h
</text>
<symbol id="font_3_3"><path d="M .23800002 .674 C .23900001 .676 .242 .689 .242 .69 C .242 .69500008 .23800002 .704 .22600003 .704 C .20600002 .704 .12300001 .69600006 .098000002 .694 C .09 .693 .076000004 .69200001 .076000004 .671 C .076000004 .657 .09 .657 .102 .657 C .15 .657 .15 .65000005 .15 .642 C .15 .635 .148 .629 .14600002 .62 L .0050000029 .054000006 C 0 .036000002 0 .034 0 .032 C 0 .017 .012000002 0 .034 0 C .045 0 .06400001 .0050000005 .075 .026 C .07800001 .032 .087 .068 .09200001 .089 L .11500001 .17800002 C .118 .19300002 .128 .23100002 .13100001 .24600002 C .141 .284 .141 .285 .16100002 .317 C .193 .366 .24300001 .423 .32100005 .423 C .37700004 .423 .38 .377 .38 .35300002 C .38 .293 .337 .18200001 .32100005 .14000001 C .31 .112 .306 .103 .306 .086 C .306 .033000005 .35000003 0 .40100003 0 C .50100003 0 .545 .13800001 .545 .15300001 C .545 .16600001 .53200007 .16600001 .52900005 .16600001 C .51500006 .16600001 .51400004 .16000001 .51000004 .14900002 C .48700004 .069000006 .44300003 .028 .40400005 .028 C .38300002 .028 .379 .042000003 .379 .063 C .379 .086 .384 .099 .402 .14400001 C .41400004 .17500001 .45500003 .28100003 .45500003 .337 C .45500003 .35300002 .45500003 .395 .41800004 .42400003 C .40100003 .437 .37200003 .451 .325 .451 C .25200004 .451 .19900002 .411 .16200002 .368 L .23800002 .674 Z "/>
</symbol><use xlink:href="#font_3_3" transform="matrix(6.9738,0,0,-6.9738,5.610037,21.89873)"/>
<path transform="matrix(1,0,0,-1,34.175,27.94899)" stroke-width=".39848" stroke-linecap="butt" stroke-miterlimit="10" stroke-linejoin="miter" fill="none" stroke="rgb(0,0,0)" d="M 18.51088 -12.04153 L -4.60274 -12.04153 "/>
<path transform="matrix(-1,0,0,1,29.37303,39.99052)" stroke-width=".39848" stroke-linecap="round" stroke-linejoin="round" fill="none" stroke="rgb(0,0,0)" d="M -2.07213 2.39091 C -1.69356 .95633 -.84995 .27893 0 0 C -.84995 -.27893 -1.69356 -.95633 -2.07213 -2.39091 "/>
<text fill-opacity="0" transform="matrix(1,0,0,1,-11.091999,-26.562012)" font-size="6.9738" font-family="CMMI7" x="48.107" y="71.899">
p
</text>
<symbol id="font_3_6"><path d="M .076000004 .072 C .069000006 .044 .067 .036 .027 .036 C .014 .036 0 .036 0 .015000001 C 0 .003999993 .009000001 0 .014 0 C .04 0 .07300001 .003999993 .10000001 .003999993 C .134 .003999993 .172 0 .20500002 0 C .21400002 0 .22500001 .0029999912 .22500001 .022 C .22500001 .036 .21100001 .036 .19900002 .036 C .17700002 .036 .15 .036 .15 .047999993 C .15 .053000002 .157 .079 .16100002 .094000006 C .17300001 .147 .187 .201 .19800002 .243 C .21000001 .223 .24100001 .184 .301 .184 C .423 .184 .558 .319 .558 .46800003 C .558 .58500004 .477 .635 .408 .635 C .34600001 .635 .293 .59300004 .266 .56500006 C .24900002 .62200003 .193 .635 .163 .635 C .124000009 .635 .10000001 .609 .08400001 .582 C .064 .548 .048 .488 .048 .48200002 C .048 .469 .062000003 .469 .065000005 .469 C .079 .469 .080000009 .47200003 .087000008 .499 C .102000009 .55700007 .12100001 .607 .16000001 .607 C .186 .607 .193 .58500004 .193 .558 C .193 .54700003 .19100001 .53400002 .19000001 .528 L .076000004 .072 M .265 .515 C .323 .592 .373 .607 .405 .607 C .444 .607 .47800002 .578 .47800002 .51 C .47800002 .469 .456 .367 .426 .30900002 C .401 .26 .352 .21200001 .301 .21200001 C .23000002 .21200001 .21200001 .289 .21200001 .29900003 C .21200001 .303 .21400002 .31 .21500002 .314 L .265 .515 Z "/>
</symbol><use xlink:href="#font_3_6" transform="matrix(6.9738,0,0,-6.9738,37.008026,46.689907)"/>
<text fill-opacity="0" transform="matrix(1,0,0,1,-11.091999,-26.562012)" font-size="4.9813" font-family="CMMI5" x="52.213998" y="72.895008">
j
</text>
<symbol id="font_5_1"><path d="M .47300005 .829 C .47300005 .852000035 .45600004 .8720001 .42900001 .8720001 C .39800004 .8720001 .367 .842 .367 .812000073 C .367 .788 .386 .76900006 .411 .76900006 C .44500003 .76900006 .47300005 .801 .47300005 .829 M .25500002 .16000001 C .236 .08400001 .17300001 .03400001 .112 .03400001 C .095 .03400001 .08400001 .037 .076000004 .039000006 C .10000001 .053000002 .10700001 .07900001 .10700001 .09200001 C .10700001 .10900001 .095 .13300002 .062000008 .13300002 C .028000004 .13300002 0 .102000009 0 .069000006 C 0 .026000008 .045 0 .113000009 0 C .18100001 0 .31100002 .03500001 .342 .15900001 L .432 .517 C .43400002 .52700009 .43700004 .536 .43700004 .5500001 C .43700004 .607 .38400004 .6470001 .314 .6470001 C .193 .6470001 .119 .512 .119 .492 C .119 .47800002 .135 .47800002 .14 .47800002 C .155 .47800002 .157 .48200002 .16200002 .492 C .208 .59000006 .27600003 .61300002 .31 .61300002 C .35000003 .61300002 .35200003 .577 .35200003 .56000004 C .35200003 .546 .351 .54200006 .349 .53400002 L .25500002 .16000001 Z "/>
</symbol><use xlink:href="#font_5_1" transform="matrix(4.9813,0,0,-4.9813,41.306305,47.35416)"/>
<path transform="matrix(1,0,0,-1,34.175,27.94899)" stroke-width=".39848" stroke-linecap="butt" stroke-miterlimit="10" stroke-linejoin="miter" fill="none" stroke="rgb(0,0,0)" d="M 18.51088 -4.80977 L -12.74693 17.10513 "/>
<path transform="matrix(-.81879,-.57405,-.57405,.81879,21.264939,10.72949)" stroke-width=".39848" stroke-linecap="round" stroke-linejoin="round" fill="none" stroke="rgb(0,0,0)" d="M -2.07213 2.39091 C -1.69356 .95633 -.84995 .27893 0 0 C -.84995 -.27893 -1.69356 -.95633 -2.07213 -2.39091 "/>
<text fill-opacity="0" transform="matrix(1,0,0,1,-19.784,-43.60501)" font-size="6.9738" font-family="MSAM7" x="48.107" y="71.899">
&#x27f3;
</text>
<symbol id="font_6_1"><path d="M .28300002 .69200001 C .215 .632 .19600001 .549 .19600001 .53800006 C .19600001 .52900005 .20300001 .52400007 .21000001 .52400007 C .21900001 .52400007 .22800002 .52800007 .231 .53900004 C .26700001 .67100006 .361 .70300007 .36400003 .70300007 C .37100003 .70400005 .38500002 .70500002 .38500002 .7200001 C .38500002 .73700004 .367 .73700004 .359 .73700004 C .345 .73700004 .324 .7350001 .31 .73200007 C .307 .73200007 .303 .73100005 .3 .73100005 C .29700003 .73100005 .262 .7340001 .22 .75500007 C .18900001 .7710001 .17300001 .7860001 .157 .8000001 C .153 .8040001 .15 .80700007 .14500001 .80700007 C .141 .80700007 .123 .805000104 .123 .79100009 C .123 .77700009 .17199999 .73700004 .23300001 .7110001 C .108 .66400004 0 .53400002 0 .36900001 C 0 .16200002 .16600001 0 .368 0 C .572 0 .736 .165 .736 .368 C .736 .59900003 .54 .7020001 .521 .7020001 C .513 .7020001 .504 .69400006 .504 .68500004 C .504 .6750001 .509 .67200003 .526 .66400004 C .64000006 .60300007 .702 .48400002 .702 .36900001 C .702 .18300002 .55200005 .034 .368 .034 C .18200001 .034 .034 .185 .034 .368 C .034 .50100003 .115 .64500003 .28300002 .69200001 Z "/>
</symbol><use xlink:href="#font_6_1" transform="matrix(6.9738,0,0,-6.9738,28.866955,29.1169)"/>
<text fill-opacity="0" transform="matrix(1,0,0,1,-8.8689995,-54.52101)" font-size="6.9738" font-family="CMMI7" x="48.107" y="71.899">
f
</text>
<symbol id="font_3_2"><path d="M .334 .59900003 L .43199997 .59900003 C .45200003 .59900003 .46500004 .59900003 .46500004 .62100006 C .46500004 .63500004 .45200003 .63500004 .43400002 .63500004 L .34100003 .63500004 C .364 .762 .372 .808 .38 .837 C .38500002 .859 .407 .88000003 .431 .88000003 C .43199997 .88000003 .459 .88000003 .478 .86800004 C .43700004 .855 .43400002 .819000043 .43400002 .813 C .43400002 .791 .45100003 .776 .47400003 .776 C .501 .776 .531 .799 .531 .837 C .531 .883 .482 .90800008 .431 .90800008 C .387 .90800008 .338 .883 .311 .833 C .291 .796 .283 .75100003 .262 .63500004 L .183 .63500004 C .16300002 .63500004 .15 .63500004 .15 .61300002 C .15 .59900003 .16300002 .59900003 .181 .59900003 L .255 .59900003 C .254 .59300004 .19099999 .23300001 .167 .12600002 C .162 .10400001 .14500001 .027999998 .096999999 .027999998 C .09600001 .027999998 .072000003 .027999998 .052999997 .040000005 C .094000006 .053000002 .096999999 .08900001 .096999999 .095000009 C .096999999 .117000009 .080000009 .132 .057000003 .132 C .030000001 .132 0 .109000003 0 .07100001 C 0 .026000008 .047 0 .096999999 0 C .16100002 0 .20500002 .066 .21700001 .08800001 C .253 .155 .276 .278 .278 .29000001 L .334 .59900003 Z "/>
</symbol><use xlink:href="#font_3_2" transform="matrix(6.9738,0,0,-6.9738,39.747086,18.800646)"/>
<text fill-opacity="0" transform="matrix(1,0,0,1,-8.8689995,-54.52101)" font-size="4.9813" font-family="CMMI5" x="51.991997" y="72.895008">
j
</text>
<use xlink:href="#font_5_1" transform="matrix(4.9813,0,0,-4.9813,43.307305,19.395159)"/>
</g>
</svg>
