<?xml version="1.0" standalone="no"?>
<!DOCTYPE svg PUBLIC "-//W3C//DTD SVG 1.1//EN" "http://www.w3.org/Graphics/SVG/1.1/DTD/svg11.dtd">
<svg xmlns="http://www.w3.org/2000/svg" xmlns:xlink="http://www.w3.org/1999/xlink" version="1.1" width="3.80873cm" height="1.54178cm" viewBox="0 0 107.964 43.704">
<clipPath id="cp0">
<path transform="matrix(1,0,0,-1,-85.68,725.94)" d="M 0 0 L 595.28 0 L 595.28 841.889963 L 0 841.889963 Z "/>
</clipPath>
<g clip-path="url(#cp0)">
<text fill-opacity="0" transform="matrix(1,0,0,1,-76.870995,-25.443013)" font-size="9.9626" font-family="CMMI10" x="126.2" y="32.238">
X
</text>
<symbol id="font_1_3"><path d="M .458 .411 L .374 .61 C .37100003 .61800004 .36900001 .62200003 .36900001 .623 C .36900001 .629 .386 .648 .428 .652 C .43800002 .65300007 .448 .65400005 .448 .671 C .448 .683 .43600002 .683 .433 .683 C .39200001 .683 .349 .68 .307 .68 C .282 .68 .22000001 .683 .19500003 .683 C .18900001 .683 .17700002 .683 .17700002 .66300006 C .17700002 .652 .18700002 .652 .20000002 .652 C .26 .652 .266 .642 .275 .62 L .393 .34100003 L .18200001 .11400001 L .16900002 .10300001 C .12 .05 .073 .034 .022000002 .031000002 C .0090000019 .030000001 0 .030000001 0 .011000001 C 0 .010000001 0 0 .013000002 0 C .042999998 0 .076000004 .003 .107 .003 C .14400001 .003 .18300002 0 .21900001 0 C .22500001 0 .237 0 .237 .020000002 C .237 .030000001 .22700002 .031000002 .22500001 .031000002 C .21600002 .032 .18500002 .034 .18500002 .062000003 C .18500002 .078 .20000002 .094000006 .21200001 .10700001 L .314 .215 L .404 .31300002 L .505 .074 C .509 .063 .51 .062000003 .51 .060000001 C .51 .052 .491 .035 .45200003 .031000002 C .441 .030000001 .432 .029000001 .432 .012 C .432 0 .44300003 0 .44700003 0 C .47500001 0 .545 .003 .573 .003 C .598 .003 .65900002 0 .684 0 C .69100004 0 .703 0 .703 .019000001 C .703 .031000002 .693 .031000002 .685 .031000002 C .61800004 .032 .616 .035 .59900003 .075 C .56 .16800001 .49300004 .324 .47 .384 C .538 .45400004 .643 .573 .675 .601 C .704 .625 .74200006 .64900007 .80200005 .652 C .81500006 .65300007 .824 .65300007 .824 .67200003 C .824 .67300005 .824 .683 .81100007 .683 C .781 .683 .748 .68 .717 .68 C .68 .68 .642 .683 .606 .683 C .6 .683 .587 .683 .587 .66300006 C .587 .656 .592 .65300007 .59900003 .652 C .60800005 .651 .639 .64900007 .639 .62100006 C .639 .60700007 .628 .59400006 .62 .58500004 L .458 .411 Z "/>
</symbol><use xlink:href="#font_1_3" transform="matrix(9.9626,0,0,-9.9626,49.597993,6.7949868)"/>
<text fill-opacity="0" transform="matrix(1,0,0,1,-76.089,-25.443013)" font-size="9.9626" font-family="CMMI10" x="75.846" y="64.935">
A
</text>
<symbol id="font_1_1"><path d="M .14400001 .115 C .10400002 .048 .065 .034 .021000002 .031000002 C .009000003 .030000001 0 .030000001 0 .011000001 C 0 .0050000005 .0050000029 0 .013 0 C .040000004 0 .07100001 .003 .09900001 .003 C .13200002 .003 .16700001 0 .19900002 0 C .20500002 0 .21800003 0 .21800003 .019000001 C .21800003 .030000001 .20900002 .031000002 .20200002 .031000002 C .17900002 .033 .15500002 .041 .15500002 .066 C .15500002 .078 .16100002 .089 .16900002 .10300001 L .245 .231 L .49600001 .231 C .49800005 .21000001 .512 .074 .512 .064 C .512 .034 .46000004 .031000002 .44000002 .031000002 C .42600003 .031000002 .41600004 .031000002 .41600004 .011000001 C .41600004 0 .42800003 0 .43000003 0 C .47100006 0 .514 .003 .555 .003 C .58 .003 .643 0 .668 0 C .674 0 .686 0 .686 .020000002 C .686 .031000002 .676 .031000002 .663 .031000002 C .601 .031000002 .601 .038000002 .598 .067 L .537 .69200001 C .535 .712 .535 .716 .518 .716 C .502 .716 .49800005 .70900007 .492 .69900008 L .14400001 .115 M .26400004 .26200003 L .46100002 .592 L .493 .26200003 L .26400004 .26200003 Z "/>
</symbol><use xlink:href="#font_1_1" transform="matrix(9.9626,0,0,-9.9626,.10569478,39.491986)"/>
<text fill-opacity="0" transform="matrix(1,0,0,1,-86.4819993,-25.443013)" font-size="9.9626" font-family="CMMI10" x="126.2" y="64.935">
A
</text>
<use xlink:href="#font_1_1" transform="matrix(9.9626,0,0,-9.9626,40.066694,39.491986)"/>
<text fill-opacity="0" transform="matrix(1,0,0,1,-86.4819993,-25.443013)" font-size="9.9626" font-family="CMEX10" x="135.333" y="57.462998">
&#x220f;
</text>
<symbol id="font_2_1"><path d="M .30300003 0 L .30300003 .03999996 C .20000002 .03999996 .20000002 .08899993 .20000002 .11899996 L .20000002 .96 L .63100005 .96 L .63100005 .11899996 C .63100005 .08899993 .63100005 .03999996 .52800007 .03999996 L .52800007 0 L .83100005 0 L .83100005 .03999996 C .72800007 .03999996 .72800007 .08899993 .72800007 .11899996 L .72800007 .881 C .72800007 .911000051 .72800007 .96 .83100005 .96 L .83100005 1 L 0 1 L 0 .96 C .10300001 .96 .10300001 .911000051 .10300001 .881 L .10300001 .11899996 C .10300001 .08899993 .10300001 .03999996 0 .03999996 L 0 0 L .30300003 0 Z "/>
</symbol><use xlink:href="#font_2_1" transform="matrix(9.9626,0,0,-9.9626,49.408906,41.982587)"/>
<text fill-opacity="0" transform="matrix(1,0,0,1,-86.4819993,-25.443013)" font-size="9.9626" font-family="CMMI10" x="146.402" y="64.935">
B
</text>
<symbol id="font_1_2"><path d="M .11800001 .078 C .108 .039 .106 .031000002 .027000003 .031000002 C .009999998 .031000002 0 .031000002 0 .011000001 C 0 0 .009 0 .027000003 0 L .38400004 0 C .54200006 0 .66 .11800001 .66 .216 C .66 .28800002 .60200005 .34600001 .50500007 .35700002 C .609 .37600003 .71400004 .45000001 .71400004 .545 C .71400004 .619 .64800005 .683 .52800007 .683 L .192 .683 C .17300001 .683 .16300002 .683 .16300002 .66300006 C .16300002 .652 .17200002 .652 .19100001 .652 C .19300002 .652 .21200001 .652 .22900003 .65000005 C .24700001 .648 .256 .647 .256 .634 C .256 .63000007 .25500002 .62700005 .252 .615 L .11800001 .078 M .26900003 .36600004 L .33100004 .614 C .34000004 .64900007 .342 .652 .38500002 .652 L .51400004 .652 C .60200005 .652 .623 .59300004 .623 .549 C .623 .46100002 .53700008 .36600004 .41500001 .36600004 L .26900003 .36600004 M .224 .031000002 C .21000001 .031000002 .208 .031000002 .20200002 .032 C .192 .033 .18900001 .034 .18900001 .042000003 C .18900001 .045 .18900001 .047000003 .194 .065000005 L .263 .344 L .45200003 .344 C .54800005 .344 .56700001 .27 .56700001 .22700002 C .56700001 .128 .47800005 .031000002 .36 .031000002 L .224 .031000002 Z "/>
</symbol><use xlink:href="#font_1_2" transform="matrix(9.9626,0,0,-9.9626,60.33843,39.491986)"/>
<text fill-opacity="0" transform="matrix(1,0,0,1,-76.381,-25.443013)" font-size="9.9626" font-family="CMMI10" x="176.847" y="64.935">
B
</text>
<use xlink:href="#font_1_2" transform="matrix(9.9626,0,0,-9.9626,100.88443,39.491986)"/>
<path transform="matrix(1,0,0,-1,54.14,20.984986)" stroke-width=".39848" stroke-linecap="butt" stroke-miterlimit="10" stroke-linejoin="miter" fill="none" stroke="rgb(0,0,0)" d="M -9.29889 10.83498 L -42.08849 -10.46146 "/>
<path transform="matrix(-.83862,.54468,.54468,.83862,11.884449,31.554966)" stroke-width=".39848" stroke-linecap="round" stroke-linejoin="round" fill="none" stroke="rgb(0,0,0)" d="M -2.07213 2.39091 C -1.69356 .95633 -.84995 .27893 0 0 C -.84995 -.27893 -1.69356 -.95633 -2.07213 -2.39091 "/>
<text fill-opacity="0" transform="matrix(1,0,0,1,-37.197,-37.421014)" font-size="6.9738" font-family="MSAM7" x="67.82" y="64.935">
&#x27f3;
</text>
<symbol id="font_3_1"><path d="M .28300002 .69200001 C .215 .632 .19600001 .549 .19600001 .53800006 C .19600001 .52900005 .20300001 .52400007 .21000001 .52400007 C .21900001 .52400007 .22800002 .52800007 .231 .53900004 C .26700001 .67100006 .361 .70300007 .36400003 .70300007 C .37100003 .70400005 .38500002 .70500002 .38500002 .7200001 C .38500002 .73700004 .367 .73700004 .359 .73700004 C .345 .73700004 .324 .7350001 .31 .73200007 C .307 .73200007 .303 .73100005 .3 .73100005 C .29700003 .73100005 .262 .7340001 .22 .75500007 C .18900001 .7710001 .17300001 .7860001 .157 .8000001 C .153 .8040001 .15 .80700007 .14500001 .80700007 C .141 .80700007 .123 .805000104 .123 .79100009 C .123 .77700009 .17199999 .73700004 .23300001 .7110001 C .108 .66400004 0 .53400002 0 .36900001 C 0 .16200002 .16600001 0 .368 0 C .572 0 .736 .165 .736 .368 C .736 .59900003 .54 .7020001 .521 .7020001 C .513 .7020001 .504 .69400006 .504 .68500004 C .504 .6750001 .509 .67200003 .526 .66400004 C .64000006 .60300007 .702 .48400002 .702 .36900001 C .702 .18300002 .55200005 .034 .368 .034 C .18200001 .034 .034 .185 .034 .368 C .034 .50100003 .115 .64500003 .28300002 .69200001 Z "/>
</symbol><use xlink:href="#font_3_1" transform="matrix(6.9738,0,0,-6.9738,31.166958,28.336894)"/>
<text fill-opacity="0" transform="matrix(1,0,0,1,-46.551,-47.728013)" font-size="6.9738" font-family="CMMI7" x="67.82" y="64.935">
f
</text>
<symbol id="font_4_1"><path d="M .334 .59900003 L .43199997 .59900003 C .45200003 .59900003 .46500004 .59900003 .46500004 .62100006 C .46500004 .63500004 .45200003 .63500004 .43400002 .63500004 L .34100003 .63500004 C .364 .762 .372 .808 .38 .837 C .38500002 .859 .407 .88000003 .431 .88000003 C .43199997 .88000003 .459 .88000003 .478 .86800004 C .43700004 .855 .43400002 .819000043 .43400002 .813 C .43400002 .791 .45100003 .776 .47400003 .776 C .501 .776 .531 .799 .531 .837 C .531 .883 .482 .90800008 .431 .90800008 C .387 .90800008 .338 .883 .311 .833 C .291 .796 .283 .75100003 .262 .63500004 L .183 .63500004 C .16300002 .63500004 .15 .63500004 .15 .61300002 C .15 .59900003 .16300002 .59900003 .181 .59900003 L .255 .59900003 C .254 .59300004 .19099999 .23300001 .167 .12600002 C .162 .10400001 .14500001 .027999998 .096999999 .027999998 C .09600001 .027999998 .072000003 .027999998 .052999997 .040000005 C .094000006 .053000002 .096999999 .08900001 .096999999 .095000009 C .096999999 .117000009 .080000009 .132 .057000003 .132 C .030000001 .132 0 .109000003 0 .07100001 C 0 .026000008 .047 0 .096999999 0 C .16100002 0 .20500002 .066 .21700001 .08800001 C .253 .155 .276 .278 .278 .29000001 L .334 .59900003 Z "/>
</symbol><use xlink:href="#font_4_1" transform="matrix(6.9738,0,0,-6.9738,21.778088,18.62964)"/>
<path transform="matrix(1,0,0,-1,54.14,20.984986)" stroke-width=".39848" stroke-linecap="butt" stroke-miterlimit="10" stroke-linejoin="miter" fill="none" stroke="rgb(0,0,0)" d="M 8.71428 10.86906 L 41.5033 -10.30255 "/>
<path transform="matrix(.840060033,.54242,.54242,-.840060033,95.81065,31.395596)" stroke-width=".39848" stroke-linecap="round" stroke-linejoin="round" fill="none" stroke="rgb(0,0,0)" d="M -2.07213 2.39091 C -1.69356 .95633 -.84995 .27893 0 0 C -.84995 -.27893 -1.69356 -.95633 -2.07213 -2.39091 "/>
<text fill-opacity="0" transform="matrix(1,0,0,1,13.940001,-47.825013)" font-size="6.9738" font-family="CMMI7" x="67.82" y="64.935">
g
</text>
<symbol id="font_4_2"><path d="M .489 .573 C .493 .588 .493 .59300004 .493 .59400006 C .493 .61600008 .475 .62600003 .45900002 .62600003 C .43600002 .62600003 .417 .60700007 .41300002 .588 C .396 .615 .36200002 .64500003 .31 .64500003 C .18500002 .64500003 .054 .51100006 .054 .36800004 C .054 .26500001 .12400001 .20400001 .20600002 .20400001 C .252 .20400001 .296 .22700002 .331 .25800002 L .30900002 .16800001 C .298 .12600002 .291 .09900001 .253 .065 C .209 .027999998 .16600001 .027999998 .14100002 .027999998 C .09500001 .027999998 .082 .031000004 .06400001 .034999996 C .089 .047000007 .096000014 .07100001 .096000014 .08500001 C .096000014 .109000003 .07700001 .12200001 .057 .12200001 C .029000003 .12200001 0 .09900001 0 .061000004 C 0 .001000002 .08600001 0 .142 0 C .299 0 .366 .080000009 .38 .13700001 L .489 .573 M .351 .337 C .347 .32200003 .347 .32000003 .33 .3 C .29500003 .25800002 .24700003 .23200001 .209 .23200001 C .158 .23200001 .134 .275 .134 .32700003 C .134 .37100003 .16100002 .48300005 .187 .527 C .22900002 .597 .276 .61700006 .31 .61700006 C .38 .61700006 .39900003 .54200006 .39900003 .532 C .39900003 .53000002 .39900003 .528 .396 .517 L .351 .337 Z "/>
</symbol><use xlink:href="#font_4_2" transform="matrix(6.9738,0,0,-6.9738,82.059879,18.53264)"/>
<text fill-opacity="0" transform="matrix(1,0,0,1,3.0249997,-37.518013)" font-size="6.9738" font-family="MSAM7" x="67.82" y="64.935">
&#x27f3;
</text>
<use xlink:href="#font_3_1" transform="matrix(6.9738,0,0,-6.9738,71.388956,28.239893)"/>
<path transform="matrix(1,0,0,-1,54.14,20.984986)" stroke-width=".39848" stroke-linecap="butt" stroke-dasharray="2.78941,1.59395" stroke-miterlimit="10" stroke-linejoin="miter" fill="none" stroke="rgb(0,0,0)" d="M -.2923 10.34477 L -.2923 -6.79126 "/>
<path transform="matrix(0,1,1,0,53.8477,27.975485)" stroke-width=".39848" stroke-linecap="round" stroke-linejoin="round" fill="none" stroke="rgb(0,0,0)" d="M -2.07213 2.39091 C -1.69356 .95633 -.84995 .27893 0 0 C -.84995 -.27893 -1.69356 -.95633 -2.07213 -2.39091 "/>
<text fill-opacity="0" transform="matrix(1,0,0,1,-11.628,-43.10601)" font-size="6.9738" font-family="CMMI7" x="67.82" y="64.935">
h
</text>
<symbol id="font_4_3"><path d="M .23800002 .674 C .23900001 .676 .242 .689 .242 .69 C .242 .69500008 .23800002 .704 .22600003 .704 C .20600002 .704 .12300001 .69600006 .098000002 .694 C .09 .693 .076000004 .69200001 .076000004 .671 C .076000004 .657 .09 .657 .102 .657 C .15 .657 .15 .65000005 .15 .642 C .15 .635 .148 .629 .14600002 .62 L .0050000029 .054000006 C 0 .036000002 0 .034 0 .032 C 0 .017 .012000002 0 .034 0 C .045 0 .06400001 .0050000005 .075 .026 C .07800001 .032 .087 .068 .09200001 .089 L .11500001 .17800002 C .118 .19300002 .128 .23100002 .13100001 .24600002 C .141 .284 .141 .285 .16100002 .317 C .193 .366 .24300001 .423 .32100005 .423 C .37700004 .423 .38 .377 .38 .35300002 C .38 .293 .337 .18200001 .32100005 .14000001 C .31 .112 .306 .103 .306 .086 C .306 .033000005 .35000003 0 .40100003 0 C .50100003 0 .545 .13800001 .545 .15300001 C .545 .16600001 .53200007 .16600001 .52900005 .16600001 C .51500006 .16600001 .51400004 .16000001 .51000004 .14900002 C .48700004 .069000006 .44300003 .028 .40400005 .028 C .38300002 .028 .379 .042000003 .379 .063 C .379 .086 .384 .099 .402 .14400001 C .41400004 .17500001 .45500003 .28100003 .45500003 .337 C .45500003 .35300002 .45500003 .395 .41800004 .42400003 C .40100003 .437 .37200003 .451 .325 .451 C .25200004 .451 .19900002 .411 .16200002 .368 L .23800002 .674 Z "/>
</symbol><use xlink:href="#font_4_3" transform="matrix(6.9738,0,0,-6.9738,56.715036,21.898726)"/>
<path transform="matrix(1,0,0,-1,54.14,20.984986)" stroke-width=".39848" stroke-linecap="butt" stroke-miterlimit="10" stroke-linejoin="miter" fill="none" stroke="rgb(0,0,0)" d="M -18.91052 -16.01654 L -42.02415 -16.01654 "/>
<path transform="matrix(-1,0,0,1,11.916611,37.001527)" stroke-width=".39848" stroke-linecap="round" stroke-linejoin="round" fill="none" stroke="rgb(0,0,0)" d="M -2.07213 2.39091 C -1.69356 .95633 -.84995 .27893 0 0 C -.84995 -.27893 -1.69356 -.95633 -2.07213 -2.39091 "/>
<text fill-opacity="0" transform="matrix(1,0,0,1,-46.4,-22.587011)" font-size="6.9738" font-family="CMMI7" x="67.82" y="64.935">
p
</text>
<symbol id="font_4_4"><path d="M .076000004 .072 C .069000006 .044 .067 .036 .027 .036 C .014 .036 0 .036 0 .015000001 C 0 .003999993 .009000001 0 .014 0 C .04 0 .07300001 .003999993 .10000001 .003999993 C .134 .003999993 .172 0 .20500002 0 C .21400002 0 .22500001 .0029999912 .22500001 .022 C .22500001 .036 .21100001 .036 .19900002 .036 C .17700002 .036 .15 .036 .15 .047999993 C .15 .053000002 .157 .079 .16100002 .094000006 C .17300001 .147 .187 .201 .19800002 .243 C .21000001 .223 .24100001 .184 .301 .184 C .423 .184 .558 .319 .558 .46800003 C .558 .58500004 .477 .635 .408 .635 C .34600001 .635 .293 .59300004 .266 .56500006 C .24900002 .62200003 .193 .635 .163 .635 C .124000009 .635 .10000001 .609 .08400001 .582 C .064 .548 .048 .488 .048 .48200002 C .048 .469 .062000003 .469 .065000005 .469 C .079 .469 .080000009 .47200003 .087000008 .499 C .102000009 .55700007 .12100001 .607 .16000001 .607 C .186 .607 .193 .58500004 .193 .558 C .193 .54700003 .19100001 .53400002 .19000001 .528 L .076000004 .072 M .265 .515 C .323 .592 .373 .607 .405 .607 C .444 .607 .47800002 .578 .47800002 .51 C .47800002 .469 .456 .367 .426 .30900002 C .401 .26 .352 .21200001 .301 .21200001 C .23000002 .21200001 .21200001 .289 .21200001 .29900003 C .21200001 .303 .21400002 .31 .21500002 .314 L .265 .515 Z "/>
</symbol><use xlink:href="#font_4_4" transform="matrix(6.9738,0,0,-6.9738,21.413025,43.7009)"/>
<path transform="matrix(1,0,0,-1,54.14,20.984986)" stroke-width=".39848" stroke-linecap="butt" stroke-miterlimit="10" stroke-linejoin="miter" fill="none" stroke="rgb(0,0,0)" d="M 18.32591 -16.01654 L 41.43954 -16.01654 "/>
<path transform="matrix(1,0,0,-1,95.7788,37.001527)" stroke-width=".39848" stroke-linecap="round" stroke-linejoin="round" fill="none" stroke="rgb(0,0,0)" d="M -2.07213 2.39091 C -1.69356 .95633 -.84995 .27893 0 0 C -.84995 -.27893 -1.69356 -.95633 -2.07213 -2.39091 "/>
<text fill-opacity="0" transform="matrix(1,0,0,1,14.451,-22.587011)" font-size="6.9738" font-family="CMMI7" x="67.82" y="64.935">
q
</text>
<symbol id="font_4_5"><path d="M .448 .60600005 C .44900007 .61 .45000005 .61600008 .45000005 .62100006 C .45000005 .62700005 .44600005 .635 .43700004 .635 C .42700005 .635 .385 .601 .365 .569 C .35500002 .589 .32200003 .635 .25800002 .635 C .13000001 .635 0 .49400001 0 .35000003 C 0 .25300003 .065 .184 .15100001 .184 C .20800002 .184 .255 .22 .277 .23900001 C .27600003 .236 .24500002 .11 .24100001 .093 C .22700002 .038000002 .226 .037 .164 .036 C .15200001 .036 .13800001 .036 .13800001 .013999999 C .13800001 .008000001 .143 0 .15300001 0 C .186 0 .223 .003999993 .25700002 .003999993 C .291 .003999993 .333 0 .36400003 0 C .37300003 0 .384 .0029999912 .384 .022 C .384 .036 .37 .036 .35800005 .036 C .33600002 .036 .30900002 .036 .30900002 .047999993 C .30900002 .051 .30900002 .053000002 .314 .07 L .448 .60600005 M .297 .32 C .292 .303 .292 .301 .27899999 .28500004 C .24000003 .23900001 .193 .21200001 .154 .21200001 C .117 .21200001 .081 .238 .081 .30900002 C .081 .36200002 .11 .47200003 .133 .512 C .179 .592 .23 .607 .25800002 .607 C .328 .607 .347 .53000002 .347 .52 C .347 .515 .34500003 .50900007 .34400005 .505 L .297 .32 Z "/>
</symbol><use xlink:href="#font_4_5" transform="matrix(6.9738,0,0,-6.9738,82.696399,43.7009)"/>
</g>
</svg>
