<?xml version="1.0" standalone="no"?>
<!DOCTYPE svg PUBLIC "-//W3C//DTD SVG 1.1//EN" "http://www.w3.org/Graphics/SVG/1.1/DTD/svg11.dtd">
<svg xmlns="http://www.w3.org/2000/svg" xmlns:xlink="http://www.w3.org/1999/xlink" version="1.1" width="1.5665449cm" height=".344805cm" viewBox="0 0 44.406 9.774">
<clipPath id="cp0">
<path transform="matrix(1,0,0,-1,-85.68,726.552)" d="M 0 0 L 595.28 0 L 595.28 841.889963 L 0 841.889963 Z "/>
</clipPath>
<g clip-path="url(#cp0)">
<text fill-opacity="0" transform="matrix(1,0,0,1,-42.979005,-39.934014)" font-size="9.9626" font-family="CMMI10" x="42.736" y="49.601">
I
</text>
<symbol id="font_1_1"><path d="M .34 .606 C .349 .642 .352 .652 .43100003 .652 C .455 .652 .463 .652 .463 .671 C .463 .683 .45200003 .683 .448 .683 C .419 .683 .345 .68 .316 .68 C .286 .68 .213 .683 .183 .683 C .176 .683 .16300002 .683 .16300002 .66300006 C .16300002 .652 .17200002 .652 .19100001 .652 C .23300001 .652 .26 .652 .26 .633 C .26 .628 .26 .62600003 .25800002 .61700006 L .123 .078 C .114 .041 .11100001 .031000002 .031999999 .031000002 C .009 .031000002 0 .031000002 0 .011000001 C 0 0 .012000002 0 .015000001 0 C .044 0 .117000009 .003 .146 .003 C .176 .003 .25 0 .28 0 C .28800002 0 .3 0 .3 .019000001 C .3 .031000002 .292 .031000002 .27 .031000002 C .252 .031000002 .24700001 .031000002 .227 .033 C .206 .035 .20200002 .039 .20200002 .05 C .20200002 .058000002 .204 .066 .206 .07300001 L .34 .606 Z "/>
</symbol><use xlink:href="#font_1_1" transform="matrix(9.9626,0,0,-9.9626,.09572457,9.666988)"/>
<text fill-opacity="0" transform="matrix(1,0,0,1,-44.001003,-39.934014)" font-size="9.9626" font-family="CMMI10" x="81.408" y="49.601">
T
</text>
<symbol id="font_1_2"><path d="M .40300003 .60700007 C .41000004 .63500004 .41400004 .64100004 .42600003 .64400006 C .43500004 .646 .46800003 .646 .48900003 .646 C .59000006 .646 .63500004 .642 .63500004 .564 C .63500004 .549 .63100005 .51000004 .62700005 .48400002 C .62600003 .48000002 .624 .46800003 .624 .46500004 C .624 .45900002 .62700005 .45200003 .63600006 .45200003 C .647 .45200003 .64900007 .46 .651 .47500001 L .67800003 .64900007 C .679 .65300007 .68000007 .66300006 .68000007 .666 C .68000007 .67700005 .67 .67700005 .65300007 .67700005 L .098000002 .67700005 C .074 .67700005 .073 .67600008 .066 .657 L .006000001 .48100005 C .005000001 .47900004 0 .46500004 0 .46300002 C 0 .45700002 .005000001 .45200003 .012000002 .45200003 C .022000003 .45200003 .023000002 .45700002 .029000003 .47300001 C .083000002 .628 .109 .646 .25700002 .646 L .29600003 .646 C .32400003 .646 .32400003 .642 .32400003 .634 C .32400003 .628 .32100005 .61600008 .32000003 .61300002 L .186 .079 C .177 .042000003 .17400001 .031000002 .067 .031000002 C .031000004 .031000002 .025000003 .031000002 .025000003 .012 C .025000003 0 .036000002 0 .042 0 C .069000006 0 .097 .002 .124 .002 C .15200001 .002 .18100001 .003 .209 .003 C .237 .003 .26500001 .002 .29200003 .002 C .32100005 .002 .35100005 0 .37900005 0 C .38900004 0 .40100003 0 .40100003 .020000002 C .40100003 .031000002 .39300004 .031000002 .36700005 .031000002 C .34200004 .031000002 .32900003 .031000002 .30300003 .033 C .27400003 .036000002 .26600004 .039 .26600004 .055000005 C .26600004 .056 .26600004 .061000004 .27 .076000004 L .40300003 .60700007 Z "/>
</symbol><use xlink:href="#font_1_2" transform="matrix(9.9626,0,0,-9.9626,37.646096,9.666988)"/>
<path transform="matrix(1,0,0,-1,22.186,6.262989)" stroke-width=".39848" stroke-linecap="butt" stroke-dasharray="2.78941,1.59395" stroke-miterlimit="10" stroke-linejoin="miter" fill="none" stroke="rgb(0,0,0)" d="M -12.77827 -.91324 L 10.33534 -.91324 "/>
<path transform="matrix(1,0,0,-1,32.72058,7.176229)" stroke-width=".39848" stroke-linecap="round" stroke-linejoin="round" fill="none" stroke="rgb(0,0,0)" d="M -2.07213 2.39091 C -1.69356 .95633 -.84995 .27893 0 0 C -.84995 -.27893 -1.69356 -.95633 -2.07213 -2.39091 "/>
<text fill-opacity="0" transform="matrix(1,0,0,1,-18.943,-44.769014)" font-size="6.9738" font-family="CMSY7" x="35.866" y="49.601">
&#x2203;
</text>
<symbol id="font_2_1"><path d="M .49199999 .65500002 C .49199999 .689 .486 .694 .45200003 .694 L .04 .694 C .022999995 .694 0 .694 0 .669 C 0 .64500003 .023999997 .64500003 .04 .64500003 L .44300003 .64500003 L .44300003 .372 L .058 .372 C .041 .372 .015999996 .372 .015999996 .347 C .015999996 .323 .037999995 .323 .053000002 .323 L .44300003 .323 L .44300003 .049000001 L .04 .049000001 C .022999995 .049000001 0 .049000001 0 .024 C 0 0 .023999997 0 .04 0 L .45200003 0 C .486 0 .49199999 .0050000005 .49199999 .039 L .49199999 .65500002 Z "/>
</symbol><use xlink:href="#font_2_1" transform="matrix(6.9738,0,0,-6.9738,17.459984,4.8319893)"/>
<text fill-opacity="0" transform="matrix(1,0,0,1,-18.943,-44.769014)" font-size="6.9738" font-family="CMR7" x="40.376" y="49.601">
1
</text>
<symbol id="font_3_1"><path d="M .22600001 .63600006 C .22600001 .66300006 .224 .66400004 .19600001 .66400004 C .132 .601 .041 .6 0 .6 L 0 .564 C .023999997 .564 .09000001 .564 .14500001 .592 L .14500001 .082 C .14500001 .049000001 .14500001 .036000002 .04500001 .036000002 L .0069999991 .036000002 L .0069999991 0 C .024999998 .001 .148 .004 .185 .004 C .21600002 .004 .34200004 .001 .36400003 0 L .36400003 .036000002 L .32600003 .036000002 C .22600001 .036000002 .22600001 .049000001 .22600001 .082 L .22600001 .63600006 Z "/>
</symbol><use xlink:href="#font_3_1" transform="matrix(6.9738,0,0,-6.9738,22.193144,4.8319893)"/>
</g>
</svg>
