<?xml version="1.0" standalone="no"?>
<!DOCTYPE svg PUBLIC "-//W3C//DTD SVG 1.1//EN" "http://www.w3.org/Graphics/SVG/1.1/DTD/svg11.dtd">
<svg xmlns="http://www.w3.org/2000/svg" xmlns:xlink="http://www.w3.org/1999/xlink" version="1.1" width="7.633335cm" height="4.00558cm" viewBox="0 0 216.378 113.544">
<clipPath id="cp0">
<path transform="matrix(1,0,0,-1,-86.58,725.94)" d="M 0 0 L 595.28 0 L 595.28 841.889963 L 0 841.889963 Z "/>
</clipPath>
<g clip-path="url(#cp0)">
<text fill-opacity="0" transform="matrix(1,0,0,1,-143.30802,10.6579899)" font-size="9.9626" font-family="CMR10" x="142.164" y="-3.198">
[
</text>
<symbol id="font_1_1"><path d="M .13700003 0 L .13700003 .03999999 L .04 .03999999 L .04 .96000004 L .13700003 .96000004 L .13700003 1 L 0 1 L 0 0 L .13700003 0 Z "/>
</symbol><use xlink:href="#font_1_1" transform="matrix(9.9626,0,0,-9.9626,.031574402,9.95064)"/>
<text fill-opacity="0" transform="matrix(1,0,0,1,-143.30802,10.6579899)" font-size="9.9626" font-family="CMMI10" x="144.932" y="-3.198">
h
</text>
<symbol id="font_2_6"><path d="M .232 .694 C .232 .695 .232 .705 .21900001 .705 C .19600001 .705 .122999999 .697 .097 .695 C .089 .694 .077999993 .693 .077999993 .675 C .077999993 .663 .087 .663 .102 .663 C .15 .663 .15200001 .656 .15200001 .646 L .149 .626 L .0040000005 .05 C 0 .036000002 0 .034 0 .028 C 0 .005000001 .02 0 .029000003 0 C .044999999 0 .061 .012000001 .066 .026 L .08499999 .102000009 L .10699999 .19200002 C .113000009 .21400002 .119 .23600002 .124 .259 C .126 .26500001 .134 .298 .135 .30400003 C .138 .31300002 .169 .36900001 .20300001 .39600003 C .225 .41200004 .256 .43100003 .299 .43100003 C .342 .43100003 .35300002 .397 .35300002 .36100004 C .35300002 .307 .315 .19800002 .291 .13700001 C .28300002 .11400001 .278 .102000009 .278 .082 C .278 .035 .31300002 0 .36 0 C .454 0 .491 .14600002 .491 .15400002 C .491 .16400002 .482 .16400002 .47900004 .16400002 C .46900005 .16400002 .46900005 .16100002 .46400004 .14600002 C .449 .093 .41700002 .022000002 .36200002 .022000002 C .345 .022000002 .338 .032 .338 .055000005 C .338 .080000009 .347 .104 .356 .126 C .372 .16900002 .41700002 .28800002 .41700002 .34600001 C .41700002 .411 .377 .45300003 .30200003 .45300003 C .239 .45300003 .191 .42200003 .154 .37600003 L .232 .694 Z "/>
</symbol><use xlink:href="#font_2_6" transform="matrix(9.9626,0,0,-9.9626,2.171936,7.569578)"/>
<text fill-opacity="0" transform="matrix(1,0,0,1,-143.30802,10.6579899)" font-size="6.9738" font-family="CMMI7" x="150.67201" y="-1.704">
U
</text>
<symbol id="font_3_5"><path d="M .615 .594 C .625 .633 .64100004 .665 .721 .667 C .726 .667 .74100008 .668 .74100008 .689 C .74100008 .695 .73600007 .703 .726 .703 C .694 .703 .656 .699 .623 .699 C .59000006 .699 .54800005 .703 .518 .703 C .513 .703 .49800004 .703 .49800004 .681 C .49800004 .668 .51100006 .667 .52000003 .667 C .56700001 .666 .58400007 .651 .58400007 .626 C .58400007 .621 .583 .616 .582 .612 C .56700001 .547 .49400001 .246 .481 .215 C .425 .087000008 .308 .036000002 .22600001 .036000002 C .15900001 .036000002 .088 .07 .088 .169 C .088 .193 .091000004 .21700001 .097 .24000001 L .194 .625 C .20300001 .65900002 .20500002 .667 .282 .667 C .29900003 .667 .312 .667 .312 .689 C .312 .693 .30900002 .703 .296 .703 C .26700001 .703 .194 .699 .16499999 .699 C .148 .699 .113000009 .699 .096 .7 C .076000004 .70100003 .052 .703 .032999993 .703 C .026999996 .703 .0119999949 .703 .0119999949 .681 C .0119999949 .667 .023999997 .667 .044 .667 C .045 .667 .063999997 .667 .082 .665 C .103 .663 .105000007 .661 .105000007 .651 C .105000007 .645 .095 .606 .089 .584 L .067 .49600001 L .009999998 .26700001 C 0 .22600001 0 .21800001 0 .198 C 0 .074 .102 0 .222 0 C .36 0 .49400001 .11200001 .527 .243 L .615 .594 Z "/>
</symbol><use xlink:href="#font_3_5" transform="matrix(6.9738,0,0,-6.9738,8.005589,9.093465)"/>
<text fill-opacity="0" transform="matrix(1,0,0,1,-143.30802,10.6579899)" font-size="9.9626" font-family="CMMI10" x="157.34501 161.76842" y="-3.198 -3.198">
,F
</text>
<symbol id="font_2_1"><path d="M .117000009 .194 C .117000009 .26 .092 .29900003 .05300001 .29900003 C .020000003 .29900003 0 .274 0 .246 C 0 .21900001 .020000003 .193 .05300001 .193 C .065000005 .193 .078 .197 .08800001 .206 C .091 .208 .092 .209 .093 .209 C .094000006 .209 .095000009 .208 .095000009 .194 C .095000009 .12 .06000001 .060000001 .027000003 .026999996 C .016000003 .016000003 .016000003 .013999999 .016000003 .0109999929 C .016000003 .003999993 .021000006 0 .026 0 C .037 0 .117000009 .077 .117000009 .194 Z "/>
</symbol><symbol id="font_2_2"><path d="M .265 .32500003 L .362 .32500003 C .43700004 .32500003 .445 .30900002 .445 .28 C .445 .273 .445 .261 .43800002 .231 C .43600006 .22600001 .435 .22200002 .435 .22000001 C .435 .21200001 .44100004 .208 .44700003 .208 C .45700002 .208 .45700002 .21100001 .462 .22900002 L .517 .446 C .52000003 .45700002 .52000003 .45900002 .52000003 .462 C .52000003 .46400003 .51800008 .47300001 .508 .47300001 C .49800004 .47300001 .49700003 .46800003 .49300004 .45200003 C .47200007 .374 .449 .356 .36400003 .356 L .273 .356 L .337 .61 C .34600001 .64500003 .347 .64900007 .39100004 .64900007 L .52300005 .64900007 C .646 .64900007 .669 .61600008 .669 .53900004 C .669 .51600004 .669 .512 .66600009 .485 C .66400004 .47200003 .66400004 .47000003 .66400004 .467 C .66400004 .462 .66700006 .455 .67600008 .455 C .68700004 .455 .688 .46100002 .69000006 .48000002 L .71000004 .65300007 C .71300006 .68 .70800009 .68 .683 .68 L .193 .68 C .17300001 .68 .163 .68 .163 .66 C .163 .64900007 .172 .64900007 .19100001 .64900007 C .228 .64900007 .25599999 .64900007 .25599999 .63100005 C .25599999 .62700005 .25599999 .625 .251 .60700007 L .119 .078 C .109 .039 .10700001 .031000002 .027999998 .031000002 C .011 .031000002 0 .031000002 0 .012 C 0 0 .011999998 0 .015000001 0 C .044 0 .118 .003 .147 .003 C .18 .003 .263 0 .296 0 C .305 0 .31700004 0 .31700004 .019000001 C .31700004 .027 .311 .029000001 .311 .030000001 C .30800004 .031000002 .306 .031000002 .283 .031000002 C .26100004 .031000002 .25599999 .031000002 .23100002 .033 C .202 .036000002 .19900002 .040000004 .19900002 .053000002 C .19900002 .055000005 .19900002 .061000004 .20300001 .076000004 L .265 .32500003 Z "/>
</symbol><use xlink:href="#font_2_1" transform="matrix(9.9626,0,0,-9.9626,14.893786,9.3827715)"/>
<use xlink:href="#font_2_2" transform="matrix(9.9626,0,0,-9.9626,18.838982,7.4599896)"/>
<text fill-opacity="0" transform="matrix(1,0,0,1,-143.30802,10.6579899)" font-size="9.9626" font-family="CMR10" x="169.56302" y="-3.198">
]
</text>
<symbol id="font_1_2"><path d="M .13700001 1 L 0 1 L 0 .96000004 L .097 .96000004 L .097 .03999999 L 0 .03999999 L 0 0 L .13700001 0 L .13700001 1 Z "/>
</symbol><use xlink:href="#font_1_2" transform="matrix(9.9626,0,0,-9.9626,26.474183,9.95064)"/>
<text fill-opacity="0" transform="matrix(1,0,0,1,-143.33,10.6579899)" font-size="9.9626" font-family="CMR10" x="267.742" y="-3.198">
[
</text>
<use xlink:href="#font_1_1" transform="matrix(9.9626,0,0,-9.9626,125.58759,9.95064)"/>
<text fill-opacity="0" transform="matrix(1,0,0,1,-143.33,10.6579899)" font-size="9.9626" font-family="CMMI10" x="270.509" y="-3.198">
h
</text>
<use xlink:href="#font_2_6" transform="matrix(9.9626,0,0,-9.9626,127.726941,7.569578)"/>
<text fill-opacity="0" transform="matrix(1,0,0,1,-143.33,10.6579899)" font-size="6.9738" font-family="CMMI7" x="276.249" y="-1.704">
U
</text>
<use xlink:href="#font_3_5" transform="matrix(6.9738,0,0,-6.9738,133.56058,9.093465)"/>
<text fill-opacity="0" transform="matrix(1,0,0,1,-143.33,10.6579899)" font-size="9.9626" font-family="CMMI10" x="282.922 287.34537" y="-3.198 -3.198">
,G
</text>
<symbol id="font_2_3"><path d="M .71000004 .71700006 C .71000004 .72 .708 .72700005 .699 .72700005 C .69600006 .72700005 .69500008 .7260001 .684 .71500006 L .614 .6380001 C .605 .65200009 .559 .72700005 .448 .72700005 C .22500001 .72700005 0 .50600005 0 .27400003 C 0 .115 .11100002 0 .273 0 C .317 0 .36200002 .0090000019 .398 .024000002 C .448 .044000005 .467 .065000005 .485 .085 C .49400001 .060000001 .52000003 .023000002 .53000002 .023000002 C .535 .023000002 .537 .026000002 .537 .027000003 C .53900004 .029000003 .549 .067 .554 .088 L .573 .165 C .577 .18200001 .582 .199 .586 .216 C .597 .261 .598 .263 .65500002 .26400004 C .66 .26400004 .671 .26500001 .671 .28400004 C .671 .29100004 .666 .29500003 .658 .29500003 C .63500004 .29500003 .57600003 .29200003 .55300003 .29200003 C .522 .29200003 .444 .29500003 .41300002 .29500003 C .404 .29500003 .39200001 .29500003 .39200001 .27500005 C .39200001 .26400004 .4 .26400004 .42200003 .26400004 C .423 .26400004 .45200003 .26400004 .47500001 .26200003 C .501 .25900004 .50600005 .256 .50600005 .24300001 C .50600005 .23400001 .495 .18900001 .485 .15200001 C .45700002 .042000003 .327 .031000004 .292 .031000004 C .19600001 .031000004 .091000004 .088 .091000004 .24100001 C .091000004 .272 .10100001 .43700004 .20600002 .56700001 C .26 .63500004 .357 .69600006 .45600004 .69600006 C .558 .69600006 .61700006 .619 .61700006 .503 C .61700006 .46300002 .614 .46200004 .614 .45200003 C .614 .44200002 .625 .44200002 .629 .44200002 C .642 .44200002 .642 .44400005 .647 .46200004 L .71000004 .71700006 Z "/>
</symbol><use xlink:href="#font_2_1" transform="matrix(9.9626,0,0,-9.9626,140.44878,9.3827715)"/>
<use xlink:href="#font_2_3" transform="matrix(9.9626,0,0,-9.9626,144.51349,7.679167)"/>
<text fill-opacity="0" transform="matrix(1,0,0,1,-143.33,10.6579899)" font-size="9.9626" font-family="CMR10" x="295.18298" y="-3.198">
]
</text>
<use xlink:href="#font_1_2" transform="matrix(9.9626,0,0,-9.9626,152.07216,9.95064)"/>
<text fill-opacity="0" transform="matrix(1,0,0,1,-143.431,10.657988)" font-size="9.9626" font-family="CMR10" x="204.942" y="31.989">
[
</text>
<use xlink:href="#font_1_1" transform="matrix(9.9626,0,0,-9.9626,62.68659,45.137639)"/>
<text fill-opacity="0" transform="matrix(1,0,0,1,-143.431,10.657988)" font-size="9.9626" font-family="CMMI10" x="207.71" y="31.989">
h
</text>
<use xlink:href="#font_2_6" transform="matrix(9.9626,0,0,-9.9626,64.82695,42.756577)"/>
<text fill-opacity="0" transform="matrix(1,0,0,1,-143.431,10.657988)" font-size="6.9738" font-family="CMMI7" x="213.45001" y="33.484">
V
</text>
<symbol id="font_3_6"><path d="M .63600006 .584 C .67300005 .638 .70500002 .663 .75900007 .667 C .771 .668 .78200007 .669 .78200007 .689 C .78200007 .69200001 .78000002 .703 .76800008 .703 C .744 .703 .71300006 .699 .688 .699 C .656 .699 .614 .703 .58400007 .703 C .57500005 .703 .564 .7 .564 .681 C .564 .668 .578 .667 .582 .667 C .614 .665 .623 .653 .623 .638 C .623 .624 .61600008 .614 .605 .598 L .277 .11400001 L .18600002 .625 C .18400002 .634 .18400002 .63600006 .18400002 .64 C .18400002 .667 .24000001 .667 .24700001 .667 C .26400004 .667 .277 .667 .277 .689 C .277 .69 .27600003 .703 .26000002 .703 C .231 .703 .16 .699 .13100001 .699 C .106 .699 .045 .703 .020000003 .703 C .011 .703 0 .7 0 .681 C 0 .667 .013999999 .667 .024999998 .667 C .08100001 .667 .08200001 .661 .087000008 .635 L .19600001 .027000003 C .20000002 .006000001 .201 0 .22000003 0 C .23900002 0 .24400002 .007000001 .254 .022000002 L .63600006 .584 Z "/>
</symbol><use xlink:href="#font_3_6" transform="matrix(6.9738,0,0,-6.9738,70.56995,44.281469)"/>
<text fill-opacity="0" transform="matrix(1,0,0,1,-143.431,10.657988)" font-size="9.9626" font-family="CMMI10" x="220.36801 224.79141" y="31.989 31.989">
,F
</text>
<use xlink:href="#font_2_1" transform="matrix(9.9626,0,0,-9.9626,77.79379,44.56977)"/>
<use xlink:href="#font_2_2" transform="matrix(9.9626,0,0,-9.9626,81.7389955,42.646989)"/>
<text fill-opacity="0" transform="matrix(1,0,0,1,-143.431,10.657988)" font-size="9.9626" font-family="CMR10" x="232.58601" y="31.989">
]
</text>
<use xlink:href="#font_1_2" transform="matrix(9.9626,0,0,-9.9626,89.37419,45.137639)"/>
<text fill-opacity="0" transform="matrix(1,0,0,1,-143.45201,10.657988)" font-size="9.9626" font-family="CMR10" x="330.563" y="31.989">
[
</text>
<use xlink:href="#font_1_1" transform="matrix(9.9626,0,0,-9.9626,188.28656,45.137639)"/>
<text fill-opacity="0" transform="matrix(1,0,0,1,-143.45201,10.657988)" font-size="9.9626" font-family="CMMI10" x="333.33" y="31.989">
h
</text>
<use xlink:href="#font_2_6" transform="matrix(9.9626,0,0,-9.9626,190.42592,42.756577)"/>
<text fill-opacity="0" transform="matrix(1,0,0,1,-143.45201,10.657988)" font-size="6.9738" font-family="CMMI7" x="339.06997" y="33.484">
V
</text>
<use xlink:href="#font_3_6" transform="matrix(6.9738,0,0,-6.9738,196.1689,44.281469)"/>
<text fill-opacity="0" transform="matrix(1,0,0,1,-143.45201,10.657988)" font-size="9.9626" font-family="CMMI10" x="345.98897 350.41235" y="31.989 31.989">
,G
</text>
<use xlink:href="#font_2_1" transform="matrix(9.9626,0,0,-9.9626,203.39375,44.56977)"/>
<use xlink:href="#font_2_3" transform="matrix(9.9626,0,0,-9.9626,207.45847,42.866167)"/>
<text fill-opacity="0" transform="matrix(1,0,0,1,-143.45201,10.657988)" font-size="9.9626" font-family="CMR10" x="358.249" y="31.989">
]
</text>
<use xlink:href="#font_1_2" transform="matrix(9.9626,0,0,-9.9626,215.01616,45.137639)"/>
<text fill-opacity="0" transform="matrix(1,0,0,1,-136.06401,10.6579899)" font-size="9.9626" font-family="CMMI10" x="142.164 149.94478" y="66.513 66.513">
FU
</text>
<symbol id="font_2_4"><path d="M .5680001 .6 C .57800007 .64100004 .5960001 .67100006 .676 .674 C .681 .674 .6930001 .6750001 .6930001 .69400006 C .6930001 .69500008 .6930001 .70500002 .68000007 .70500002 C .6470001 .70500002 .612 .702 .57800007 .702 C .544 .702 .50699999 .70500002 .474 .70500002 C .46800003 .70500002 .456 .70500002 .456 .68500004 C .456 .674 .46600004 .674 .474 .674 C .531 .67300005 .54200006 .65200009 .54200006 .63000007 C .54200006 .62700005 .5400001 .61200004 .53900004 .609 L .44900003 .252 C .41500001 .118 .3 .031000004 .20000002 .031000004 C .13200002 .031000004 .07800001 .075 .07800001 .16100002 C .07800001 .163 .07800001 .19500001 .089 .23900001 L .18600002 .628 C .19500003 .66400004 .197 .674 .27 .674 C .296 .674 .30400003 .674 .30400003 .69400006 C .30400003 .70500002 .293 .70500002 .29000001 .70500002 C .26200003 .70500002 .19 .702 .16200002 .702 C .133 .702 .062000008 .70500002 .033 .70500002 C .025000006 .70500002 .013999999 .70500002 .013999999 .68500004 C .013999999 .674 .023000002 .674 .042000003 .674 C .044000006 .674 .06300001 .674 .08 .67200003 C .098000002 .67 .10700001 .669 .10700001 .656 C .10700001 .65000005 .096 .60800005 .09 .58500004 L .068 .49700003 C .059 .45800004 .011 .26900003 .0069999991 .25000003 C 0 .222 0 .207 0 .192 C 0 .07 .091000004 0 .19600001 0 C .32200003 0 .446 .113000009 .479 .245 L .5680001 .6 Z "/>
</symbol><use xlink:href="#font_2_2" transform="matrix(9.9626,0,0,-9.9626,6.4785696,77.17099)"/>
<use xlink:href="#font_2_4" transform="matrix(9.9626,0,0,-9.9626,14.548262,77.39017)"/>
<text fill-opacity="0" transform="matrix(1,0,0,1,-136.086,10.6579899)" font-size="9.9626" font-family="CMMI10" x="267.742 275.5726" y="66.513 66.513">
GU
</text>
<use xlink:href="#font_2_3" transform="matrix(9.9626,0,0,-9.9626,132.15413,77.39017)"/>
<use xlink:href="#font_2_4" transform="matrix(9.9626,0,0,-9.9626,140.1541,77.39017)"/>
<text fill-opacity="0" transform="matrix(1,0,0,1,-136.13301,10.6579899)" font-size="9.9626" font-family="CMMI10" x="204.942 212.72278" y="98.545 98.545">
FV
</text>
<symbol id="font_2_5"><path d="M .572 .591 C .62100006 .669 .66300006 .67200003 .70000005 .674 C .712 .6750001 .71300006 .69200001 .71300006 .693 C .71300006 .70100003 .70800009 .70500002 .70000005 .70500002 C .674 .70500002 .64500003 .702 .61800004 .702 C .58500004 .702 .55100008 .70500002 .51900006 .70500002 C .513 .70500002 .50000005 .70500002 .50000005 .68600007 C .50000005 .6750001 .509 .674 .51600004 .674 C .54300004 .67200003 .56200004 .66200008 .56200004 .64100004 C .56200004 .62600003 .54700003 .60400005 .54700003 .60300007 L .24000001 .115 L .17200002 .64400006 C .17200002 .6610001 .19500003 .674 .24100003 .674 C .25500002 .674 .26600004 .674 .26600004 .69400006 C .26600004 .70300007 .25800002 .70500002 .25200004 .70500002 C .21200001 .70500002 .169 .702 .12800002 .702 C .11000001 .702 .091 .70300007 .07300001 .70300007 C .055000009 .70300007 .036000007 .70500002 .019000001 .70500002 C .012000002 .70500002 0 .70500002 0 .68600007 C 0 .674 .009000003 .674 .024999998 .674 C .08100001 .674 .08200001 .665 .085 .64000006 L .164 .023000002 C .167 .0030000005 .171 0 .18400002 0 C .20000002 0 .20400003 .005000001 .21200001 .018000001 L .572 .591 Z "/>
</symbol><use xlink:href="#font_2_2" transform="matrix(9.9626,0,0,-9.9626,69.18757,109.20299)"/>
<use xlink:href="#font_2_5" transform="matrix(9.9626,0,0,-9.9626,77.147675,109.422162)"/>
<text fill-opacity="0" transform="matrix(1,0,0,1,-136.154,10.6579899)" font-size="9.9626" font-family="CMMI10" x="330.563 338.3936" y="98.545 98.545">
GV
</text>
<use xlink:href="#font_2_3" transform="matrix(9.9626,0,0,-9.9626,194.9071,109.422162)"/>
<use xlink:href="#font_2_5" transform="matrix(9.9626,0,0,-9.9626,202.79749,109.422162)"/>
<path transform="matrix(1,0,0,-1,108.212,54.594987)" stroke-width=".39848" stroke-linecap="butt" stroke-miterlimit="10" stroke-linejoin="miter" fill="none" stroke="rgb(0,0,0)" d="M -74.70038 49.6271 L 11.3147 49.6271 "/>
<path transform="matrix(1,0,0,-1,119.72595,4.967884)" stroke-width=".39848" stroke-linecap="round" stroke-linejoin="round" fill="none" stroke="rgb(0,0,0)" d="M -2.07213 2.39091 C -1.69356 .95633 -.84995 .27893 0 0 C -.84995 -.27893 -1.69356 -.95633 -2.07213 -2.39091 "/>
<path transform="matrix(1,0,0,-1,108.212,54.594987)" stroke-width=".39848" stroke-linecap="butt" stroke-miterlimit="10" stroke-linejoin="miter" fill="none" stroke="rgb(0,0,0)" d="M -78.52835 40.80037 L -47.58443 23.46062 "/>
<path transform="matrix(.87233,.48882,.48882,-.87233,60.80137,31.231747)" stroke-width=".39848" stroke-linecap="round" stroke-linejoin="round" fill="none" stroke="rgb(0,0,0)" d="M -2.07213 2.39091 C -1.69356 .95633 -.84995 .27893 0 0 C -.84995 -.27893 -1.69356 -.95633 -2.07213 -2.39091 "/>
<path transform="matrix(1,0,0,-1,108.212,54.594987)" stroke-width=".39848" stroke-linecap="butt" stroke-miterlimit="10" stroke-linejoin="miter" fill="none" stroke="rgb(0,0,0)" d="M -94.27238 40.4019 L -94.27238 -11.52367 "/>
<path transform="matrix(0,-1,-1,0,13.939621,13.993847)" stroke-width=".39848" stroke-linecap="round" stroke-linejoin="round" fill="none" stroke="rgb(0,0,0)" d="M -2.07213 2.39091 C -1.69356 .95633 -.84995 .27893 0 0 C -.84995 -.27893 -1.69356 -.95633 -2.07213 -2.39091 "/>
<path transform="matrix(0,1,1,0,13.939621,66.31789)" stroke-width=".39848" stroke-linecap="round" stroke-linejoin="round" fill="none" stroke="rgb(0,0,0)" d="M -2.07213 2.39091 C -1.69356 .95633 -.84995 .27893 0 0 C -.84995 -.27893 -1.69356 -.95633 -2.07213 -2.39091 "/>
<path transform="matrix(1,0,0,-1,108.212,54.594987)" stroke-width=".39848" stroke-linecap="butt" stroke-miterlimit="10" stroke-linejoin="miter" fill="none" stroke="rgb(0,0,0)" d="M 47.06143 40.80037 L 78.02661 23.46053 "/>
<path transform="matrix(.87248,.48857,.48857,-.87248,186.41244,31.231787)" stroke-width=".39848" stroke-linecap="round" stroke-linejoin="round" fill="none" stroke="rgb(0,0,0)" d="M -2.07213 2.39091 C -1.69356 .95633 -.84995 .27893 0 0 C -.84995 -.27893 -1.69356 -.95633 -2.07213 -2.39091 "/>
<path transform="matrix(1,0,0,-1,108.212,54.594987)" stroke-width=".39848" stroke-linecap="butt" stroke-miterlimit="10" stroke-linejoin="miter" fill="none" stroke="rgb(0,0,0)" d="M 31.30661 40.4019 L 31.30661 -11.52367 "/>
<path transform="matrix(0,-1,-1,0,139.51861,13.993847)" stroke-width=".39848" stroke-linecap="round" stroke-linejoin="round" fill="none" stroke="rgb(0,0,0)" d="M -2.07213 2.39091 C -1.69356 .95633 -.84995 .27893 0 0 C -.84995 -.27893 -1.69356 -.95633 -2.07213 -2.39091 "/>
<path transform="matrix(0,1,1,0,139.51861,66.31789)" stroke-width=".39848" stroke-linecap="round" stroke-linejoin="round" fill="none" stroke="rgb(0,0,0)" d="M -2.07213 2.39091 C -1.69356 .95633 -.84995 .27893 0 0 C -.84995 -.27893 -1.69356 -.95633 -2.07213 -2.39091 "/>
<path transform="matrix(1,0,0,-1,108.212,54.594987)" stroke-width=".39848" stroke-linecap="butt" stroke-miterlimit="10" stroke-linejoin="miter" fill="none" stroke="rgb(0,0,0)" d="M -11.79892 14.4391 L 74.01369 14.4391 "/>
<path transform="matrix(1,0,0,-1,182.42493,40.155883)" stroke-width=".39848" stroke-linecap="round" stroke-linejoin="round" fill="none" stroke="rgb(0,0,0)" d="M -2.07213 2.39091 C -1.69356 .95633 -.84995 .27893 0 0 C -.84995 -.27893 -1.69356 -.95633 -2.07213 -2.39091 "/>
<path transform="matrix(1,0,0,-1,108.212,54.594987)" stroke-width=".39848" stroke-linecap="butt" stroke-miterlimit="10" stroke-linejoin="miter" fill="none" stroke="rgb(0,0,0)" d="M -31.49359 5.2139 L -31.49359 -43.55678 "/>
<path transform="matrix(0,-1,-1,0,76.71841,49.181856)" stroke-width=".39848" stroke-linecap="round" stroke-linejoin="round" fill="none" stroke="rgb(0,0,0)" d="M -2.07213 2.39091 C -1.69356 .95633 -.84995 .27893 0 0 C -.84995 -.27893 -1.69356 -.95633 -2.07213 -2.39091 "/>
<path transform="matrix(0,1,1,0,76.71841,98.351)" stroke-width=".39848" stroke-linecap="round" stroke-linejoin="round" fill="none" stroke="rgb(0,0,0)" d="M -2.07213 2.39091 C -1.69356 .95633 -.84995 .27893 0 0 C -.84995 -.27893 -1.69356 -.95633 -2.07213 -2.39091 "/>
<path transform="matrix(1,0,0,-1,108.212,54.594987)" stroke-width=".39848" stroke-linecap="butt" stroke-miterlimit="10" stroke-linejoin="miter" fill="none" stroke="rgb(0,0,0)" d="M 94.12827 5.2139 L 94.12827 -43.55678 "/>
<path transform="matrix(0,-1,-1,0,202.34027,49.181856)" stroke-width=".39848" stroke-linecap="round" stroke-linejoin="round" fill="none" stroke="rgb(0,0,0)" d="M -2.07213 2.39091 C -1.69356 .95633 -.84995 .27893 0 0 C -.84995 -.27893 -1.69356 -.95633 -2.07213 -2.39091 "/>
<path transform="matrix(0,1,1,0,202.34027,98.351)" stroke-width=".39848" stroke-linecap="round" stroke-linejoin="round" fill="none" stroke="rgb(0,0,0)" d="M -2.07213 2.39091 C -1.69356 .95633 -.84995 .27893 0 0 C -.84995 -.27893 -1.69356 -.95633 -2.07213 -2.39091 "/>
<path transform="matrix(1,0,0,-1,108.212,54.594987)" stroke-width=".39848" stroke-linecap="butt" stroke-miterlimit="10" stroke-linejoin="miter" fill="none" stroke="rgb(0,0,0)" d="M -81.94417 -20.08469 L 18.55849 -20.08469 "/>
<path transform="matrix(1,0,0,-1,126.96974,74.67967)" stroke-width=".39848" stroke-linecap="round" stroke-linejoin="round" fill="none" stroke="rgb(0,0,0)" d="M -2.07213 2.39091 C -1.69356 .95633 -.84995 .27893 0 0 C -.84995 -.27893 -1.69356 -.95633 -2.07213 -2.39091 "/>
<text fill-opacity="0" transform="matrix(1,0,0,1,-25.772004,-18.519013)" font-size="6.9738" font-family="CMMI7" x="122.792" y="98.545">
&#x03b7;
</text>
<symbol id="font_3_1"><path d="M .512 .48600002 C .51900006 .51400004 .52000003 .518 .52000003 .541 C .52000003 .55700007 .52000003 .59900003 .48300005 .628 C .46600003 .64100004 .43700004 .65500002 .39000001 .65500002 C .34800003 .65500002 .286 .64400006 .221 .56500006 C .214 .64000006 .146 .65500002 .114999997 .65500002 C .076000004 .65500002 .052000004 .62900009 .036000002 .602 C .015999999 .568 0 .508 0 .50200005 C 0 .48900003 .014000002 .48900003 .017 .48900003 C .031 .48900003 .032 .49200005 .039 .51900006 C .054 .577 .073 .62700005 .112 .62700005 C .138 .62700005 .145 .605 .145 .57800007 C .145 .559 .136 .5220001 .12900001 .49500003 C .12200001 .46800003 .112 .42700005 .10700001 .40500002 L .075 .277 C .07100001 .26400004 .065 .23900002 .065 .23600002 C .065 .21400002 .083000002 .20400001 .09900001 .20400001 C .117 .20400001 .133 .21700002 .138 .22600001 C .143 .23500002 .15100001 .26700001 .156 .28800002 C .161 .307 .172 .35300005 .178 .37800003 C .184 .40000005 .19000001 .42200003 .19500001 .44500003 C .20600002 .48800003 .20600002 .49000005 .226 .521 C .25800002 .57000008 .30800004 .62700005 .38600005 .62700005 C .44200002 .62700005 .44500003 .58100005 .44500003 .55700007 C .44500003 .53000002 .44300003 .521 .43800002 .50200005 L .32500003 .053000002 C .32100005 .038000002 .32100005 .033000007 .32100005 .032000006 C .32100005 .010000005 .33900002 0 .35500002 0 C .39100004 0 .40000005 .03400001 .40300003 .048000007 L .512 .48600002 Z "/>
</symbol><use xlink:href="#font_3_1" transform="matrix(6.9738,0,0,-6.9738,97.34776,81.51838)"/>
<text fill-opacity="0" transform="matrix(1,0,0,1,-25.772004,-18.519013)" font-size="4.9813" font-family="CMMI5" x="126.897" y="99.547">
U
</text>
<symbol id="font_4_1"><path d="M .68 .591 C .68700004 .619 .697 .65700007 .78800006 .66 C .79600006 .66 .814 .6610001 .814 .688 C .814 .69200001 .81100007 .70500002 .79700003 .70500002 C .77900005 .70500002 .758 .702 .74 .702 C .72200008 .702 .703 .70100003 .684 .70100003 C .66400004 .70100003 .64500003 .702 .625 .702 C .60700007 .702 .586 .70500002 .569 .70500002 C .56200004 .70500002 .545 .70500002 .545 .67700005 C .545 .66 .56 .66 .57000008 .66 C .63600006 .65900002 .64000006 .6380001 .64000006 .62100006 C .64000006 .61600008 .63900004 .61200004 .638 .60700007 L .54800005 .246 C .518 .14000001 .40000005 .045 .26000002 .045 C .20200002 .045 .10000001 .065000005 .10000001 .18200001 C .10000001 .20400001 .103 .22500001 .10800001 .246 L .20200002 .62000008 C .21000001 .65200009 .21200001 .66 .28800002 .66 C .314 .66 .316 .66 .32000003 .66300006 C .326 .669 .32900003 .68100005 .32900003 .688 C .32900003 .69000006 .328 .70500002 .31100002 .70500002 C .29000001 .70500002 .266 .702 .24400002 .702 C .22 .702 .19500003 .70100003 .171 .70100003 C .146 .70100003 .12200001 .702 .097 .702 C .074 .702 .048999996 .70500002 .026999996 .70500002 C .019999996 .70500002 .002000004 .70500002 .002000004 .67700005 C .002000004 .66 .013999999 .66 .039000006 .66 C .048999996 .66 .082 .66 .103 .65400005 C .103 .64100004 .103 .63900004 .102 .63400007 C .09900001 .623 .072 .51600004 .066 .49400006 C .046000004 .41100005 .024000004 .33000005 .004999995 .24700001 C .002000004 .23500002 0 .21700001 0 .20500002 C 0 .092 .10100001 0 .25500002 0 C .41000004 0 .559 .109000003 .59400006 .24800001 L .68 .591 Z "/>
</symbol><use xlink:href="#font_4_1" transform="matrix(4.9813,0,0,-4.9813,101.837329,81.13757)"/>
<path transform="matrix(1,0,0,-1,108.212,54.594987)" stroke-width=".39848" stroke-linecap="butt" stroke-miterlimit="10" stroke-linejoin="miter" fill="none" stroke="rgb(0,0,0)" d="M -81.94417 -26.37068 L -44.24521 -45.61157 "/>
<path transform="matrix(.89067,.45459,.45459,-.89067,64.14424,100.29712)" stroke-width=".39848" stroke-linecap="round" stroke-linejoin="round" fill="none" stroke="rgb(0,0,0)" d="M -2.07213 2.39091 C -1.69356 .95633 -.84995 .27893 0 0 C -.84995 -.27893 -1.69356 -.95633 -2.07213 -2.39091 "/>
<text fill-opacity="0" transform="matrix(1,0,0,1,-90.1,-.7590103)" font-size="6.9738" font-family="CMMI7" x="122.792 128.915" y="98.545 98.545">
F&#x03c1;
</text>
<symbol id="font_3_3"><path d="M .273 .32200003 L .38000002 .32200003 C .45600004 .32200003 .46900005 .31 .46900005 .277 C .46900005 .26200003 .46900005 .26000002 .462 .23200001 C .46000004 .22600001 .459 .223 .459 .22000001 C .459 .21000001 .46600003 .20500002 .476 .20500002 C .48900003 .20500002 .49 .21000001 .495 .22800002 L .549 .44000002 C .55 .44300003 .55300003 .45800004 .55300003 .46 C .55300003 .47000003 .546 .47500001 .536 .47500001 C .522 .47500001 .521 .469 .51600004 .45100003 C .496 .37300003 .467 .358 .38200002 .358 L .282 .358 L .34500003 .609 C .35300002 .64000006 .354 .643 .39600003 .643 L .549 .643 C .68200007 .643 .707 .611 .707 .528 C .707 .49500003 .703 .47400003 .703 .46600003 C .703 .45800004 .70600005 .44900003 .72 .44900003 C .735 .44900003 .73600007 .45800004 .73800002 .47500001 L .75600005 .64900007 C .75900007 .679 .75200005 .679 .72700005 .679 L .19300002 .679 C .17400001 .679 .161 .679 .161 .657 C .161 .643 .17300001 .643 .19300002 .643 C .194 .643 .213 .643 .231 .64100004 C .252 .63900004 .254 .637 .254 .62700005 C .254 .62 .25100003 .61 .25 .605 L .119 .082 C .109 .043 .107999999 .036000002 .030000001 .036000002 C .012999997 .036000002 0 .036000002 0 .015000001 C 0 .0050000005 .0069999991 0 .015999996 0 C .045 0 .119 .004 .148 .004 L .225 .003 C .25100003 .003 .279 0 .30400003 0 C .31100002 0 .326 0 .326 .022000002 C .326 .036000002 .314 .036000002 .291 .036000002 C .289 .036000002 .264 .036000002 .23900002 .038000002 C .218 .040000004 .208 .041 .208 .055000005 C .208 .059000005 .208 .062000003 .211 .07300001 L .273 .32200003 Z "/>
</symbol><symbol id="font_3_2"><path d="M .0040000005 .053000002 C 0 .038000002 0 .033000007 0 .032000006 C 0 .010000005 .018000003 0 .034000006 0 C .07000001 0 .07800001 .030000001 .08500001 .062000008 C .09900001 .114000012 .127 .22800002 .13700001 .26600004 C .14600002 .25100003 .17800002 .20400001 .24700003 .20400001 C .375 .20400001 .51100006 .34000004 .51100006 .48600002 C .51100006 .592 .44 .65500002 .352 .65500002 C .254 .65500002 .13300002 .569 .098000002 .42800003 L .0040000005 .053000002 M .246 .23200002 C .17200002 .23200002 .15 .30600002 .15 .319 C .15 .32100005 .15600002 .34300003 .15900001 .35500002 C .18900001 .47800002 .19500001 .50100003 .22400002 .5450001 C .26 .59800005 .31 .62700005 .35 .62700005 C .391 .62700005 .43 .59800005 .43 .526 C .43 .48000002 .404 .36900001 .373 .319 C .327 .24800003 .277 .23200002 .246 .23200002 Z "/>
</symbol><use xlink:href="#font_3_3" transform="matrix(6.9738,0,0,-6.9738,33.173196,97.78599)"/>
<use xlink:href="#font_3_2" transform="matrix(6.9738,0,0,-6.9738,39.163685,99.27838)"/>
<path transform="matrix(1,0,0,-1,108.212,54.594987)" stroke-width=".39848" stroke-linecap="butt" stroke-miterlimit="10" stroke-linejoin="miter" fill="none" stroke="rgb(0,0,0)" d="M 43.65627 -26.3803 L 81.35516 -45.60681 "/>
<path transform="matrix(.89082,.45432,.45432,-.89082,189.74463,100.29231)" stroke-width=".39848" stroke-linecap="round" stroke-linejoin="round" fill="none" stroke="rgb(0,0,0)" d="M -2.07213 2.39091 C -1.69356 .95633 -.84995 .27893 0 0 C -.84995 -.27893 -1.69356 -.95633 -2.07213 -2.39091 "/>
<text fill-opacity="0" transform="matrix(1,0,0,1,50.447,-11.566013)" font-size="6.9738" font-family="CMMI7" x="122.792 128.99172" y="98.545 98.545">
G&#x03c1;
</text>
<symbol id="font_3_4"><path d="M .77300005 .71000004 C .77300005 .71500006 .77000003 .723 .76000004 .723 C .753 .723 .75100003 .721 .74200006 .711 L .669 .634 C .66 .646 .60400005 .723 .481 .723 C .23800004 .723 0 .508 0 .28200004 C 0 .127 .11800001 0 .31000004 0 C .39800004 0 .49100007 .023000002 .54300004 .079 C .55300003 .057000003 .58000002 .021000002 .59200006 .021000002 C .601 .021000002 .60300007 .025000003 .60800005 .046000004 L .62700005 .12300001 C .632 .141 .646 .201 .64900007 .213 C .661 .25800002 .66200008 .259 .721 .26000002 C .72800007 .26000002 .74300004 .26000002 .74300004 .28100003 C .74300004 .29100004 .73600007 .29600003 .72800007 .29600003 C .69500008 .29600003 .65300007 .29200003 .61800004 .29200003 C .59300004 .29200003 .56000004 .29200003 .535 .293 C .51000004 .29400004 .481 .29600003 .45600004 .29600003 C .44900007 .29600003 .43400002 .29600003 .43400002 .27400003 C .43400002 .26000002 .44500006 .26000002 .47000003 .26000002 C .48900003 .26000002 .50900007 .26000002 .52800007 .25800002 C .56000004 .25500002 .56100007 .25100003 .56100007 .23900001 C .56100007 .235 .56100007 .23300001 .554 .207 C .54700003 .179 .536 .134 .53200007 .124000009 C .503 .063 .41000004 .036000002 .33200002 .036000002 C .23200002 .036000002 .101 .08400001 .101 .25300003 C .101 .36 .15100003 .49400006 .22500003 .569 C .32800005 .671 .435 .68700004 .49100007 .68700004 C .60700007 .68700004 .6750001 .603 .6750001 .49100004 C .6750001 .46300002 .67200003 .45600004 .67200003 .45000001 C .67200003 .43700004 .68500004 .43700004 .69000006 .43700004 C .70600005 .43700004 .70600005 .44000002 .711 .45900002 L .77300005 .71000004 Z "/>
</symbol><use xlink:href="#font_3_4" transform="matrix(6.9738,0,0,-6.9738,173.72716,87.11846)"/>
<use xlink:href="#font_3_2" transform="matrix(6.9738,0,0,-6.9738,179.78741,88.47138)"/>
<path transform="matrix(1,0,0,-1,108.212,54.594987)" stroke-width=".39848" stroke-linecap="butt" stroke-miterlimit="10" stroke-linejoin="miter" fill="none" stroke="rgb(0,0,0)" d="M -19.09688 -52.11778 L 81.31165 -52.11778 "/>
<path transform="matrix(1,0,0,-1,189.7229,106.71277)" stroke-width=".39848" stroke-linecap="round" stroke-linejoin="round" fill="none" stroke="rgb(0,0,0)" d="M -2.07213 2.39091 C -1.69356 .95633 -.84995 .27893 0 0 C -.84995 -.27893 -1.69356 -.95633 -2.07213 -2.39091 "/>
<text fill-opacity="0" transform="matrix(1,0,0,1,11.670998,13.5139889)" font-size="6.9738" font-family="CMMI7" x="122.792" y="98.545">
&#x03b7;
</text>
<use xlink:href="#font_3_1" transform="matrix(6.9738,0,0,-6.9738,134.79077,113.551381)"/>
<text fill-opacity="0" transform="matrix(1,0,0,1,11.670998,13.5139889)" font-size="4.9813" font-family="CMMI5" x="126.897" y="99.547">
V
</text>
<symbol id="font_4_2"><path d="M .713 .58100005 C .72 .59000006 .72 .59200006 .73300005 .60600005 C .75100003 .62600003 .78000002 .656 .845000066 .66 C .856 .6610001 .871999941 .6610001 .871999941 .688 C .871999941 .69400006 .86800004 .70500002 .856 .70500002 C .842 .70500002 .82600003 .702 .81100007 .702 C .796 .702 .78000002 .70100003 .76500006 .70100003 C .746 .70100003 .72800007 .702 .71000004 .702 C .69200001 .702 .671 .70500002 .653 .70500002 C .637 .70500002 .629 .69400006 .629 .67700005 C .629 .6610001 .64500003 .66 .652 .66 C .667 .65900002 .693 .65500002 .693 .63500004 C .693 .628 .689 .61600008 .675 .59700008 L .324 .115 L .20800002 .62500005 C .20600002 .63500004 .20600002 .637 .20600002 .64000006 C .20600002 .65400005 .23800002 .66 .273 .66 C .286 .66 .30300003 .66 .30300003 .688 C .30300003 .69600006 .297 .70500002 .28500004 .70500002 C .264 .70500002 .24000003 .702 .21800001 .702 C .19400002 .702 .17100002 .70100003 .147 .70100003 C .126 .70100003 .104 .702 .083000002 .702 C .063999997 .702 .041999997 .70500002 .024000004 .70500002 C .017000005 .70500002 0 .70500002 0 .67700005 C 0 .66 .013999999 .66 .032000006 .66 C .091000004 .66 .09200001 .65300007 .097 .632 L .23400001 .029000003 C .23900001 .008000001 .24100001 0 .26600004 0 C .278 0 .291 0 .30800004 .023000002 L .713 .58100005 Z "/>
</symbol><use xlink:href="#font_4_2" transform="matrix(4.9813,0,0,-4.9813,139.2056,113.17058)"/>
</g>
</svg>
