<?xml version="1.0" standalone="no"?>
<!DOCTYPE svg PUBLIC "-//W3C//DTD SVG 1.1//EN" "http://www.w3.org/Graphics/SVG/1.1/DTD/svg11.dtd">
<svg xmlns="http://www.w3.org/2000/svg" xmlns:xlink="http://www.w3.org/1999/xlink" version="1.1" width="5.00507cm" height="1.62941cm" viewBox="0 0 141.876 46.188">
<clipPath id="cp0">
<path transform="matrix(1,0,0,-1,-85.734,725.94)" d="M 0 0 L 595.28 0 L 595.28 841.889963 L 0 841.889963 Z "/>
</clipPath>
<g clip-path="url(#cp0)">
<text fill-opacity="0" transform="matrix(1,0,0,1,-127.93001,-23.340012)" font-size="9.9626" font-family="CMR10" x="127.633 136.7687 141.75" y="30.799 30.799 30.799">
Mor
</text>
<symbol id="font_1_3"><path d="M .20400001 .661 C .19500001 .683 .19200002 .683 .16900002 .683 L 0 .683 L 0 .652 L .024000004 .652 C .10100001 .652 .103 .64100004 .103 .605 L .103 .105000007 C .103 .078 .103 .031000002 0 .031000002 L 0 0 C .035000005 .001 .08400001 .003 .11700001 .003 C .15 .003 .19900002 .001 .23400003 0 L .23400003 .031000002 C .13100001 .031000002 .13100001 .078 .13100001 .105000007 L .13100001 .64400006 L .13200002 .64400006 L .37300003 .022000002 C .37800003 .009000001 .38300002 0 .393 0 C .404 0 .40700003 .008 .411 .019000001 L .657 .652 L .65800005 .652 L .65800005 .078 C .65800005 .042000003 .656 .031000002 .57900005 .031000002 L .555 .031000002 L .555 0 C .592 .003 .66 .003 .69900008 .003 C .73800002 .003 .805000104 .003 .84200009 0 L .84200009 .031000002 L .818 .031000002 C .74100008 .031000002 .739 .042000003 .739 .078 L .739 .605 C .739 .64100004 .74100008 .652 .818 .652 L .84200009 .652 L .84200009 .683 L .67300005 .683 C .647 .683 .647 .68200007 .64000006 .66400004 L .42100004 .101 L .20400001 .661 Z "/>
</symbol><symbol id="font_1_6"><path d="M .44300003 .22500003 C .44300003 .35300002 .34300003 .45900002 .222 .45900002 C .097 .45900002 0 .35000003 0 .22500003 C 0 .096 .104 0 .22100001 0 C .342 0 .44300003 .098000002 .44300003 .22500003 M .222 .025000003 C .17900002 .025000003 .135 .046 .10800001 .092 C .083000002 .136 .083000002 .19700001 .083000002 .23300002 C .083000002 .272 .083000002 .32600003 .10700001 .37000003 C .134 .41600004 .18100001 .43700004 .22100001 .43700004 C .26500001 .43700004 .30800004 .41500001 .33400002 .37200003 C .36 .32900003 .36 .27100003 .36 .23300002 C .36 .19700001 .36 .143 .33800004 .09900001 C .316 .054 .272 .025000003 .222 .025000003 Z "/>
</symbol><symbol id="font_1_7"><path d="M .13900002 .33200002 L .13900002 .44200002 L 0 .43100003 L 0 .4 C .07000001 .4 .07800001 .393 .07800001 .344 L .07800001 .076000004 C .07800001 .031000002 .067 .031000002 0 .031000002 L 0 0 C .039 .001 .08600001 .003 .11400001 .003 C .15400002 .003 .20100002 .003 .24100003 0 L .24100003 .031000002 L .22000001 .031000002 C .14600002 .031000002 .14400001 .042000003 .14400001 .078 L .14400001 .23200001 C .14400001 .33100004 .18600002 .42000003 .26200003 .42000003 C .26900003 .42000003 .27100003 .42000003 .27300003 .41900004 C .27 .418 .25000003 .40600003 .25000003 .38000002 C .25000003 .35200003 .27100003 .337 .293 .337 C .31100002 .337 .33600002 .349 .33600002 .381 C .33600002 .41300002 .305 .44200002 .26200003 .44200002 C .18900001 .44200002 .15300001 .37500003 .13900002 .33200002 Z "/>
</symbol><use xlink:href="#font_1_3" transform="matrix(9.9626,0,0,-9.9626,.071611496,7.458988)"/>
<use xlink:href="#font_1_6" transform="matrix(9.9626,0,0,-9.9626,9.117652,7.568577)"/>
<use xlink:href="#font_1_7" transform="matrix(9.9626,0,0,-9.9626,14.098945,7.458988)"/>
<text fill-opacity="0" transform="matrix(1,0,0,1,-127.93001,-23.340012)" font-size="6.9738" font-family="CMR7" x="145.64801 151.00389 154.16303 158.56349" y="32.598 32.598 32.598 32.598">
Psh(
</text>
<symbol id="font_2_3"><path d="M .19800002 .31 L .38000002 .31 C .525 .31 .639 .39400003 .639 .49500003 C .639 .59400006 .527 .683 .38000002 .683 L 0 .683 L 0 .647 L .024 .647 C .10100001 .647 .103000018 .637 .103000018 .60200005 L .103000018 .081 C .103000018 .047000003 .10100001 .036000002 .024 .036000002 L 0 .036000002 L 0 0 C .05 .002 .11400001 .004 .15 .004 C .187 .004 .25100003 .002 .30100003 0 L .30100003 .036000002 L .277 .036000002 C .20000002 .036000002 .19800002 .046000004 .19800002 .081 L .19800002 .31 M .35500002 .647 C .522 .647 .532 .55300003 .532 .49500003 C .532 .45100003 .532 .342 .35500002 .342 L .194 .342 L .194 .60800005 C .194 .63900004 .19500003 .647 .24200001 .647 L .35500002 .647 Z "/>
</symbol><symbol id="font_2_5"><path d="M .334 .43 C .334 .447 .334 .456 .32 .456 C .315 .456 .31300002 .456 .3 .444 C .29800005 .44300003 .288 .43400002 .282 .42900001 C .25200004 .45000001 .214 .456 .17700002 .456 C .034 .456 0 .381 0 .331 C 0 .299 .014000002 .273 .038000002 .25300003 C .076000004 .22000001 .11400001 .21300002 .17600002 .20300001 C .22600003 .19400002 .30700005 .18 .30700005 .113000009 C .30700005 .074 .28000002 .028 .18400002 .028 C .088 .028 .053000002 .091 .035000005 .15900001 C .032000006 .172 .031000004 .17600002 .017 .17600002 C 0 .17600002 0 .16900002 0 .14900002 L 0 .026 C 0 .009000001 0 0 .014000002 0 C .023000002 0 .042000003 .021000002 .062000008 .043 C .106000009 .0020000003 .16000001 0 .18400002 0 C .314 0 .362 .07 .362 .14100002 C .362 .17900002 .34500003 .20900002 .319 .23300001 C .28100003 .268 .235 .276 .2 .282 C .120000004 .296 .055 .308 .055 .361 C .055 .393 .082 .432 .17700002 .432 C .29300004 .432 .29800005 .351 .3 .322 C .301 .31100002 .31300002 .31100002 .31700004 .31100002 C .334 .31100002 .334 .31800003 .334 .337 L .334 .43 Z "/>
</symbol><symbol id="font_2_4"><path d="M .46100006 .303 C .46100006 .39000001 .41800004 .441 .31100002 .441 C .22200002 .441 .17300001 .388 .15100001 .35000003 L .15 .35000003 L .15 .694 L 0 .683 L 0 .647 C .067 .647 .075 .64000006 .075 .591 L .075 .079 C .075 .036000002 .065 .036000002 0 .036000002 L 0 0 C .0020000003 0 .072 .004 .11400001 .004 C .15100001 .004 .22000001 .001 .22900002 0 L .22900002 .036000002 C .164 .036000002 .154 .036000002 .154 .079 L .154 .259 C .154 .36400003 .237 .41300002 .30300003 .41300002 C .37300003 .41300002 .38200002 .358 .38200002 .307 L .38200002 .079 C .38200002 .036000002 .37200003 .036000002 .30700005 .036000002 L .30700005 0 C .30900002 0 .37900005 .004 .42100004 .004 C .45800004 .004 .527 .001 .536 0 L .536 .036000002 C .47100006 .036000002 .46100006 .036000002 .46100006 .079 L .46100006 .303 Z "/>
</symbol><symbol id="font_2_1"><path d="M .24000001 .9990001 C .050000005 .86500006 0 .653 0 .5 C 0 .35900002 .042000003 .14000001 .24000001 0 C .248 0 .26000002 0 .26000002 .0119999949 C .26000002 .018000007 .257 .019999996 .25 .026999996 C .117000009 .14700002 .06800001 .31700004 .06800001 .499 C .06800001 .76900006 .171 .901 .25300003 .975 C .257 .97900001 .26000002 .98200007 .26000002 .98700007 C .26000002 .9990001 .248 .9990001 .24000001 .9990001 Z "/>
</symbol><use xlink:href="#font_2_3" transform="matrix(6.9738,0,0,-6.9738,18.122483,9.257988)"/>
<use xlink:href="#font_2_5" transform="matrix(6.9738,0,0,-6.9738,23.387705,9.327726)"/>
<use xlink:href="#font_2_4" transform="matrix(6.9738,0,0,-6.9738,26.609602,9.257988)"/>
<use xlink:href="#font_2_1" transform="matrix(6.9738,0,0,-6.9738,31.43547,10.994464)"/>
<text fill-opacity="0" transform="matrix(1,0,0,1,-127.93001,-23.340012)" font-size="6.9738" font-family="rsfs7" x="161.673" y="32.598">
C
</text>
<symbol id="font_3_1"><path d="M .39200001 .20400001 C .40800003 .22600001 .42900001 .24900002 .45499998 .266 C .477 .281 .501 .29 .518 .29 C .55700007 .29 .577 .274 .58100005 .25 C .582 .24700001 .582 .24300001 .582 .24000001 C .582 .21300002 .565 .17600002 .537 .136 C .517 .10800001 .49 .079 .45700002 .059 C .423 .038000002 .388 .028 .36200002 .028 C .292 .028 .259 .065 .259 .120000004 C .259 .19300002 .313 .287 .381 .382 C .448 .39000001 .52000003 .40600003 .595 .433 C .67800003 .462 .773 .507 .822 .577 C .84400006 .60800005 .85700007 .639 .85700007 .667 C .85700007 .674 .856 .681 .85400001 .688 C .84400006 .721 .812000073 .73800002 .772 .73800002 C .699 .73800002 .606 .69 .527 .633 C .433 .564 .356 .484 .29500003 .402 L .25800002 .402 C .17800002 .402 .112 .416 .076000004 .454 C .06400001 .467 .057000008 .483 .057000008 .503 C .057000008 .524 .065 .549 .08500001 .577 C .10400002 .60400005 .13400002 .63 .16800001 .647 C .21000002 .667 .25 .675 .284 .675 C .28800002 .675 .291 .67700005 .294 .68 C .297 .683 .299 .68700004 .299 .69100004 C .299 .697 .294 .703 .287 .703 C .24200003 .703 .19200002 .694 .13800001 .671 C .098000002 .653 .054 .62600003 .029000003 .591 C .009000003 .56200004 0 .536 0 .512 C 0 .481 .015000004 .455 .036000002 .435 C .08600001 .389 .16700001 .374 .255 .374 L .275 .374 C .22100003 .29500003 .18900001 .21700001 .18900001 .15100001 C .18900001 .139 .19000001 .127 .19200002 .11600001 C .20600002 .043 .266 0 .359 0 C .397 0 .442 .012 .48800003 .036 C .52900005 .057 .568 .088 .592 .12200001 C .61800004 .15900001 .632 .19600001 .632 .22800002 C .632 .23900001 .63 .24900002 .62700005 .25800002 C .61300002 .298 .572 .318 .521 .318 C .495 .318 .464 .306 .43600002 .288 C .40600003 .269 .379 .24400002 .361 .21800001 C .344 .194 .335 .16800001 .335 .147 C .335 .12300001 .34600001 .104 .372 .095 C .373 .094 .375 .094 .37600003 .094 C .377 .094 .37800003 .094 .38 .095 L .38500002 .097 C .39000001 .09900001 .393 .104 .393 .109 L .39200001 .112 C .391 .11500001 .389 .117 .386 .118 C .37600003 .12300001 .36900001 .134 .36900001 .148 C .36900001 .16300002 .37600003 .18200001 .39200001 .20400001 M .822 .679 C .823 .676 .823 .672 .823 .66800004 C .823 .648 .812000073 .621 .791 .591 C .748 .529 .662 .486 .582 .45700002 C .519 .435 .46000004 .421 .403 .412 C .453 .481 .509 .55 .582 .611 C .64500003 .665 .717 .71000004 .76900006 .71000004 C .801 .71000004 .818 .698 .822 .679 Z "/>
</symbol><use xlink:href="#font_3_1" transform="matrix(6.9738,0,0,-6.9738,34.091688,9.425359)"/>
<text fill-opacity="0" transform="matrix(1,0,0,1,-127.93001,-23.340012)" font-size="6.9738" font-family="CMR7" x="168.268" y="32.598">
)
</text>
<symbol id="font_2_2"><path d="M .019000001 .9990001 C .012000002 .9990001 0 .9990001 0 .98700007 C 0 .98200007 .0029999986 .97900001 .009000003 .97200004 C .095000009 .89300004 .19100001 .758 .19100001 .5 C .19100001 .291 .12600002 .13300002 .018 .034999996 C .001000002 .018000007 0 .017000005 0 .0119999949 C 0 .0069999991 .0029999986 0 .013000004 0 C .024999998 0 .12000001 .066 .18599999 .19100001 C .23000002 .27400003 .259 .38200002 .259 .499 C .259 .64000006 .21700001 .859 .019000001 .9990001 Z "/>
</symbol><use xlink:href="#font_2_2" transform="matrix(6.9738,0,0,-6.9738,40.833139,10.994464)"/>
<text fill-opacity="0" transform="matrix(1,0,0,1,-127.93001,-23.340012)" font-size="9.9626" font-family="CMR10" x="171.88" y="30.799">
(
</text>
<symbol id="font_1_1"><path d="M .23200002 .00999999 C .23200002 .012999982 .23200002 .014999986 .215 .03199999 C .09 .15799999 .058 .347 .058 .5 C .058 .674 .096 .84800005 .21900001 .97300005 C .23200002 .985 .23200002 .98700007 .23200002 .989999971 C .23200002 .99700003 .22800002 1 .222 1 C .21200001 1 .12200001 .93200007 .06299999 .805 C .012000002 .69500008 0 .584 0 .5 C 0 .422 .011 .301 .066 .188 C .126 .065 .21200001 0 .222 0 C .22800002 0 .23200002 .0029999912 .23200002 .00999999 Z "/>
</symbol><use xlink:href="#font_1_1" transform="matrix(9.9626,0,0,-9.9626,44.936295,9.949638)"/>
<text fill-opacity="0" transform="matrix(1,0,0,1,-127.93001,-23.340012)" font-size="9.9626" font-family="CMMI10" x="175.754" y="30.799">
h
</text>
<symbol id="font_4_4"><path d="M .232 .694 C .232 .695 .232 .705 .21900001 .705 C .19600001 .705 .122999999 .697 .097 .695 C .089 .694 .077999993 .693 .077999993 .675 C .077999993 .663 .087 .663 .102 .663 C .15 .663 .15200001 .656 .15200001 .646 L .149 .626 L .0040000005 .05 C 0 .036000002 0 .034 0 .028 C 0 .005000001 .02 0 .029000003 0 C .044999999 0 .061 .012000001 .066 .026 L .08499999 .102000009 L .10699999 .19200002 C .113000009 .21400002 .119 .23600002 .124 .259 C .126 .26500001 .134 .298 .135 .30400003 C .138 .31300002 .169 .36900001 .20300001 .39600003 C .225 .41200004 .256 .43100003 .299 .43100003 C .342 .43100003 .35300002 .397 .35300002 .36100004 C .35300002 .307 .315 .19800002 .291 .13700001 C .28300002 .11400001 .278 .102000009 .278 .082 C .278 .035 .31300002 0 .36 0 C .454 0 .491 .14600002 .491 .15400002 C .491 .16400002 .482 .16400002 .47900004 .16400002 C .46900005 .16400002 .46900005 .16100002 .46400004 .14600002 C .449 .093 .41700002 .022000002 .36200002 .022000002 C .345 .022000002 .338 .032 .338 .055000005 C .338 .080000009 .347 .104 .356 .126 C .372 .16900002 .41700002 .28800002 .41700002 .34600001 C .41700002 .411 .377 .45300003 .30200003 .45300003 C .239 .45300003 .191 .42200003 .154 .37600003 L .232 .694 Z "/>
</symbol><use xlink:href="#font_4_4" transform="matrix(9.9626,0,0,-9.9626,48.371934,7.568577)"/>
<text fill-opacity="0" transform="matrix(1,0,0,1,-127.93001,-23.340012)" font-size="6.9738" font-family="CMMI7" x="181.494" y="32.294">
U
</text>
<symbol id="font_5_1"><path d="M .615 .594 C .625 .633 .64100004 .665 .721 .667 C .726 .667 .74100008 .668 .74100008 .689 C .74100008 .695 .73600007 .703 .726 .703 C .694 .703 .656 .699 .623 .699 C .59000006 .699 .54800005 .703 .518 .703 C .513 .703 .49800004 .703 .49800004 .681 C .49800004 .668 .51100006 .667 .52000003 .667 C .56700001 .666 .58400007 .651 .58400007 .626 C .58400007 .621 .583 .616 .582 .612 C .56700001 .547 .49400001 .246 .481 .215 C .425 .087000008 .308 .036000002 .22600001 .036000002 C .15900001 .036000002 .088 .07 .088 .169 C .088 .193 .091000004 .21700001 .097 .24000001 L .194 .625 C .20300001 .65900002 .20500002 .667 .282 .667 C .29900003 .667 .312 .667 .312 .689 C .312 .693 .30900002 .703 .296 .703 C .26700001 .703 .194 .699 .16499999 .699 C .148 .699 .113000009 .699 .096 .7 C .076000004 .70100003 .052 .703 .032999993 .703 C .026999996 .703 .0119999949 .703 .0119999949 .681 C .0119999949 .667 .023999997 .667 .044 .667 C .045 .667 .063999997 .667 .082 .665 C .103 .663 .105000007 .661 .105000007 .651 C .105000007 .645 .095 .606 .089 .584 L .067 .49600001 L .009999998 .26700001 C 0 .22600001 0 .21800001 0 .198 C 0 .074 .102 0 .222 0 C .36 0 .49400001 .11200001 .527 .243 L .615 .594 Z "/>
</symbol><use xlink:href="#font_5_1" transform="matrix(6.9738,0,0,-6.9738,54.205585,9.093463)"/>
<text fill-opacity="0" transform="matrix(1,0,0,1,-127.93001,-23.340012)" font-size="9.9626" font-family="CMMI10" x="188.167 192.59041" y="30.798998 30.798998">
,F
</text>
<symbol id="font_4_1"><path d="M .117000009 .194 C .117000009 .26 .092 .29900003 .05300001 .29900003 C .020000003 .29900003 0 .274 0 .246 C 0 .21900001 .020000003 .193 .05300001 .193 C .065000005 .193 .078 .197 .08800001 .206 C .091 .208 .092 .209 .093 .209 C .094000006 .209 .095000009 .208 .095000009 .194 C .095000009 .12 .06000001 .060000001 .027000003 .026999996 C .016000003 .016000003 .016000003 .013999999 .016000003 .0109999929 C .016000003 .003999993 .021000006 0 .026 0 C .037 0 .117000009 .077 .117000009 .194 Z "/>
</symbol><symbol id="font_4_2"><path d="M .265 .32500003 L .362 .32500003 C .43700004 .32500003 .445 .30900002 .445 .28 C .445 .273 .445 .261 .43800002 .231 C .43600006 .22600001 .435 .22200002 .435 .22000001 C .435 .21200001 .44100004 .208 .44700003 .208 C .45700002 .208 .45700002 .21100001 .462 .22900002 L .517 .446 C .52000003 .45700002 .52000003 .45900002 .52000003 .462 C .52000003 .46400003 .51800008 .47300001 .508 .47300001 C .49800004 .47300001 .49700003 .46800003 .49300004 .45200003 C .47200007 .374 .449 .356 .36400003 .356 L .273 .356 L .337 .61 C .34600001 .64500003 .347 .64900007 .39100004 .64900007 L .52300005 .64900007 C .646 .64900007 .669 .61600008 .669 .53900004 C .669 .51600004 .669 .512 .66600009 .485 C .66400004 .47200003 .66400004 .47000003 .66400004 .467 C .66400004 .462 .66700006 .455 .67600008 .455 C .68700004 .455 .688 .46100002 .69000006 .48000002 L .71000004 .65300007 C .71300006 .68 .70800009 .68 .683 .68 L .193 .68 C .17300001 .68 .163 .68 .163 .66 C .163 .64900007 .172 .64900007 .19100001 .64900007 C .228 .64900007 .25599999 .64900007 .25599999 .63100005 C .25599999 .62700005 .25599999 .625 .251 .60700007 L .119 .078 C .109 .039 .10700001 .031000002 .027999998 .031000002 C .011 .031000002 0 .031000002 0 .012 C 0 0 .011999998 0 .015000001 0 C .044 0 .118 .003 .147 .003 C .18 .003 .263 0 .296 0 C .305 0 .31700004 0 .31700004 .019000001 C .31700004 .027 .311 .029000001 .311 .030000001 C .30800004 .031000002 .306 .031000002 .283 .031000002 C .26100004 .031000002 .25599999 .031000002 .23100002 .033 C .202 .036000002 .19900002 .040000004 .19900002 .053000002 C .19900002 .055000005 .19900002 .061000004 .20300001 .076000004 L .265 .32500003 Z "/>
</symbol><use xlink:href="#font_4_1" transform="matrix(9.9626,0,0,-9.9626,61.093784,9.381768)"/>
<use xlink:href="#font_4_2" transform="matrix(9.9626,0,0,-9.9626,65.03898,7.4589863)"/>
<text fill-opacity="0" transform="matrix(1,0,0,1,-127.93001,-23.340012)" font-size="9.9626" font-family="CMR10" x="200.38501" y="30.798998">
)
</text>
<symbol id="font_1_2"><path d="M .232 .5 C .232 .578 .22100001 .699 .16600001 .812000073 C .106 .93500004 .020000003 1 .009999998 1 C .0040000005 1 0 .99600008 0 .989999971 C 0 .98700007 0 .985 .019000001 .967 C .117000009 .86800004 .174 .709 .174 .5 C .174 .329 .137 .153 .012999997 .026999996 C 0 .014999986 0 .012999982 0 .00999999 C 0 .003999993 .0040000005 0 .009999998 0 C .020000003 0 .11000001 .06799999 .169 .195 C .22 .305 .232 .416 .232 .5 Z "/>
</symbol><use xlink:href="#font_1_2" transform="matrix(9.9626,0,0,-9.9626,73.02287,9.949636)"/>
<text fill-opacity="0" transform="matrix(1,0,0,1,-97.455,-23.340012)" font-size="9.9626" font-family="CMMI10" x="215.469 223.24977" y="30.799 30.799">
FU
</text>
<symbol id="font_4_3"><path d="M .5680001 .6 C .57800007 .64100004 .5960001 .67100006 .676 .674 C .681 .674 .6930001 .6750001 .6930001 .69400006 C .6930001 .69500008 .6930001 .70500002 .68000007 .70500002 C .6470001 .70500002 .612 .702 .57800007 .702 C .544 .702 .50699999 .70500002 .474 .70500002 C .46800003 .70500002 .456 .70500002 .456 .68500004 C .456 .674 .46600004 .674 .474 .674 C .531 .67300005 .54200006 .65200009 .54200006 .63000007 C .54200006 .62700005 .5400001 .61200004 .53900004 .609 L .44900003 .252 C .41500001 .118 .3 .031000004 .20000002 .031000004 C .13200002 .031000004 .07800001 .075 .07800001 .16100002 C .07800001 .163 .07800001 .19500001 .089 .23900001 L .18600002 .628 C .19500003 .66400004 .197 .674 .27 .674 C .296 .674 .30400003 .674 .30400003 .69400006 C .30400003 .70500002 .293 .70500002 .29000001 .70500002 C .26200003 .70500002 .19 .702 .16200002 .702 C .133 .702 .062000008 .70500002 .033 .70500002 C .025000006 .70500002 .013999999 .70500002 .013999999 .68500004 C .013999999 .674 .023000002 .674 .042000003 .674 C .044000006 .674 .06300001 .674 .08 .67200003 C .098000002 .67 .10700001 .669 .10700001 .656 C .10700001 .65000005 .096 .60800005 .09 .58500004 L .068 .49700003 C .059 .45800004 .011 .26900003 .0069999991 .25000003 C 0 .222 0 .207 0 .192 C 0 .07 .091000004 0 .19600001 0 C .32200003 0 .446 .113000009 .479 .245 L .5680001 .6 Z "/>
</symbol><use xlink:href="#font_4_2" transform="matrix(9.9626,0,0,-9.9626,118.39257,7.458988)"/>
<use xlink:href="#font_4_3" transform="matrix(9.9626,0,0,-9.9626,126.462262,7.6781655)"/>
<text fill-opacity="0" transform="matrix(1,0,0,1,-91.951007,-23.340012)" font-size="9.9626" font-family="CMMI10" x="127.633" y="67.039">
s
</text>
<symbol id="font_4_5"><path d="M .33900004 .38500002 C .311 .38400004 .291 .36200002 .291 .34000004 C .291 .32600003 .3 .31100002 .32200003 .31100002 C .34400005 .31100002 .36800004 .328 .36800004 .367 C .36800004 .41200004 .325 .45300003 .24900003 .45300003 C .11700001 .45300003 .08 .351 .08 .307 C .08 .22900002 .15400002 .21400002 .18300002 .20800002 C .235 .19800002 .287 .18700002 .287 .13200002 C .287 .106000009 .264 .022000002 .14400001 .022000002 C .13000001 .022000002 .053000002 .022000002 .030000001 .075 C .068 .07000001 .09300001 .1 .09300001 .128 C .09300001 .15100001 .07700001 .16300002 .056 .16300002 C .030000001 .16300002 0 .14200002 0 .097 C 0 .040000004 .057000003 0 .143 0 C .305 0 .34400005 .12100001 .34400005 .16600001 C .34400005 .20200002 .325 .22700002 .31300002 .23900002 C .286 .26700001 .25700002 .272 .21300002 .28100003 C .17700002 .28900004 .13700001 .29600003 .13700001 .34100003 C .13700001 .37000003 .16100002 .43100003 .24900003 .43100003 C .274 .43100003 .324 .42400003 .33900004 .38500002 Z "/>
</symbol><use xlink:href="#font_4_5" transform="matrix(9.9626,0,0,-9.9626,36.200054,43.80858)"/>
<text fill-opacity="0" transform="matrix(1,0,0,1,-106.65001,-23.340012)" font-size="9.9626" font-family="CMMI10" x="215.469" y="67.039">
s
</text>
<use xlink:href="#font_4_5" transform="matrix(9.9626,0,0,-9.9626,109.33704,43.80858)"/>
<text fill-opacity="0" transform="matrix(1,0,0,1,-106.65001,-23.340012)" font-size="6.9738" font-family="CMMI7" x="220.13899" y="68.533006">
U
</text>
<use xlink:href="#font_5_1" transform="matrix(6.9738,0,0,-6.9738,114.13057,45.33247)"/>
<text fill-opacity="0" transform="matrix(1,0,0,1,-106.65001,-23.340012)" font-size="9.9626" font-family="CMR10" x="226.812 230.68746 233.45706" y="67.039 67.039 67.039">
(id
</text>
<symbol id="font_1_5"><path d="M .144 .44200002 L .0040000005 .43100003 L .0040000005 .4 C .069000006 .4 .07800001 .39400003 .07800001 .34500003 L .07800001 .076000004 C .07800001 .031000002 .067 .031000002 0 .031000002 L 0 0 C .032000006 .001 .086 .003 .11000001 .003 C .14500001 .003 .18 .001 .21400002 0 L .21400002 .031000002 C .148 .031000002 .144 .036000002 .144 .075 L .144 .44200002 M .148 .61600008 C .148 .648 .123 .669 .095000009 .669 C .064 .669 .042000003 .642 .042000003 .61600008 C .042000003 .58900004 .064 .563 .095000009 .563 C .123 .563 .148 .58400007 .148 .61600008 Z "/>
</symbol><symbol id="font_1_4"><path d="M .34600001 .06600001 L .34600001 0 L .493 .011000001 L .493 .042000003 C .423 .042000003 .41500001 .049000001 .41500001 .098000002 L .41500001 .705 L .271 .694 L .271 .663 C .34100003 .663 .349 .656 .349 .607 L .349 .39100004 C .32 .42700001 .277 .45300003 .22299999 .45300003 C .10500001 .45300003 0 .35500002 0 .22600001 C 0 .09900001 .098 0 .21200001 0 C .276 0 .321 .034 .34600001 .06600001 M .34600001 .33400002 L .34600001 .12900001 C .34600001 .111 .34600001 .109000003 .335 .092 C .305 .044 .26 .022000002 .21700001 .022000002 C .17200002 .022000002 .136 .048 .11200001 .086 C .086 .127 .083000002 .18400002 .083000002 .22500003 C .083000002 .26200003 .085 .32200003 .114 .367 C .13500002 .39800004 .17300001 .43100003 .227 .43100003 C .262 .43100003 .30400003 .41600004 .335 .37100003 C .34600001 .35400004 .34600001 .35200003 .34600001 .33400002 Z "/>
</symbol><use xlink:href="#font_1_1" transform="matrix(9.9626,0,0,-9.9626,121.148282,46.18964)"/>
<use xlink:href="#font_1_5" transform="matrix(9.9626,0,0,-9.9626,124.36621,43.69899)"/>
<use xlink:href="#font_1_4" transform="matrix(9.9626,0,0,-9.9626,127.14578,43.80858)"/>
<text fill-opacity="0" transform="matrix(1,0,0,1,-106.65001,-23.340012)" font-size="6.9738" font-family="CMMI7" x="238.989" y="68.533006">
U
</text>
<use xlink:href="#font_5_1" transform="matrix(6.9738,0,0,-6.9738,132.98058,45.33247)"/>
<text fill-opacity="0" transform="matrix(1,0,0,1,-106.65001,-23.340012)" font-size="9.9626" font-family="CMR10" x="245.662" y="67.039">
)
</text>
<use xlink:href="#font_1_2" transform="matrix(9.9626,0,0,-9.9626,139.57986,46.18964)"/>
<path transform="matrix(1,0,0,-1,71.295,23.08899)" stroke-width=".39848" stroke-linecap="butt" stroke-miterlimit="10" stroke-linejoin="miter" fill="none" stroke="rgb(0,0,0)" d="M 9.52419 18.11983 L 41.83223 18.11983 "/>
<path transform="matrix(1,0,0,-1,113.32646,4.96916)" stroke-width=".39848" stroke-linecap="round" stroke-linejoin="round" fill="none" stroke="rgb(0,0,0)" d="M -2.07213 2.39091 C -1.69356 .95633 -.84995 .27893 0 0 C -.84995 -.27893 -1.69356 -.95633 -2.07213 -2.39091 "/>
<text fill-opacity="0" transform="matrix(0,1,-1,0,102.565,-63.14501)" font-size="9.9626" font-family="CMSY10" x="85.029" y="67.039">
&#x220b;
</text>
<symbol id="font_6_1"><path d="M .19100001 .54 C .33200002 .54 .44700003 .444 .45900006 .31 L .035000005 .31 C .018 .31 0 .31 0 .29 C 0 .27 .018 .27 .035000005 .27 L .45900006 .27 C .44700003 .136 .33200002 .040000004 .19100001 .040000004 L .035000005 .040000004 C .018 .040000004 0 .040000004 0 .020000002 C 0 0 .018 0 .035000005 0 L .19300002 0 C .36400003 0 .5 .13000001 .5 .29 C .5 .45000001 .36400003 .58000002 .19300002 .58000002 L .035000005 .58000002 C .018 .58000002 0 .58000002 0 .56000004 C 0 .54 .018 .54 .035000005 .54 L .19100001 .54 Z "/>
</symbol><use xlink:href="#font_6_1" transform="matrix(0,9.9626,9.9626,0,35.1275,22.710884)"/>
<text fill-opacity="0" transform="matrix(0,1,-1,0,190.40201,-66.50701)" font-size="9.9626" font-family="CMSY10" x="85.029" y="67.039">
&#x220b;
</text>
<use xlink:href="#font_6_1" transform="matrix(0,9.9626,9.9626,0,122.9645,19.348885)"/>
<path transform="matrix(1,0,0,-1,71.295,23.08899)" stroke-width=".39848" stroke-linecap="butt" stroke-miterlimit="10" stroke-linejoin="miter" fill="none" stroke="rgb(0,0,0)" d="M -26.15604 -18.11981 L 32.63782 -18.11981 "/>
<path transform="matrix(-1,0,0,1,45.03935,41.2088)" stroke-width=".39848" stroke-linecap="round" stroke-miterlimit="10" stroke-linejoin="miter" fill="none" stroke="rgb(0,0,0)" d="M 0 1.63379 L 0 -1.63379 "/>
<path transform="matrix(1,0,0,-1,104.13205,41.2088)" stroke-width=".39848" stroke-linecap="round" stroke-linejoin="round" fill="none" stroke="rgb(0,0,0)" d="M -2.07213 2.39091 C -1.69356 .95633 -.84995 .27893 0 0 C -.84995 -.27893 -1.69356 -.95633 -2.07213 -2.39091 "/>
</g>
</svg>
