<?xml version="1.0" standalone="no"?>
<!DOCTYPE svg PUBLIC "-//W3C//DTD SVG 1.1//EN" "http://www.w3.org/Graphics/SVG/1.1/DTD/svg11.dtd">
<svg xmlns="http://www.w3.org/2000/svg" xmlns:xlink="http://www.w3.org/1999/xlink" version="1.1" width="13.486765cm" height="1.69164cm" viewBox="0 0 382.302 47.952">
<clipPath id="cp0">
<path transform="matrix(1,0,0,-1,-83.736,727.38)" d="M 0 0 L 595.28 0 L 595.28 841.889963 L 0 841.889963 Z "/>
</clipPath>
<g clip-path="url(#cp0)">
<text fill-opacity="0" transform="matrix(1,0,0,1,-210.78,-22.42501)" font-size="9.9626" font-family="CMMI10" x="213.053" y="31.325">
U
</text>
<symbol id="font_1_3"><path d="M .5680001 .6 C .57800007 .64100004 .5960001 .67100006 .676 .674 C .681 .674 .6930001 .6750001 .6930001 .69400006 C .6930001 .69500008 .6930001 .70500002 .68000007 .70500002 C .6470001 .70500002 .612 .702 .57800007 .702 C .544 .702 .50699999 .70500002 .474 .70500002 C .46800003 .70500002 .456 .70500002 .456 .68500004 C .456 .674 .46600004 .674 .474 .674 C .531 .67300005 .54200006 .65200009 .54200006 .63000007 C .54200006 .62700005 .5400001 .61200004 .53900004 .609 L .44900003 .252 C .41500001 .118 .3 .031000004 .20000002 .031000004 C .13200002 .031000004 .07800001 .075 .07800001 .16100002 C .07800001 .163 .07800001 .19500001 .089 .23900001 L .18600002 .628 C .19500003 .66400004 .197 .674 .27 .674 C .296 .674 .30400003 .674 .30400003 .69400006 C .30400003 .70500002 .293 .70500002 .29000001 .70500002 C .26200003 .70500002 .19 .702 .16200002 .702 C .133 .702 .062000008 .70500002 .033 .70500002 C .025000006 .70500002 .013999999 .70500002 .013999999 .68500004 C .013999999 .674 .023000002 .674 .042000003 .674 C .044000006 .674 .06300001 .674 .08 .67200003 C .098000002 .67 .10700001 .669 .10700001 .656 C .10700001 .65000005 .096 .60800005 .09 .58500004 L .068 .49700003 C .059 .45800004 .011 .26900003 .0069999991 .25000003 C 0 .222 0 .207 0 .192 C 0 .07 .091000004 0 .19600001 0 C .32200003 0 .446 .113000009 .479 .245 L .5680001 .6 Z "/>
</symbol><use xlink:href="#font_1_3" transform="matrix(9.9626,0,0,-9.9626,2.9404893,9.119167)"/>
<text fill-opacity="0" transform="matrix(1,0,0,1,-220.861,-22.42501)" font-size="9.9626" font-family="CMMI10" x="264.659" y="31.325">
h
</text>
<symbol id="font_1_5"><path d="M .232 .694 C .232 .695 .232 .705 .21900001 .705 C .19600001 .705 .122999999 .697 .097 .695 C .089 .694 .077999993 .693 .077999993 .675 C .077999993 .663 .087 .663 .102 .663 C .15 .663 .15200001 .656 .15200001 .646 L .149 .626 L .0040000005 .05 C 0 .036000002 0 .034 0 .028 C 0 .005000001 .02 0 .029000003 0 C .044999999 0 .061 .012000001 .066 .026 L .08499999 .102000009 L .10699999 .19200002 C .113000009 .21400002 .119 .23600002 .124 .259 C .126 .26500001 .134 .298 .135 .30400003 C .138 .31300002 .169 .36900001 .20300001 .39600003 C .225 .41200004 .256 .43100003 .299 .43100003 C .342 .43100003 .35300002 .397 .35300002 .36100004 C .35300002 .307 .315 .19800002 .291 .13700001 C .28300002 .11400001 .278 .102000009 .278 .082 C .278 .035 .31300002 0 .36 0 C .454 0 .491 .14600002 .491 .15400002 C .491 .16400002 .482 .16400002 .47900004 .16400002 C .46900005 .16400002 .46900005 .16100002 .46400004 .14600002 C .449 .093 .41700002 .022000002 .36200002 .022000002 C .345 .022000002 .338 .032 .338 .055000005 C .338 .080000009 .347 .104 .356 .126 C .372 .16900002 .41700002 .28800002 .41700002 .34600001 C .41700002 .411 .377 .45300003 .30200003 .45300003 C .239 .45300003 .191 .42200003 .154 .37600003 L .232 .694 Z "/>
</symbol><use xlink:href="#font_1_5" transform="matrix(9.9626,0,0,-9.9626,44.345947,9.009579)"/>
<text fill-opacity="0" transform="matrix(1,0,0,1,-220.861,-22.42501)" font-size="6.9738" font-family="CMMI7" x="270.399" y="32.82">
U
</text>
<symbol id="font_2_2"><path d="M .615 .594 C .625 .633 .64100004 .665 .721 .667 C .726 .667 .74100008 .668 .74100008 .689 C .74100008 .695 .73600007 .703 .726 .703 C .694 .703 .656 .699 .623 .699 C .59000006 .699 .54800005 .703 .518 .703 C .513 .703 .49800004 .703 .49800004 .681 C .49800004 .668 .51100006 .667 .52000003 .667 C .56700001 .666 .58400007 .651 .58400007 .626 C .58400007 .621 .583 .616 .582 .612 C .56700001 .547 .49400001 .246 .481 .215 C .425 .087000008 .308 .036000002 .22600001 .036000002 C .15900001 .036000002 .088 .07 .088 .169 C .088 .193 .091000004 .21700001 .097 .24000001 L .194 .625 C .20300001 .65900002 .20500002 .667 .282 .667 C .29900003 .667 .312 .667 .312 .689 C .312 .693 .30900002 .703 .296 .703 C .26700001 .703 .194 .699 .16499999 .699 C .148 .699 .113000009 .699 .096 .7 C .076000004 .70100003 .052 .703 .032999993 .703 C .026999996 .703 .0119999949 .703 .0119999949 .681 C .0119999949 .667 .023999997 .667 .044 .667 C .045 .667 .063999997 .667 .082 .665 C .103 .663 .105000007 .661 .105000007 .651 C .105000007 .645 .095 .606 .089 .584 L .067 .49600001 L .009999998 .26700001 C 0 .22600001 0 .21800001 0 .198 C 0 .074 .102 0 .222 0 C .36 0 .49400001 .11200001 .527 .243 L .615 .594 Z "/>
</symbol><use xlink:href="#font_2_2" transform="matrix(6.9738,0,0,-6.9738,50.179586,10.534465)"/>
<text fill-opacity="0" transform="matrix(1,0,0,1,-220.861,-22.42501)" font-size="9.9626" font-family="CMR10" x="277.072" y="31.324999">
(
</text>
<symbol id="font_3_1"><path d="M .23200002 .00999999 C .23200002 .012999982 .23200002 .014999986 .215 .03199999 C .09 .15799999 .058 .347 .058 .5 C .058 .674 .096 .84800005 .21900001 .97300005 C .23200002 .985 .23200002 .98700007 .23200002 .989999971 C .23200002 .99700003 .22800002 1 .222 1 C .21200001 1 .12200001 .93200007 .06299999 .805 C .012000002 .69500008 0 .584 0 .5 C 0 .422 .011 .301 .066 .188 C .126 .065 .21200001 0 .222 0 C .22800002 0 .23200002 .0029999912 .23200002 .00999999 Z "/>
</symbol><use xlink:href="#font_3_1" transform="matrix(9.9626,0,0,-9.9626,57.197298,11.390638)"/>
<text fill-opacity="0" transform="matrix(1,0,0,1,-220.861,-22.42501)" font-size="9.9626" font-family="CMMI10" x="280.947" y="31.324999">
U
</text>
<use xlink:href="#font_1_3" transform="matrix(9.9626,0,0,-9.9626,60.753494,9.119165)"/>
<text fill-opacity="0" transform="matrix(1,0,0,1,-220.861,-22.42501)" font-size="9.9626" font-family="CMR10" x="288.835" y="31.324999">
)
</text>
<symbol id="font_3_2"><path d="M .232 .5 C .232 .578 .22100001 .699 .16600001 .812000073 C .106 .93500004 .020000003 1 .009999998 1 C .0040000005 1 0 .99600008 0 .989999971 C 0 .98700007 0 .985 .019000001 .967 C .117000009 .86800004 .174 .709 .174 .5 C .174 .329 .137 .153 .012999997 .026999996 C 0 .014999986 0 .012999982 0 .00999999 C 0 .003999993 .0040000005 0 .009999998 0 C .020000003 0 .11000001 .06799999 .169 .195 C .22 .305 .232 .416 .232 .5 Z "/>
</symbol><use xlink:href="#font_3_2" transform="matrix(9.9626,0,0,-9.9626,68.54187,11.390638)"/>
<text fill-opacity="0" transform="matrix(1,0,0,1,-220.984,-22.42501)" font-size="9.9626" font-family="CMMI10" x="326.468" y="31.325">
h
</text>
<use xlink:href="#font_1_5" transform="matrix(9.9626,0,0,-9.9626,106.03194,9.009579)"/>
<text fill-opacity="0" transform="matrix(1,0,0,1,-220.984,-22.42501)" font-size="6.9738" font-family="CMMI7" x="332.20797" y="32.82">
V
</text>
<symbol id="font_2_3"><path d="M .63600006 .584 C .67300005 .638 .70500002 .663 .75900007 .667 C .771 .668 .78200007 .669 .78200007 .689 C .78200007 .69200001 .78000002 .703 .76800008 .703 C .744 .703 .71300006 .699 .688 .699 C .656 .699 .614 .703 .58400007 .703 C .57500005 .703 .564 .7 .564 .681 C .564 .668 .578 .667 .582 .667 C .614 .665 .623 .653 .623 .638 C .623 .624 .61600008 .614 .605 .598 L .277 .11400001 L .18600002 .625 C .18400002 .634 .18400002 .63600006 .18400002 .64 C .18400002 .667 .24000001 .667 .24700001 .667 C .26400004 .667 .277 .667 .277 .689 C .277 .69 .27600003 .703 .26000002 .703 C .231 .703 .16 .699 .13100001 .699 C .106 .699 .045 .703 .020000003 .703 C .011 .703 0 .7 0 .681 C 0 .667 .013999999 .667 .024999998 .667 C .08100001 .667 .08200001 .661 .087000008 .635 L .19600001 .027000003 C .20000002 .006000001 .201 0 .22000003 0 C .23900002 0 .24400002 .007000001 .254 .022000002 L .63600006 .584 Z "/>
</symbol><use xlink:href="#font_2_3" transform="matrix(6.9738,0,0,-6.9738,111.77492,10.534465)"/>
<text fill-opacity="0" transform="matrix(1,0,0,1,-220.984,-22.42501)" font-size="9.9626" font-family="CMR10" x="339.12697" y="31.324999">
(
</text>
<use xlink:href="#font_3_1" transform="matrix(9.9626,0,0,-9.9626,119.12929,11.390638)"/>
<text fill-opacity="0" transform="matrix(1,0,0,1,-220.984,-22.42501)" font-size="9.9626" font-family="CMMI10" x="343.00097" y="31.324999">
U
</text>
<use xlink:href="#font_1_3" transform="matrix(9.9626,0,0,-9.9626,122.68448,9.119165)"/>
<text fill-opacity="0" transform="matrix(1,0,0,1,-220.984,-22.42501)" font-size="9.9626" font-family="CMR10" x="350.88999" y="31.324999">
)
</text>
<use xlink:href="#font_3_2" transform="matrix(9.9626,0,0,-9.9626,130.47386,11.390638)"/>
<text fill-opacity="0" transform="matrix(1,0,0,1,-214.324,-22.42501)" font-size="9.9626" font-family="CMR10" x="421.573982 424.3436" y="31.325 31.325">
id
</text>
<symbol id="font_3_5"><path d="M .144 .44200002 L .0040000005 .43100003 L .0040000005 .4 C .069000006 .4 .07800001 .39400003 .07800001 .34500003 L .07800001 .076000004 C .07800001 .031000002 .067 .031000002 0 .031000002 L 0 0 C .032000006 .001 .086 .003 .11000001 .003 C .14500001 .003 .18 .001 .21400002 0 L .21400002 .031000002 C .148 .031000002 .144 .036000002 .144 .075 L .144 .44200002 M .148 .61600008 C .148 .648 .123 .669 .095000009 .669 C .064 .669 .042000003 .642 .042000003 .61600008 C .042000003 .58900004 .064 .563 .095000009 .563 C .123 .563 .148 .58400007 .148 .61600008 Z "/>
</symbol><symbol id="font_3_4"><path d="M .34600001 .06600001 L .34600001 0 L .493 .011000001 L .493 .042000003 C .423 .042000003 .41500001 .049000001 .41500001 .098000002 L .41500001 .705 L .271 .694 L .271 .663 C .34100003 .663 .349 .656 .349 .607 L .349 .39100004 C .32 .42700001 .277 .45300003 .22299999 .45300003 C .10500001 .45300003 0 .35500002 0 .22600001 C 0 .09900001 .098 0 .21200001 0 C .276 0 .321 .034 .34600001 .06600001 M .34600001 .33400002 L .34600001 .12900001 C .34600001 .111 .34600001 .109000003 .335 .092 C .305 .044 .26 .022000002 .21700001 .022000002 C .17200002 .022000002 .136 .048 .11200001 .086 C .086 .127 .083000002 .18400002 .083000002 .22500003 C .083000002 .26200003 .085 .32200003 .114 .367 C .13500002 .39800004 .17300001 .43100003 .227 .43100003 C .262 .43100003 .30400003 .41600004 .335 .37100003 C .34600001 .35400004 .34600001 .35200003 .34600001 .33400002 Z "/>
</symbol><use xlink:href="#font_3_5" transform="matrix(9.9626,0,0,-9.9626,207.57876,8.89999)"/>
<use xlink:href="#font_3_4" transform="matrix(9.9626,0,0,-9.9626,210.35832,9.009579)"/>
<text fill-opacity="0" transform="matrix(1,0,0,1,-214.324,-22.42501)" font-size="6.9738" font-family="CMMI7" x="429.876" y="32.82">
U
</text>
<use xlink:href="#font_2_2" transform="matrix(6.9738,0,0,-6.9738,216.19359,10.534465)"/>
<text fill-opacity="0" transform="matrix(1,0,0,1,-233.48,-22.42501)" font-size="9.9626" font-family="CMMI10" x="534.1" y="31.325">
s
</text>
<symbol id="font_1_6"><path d="M .33900004 .38500002 C .311 .38400004 .291 .36200002 .291 .34000004 C .291 .32600003 .3 .31100002 .32200003 .31100002 C .34400005 .31100002 .36800004 .328 .36800004 .367 C .36800004 .41200004 .325 .45300003 .24900003 .45300003 C .11700001 .45300003 .08 .351 .08 .307 C .08 .22900002 .15400002 .21400002 .18300002 .20800002 C .235 .19800002 .287 .18700002 .287 .13200002 C .287 .106000009 .264 .022000002 .14400001 .022000002 C .13000001 .022000002 .053000002 .022000002 .030000001 .075 C .068 .07000001 .09300001 .1 .09300001 .128 C .09300001 .15100001 .07700001 .16300002 .056 .16300002 C .030000001 .16300002 0 .14200002 0 .097 C 0 .040000004 .057000003 0 .143 0 C .305 0 .34400005 .12100001 .34400005 .16600001 C .34400005 .20200002 .325 .22700002 .31300002 .23900002 C .286 .26700001 .25700002 .272 .21300002 .28100003 C .17700002 .28900004 .13700001 .29600003 .13700001 .34100003 C .13700001 .37000003 .16100002 .43100003 .24900003 .43100003 C .274 .43100003 .324 .42400003 .33900004 .38500002 Z "/>
</symbol><use xlink:href="#font_1_6" transform="matrix(9.9626,0,0,-9.9626,301.13805,9.009579)"/>
<text fill-opacity="0" transform="matrix(1,0,0,1,-233.48,-22.42501)" font-size="6.9738" font-family="CMMI7" x="538.76997" y="32.82">
U
</text>
<use xlink:href="#font_2_2" transform="matrix(6.9738,0,0,-6.9738,305.93157,10.534465)"/>
<text fill-opacity="0" transform="matrix(1,0,0,1,-233.48,-22.42501)" font-size="9.9626" font-family="CMR10" x="545.44292 549.31837 552.08793" y="31.324999 31.324999 31.324999">
(id
</text>
<use xlink:href="#font_3_1" transform="matrix(9.9626,0,0,-9.9626,312.94926,11.390638)"/>
<use xlink:href="#font_3_5" transform="matrix(9.9626,0,0,-9.9626,316.16715,8.899988)"/>
<use xlink:href="#font_3_4" transform="matrix(9.9626,0,0,-9.9626,318.9467,9.009577)"/>
<text fill-opacity="0" transform="matrix(1,0,0,1,-233.48,-22.42501)" font-size="6.9738" font-family="CMMI7" x="557.61991" y="32.82">
U
</text>
<use xlink:href="#font_2_2" transform="matrix(6.9738,0,0,-6.9738,324.78155,10.534465)"/>
<text fill-opacity="0" transform="matrix(1,0,0,1,-233.48,-22.42501)" font-size="9.9626" font-family="CMR10" x="564.2929 570.928" y="31.324999 31.324999">
)=
</text>
<symbol id="font_3_3"><path d="M .63100005 .19400002 C .646 .19400002 .665 .19400002 .665 .214 C .665 .23400001 .646 .23400001 .632 .23400001 L .033 .23400001 C .019000001 .23400001 0 .23400001 0 .214 C 0 .19400002 .019000001 .19400002 .034 .19400002 L .63100005 .19400002 M .632 0 C .646 0 .665 0 .665 .02000001 C .665 .040000005 .646 .040000005 .63100005 .040000005 L .034 .040000005 C .019000001 .040000005 0 .040000005 0 .02000001 C 0 0 .019000001 0 .033 0 L .632 0 Z "/>
</symbol><use xlink:href="#font_3_2" transform="matrix(9.9626,0,0,-9.9626,331.3808,11.390638)"/>
<use xlink:href="#font_3_3" transform="matrix(9.9626,0,0,-9.9626,338.0059,7.5749627)"/>
<text fill-opacity="0" transform="matrix(1,0,0,1,-233.48,-22.42501)" font-size="9.9626" font-family="CMMI10" x="581.4509" y="31.324999">
&#x03d5;
</text>
<symbol id="font_1_2"><path d="M .388 .875 C .388 .877000055 .39100004 .888 .39100004 .88900004 C .39100004 .890000142 .39100004 .89900007 .37900005 .89900007 C .36900001 .89900007 .36800004 .896 .36400003 .87900009 L .30600002 .648 C .14700002 .643 0 .51 0 .374 C 0 .279 .07 .20000002 .192 .19300002 C .18400002 .16200002 .17700002 .13000001 .169 .09900001 C .157 .052 .14700002 .013999999 .14700002 .011000007 C .14700002 .001000002 .15400002 0 .15900001 0 C .164 0 .16600001 .001000002 .169 .004000008 C .171 .0059999972 .17700002 .030000001 .18 .044 L .21800003 .19300002 C .37900005 .19800002 .524 .333 .524 .46700005 C .524 .546 .47100006 .638 .33200002 .648 L .388 .875 M .197 .21500002 C .137 .21800001 .065000005 .25300003 .065000005 .35300002 C .065000005 .47300001 .151 .61300002 .3 .62600003 L .197 .21500002 M .32600003 .62600003 C .40200005 .62200003 .45900002 .57600003 .45900002 .48800003 C .45900002 .37 .37300003 .22700002 .22300002 .21500002 L .32600003 .62600003 Z "/>
</symbol><use xlink:href="#font_1_2" transform="matrix(9.9626,0,0,-9.9626,348.4591,10.942321)"/>
<text fill-opacity="0" transform="matrix(1,0,0,1,-211.354,-22.42501)" font-size="9.9626" font-family="CMMI10" x="213.053" y="66.513">
X
</text>
<symbol id="font_1_4"><path d="M .458 .411 L .374 .61 C .37100003 .61800004 .36900001 .62200003 .36900001 .623 C .36900001 .629 .386 .648 .428 .652 C .43800002 .65300007 .448 .65400005 .448 .671 C .448 .683 .43600002 .683 .433 .683 C .39200001 .683 .349 .68 .307 .68 C .282 .68 .22000001 .683 .19500003 .683 C .18900001 .683 .17700002 .683 .17700002 .66300006 C .17700002 .652 .18700002 .652 .20000002 .652 C .26 .652 .266 .642 .275 .62 L .393 .34100003 L .18200001 .11400001 L .16900002 .10300001 C .12 .05 .073 .034 .022000002 .031000002 C .0090000019 .030000001 0 .030000001 0 .011000001 C 0 .010000001 0 0 .013000002 0 C .042999998 0 .076000004 .003 .107 .003 C .14400001 .003 .18300002 0 .21900001 0 C .22500001 0 .237 0 .237 .020000002 C .237 .030000001 .22700002 .031000002 .22500001 .031000002 C .21600002 .032 .18500002 .034 .18500002 .062000003 C .18500002 .078 .20000002 .094000006 .21200001 .10700001 L .314 .215 L .404 .31300002 L .505 .074 C .509 .063 .51 .062000003 .51 .060000001 C .51 .052 .491 .035 .45200003 .031000002 C .441 .030000001 .432 .029000001 .432 .012 C .432 0 .44300003 0 .44700003 0 C .47500001 0 .545 .003 .573 .003 C .598 .003 .65900002 0 .684 0 C .69100004 0 .703 0 .703 .019000001 C .703 .031000002 .693 .031000002 .685 .031000002 C .61800004 .032 .616 .035 .59900003 .075 C .56 .16800001 .49300004 .324 .47 .384 C .538 .45400004 .643 .573 .675 .601 C .704 .625 .74200006 .64900007 .80200005 .652 C .81500006 .65300007 .824 .65300007 .824 .67200003 C .824 .67300005 .824 .683 .81100007 .683 C .781 .683 .748 .68 .717 .68 C .68 .68 .642 .683 .606 .683 C .6 .683 .587 .683 .587 .66300006 C .587 .656 .592 .65300007 .59900003 .652 C .60800005 .651 .639 .64900007 .639 .62100006 C .639 .60700007 .628 .59400006 .62 .58500004 L .458 .411 Z "/>
</symbol><use xlink:href="#font_1_4" transform="matrix(9.9626,0,0,-9.9626,1.96798,44.08799)"/>
<text fill-opacity="0" transform="matrix(1,0,0,1,-221.435,-22.42501)" font-size="9.9626" font-family="CMMI10" x="264.659" y="66.513">
h
</text>
<use xlink:href="#font_1_5" transform="matrix(9.9626,0,0,-9.9626,43.771944,44.19758)"/>
<text fill-opacity="0" transform="matrix(1,0,0,1,-221.435,-22.42501)" font-size="6.9738" font-family="CMMI7" x="270.399" y="68.007">
U
</text>
<use xlink:href="#font_2_2" transform="matrix(6.9738,0,0,-6.9738,49.60558,45.72147)"/>
<text fill-opacity="0" transform="matrix(1,0,0,1,-221.435,-22.42501)" font-size="9.9626" font-family="CMR10" x="277.072" y="66.513">
(
</text>
<use xlink:href="#font_3_1" transform="matrix(9.9626,0,0,-9.9626,56.62329,46.57864)"/>
<text fill-opacity="0" transform="matrix(1,0,0,1,-221.435,-22.42501)" font-size="9.9626" font-family="CMMI10" x="280.947" y="66.513">
X
</text>
<use xlink:href="#font_1_4" transform="matrix(9.9626,0,0,-9.9626,59.780984,44.08799)"/>
<text fill-opacity="0" transform="matrix(1,0,0,1,-221.435,-22.42501)" font-size="9.9626" font-family="CMR10" x="289.982" y="66.513">
)
</text>
<use xlink:href="#font_3_2" transform="matrix(9.9626,0,0,-9.9626,69.11487,46.57864)"/>
<text fill-opacity="0" transform="matrix(1,0,0,1,-221.558,-22.42501)" font-size="9.9626" font-family="CMMI10" x="326.468" y="66.513">
h
</text>
<use xlink:href="#font_1_5" transform="matrix(9.9626,0,0,-9.9626,105.45793,44.19758)"/>
<text fill-opacity="0" transform="matrix(1,0,0,1,-221.558,-22.42501)" font-size="6.9738" font-family="CMMI7" x="332.20797" y="68.007">
V
</text>
<use xlink:href="#font_2_3" transform="matrix(6.9738,0,0,-6.9738,111.20091,45.72147)"/>
<text fill-opacity="0" transform="matrix(1,0,0,1,-221.558,-22.42501)" font-size="9.9626" font-family="CMR10" x="339.12697" y="66.513">
(
</text>
<use xlink:href="#font_3_1" transform="matrix(9.9626,0,0,-9.9626,118.55528,46.57864)"/>
<text fill-opacity="0" transform="matrix(1,0,0,1,-221.558,-22.42501)" font-size="9.9626" font-family="CMMI10" x="343.00097" y="66.513">
X
</text>
<use xlink:href="#font_1_4" transform="matrix(9.9626,0,0,-9.9626,121.71197,44.08799)"/>
<text fill-opacity="0" transform="matrix(1,0,0,1,-221.558,-22.42501)" font-size="9.9626" font-family="CMR10" x="352.037" y="66.513">
)
</text>
<use xlink:href="#font_3_2" transform="matrix(9.9626,0,0,-9.9626,131.04686,46.57864)"/>
<text fill-opacity="0" transform="matrix(1,0,0,1,-230.821,-22.42501)" font-size="9.9626" font-family="CMR10" x="421.573982 424.3436" y="66.513 66.513">
id
</text>
<use xlink:href="#font_3_5" transform="matrix(9.9626,0,0,-9.9626,191.08177,44.08799)"/>
<use xlink:href="#font_3_4" transform="matrix(9.9626,0,0,-9.9626,193.86133,44.19758)"/>
<text fill-opacity="0" transform="matrix(1,0,0,1,-230.821,-22.42501)" font-size="6.9738" font-family="CMMI7" x="429.876" y="68.007">
U
</text>
<use xlink:href="#font_2_2" transform="matrix(6.9738,0,0,-6.9738,199.6966,45.72147)"/>
<text fill-opacity="0" transform="matrix(1,0,0,1,-230.821,-22.42501)" font-size="9.9626" font-family="CMSY10" x="438.763" y="66.513">
&#x25e6;
</text>
<symbol id="font_4_1"><path d="M .38900004 .194 C .38900004 .30100003 .3 .38800004 .195 .38800004 C .087 .38800004 0 .29900003 0 .194 C 0 .08800001 .087 0 .195 0 C .3 0 .38900004 .087000008 .38900004 .194 M .195 .04 C .107999999 .04 .040000004 .11000001 .040000004 .194 C .040000004 .27800003 .109 .34800003 .195 .34800003 C .278 .34800003 .349 .28000002 .349 .194 C .349 .108 .278 .04 .195 .04 Z "/>
</symbol><use xlink:href="#font_4_1" transform="matrix(9.9626,0,0,-9.9626,208.48995,43.530083)"/>
<text fill-opacity="0" transform="matrix(1,0,0,1,-230.821,-22.42501)" font-size="9.9626" font-family="CMMI10" x="445.959" y="66.513">
&#x03c1;
</text>
<symbol id="font_1_1"><path d="M .0029999986 .042999998 C 0 .031000004 0 .029 0 .026999996 C 0 .0119999949 .011 0 .028 0 C .049000001 0 .061000004 .017999992 .063 .020999998 C .068 .030000001 .10000001 .164 .127 .272 C .147 .23200001 .179 .205 .22600001 .205 C .34300003 .205 .47200003 .34600001 .47200003 .495 C .47200003 .601 .40600003 .65800005 .333 .65800005 C .236 .65800005 .13100001 .558 .10100001 .43600002 L .0029999986 .042999998 M .22500003 .22700002 C .155 .22700002 .13900002 .307 .13900002 .316 C .13900002 .32 .14400001 .34 .147 .35300002 C .17500001 .46500004 .185 .50100003 .20700002 .541 C .25 .614 .3 .63600006 .33100004 .63600006 C .36800004 .63600006 .4 .60700007 .4 .53800006 C .4 .48300005 .37100003 .371 .344 .32200003 C .31100002 .259 .263 .22700002 .22500003 .22700002 Z "/>
</symbol><use xlink:href="#font_1_1" transform="matrix(9.9626,0,0,-9.9626,215.43689,46.23991)"/>
<text fill-opacity="0" transform="matrix(1,0,0,1,-230.821,-22.42501)" font-size="9.9626" font-family="CMR10" x="453.877" y="66.513">
=
</text>
<use xlink:href="#font_3_3" transform="matrix(9.9626,0,0,-9.9626,223.61392,42.762962)"/>
<text fill-opacity="0" transform="matrix(1,0,0,1,-230.821,-22.42501)" font-size="9.9626" font-family="CMMI10" x="464.393" y="66.513">
&#x03c1;
</text>
<use xlink:href="#font_1_1" transform="matrix(9.9626,0,0,-9.9626,233.87088,46.23991)"/>
<text fill-opacity="0" transform="matrix(1,0,0,1,-262.889,-22.42501)" font-size="9.9626" font-family="CMMI10" x="534.1" y="66.513">
s
</text>
<use xlink:href="#font_1_6" transform="matrix(9.9626,0,0,-9.9626,271.72904,44.19758)"/>
<text fill-opacity="0" transform="matrix(1,0,0,1,-262.889,-22.42501)" font-size="6.9738" font-family="CMMI7" x="538.76997" y="68.007">
X
</text>
<symbol id="font_2_4"><path d="M .50600005 .38200002 L .601 .47700004 C .72900005 .60300007 .768 .642 .858000002 .647 C .87100008 .648 .883 .648 .883 .66800004 C .883 .68 .87200003 .683 .869 .683 C .84000006 .683 .805 .679 .77500005 .679 C .749 .679 .685 .683 .65900002 .683 C .651 .683 .639 .68 .639 .661 C .639 .66 .639 .648 .65400005 .647 C .66300006 .646 .688 .64400006 .688 .62200003 C .688 .60700007 .67300005 .591 .66300006 .58100005 C .65500002 .574 .528 .45000001 .491 .41200004 L .39000001 .60800005 C .388 .611 .38500002 .61800004 .38500002 .62200003 C .38500002 .629 .404 .64500003 .43800002 .647 C .44500003 .647 .459 .648 .459 .669 C .459 .67 .458 .683 .442 .683 C .421 .683 .396 .68 .375 .68 C .354 .68 .331 .679 .31 .679 C .293 .679 .269 .679 .25100003 .68 C .23400001 .68100005 .21300002 .683 .19700001 .683 C .19200002 .683 .17600002 .683 .17600002 .661 C .17600002 .647 .18900001 .647 .20500003 .647 C .263 .647 .268 .637 .278 .61700006 L .418 .34100003 L .36200002 .28500004 C .343 .26700001 .296 .22200002 .278 .20300001 C .15600002 .082 .11500001 .040000004 .025000003 .036000002 C .011000004 .035 0 .035 0 .014 C 0 .010000001 .0030000024 0 .014000002 0 C .043 0 .07700001 .004 .10700001 .004 C .12400001 .004 .14900002 .004 .16600001 .003 C .18400002 .002 .20600002 0 .223 0 C .22800003 0 .244 0 .244 .021000002 C .244 .035 .23200001 .036000002 .22600003 .036000002 C .216 .037 .19500001 .040000004 .19500001 .061000004 C .19500001 .07700001 .20800002 .09 .23 .112 L .433 .31100002 L .554 .074 C .559 .064 .56 .062000003 .56 .061000004 C .56 .055000005 .542 .039 .507 .036000002 C .49800004 .035 .485 .035 .485 .014 C .485 .013 .486 0 .50200005 0 C .523 0 .54800005 .003 .569 .003 C .59000006 .003 .61300002 .004 .634 .004 C .651 .004 .675 .004 .693 .003 C .71000004 .002 .731 0 .74700003 0 C .75200005 0 .768 0 .768 .022000002 C .768 .036000002 .75500007 .036000002 .739 .036000002 C .681 .036000002 .676 .047000003 .667 .064 L .50600005 .38200002 Z "/>
</symbol><use xlink:href="#font_2_4" transform="matrix(6.9738,0,0,-6.9738,276.22965,45.581995)"/>
<text fill-opacity="0" transform="matrix(1,0,0,1,-262.889,-22.42501)" font-size="9.9626" font-family="CMR10" x="546.34391" y="66.513">
(
</text>
<use xlink:href="#font_3_1" transform="matrix(9.9626,0,0,-9.9626,284.44121,46.57864)"/>
<text fill-opacity="0" transform="matrix(1,0,0,1,-262.889,-22.42501)" font-size="9.9626" font-family="CMMI10" x="550.21797" y="66.513">
&#x03c1;
</text>
<use xlink:href="#font_1_1" transform="matrix(9.9626,0,0,-9.9626,287.62785,46.23991)"/>
<text fill-opacity="0" transform="matrix(1,0,0,1,-262.889,-22.42501)" font-size="9.9626" font-family="CMR10" x="555.36895 562.004" y="66.513 66.513">
)=
</text>
<use xlink:href="#font_3_2" transform="matrix(9.9626,0,0,-9.9626,293.04781,46.57864)"/>
<use xlink:href="#font_3_3" transform="matrix(9.9626,0,0,-9.9626,299.6729,42.762962)"/>
<text fill-opacity="0" transform="matrix(1,0,0,1,-262.889,-22.42501)" font-size="9.9626" font-family="CMMI10" x="572.527" y="66.513">
&#x03d5;
</text>
<use xlink:href="#font_1_2" transform="matrix(9.9626,0,0,-9.9626,310.12612,46.13032)"/>
<text fill-opacity="0" transform="matrix(1,0,0,1,-262.889,-22.42501)" font-size="9.9626" font-family="CMSY10" x="580.677" y="66.513">
&#x25e6;
</text>
<use xlink:href="#font_4_1" transform="matrix(9.9626,0,0,-9.9626,318.33594,43.530083)"/>
<text fill-opacity="0" transform="matrix(1,0,0,1,-262.889,-22.42501)" font-size="9.9626" font-family="CMMI10" x="587.872" y="66.513">
&#x03c1;
</text>
<use xlink:href="#font_1_1" transform="matrix(9.9626,0,0,-9.9626,325.2819,46.23991)"/>
<text fill-opacity="0" transform="matrix(1,0,0,1,-262.889,-22.42501)" font-size="9.9626" font-family="CMR10" x="595.79001 606.3006" y="66.513 66.513">
=(
</text>
<use xlink:href="#font_3_3" transform="matrix(9.9626,0,0,-9.9626,333.45893,42.762962)"/>
<use xlink:href="#font_3_1" transform="matrix(9.9626,0,0,-9.9626,344.3979,46.57864)"/>
<text fill-opacity="0" transform="matrix(1,0,0,1,-262.889,-22.42501)" font-size="9.9626" font-family="CMMI10" x="610.181 615.9195" y="66.513 66.513">
h&#x03d5;
</text>
<use xlink:href="#font_1_5" transform="matrix(9.9626,0,0,-9.9626,347.83996,44.19758)"/>
<use xlink:href="#font_1_2" transform="matrix(9.9626,0,0,-9.9626,353.51864,46.13032)"/>
<text fill-opacity="0" transform="matrix(1,0,0,1,-262.889,-22.42501)" font-size="9.9626" font-family="CMR10" x="621.85703" y="66.513">
)
</text>
<use xlink:href="#font_3_2" transform="matrix(9.9626,0,0,-9.9626,359.53591,46.57864)"/>
<text fill-opacity="0" transform="matrix(1,0,0,1,-262.889,-22.42501)" font-size="6.9738" font-family="CMMI7" x="625.7311" y="68.007">
X
</text>
<use xlink:href="#font_2_4" transform="matrix(6.9738,0,0,-6.9738,363.19076,45.581995)"/>
<text fill-opacity="0" transform="matrix(1,0,0,1,-262.889,-22.42501)" font-size="9.9626" font-family="CMR10" x="633.30503" y="66.513">
(
</text>
<use xlink:href="#font_3_1" transform="matrix(9.9626,0,0,-9.9626,371.40234,46.57864)"/>
<text fill-opacity="0" transform="matrix(1,0,0,1,-262.889,-22.42501)" font-size="9.9626" font-family="CMMI10" x="637.1791" y="66.513">
&#x03c1;
</text>
<use xlink:href="#font_1_1" transform="matrix(9.9626,0,0,-9.9626,374.58895,46.23991)"/>
<text fill-opacity="0" transform="matrix(1,0,0,1,-262.889,-22.42501)" font-size="9.9626" font-family="CMR10" x="642.3301" y="66.513">
)
</text>
<use xlink:href="#font_3_2" transform="matrix(9.9626,0,0,-9.9626,380.00894,46.57864)"/>
<path transform="matrix(1,0,0,-1,192.51001,24.00299)" stroke-width=".39848" stroke-linecap="butt" stroke-miterlimit="10" stroke-linejoin="miter" fill="none" stroke="rgb(0,0,0)" d="M -186.29306 10.85948 L -186.29306 -9.43146 "/>
<path transform="matrix(0,-1,-1,0,6.2169495,12.944271)" stroke-width=".39848" stroke-linecap="round" stroke-linejoin="round" fill="none" stroke="rgb(0,0,0)" d="M -2.07213 2.39091 C -1.69356 .95633 -.84995 .27893 0 0 C -.84995 -.27893 -1.69356 -.95633 -2.07213 -2.39091 "/>
<text fill-opacity="0" transform="matrix(1,0,0,1,-204.50699,-42.60001)" font-size="6.9738" font-family="CMMI7" x="204.246" y="66.513">
&#x03c1;
</text>
<symbol id="font_2_1"><path d="M .0040000005 .053000002 C 0 .038000002 0 .033000007 0 .032000006 C 0 .010000005 .018000003 0 .034000006 0 C .07000001 0 .07800001 .030000001 .08500001 .062000008 C .09900001 .114000012 .127 .22800002 .13700001 .26600004 C .14600002 .25100003 .17800002 .20400001 .24700003 .20400001 C .375 .20400001 .51100006 .34000004 .51100006 .48600002 C .51100006 .592 .44 .65500002 .352 .65500002 C .254 .65500002 .13300002 .569 .098000002 .42800003 L .0040000005 .053000002 M .246 .23200002 C .17200002 .23200002 .15 .30600002 .15 .319 C .15 .32100005 .15600002 .34300003 .15900001 .35500002 C .18900001 .47800002 .19500001 .50100003 .22400002 .5450001 C .26 .59800005 .31 .62700005 .35 .62700005 C .391 .62700005 .43 .59800005 .43 .526 C .43 .48000002 .404 .36900001 .373 .319 C .327 .24800003 .277 .23200002 .246 .23200002 Z "/>
</symbol><use xlink:href="#font_2_1" transform="matrix(6.9738,0,0,-6.9738,.08770368,25.405385)"/>
<path transform="matrix(1,0,0,-1,192.51001,24.00299)" stroke-width=".39848" stroke-linecap="butt" stroke-miterlimit="10" stroke-linejoin="miter" fill="none" stroke="rgb(0,0,0)" d="M -116.17249 17.59401 L -91.91174 17.59401 "/>
<path transform="matrix(1,0,0,-1,100.7975,6.4089814)" stroke-width=".39848" stroke-linecap="round" stroke-linejoin="round" fill="none" stroke="rgb(0,0,0)" d="M -2.07213 2.39091 C -1.69356 .95633 -.84995 .27893 0 0 C -.84995 -.27893 -1.69356 -.95633 -2.07213 -2.39091 "/>
<text fill-opacity="0" transform="matrix(1,0,0,1,-120.33099,-63.450013)" font-size="6.9738" font-family="CMMI7" x="204.246" y="66.513">
s
</text>
<symbol id="font_2_6"><path d="M .36 .386 C .33400002 .38 .31800003 .359 .31800003 .33900002 C .31800003 .316 .338 .307 .351 .307 C .361 .307 .39900003 .313 .39900003 .364 C .39900003 .42900001 .32700003 .451 .266 .451 C .11000001 .451 .08200001 .336 .08200001 .305 C .08200001 .268 .10300001 .24400002 .117000009 .23200002 C .143 .21200001 .16100002 .20800002 .23000002 .19600001 C .25100003 .19200002 .315 .18 .315 .13000001 C .315 .113000009 .30400003 .075 .262 .050000005 C .22299999 .028 .174 .028 .162 .028 C .122 .028 .065000005 .037 .042000003 .07 C .07500001 .074 .09700001 .099 .09700001 .127 C .09700001 .15200001 .079 .16400002 .058000007 .16400002 C .029 .16400002 0 .14100002 0 .097 C 0 .037 .064 0 .16100002 0 C .345 0 .379 .126 .379 .165 C .379 .257 .278 .275 .241 .282 C .232 .284 .20700002 .28800002 .201 .29 C .164 .297 .146 .31800003 .146 .34 C .146 .363 .164 .39000001 .18599999 .404 C .213 .421 .248 .423 .26500001 .423 C .286 .423 .338 .42000003 .36 .386 Z "/>
</symbol><use xlink:href="#font_2_6" transform="matrix(6.9738,0,0,-6.9738,84.41015,3.1327262)"/>
<text fill-opacity="0" transform="matrix(1,0,0,1,-120.33099,-63.450013)" font-size="4.9813" font-family="CMMI5" x="208.006" y="67.515">
U
</text>
<symbol id="font_5_1"><path d="M .68 .591 C .68700004 .619 .697 .65700007 .78800006 .66 C .79600006 .66 .814 .6610001 .814 .688 C .814 .69200001 .81100007 .70500002 .79700003 .70500002 C .77900005 .70500002 .758 .702 .74 .702 C .72200008 .702 .703 .70100003 .684 .70100003 C .66400004 .70100003 .64500003 .702 .625 .702 C .60700007 .702 .586 .70500002 .569 .70500002 C .56200004 .70500002 .545 .70500002 .545 .67700005 C .545 .66 .56 .66 .57000008 .66 C .63600006 .65900002 .64000006 .6380001 .64000006 .62100006 C .64000006 .61600008 .63900004 .61200004 .638 .60700007 L .54800005 .246 C .518 .14000001 .40000005 .045 .26000002 .045 C .20200002 .045 .10000001 .065000005 .10000001 .18200001 C .10000001 .20400001 .103 .22500001 .10800001 .246 L .20200002 .62000008 C .21000001 .65200009 .21200001 .66 .28800002 .66 C .314 .66 .316 .66 .32000003 .66300006 C .326 .669 .32900003 .68100005 .32900003 .688 C .32900003 .69000006 .328 .70500002 .31100002 .70500002 C .29000001 .70500002 .266 .702 .24400002 .702 C .22 .702 .19500003 .70100003 .171 .70100003 C .146 .70100003 .12200001 .702 .097 .702 C .074 .702 .048999996 .70500002 .026999996 .70500002 C .019999996 .70500002 .002000004 .70500002 .002000004 .67700005 C .002000004 .66 .013999999 .66 .039000006 .66 C .048999996 .66 .082 .66 .103 .65400005 C .103 .64100004 .103 .63900004 .102 .63400007 C .09900001 .623 .072 .51600004 .066 .49400006 C .046000004 .41100005 .024000004 .33000005 .004999995 .24700001 C .002000004 .23500002 0 .21700001 0 .20500002 C 0 .092 .10100001 0 .25500002 0 C .41000004 0 .559 .109000003 .59400006 .24800001 L .68 .591 Z "/>
</symbol><use xlink:href="#font_5_1" transform="matrix(4.9813,0,0,-4.9813,88.38733,4.174576)"/>
<path transform="matrix(1,0,0,-1,192.51001,24.00299)" stroke-width=".39848" stroke-linecap="butt" stroke-miterlimit="10" stroke-linejoin="miter" fill="none" stroke="rgb(0,0,0)" d="M -134.68664 8.76726 L -134.68664 -8.36877 "/>
<path transform="matrix(0,1,1,0,57.823366,32.571)" stroke-width=".39848" stroke-linecap="round" stroke-linejoin="round" fill="none" stroke="rgb(0,0,0)" d="M -2.07213 2.39091 C -1.69356 .95633 -.84995 .27893 0 0 C -.84995 -.27893 -1.69356 -.95633 -2.07213 -2.39091 "/>
<text fill-opacity="0" transform="matrix(1,0,0,1,-163.308,-40.76701)" font-size="6.9738" font-family="CMMI7" x="204.246" y="66.513">
h
</text>
<symbol id="font_2_5"><path d="M .23800002 .674 C .23900001 .676 .242 .689 .242 .69 C .242 .69500008 .23800002 .704 .22600003 .704 C .20600002 .704 .12300001 .69600006 .098000002 .694 C .09 .693 .076000004 .69200001 .076000004 .671 C .076000004 .657 .09 .657 .102 .657 C .15 .657 .15 .65000005 .15 .642 C .15 .635 .148 .629 .14600002 .62 L .0050000029 .054000006 C 0 .036000002 0 .034 0 .032 C 0 .017 .012000002 0 .034 0 C .045 0 .06400001 .0050000005 .075 .026 C .07800001 .032 .087 .068 .09200001 .089 L .11500001 .17800002 C .118 .19300002 .128 .23100002 .13100001 .24600002 C .141 .284 .141 .285 .16100002 .317 C .193 .366 .24300001 .423 .32100005 .423 C .37700004 .423 .38 .377 .38 .35300002 C .38 .293 .337 .18200001 .32100005 .14000001 C .31 .112 .306 .103 .306 .086 C .306 .033000005 .35000003 0 .40100003 0 C .50100003 0 .545 .13800001 .545 .15300001 C .545 .16600001 .53200007 .16600001 .52900005 .16600001 C .51500006 .16600001 .51400004 .16000001 .51000004 .14900002 C .48700004 .069000006 .44300003 .028 .40400005 .028 C .38300002 .028 .379 .042000003 .379 .063 C .379 .086 .384 .099 .402 .14400001 C .41400004 .17500001 .45500003 .28100003 .45500003 .337 C .45500003 .35300002 .45500003 .395 .41800004 .42400003 C .40100003 .437 .37200003 .451 .325 .451 C .25200004 .451 .19900002 .411 .16200002 .368 L .23800002 .674 Z "/>
</symbol><use xlink:href="#font_2_5" transform="matrix(6.9738,0,0,-6.9738,41.461038,25.81573)"/>
<text fill-opacity="0" transform="matrix(1,0,0,1,-163.308,-40.76701)" font-size="4.9813" font-family="CMMI5" x="208.91" y="67.515">
U
</text>
<use xlink:href="#font_5_1" transform="matrix(4.9813,0,0,-4.9813,46.31433,26.857579)"/>
<text fill-opacity="0" transform="matrix(1,0,0,1,-163.308,-40.76701)" font-size="6.9738" font-family="CMMI7" x="214.653" y="66.513">
&#x03c1;
</text>
<use xlink:href="#font_2_1" transform="matrix(6.9738,0,0,-6.9738,51.69369,27.238385)"/>
<text fill-opacity="0" transform="matrix(1,0,0,1,-119.39199,-40.01901)" font-size="9.9626" font-family="MSAM10" x="204.246" y="66.513">
&#x27f3;
</text>
<symbol id="font_6_1"><path d="M .25000003 .60800005 C .21400002 .56000004 .19900003 .513 .19300002 .476 L .22300002 .485 C .23000002 .526 .24800003 .573 .28800002 .61700006 C .31000004 .64000006 .31500004 .64100004 .32400003 .64100004 C .33400002 .64100004 .34500003 .642 .34500003 .65300007 C .34500003 .666 .33200002 .666 .32400003 .666 C .30800004 .666 .28000002 .66200008 .277 .66200008 C .27400003 .66200008 .20700002 .67600008 .15 .73800002 C .143 .73600007 .12600002 .731 .121 .73 C .16600001 .67800003 .22600001 .652 .23000002 .65000005 C .07 .59400006 0 .455 0 .333 C 0 .148 .15100003 0 .33200002 0 C .517 0 .665 .15100001 .665 .333 C .665 .538 .48900003 .634 .47100001 .634 C .46000004 .634 .45900006 .624 .45900006 .62200003 C .45900006 .615 .46400004 .61200004 .472 .60800005 C .614 .53000002 .64000006 .402 .64000006 .333 C .64000006 .162 .50000005 .025000003 .33300004 .025000003 C .162 .025000003 .024999998 .164 .024999998 .333 C .024999998 .46400003 .109000003 .587 .24500003 .628 L .25000003 .60800005 Z "/>
</symbol><use xlink:href="#font_6_1" transform="matrix(9.9626,0,0,-9.9626,85.41192,27.320889)"/>
<path transform="matrix(1,0,0,-1,192.51001,24.00299)" stroke-width=".39848" stroke-linecap="butt" stroke-miterlimit="10" stroke-linejoin="miter" fill="none" stroke="rgb(0,0,0)" d="M -72.87643 8.76726 L -72.87643 -8.36877 "/>
<path transform="matrix(0,1,1,0,119.63358,32.571)" stroke-width=".39848" stroke-linecap="round" stroke-linejoin="round" fill="none" stroke="rgb(0,0,0)" d="M -2.07213 2.39091 C -1.69356 .95633 -.84995 .27893 0 0 C -.84995 -.27893 -1.69356 -.95633 -2.07213 -2.39091 "/>
<text fill-opacity="0" transform="matrix(1,0,0,1,-82.26799,-40.76701)" font-size="6.9738" font-family="CMMI7" x="204.246" y="66.513">
h
</text>
<use xlink:href="#font_2_5" transform="matrix(6.9738,0,0,-6.9738,122.501049,25.81573)"/>
<text fill-opacity="0" transform="matrix(1,0,0,1,-82.26799,-40.76701)" font-size="4.9813" font-family="CMMI5" x="208.91" y="67.515">
V
</text>
<symbol id="font_5_2"><path d="M .713 .58100005 C .72 .59000006 .72 .59200006 .73300005 .60600005 C .75100003 .62600003 .78000002 .656 .845000066 .66 C .856 .6610001 .871999941 .6610001 .871999941 .688 C .871999941 .69400006 .86800004 .70500002 .856 .70500002 C .842 .70500002 .82600003 .702 .81100007 .702 C .796 .702 .78000002 .70100003 .76500006 .70100003 C .746 .70100003 .72800007 .702 .71000004 .702 C .69200001 .702 .671 .70500002 .653 .70500002 C .637 .70500002 .629 .69400006 .629 .67700005 C .629 .6610001 .64500003 .66 .652 .66 C .667 .65900002 .693 .65500002 .693 .63500004 C .693 .628 .689 .61600008 .675 .59700008 L .324 .115 L .20800002 .62500005 C .20600002 .63500004 .20600002 .637 .20600002 .64000006 C .20600002 .65400005 .23800002 .66 .273 .66 C .286 .66 .30300003 .66 .30300003 .688 C .30300003 .69600006 .297 .70500002 .28500004 .70500002 C .264 .70500002 .24000003 .702 .21800001 .702 C .19400002 .702 .17100002 .70100003 .147 .70100003 C .126 .70100003 .104 .702 .083000002 .702 C .063999997 .702 .041999997 .70500002 .024000004 .70500002 C .017000005 .70500002 0 .70500002 0 .67700005 C 0 .66 .013999999 .66 .032000006 .66 C .091000004 .66 .09200001 .65300007 .097 .632 L .23400001 .029000003 C .23900001 .008000001 .24100001 0 .26600004 0 C .278 0 .291 0 .30800004 .023000002 L .713 .58100005 Z "/>
</symbol><use xlink:href="#font_5_2" transform="matrix(4.9813,0,0,-4.9813,127.27962,26.857579)"/>
<text fill-opacity="0" transform="matrix(1,0,0,1,-82.26799,-40.76701)" font-size="6.9738" font-family="CMMI7" x="214.916" y="66.513">
&#x03c1;
</text>
<use xlink:href="#font_2_1" transform="matrix(6.9738,0,0,-6.9738,132.9967,27.238385)"/>
<path transform="matrix(1,0,0,-1,192.51001,24.00299)" stroke-width=".39848" stroke-linecap="butt" stroke-miterlimit="10" stroke-linejoin="miter" fill="none" stroke="rgb(0,0,0)" d="M 34.50592 17.59401 L 103.22708 17.59401 "/>
<path transform="matrix(-1,0,0,1,226.9163,6.4089814)" stroke-width=".39848" stroke-linecap="round" stroke-miterlimit="10" stroke-linejoin="miter" fill="none" stroke="rgb(0,0,0)" d="M 0 1.63379 L 0 -1.63379 "/>
<path transform="matrix(1,0,0,-1,295.93633,6.4089814)" stroke-width=".39848" stroke-linecap="round" stroke-linejoin="round" fill="none" stroke="rgb(0,0,0)" d="M -2.07213 2.39091 C -1.69356 .95633 -.84995 .27893 0 0 C -.84995 -.27893 -1.69356 -.95633 -2.07213 -2.39091 "/>
<path transform="matrix(1,0,0,-1,192.51001,24.00299)" stroke-width=".39848" stroke-linecap="butt" stroke-miterlimit="10" stroke-linejoin="miter" fill="none" stroke="rgb(0,0,0)" d="M 22.2305 9.46469 L 22.2305 -8.92226 "/>
<path transform="matrix(0,-1,-1,0,214.74051,14.438671)" stroke-width=".39848" stroke-linecap="round" stroke-miterlimit="10" stroke-linejoin="miter" fill="none" stroke="rgb(0,0,0)" d="M 0 1.63379 L 0 -1.63379 "/>
<path transform="matrix(0,1,1,0,214.74051,33.12449)" stroke-width=".39848" stroke-linecap="round" stroke-linejoin="round" fill="none" stroke="rgb(0,0,0)" d="M -2.07213 2.39091 C -1.69356 .95633 -.84995 .27893 0 0 C -.84995 -.27893 -1.69356 -.95633 -2.07213 -2.39091 "/>
<path transform="matrix(1,0,0,-1,192.51001,24.00299)" stroke-width=".39848" stroke-linecap="butt" stroke-miterlimit="10" stroke-linejoin="miter" fill="none" stroke="rgb(0,0,0)" d="M 134.75806 8.4684 L 134.75806 -8.36877 "/>
<path transform="matrix(0,-1,-1,0,327.26806,15.434971)" stroke-width=".39848" stroke-linecap="round" stroke-miterlimit="10" stroke-linejoin="miter" fill="none" stroke="rgb(0,0,0)" d="M 0 1.63379 L 0 -1.63379 "/>
<path transform="matrix(0,1,1,0,327.26806,32.571)" stroke-width=".39848" stroke-linecap="round" stroke-linejoin="round" fill="none" stroke="rgb(0,0,0)" d="M -2.07213 2.39091 C -1.69356 .95633 -.84995 .27893 0 0 C -.84995 -.27893 -1.69356 -.95633 -2.07213 -2.39091 "/>
<path transform="matrix(1,0,0,-1,192.51001,24.00299)" stroke-width=".39848" stroke-linecap="butt" stroke-miterlimit="10" stroke-linejoin="miter" fill="none" stroke="rgb(0,0,0)" d="M -115.59894 -17.594 L -92.4853028 -17.594 "/>
<path transform="matrix(1,0,0,-1,100.22394,41.596994)" stroke-width=".39848" stroke-linecap="round" stroke-linejoin="round" fill="none" stroke="rgb(0,0,0)" d="M -2.07213 2.39091 C -1.69356 .95633 -.84995 .27893 0 0 C -.84995 -.27893 -1.69356 -.95633 -2.07213 -2.39091 "/>
<text fill-opacity="0" transform="matrix(1,0,0,1,-120.67099,-19.56901)" font-size="6.9738" font-family="CMMI7" x="204.246" y="66.513">
s
</text>
<use xlink:href="#font_2_6" transform="matrix(6.9738,0,0,-6.9738,84.07015,47.01373)"/>
<text fill-opacity="0" transform="matrix(1,0,0,1,-120.67099,-19.56901)" font-size="4.9813" font-family="CMMI5" x="208.006" y="67.515">
X
</text>
<symbol id="font_5_3"><path d="M .554 .381 L .76800008 .57100006 C .82800007 .625 .88100005 .63600006 .9410001 .638 C .95500002 .63900004 .9610001 .656 .9610001 .666 C .9610001 .675 .95300007 .683 .944000043 .683 C .9280001 .683 .908 .68 .890999994 .68 C .8740001 .68 .85600005 .679 .83900004 .679 C .81700001 .679 .79600006 .68 .77500005 .68 C .75600005 .68 .73300005 .683 .71400004 .683 C .707 .683 .69000006 .683 .69000006 .65500002 C .69000006 .64100004 .70100003 .638 .70900007 .638 C .72300005 .637 .74100008 .633 .74100008 .61800004 C .74100008 .60400005 .73200007 .596 .70000005 .56700001 L .53300005 .416 L .411 .62 C .42700005 .633 .44700003 .637 .46500004 .638 C .47100001 .638 .48800003 .63900004 .48800003 .666 C .48800003 .67800003 .47800005 .683 .47000003 .683 C .44700003 .683 .421 .68 .39800004 .68 C .37500003 .68 .351 .679 .328 .679 C .307 .679 .28500004 .68 .26400004 .68 C .243 .68 .22100001 .683 .201 .683 C .18400002 .683 .17700002 .671 .17700002 .65500002 C .17700002 .638 .192 .638 .21000001 .638 C .27600003 .638 .282 .62700005 .291 .61200004 L .45200003 .34300003 L .21000001 .124000009 C .20700002 .12100001 .19800002 .115 .194 .113000009 C .153 .079 .11400001 .048 .019000001 .045 C .001000002 .044000005 0 .019000001 0 .017 C 0 .006 .009000003 0 .016000003 0 C .033000007 0 .052 .003 .069000006 .003 C .08600001 .003 .104 .004 .12100001 .004 C .143 .004 .164 .003 .185 .003 C .20500002 .003 .227 0 .24700001 0 C .261 0 .27100003 .007 .27100003 .028 C .27100003 .044000005 .256 .045 .252 .045 C .224 .047000003 .22 .059000005 .22 .065000005 C .22 .076000004 .23400003 .09200001 .236 .095000009 C .24100003 .1 .43400002 .272 .472 .30800004 L .61200004 .076000004 C .614 .072000003 .61800004 .066 .61800004 .064 C .61800004 .060000001 .601 .047000003 .56500006 .045 C .559 .045 .54200006 .044000005 .54200006 .017 C .54200006 .006 .55 0 .56 0 C .583 0 .609 .003 .632 .003 C .65500002 .003 .679 .004 .702 .004 C .72300005 .004 .74500008 .003 .76600004 .003 C .786 .003 .809 0 .82900008 0 C .846 0 .85300007 .012 .85300007 .028 C .85300007 .045 .838000096 .045 .82000008 .045 C .75500007 .045 .749 .056 .74 .07 L .554 .381 Z "/>
</symbol><use xlink:href="#font_5_3" transform="matrix(4.9813,0,0,-4.9813,87.81819,47.94599)"/>
<path transform="matrix(1,0,0,-1,192.51001,24.00299)" stroke-width=".39848" stroke-linecap="butt" stroke-miterlimit="10" stroke-linejoin="miter" fill="none" stroke="rgb(0,0,0)" d="M 51.00319 -17.594 L 73.81798 -17.594 "/>
<path transform="matrix(-1,0,0,1,243.41359,41.596994)" stroke-width=".39848" stroke-linecap="round" stroke-miterlimit="10" stroke-linejoin="miter" fill="none" stroke="rgb(0,0,0)" d="M 0 1.63379 L 0 -1.63379 "/>
<path transform="matrix(1,0,0,-1,266.52723,41.596994)" stroke-width=".39848" stroke-linecap="round" stroke-linejoin="round" fill="none" stroke="rgb(0,0,0)" d="M -2.07213 2.39091 C -1.69356 .95633 -.84995 .27893 0 0 C -.84995 -.27893 -1.69356 -.95633 -2.07213 -2.39091 "/>
</g>
</svg>
