<?xml version="1.0" standalone="no"?>
<!DOCTYPE svg PUBLIC "-//W3C//DTD SVG 1.1//EN" "http://www.w3.org/Graphics/SVG/1.1/DTD/svg11.dtd">
<svg xmlns="http://www.w3.org/2000/svg" xmlns:xlink="http://www.w3.org/1999/xlink" version="1.1" width="8.234045cm" height="4.02336cm" viewBox="0 0 233.406 114.048">
<clipPath id="cp0">
<path transform="matrix(1,0,0,-1,-86.292,726.138)" d="M 0 0 L 595.28 0 L 595.28 841.889963 L 0 841.889963 Z "/>
</clipPath>
<g clip-path="url(#cp0)">
<text fill-opacity="0" transform="matrix(1,0,0,1,-141.514,10.689987)" font-size="9.9626" font-family="CMMI10" x="257.08" y="-3.696">
S
</text>
<symbol id="font_1_2"><path d="M .59300004 .71700006 C .59300004 .72 .591 .72700005 .582 .72700005 C .577 .72700005 .57600003 .7260001 .56400009 .7120001 L .51600004 .65500002 C .49000006 .702 .43800002 .72700005 .37300003 .72700005 C .246 .72700005 .126 .61200004 .126 .49100004 C .126 .41000004 .179 .36400003 .23 .34900003 L .337 .32100005 C .374 .31200004 .42900001 .29700003 .42900001 .215 C .42900001 .12500002 .347 .031000004 .24900003 .031000004 C .18500002 .031000004 .074 .053000002 .074 .177 C .074 .201 .07900001 .22500001 .08 .231 C .081 .23500002 .082 .23600002 .082 .238 C .082 .24800001 .075 .24900002 .07000001 .24900002 C .065000005 .24900002 .063 .24800001 .060000001 .245 C .056 .24100001 0 .013000001 0 .010000002 C 0 .0040000005 .0050000029 0 .011 0 C .016000003 0 .017000005 .0010000002 .029 .0150000019 L .07800001 .072000003 C .12100001 .014000001 .18900001 0 .24700003 0 C .38300002 0 .50100003 .13300002 .50100003 .25700002 C .50100003 .32600003 .46700006 .36000004 .45200003 .37400005 C .42900001 .39700005 .41400004 .40100003 .325 .42400003 C .30300003 .43000003 .26700001 .44000002 .25800002 .44200002 C .23100002 .45100003 .19700001 .48000006 .19700001 .53300005 C .19700001 .614 .277 .69900008 .37200003 .69900008 C .45500003 .69900008 .51600004 .656 .51600004 .544 C .51600004 .512 .512 .49400006 .512 .48800003 C .512 .48700004 .512 .47800005 .52400007 .47800005 C .53400002 .47800005 .535 .48100005 .53900004 .49800004 L .59300004 .71700006 Z "/>
</symbol><use xlink:href="#font_1_2" transform="matrix(9.9626,0,0,-9.9626,116.08404,7.2131644)"/>
<text fill-opacity="0" transform="matrix(1,0,0,1,-141.514,10.689987)" font-size="6.9738" font-family="CMR7" x="263.189" y="-2.2020002">
3
</text>
<symbol id="font_2_1"><path d="M .219 .35400004 C .29700003 .35400004 .35300002 .3 .35300002 .193 C .35300002 .069000006 .28100003 .032 .223 .032 C .18300002 .032 .095 .043000007 .053000007 .102000009 C .10000001 .10400001 .111 .13700001 .111 .158 C .111 .19 .087 .213 .056000004 .213 C .028 .213 0 .19600001 0 .155 C 0 .061000004 .104 0 .22500001 0 C .36400003 0 .46 .09300001 .46 .193 C .46 .27100003 .39600003 .34900003 .286 .37200003 C .39100004 .41000004 .42900001 .48500004 .42900001 .546 C .42900001 .625 .33800004 .684 .22700002 .684 C .116 .684 .031 .63 .031 .55 C .031 .51600004 .053000007 .49700003 .083000002 .49700003 C .11400001 .49700003 .134 .52 .134 .548 C .134 .577 .11400001 .598 .083000002 .6 C .118 .644 .187 .65500002 .22400002 .65500002 C .26900003 .65500002 .33200002 .633 .33200002 .546 C .33200002 .504 .31800003 .45800004 .29200003 .42700001 C .25900004 .38900004 .23100002 .38700003 .18100001 .38400004 C .156 .38200002 .154 .38200002 .149 .38100005 C .147 .38100005 .139 .37900005 .139 .36800004 C .139 .35400004 .148 .35400004 .165 .35400004 L .219 .35400004 Z "/>
</symbol><use xlink:href="#font_2_1" transform="matrix(6.9738,0,0,-6.9738,122.051572,8.627463)"/>
<text fill-opacity="0" transform="matrix(1,0,0,1,-171.095,10.689989)" font-size="9.9626" font-family="CMR10" x="335.784 339.65946 349.62204 359.58462 364.56593" y="30.495 30.495 30.495 30.495 30.495">
(123)
</text>
<symbol id="font_3_1"><path d="M .23200002 .00999999 C .23200002 .012999982 .23200002 .014999986 .215 .03199999 C .09 .15799999 .058 .347 .058 .5 C .058 .674 .096 .84800005 .21900001 .97300005 C .23200002 .985 .23200002 .98700007 .23200002 .989999971 C .23200002 .99700003 .22800002 1 .222 1 C .21200001 1 .12200001 .93200007 .06299999 .805 C .012000002 .69500008 0 .584 0 .5 C 0 .422 .011 .301 .066 .188 C .126 .065 .21200001 0 .222 0 C .22800002 0 .23200002 .0029999912 .23200002 .00999999 Z "/>
</symbol><symbol id="font_3_3"><path d="M .205 .64000006 C .205 .66400004 .205 .666 .18200003 .666 C .120000004 .60200005 .032000006 .60200005 0 .60200005 L 0 .57100006 C .020000003 .57100006 .07900001 .57100006 .13100001 .597 L .13100001 .079 C .13100001 .043 .128 .031000002 .038000002 .031000002 L .0060000048 .031000002 L .0060000048 0 C .04100001 .003 .128 .003 .168 .003 C .20800002 .003 .29500003 .003 .33000005 0 L .33000005 .031000002 L .29800005 .031000002 C .20800002 .031000002 .205 .042000003 .205 .079 L .205 .64000006 Z "/>
</symbol><symbol id="font_3_4"><path d="M .07700001 .07700001 L .18300002 .18 C .33900002 .31800003 .39900003 .372 .39900003 .47200003 C .39900003 .586 .30900002 .666 .18700002 .666 C .074 .666 0 .574 0 .485 C 0 .42900001 .05 .42900001 .053000007 .42900001 C .07000001 .42900001 .105000007 .441 .105000007 .48200002 C .105000007 .508 .08700001 .53400002 .052000004 .53400002 C .044000005 .53400002 .042000008 .53400002 .039 .53300005 C .062000003 .59800005 .11600001 .63500004 .17400001 .63500004 C .26500001 .63500004 .308 .554 .308 .47200003 C .308 .39200001 .25800002 .31300002 .20300003 .25100003 L .011000004 .037 C 0 .026 0 .024 0 0 L .37100003 0 L .39900003 .17400001 L .374 .17400001 C .36900001 .14400001 .36200002 .1 .352 .085 C .345 .07700001 .279 .07700001 .257 .07700001 L .07700001 .07700001 Z "/>
</symbol><symbol id="font_3_5"><path d="M .24800003 .37400005 C .33 .40100003 .388 .47100006 .388 .55 C .388 .632 .3 .688 .204 .688 C .10300001 .688 .027000003 .628 .027000003 .55200005 C .027000003 .519 .049000001 .5 .078 .5 C .109000003 .5 .12900001 .522 .12900001 .55100008 C .12900001 .6010001 .082 .6010001 .067 .6010001 C .098 .65000005 .164 .66300006 .20000002 .66300006 C .24100003 .66300006 .29600003 .64100004 .29600003 .55100008 C .29600003 .53900004 .29400004 .48100005 .268 .43700004 C .238 .38900004 .204 .38600005 .17900002 .38500002 C .171 .38400004 .14700002 .38200002 .14000001 .38200002 C .132 .38100005 .125 .38000002 .125 .37000003 C .125 .35900002 .132 .35900002 .14900002 .35900002 L .19300002 .35900002 C .275 .35900002 .312 .29100004 .312 .193 C .312 .057000003 .24300003 .028 .199 .028 C .15600002 .028 .081 .045 .046000004 .104 C .081 .09900001 .11200001 .12100001 .11200001 .15900001 C .11200001 .19500001 .085 .215 .056 .215 C .031999999 .215 0 .201 0 .157 C 0 .06600001 .093 0 .20200002 0 C .32400003 0 .41500001 .091000004 .41500001 .193 C .41500001 .27500005 .35200003 .35300005 .24800003 .37400005 Z "/>
</symbol><symbol id="font_3_2"><path d="M .232 .5 C .232 .578 .22100001 .699 .16600001 .812000073 C .106 .93500004 .020000003 1 .009999998 1 C .0040000005 1 0 .99600008 0 .989999971 C 0 .98700007 0 .985 .019000001 .967 C .117000009 .86800004 .174 .709 .174 .5 C .174 .329 .137 .153 .012999997 .026999996 C 0 .014999986 0 .012999982 0 .00999999 C 0 .003999993 .0040000005 0 .009999998 0 C .020000003 0 .11000001 .06799999 .169 .195 C .22 .305 .232 .416 .232 .5 Z "/>
</symbol><use xlink:href="#font_3_1" transform="matrix(9.9626,0,0,-9.9626,165.6753,43.67564)"/>
<use xlink:href="#font_3_3" transform="matrix(9.9626,0,0,-9.9626,169.45112,41.18499)"/>
<use xlink:href="#font_3_4" transform="matrix(9.9626,0,0,-9.9626,179.02516,41.18499)"/>
<use xlink:href="#font_3_5" transform="matrix(9.9626,0,0,-9.9626,188.90805,41.404167)"/>
<use xlink:href="#font_3_2" transform="matrix(9.9626,0,0,-9.9626,194.03879,43.67564)"/>
<text fill-opacity="0" transform="matrix(1,0,0,1,-171.095,10.689989)" font-size="9.9626" font-family="CMMI10" x="368.44" y="30.495">
,
</text>
<symbol id="font_1_1"><path d="M .117000009 .194 C .117000009 .26 .092 .29900003 .05300001 .29900003 C .020000003 .29900003 0 .274 0 .246 C 0 .21900001 .020000003 .193 .05300001 .193 C .065000005 .193 .078 .197 .08800001 .206 C .091 .208 .092 .209 .093 .209 C .094000006 .209 .095000009 .208 .095000009 .194 C .095000009 .12 .06000001 .060000001 .027000003 .026999996 C .016000003 .016000003 .016000003 .013999999 .016000003 .0109999929 C .016000003 .003999993 .021000006 0 .026 0 C .037 0 .117000009 .077 .117000009 .194 Z "/>
</symbol><use xlink:href="#font_1_1" transform="matrix(9.9626,0,0,-9.9626,198.20178,43.107772)"/>
<text fill-opacity="0" transform="matrix(1,0,0,1,-171.095,10.689989)" font-size="9.9626" font-family="CMR10" x="372.868 376.74346 386.6961 396.6587 401.63999" y="30.495 30.495 30.495 30.495 30.495">
(132)
</text>
<use xlink:href="#font_3_1" transform="matrix(9.9626,0,0,-9.9626,202.75931,43.67564)"/>
<use xlink:href="#font_3_3" transform="matrix(9.9626,0,0,-9.9626,206.53514,41.18499)"/>
<use xlink:href="#font_3_5" transform="matrix(9.9626,0,0,-9.9626,216.01953,41.404167)"/>
<use xlink:href="#font_3_4" transform="matrix(9.9626,0,0,-9.9626,226.06181,41.18499)"/>
<use xlink:href="#font_3_2" transform="matrix(9.9626,0,0,-9.9626,231.11285,43.67564)"/>
<text fill-opacity="0" transform="matrix(1,0,0,1,-147.572,10.689987)" font-size="9.9626" font-family="CMR10" x="146.716 150.59146 160.5441 165.52539" y="65.683 65.683 65.683 65.683">
(23)
</text>
<use xlink:href="#font_3_1" transform="matrix(9.9626,0,0,-9.9626,.13029464,78.86363)"/>
<use xlink:href="#font_3_4" transform="matrix(9.9626,0,0,-9.9626,3.517585,76.372986)"/>
<use xlink:href="#font_3_5" transform="matrix(9.9626,0,0,-9.9626,13.390521,76.59216)"/>
<use xlink:href="#font_3_2" transform="matrix(9.9626,0,0,-9.9626,18.521252,78.86363)"/>
<text fill-opacity="0" transform="matrix(1,0,0,1,-147.572,10.689987)" font-size="9.9626" font-family="CMR10" x="201.898 205.77345 215.72609 220.70738" y="65.683 65.683 65.683 65.683">
(12)
</text>
<use xlink:href="#font_3_1" transform="matrix(9.9626,0,0,-9.9626,55.312286,78.86363)"/>
<use xlink:href="#font_3_3" transform="matrix(9.9626,0,0,-9.9626,59.08812,76.372986)"/>
<use xlink:href="#font_3_4" transform="matrix(9.9626,0,0,-9.9626,68.652216,76.372986)"/>
<use xlink:href="#font_3_2" transform="matrix(9.9626,0,0,-9.9626,73.70325,78.86363)"/>
<text fill-opacity="0" transform="matrix(1,0,0,1,-147.572,10.689987)" font-size="9.9626" font-family="CMR10" x="257.08 260.95544 270.90807 275.88938" y="65.683 65.683 65.683 65.683">
(13)
</text>
<use xlink:href="#font_3_1" transform="matrix(9.9626,0,0,-9.9626,110.49428,78.86363)"/>
<use xlink:href="#font_3_3" transform="matrix(9.9626,0,0,-9.9626,114.27011,76.372986)"/>
<use xlink:href="#font_3_5" transform="matrix(9.9626,0,0,-9.9626,123.7545,76.59216)"/>
<use xlink:href="#font_3_2" transform="matrix(9.9626,0,0,-9.9626,128.88524,78.86363)"/>
<text fill-opacity="0" transform="matrix(1,0,0,1,-142.59001,10.689987)" font-size="9.9626" font-family="CMR10" x="257.08 260.95544 265.93674" y="100.87 100.87 100.87">
(1)
</text>
<use xlink:href="#font_3_1" transform="matrix(9.9626,0,0,-9.9626,115.47627,114.05064)"/>
<use xlink:href="#font_3_3" transform="matrix(9.9626,0,0,-9.9626,119.252109,111.55999)"/>
<use xlink:href="#font_3_2" transform="matrix(9.9626,0,0,-9.9626,123.9146,114.05064)"/>
<path transform="matrix(1,0,0,-1,116.788,57.11799)" stroke-width=".39848" stroke-linecap="butt" stroke-miterlimit="10" stroke-linejoin="miter" fill="none" stroke="rgb(0,0,0)" d="M 62.4602 27.25099 L 13.84613 48.3712 "/>
<path transform="matrix(1,0,0,-1,116.788,57.11799)" stroke-width=".39848" stroke-linecap="butt" stroke-miterlimit="10" stroke-linejoin="miter" fill="none" stroke="rgb(0,0,0)" d="M -92.26381 -7.937 L -5.70992 46.47545 "/>
<path transform="matrix(1,0,0,-1,116.788,57.11799)" stroke-width=".39848" stroke-linecap="butt" stroke-miterlimit="10" stroke-linejoin="miter" fill="none" stroke="rgb(0,0,0)" d="M -44.09933 -7.937 L -2.15933 44.78552 "/>
<path transform="matrix(1,0,0,-1,116.788,57.11799)" stroke-width=".39848" stroke-linecap="butt" stroke-miterlimit="10" stroke-linejoin="miter" fill="none" stroke="rgb(0,0,0)" d="M 4.0681 -7.937 L 4.0681 44.78552 "/>
<path transform="matrix(1,0,0,-1,116.788,57.11799)" stroke-width=".39848" stroke-linecap="butt" stroke-miterlimit="10" stroke-linejoin="miter" fill="none" stroke="rgb(0,0,0)" d="M -6.78577 -48.49416 L -90.46193 -21.8072 "/>
<path transform="matrix(1,0,0,-1,116.788,57.11799)" stroke-width=".39848" stroke-linecap="butt" stroke-miterlimit="10" stroke-linejoin="miter" fill="none" stroke="rgb(0,0,0)" d="M -6.78577 -45.03244 L -37.27617 -25.59047 "/>
<path transform="matrix(1,0,0,-1,116.788,57.11799)" stroke-width=".39848" stroke-linecap="butt" stroke-miterlimit="10" stroke-linejoin="miter" fill="none" stroke="rgb(0,0,0)" d="M 4.0681 -43.125 L 4.0681 -25.59047 "/>
<path transform="matrix(1,0,0,-1,116.788,57.11799)" stroke-width=".39848" stroke-linecap="butt" stroke-miterlimit="10" stroke-linejoin="miter" fill="none" stroke="rgb(0,0,0)" d="M 13.93312 -43.125 L 72.91058 9.59752 "/>
</g>
</svg>
