<?xml version="1.0" standalone="no"?>
<!DOCTYPE svg PUBLIC "-//W3C//DTD SVG 1.1//EN" "http://www.w3.org/Graphics/SVG/1.1/DTD/svg11.dtd">
<svg xmlns="http://www.w3.org/2000/svg" xmlns:xlink="http://www.w3.org/1999/xlink" version="1.1" width="5.207635cm" height="1.5214599cm" viewBox="0 0 147.618 43.128">
<clipPath id="cp0">
<path transform="matrix(1,0,0,-1,-85.806,726.156)" d="M 0 0 L 595.28 0 L 595.28 841.889963 L 0 841.889963 Z "/>
</clipPath>
<g clip-path="url(#cp0)">
<text fill-opacity="0" transform="matrix(1,0,0,1,-106.079995,-24.314009)" font-size="9.9626" font-family="CMMI10" x="165.85" y="31.325">
C
</text>
<symbol id="font_1_1"><path d="M .71000004 .71700006 C .71000004 .72 .708 .72700005 .699 .72700005 C .69600006 .72700005 .69500008 .7260001 .684 .71500006 L .614 .6380001 C .605 .65200009 .559 .72700005 .448 .72700005 C .22500001 .72700005 0 .50600005 0 .27400003 C 0 .109000003 .118000019 0 .271 0 C .358 0 .43400002 .040000004 .487 .086 C .58000002 .16800001 .597 .25900004 .597 .26200003 C .597 .272 .587 .272 .58500004 .272 C .579 .272 .574 .27 .572 .26200003 C .563 .23300001 .54 .162 .47100001 .104 C .402 .048 .33900002 .031000004 .287 .031000004 C .19700001 .031000004 .091000004 .083000002 .091000004 .23900001 C .091000004 .29600003 .112 .45800004 .21200003 .57500005 C .273 .646 .367 .69600006 .45600004 .69600006 C .558 .69600006 .61700006 .619 .61700006 .503 C .61700006 .46300002 .614 .46200004 .614 .45200003 C .614 .44200002 .625 .44200002 .629 .44200002 C .642 .44200002 .642 .44400005 .647 .46200004 L .71000004 .71700006 Z "/>
</symbol><use xlink:href="#font_1_1" transform="matrix(9.9626,0,0,-9.9626,60.268144,7.2301693)"/>
<text fill-opacity="0" transform="matrix(1,0,0,1,-106.079995,-24.314009)" font-size="9.9626" font-family="CMSY10" x="175.897" y="31.325">
&#x2297;
</text>
<symbol id="font_2_1"><path d="M .66700006 .333 C .66700006 .517 .517 .666 .33400002 .666 C .148 .666 0 .515 0 .333 C 0 .149 .15 0 .333 0 C .519 0 .66700006 .15100001 .66700006 .333 M .135 .54800005 C .133 .55 .126 .55700007 .126 .559 C .126 .563 .20700002 .64100004 .333 .64100004 C .368 .64100004 .46000004 .63600006 .542 .559 L .33400002 .35000003 L .135 .54800005 M .106000009 .124000009 C .044999999 .192 .025000003 .269 .025000003 .333 C .025000003 .41000004 .054 .483 .106000009 .54200006 L .315 .333 L .106000009 .124000009 M .56 .54200006 C .60800005 .49100004 .642 .41500001 .642 .333 C .642 .256 .61300002 .183 .56100007 .124000009 L .352 .333 L .56 .54200006 M .532 .118 C .53400002 .116000007 .541 .109000003 .541 .10700001 C .541 .10300001 .46000004 .025000003 .33400002 .025000003 C .299 .025000003 .20700002 .030000001 .125 .10700001 L .333 .316 L .532 .118 Z "/>
</symbol><use xlink:href="#font_2_1" transform="matrix(9.9626,0,0,-9.9626,70.36495,7.837888)"/>
<text fill-opacity="0" transform="matrix(1,0,0,1,-106.079995,-24.314009)" font-size="9.9626" font-family="CMMI10" x="185.86" y="31.325">
C
</text>
<use xlink:href="#font_1_1" transform="matrix(9.9626,0,0,-9.9626,80.27814,7.2301693)"/>
<text fill-opacity="0" transform="matrix(1,0,0,1,-105.98399,-24.31401)" font-size="9.9626" font-family="CMMI10" x="105.614" y="64.188">
R
</text>
<symbol id="font_1_2"><path d="M .33400002 .63600006 C .34 .66 .343 .67 .36200002 .67300005 C .37100003 .674 .40300003 .674 .423 .674 C .49400001 .674 .605 .674 .605 .57500005 C .605 .54100009 .58900004 .47200003 .55 .43300004 C .524 .40700003 .47100001 .37500003 .381 .37500003 L .269 .37500003 L .33400002 .63600006 M .47800005 .36200002 C .579 .38400004 .698 .45400004 .698 .55500007 C .698 .64100004 .60800005 .70500002 .477 .70500002 L .192 .70500002 C .17200002 .70500002 .16300002 .70500002 .16300002 .68500004 C .16300002 .674 .17200002 .674 .19100001 .674 C .19300002 .674 .21200001 .674 .229 .67200003 C .24700001 .67 .256 .669 .256 .656 C .256 .65200009 .255 .64900007 .252 .637 L .11800001 .1 C .108 .061000004 .106 .053000002 .027000003 .053000002 C .009 .053000002 0 .053000002 0 .033000005 C 0 .022000002 .012000002 .022000002 .014000002 .022000002 C .042000003 .022000002 .11200001 .025000003 .14000001 .025000003 C .16800001 .025000003 .239 .022000002 .26700001 .022000002 C .275 .022000002 .287 .022000002 .287 .042000003 C .287 .053000002 .278 .053000002 .259 .053000002 C .222 .053000002 .194 .053000002 .194 .071 C .194 .07700001 .19600001 .082 .197 .088 L .263 .35300005 L .382 .35300005 C .473 .35300005 .491 .29700003 .491 .26200003 C .491 .24700001 .48300005 .216 .477 .193 C .47000003 .165 .46100002 .128 .46100002 .108 C .46100002 0 .58100005 0 .59400006 0 C .679 0 .71400004 .101 .71400004 .115 C .71400004 .127 .703 .127 .702 .127 C .693 .127 .69100004 .120000004 .689 .113000009 C .66400004 .039000006 .62100006 .022000002 .59800005 .022000002 C .565 .022000002 .558 .044000005 .558 .083000002 C .558 .11400001 .564 .165 .568 .19700001 C .57 .21100001 .572 .23 .572 .24400002 C .572 .32100005 .505 .35200003 .47800005 .36200002 Z "/>
</symbol><use xlink:href="#font_1_2" transform="matrix(9.9626,0,0,-9.9626,.038471482,40.09317)"/>
<text fill-opacity="0" transform="matrix(1,0,0,1,-105.98399,-24.31401)" font-size="9.9626" font-family="CMSY10" x="115.47" y="64.188">
&#x2297;
</text>
<use xlink:href="#font_2_1" transform="matrix(9.9626,0,0,-9.9626,10.033951,40.70089)"/>
<text fill-opacity="0" transform="matrix(1,0,0,1,-105.98399,-24.31401)" font-size="9.9626" font-family="CMMI10" x="125.432" y="64.188">
C
</text>
<use xlink:href="#font_1_1" transform="matrix(9.9626,0,0,-9.9626,19.946137,40.09317)"/>
<text fill-opacity="0" transform="matrix(1,0,0,1,-96.075,-24.31401)" font-size="9.9626" font-family="CMMI10" x="165.85" y="64.188">
C
</text>
<use xlink:href="#font_1_1" transform="matrix(9.9626,0,0,-9.9626,70.27314,40.09317)"/>
<text fill-opacity="0" transform="matrix(1,0,0,1,-105.98399,-24.31401)" font-size="9.9626" font-family="CMMI10" x="226.086" y="64.188">
C
</text>
<use xlink:href="#font_1_1" transform="matrix(9.9626,0,0,-9.9626,120.600139,40.09317)"/>
<text fill-opacity="0" transform="matrix(1,0,0,1,-105.98399,-24.31401)" font-size="9.9626" font-family="CMSY10" x="236.133" y="64.188">
&#x2297;
</text>
<use xlink:href="#font_2_1" transform="matrix(9.9626,0,0,-9.9626,130.69695,40.70089)"/>
<text fill-opacity="0" transform="matrix(1,0,0,1,-105.98399,-24.31401)" font-size="9.9626" font-family="CMMI10" x="246.096" y="64.188">
R
</text>
<use xlink:href="#font_1_2" transform="matrix(9.9626,0,0,-9.9626,140.52046,40.09317)"/>
<path transform="matrix(1,0,0,-1,73.693,20.453995)" stroke-width=".39848" stroke-linecap="butt" stroke-miterlimit="10" stroke-linejoin="miter" fill="none" stroke="rgb(0,0,0)" d="M -13.13545 8.76726 L -44.93146 -8.57645 "/>
<path transform="matrix(-.87784,.47884,.47884,.87784,28.586663,29.125855)" stroke-width=".39848" stroke-linecap="round" stroke-linejoin="round" fill="none" stroke="rgb(0,0,0)" d="M -2.07213 2.39091 C -1.69356 .95633 -.84995 .27893 0 0 C -.84995 -.27893 -1.69356 -.95633 -2.07213 -2.39091 "/>
<text fill-opacity="0" transform="matrix(1,0,0,1,-67.36,-47.08001)" font-size="6.9738" font-family="CMMI7" x="87.499" y="64.188">
&#x03f5;
</text>
<symbol id="font_3_1"><path d="M .28100003 .23400001 C .296 .23400001 .315 .23400001 .315 .25300003 C .315 .27 .3 .27 .28100003 .27 L .102 .27 C .132 .361 .19700001 .405 .28500004 .405 L .323 .405 C .339 .405 .35800005 .405 .35800005 .42400003 C .35800005 .441 .34400005 .441 .325 .441 L .282 .441 C .149 .441 0 .34800003 0 .19600001 C 0 .079 .089 0 .205 0 C .235 0 .277 .0050000005 .33000005 .035 C .35000003 .046000004 .352 .049000001 .352 .055000005 C .352 .058000002 .352 .075 .337 .075 C .333 .075 .33100004 .074 .325 .07 C .29000001 .047000003 .24800001 .028 .207 .028 C .16700001 .028 .08400001 .048000003 .08400001 .16200002 C .08400001 .17600002 .08400001 .19600001 .09300001 .23400001 L .28100003 .23400001 Z "/>
</symbol><use xlink:href="#font_3_1" transform="matrix(6.9738,0,0,-6.9738,20.613219,17.177733)"/>
<text fill-opacity="0" transform="matrix(1,0,0,1,-67.36,-47.08001)" font-size="6.9738" font-family="CMSY7" x="90.82" y="64.188">
&#x2297;
</text>
<symbol id="font_4_1"><path d="M .73800002 .368 C .73800002 .573 .571 .73700004 .36900001 .73700004 C .165 .73700004 0 .57000008 0 .36900001 C 0 .164 .16700001 0 .36900001 0 C .573 0 .73800002 .16700001 .73800002 .368 M .14500001 .61700006 C .186 .65400005 .263 .70300007 .36900001 .70300007 C .47500001 .70300007 .552 .65400005 .593 .61700006 L .36900001 .393 L .14500001 .61700006 M .12100001 .14500001 C .066 .20200002 .034 .286 .034 .368 C .034 .45600004 .069000006 .53800006 .12100001 .59200006 L .34500003 .36900001 L .12100001 .14500001 M .617 .59200006 C .672 .535 .704 .451 .704 .36900001 C .704 .28100003 .669 .199 .617 .14500001 L .393 .368 L .617 .59200006 M .593 .120000004 C .552 .083000002 .47500001 .034 .36900001 .034 C .263 .034 .186 .083000002 .14500001 .120000004 L .36900001 .344 L .593 .120000004 Z "/>
</symbol><use xlink:href="#font_4_1" transform="matrix(6.9738,0,0,-6.9738,23.996983,17.930903)"/>
<text fill-opacity="0" transform="matrix(1,0,0,1,-67.36,-47.08001)" font-size="6.9738" font-family="CMR7" x="97.0460023 99.29854" y="64.188 64.188">
id
</text>
<symbol id="font_5_3"><path d="M .155 .61700006 C .155 .646 .13100001 .674 .09700001 .674 C .067 .674 .04 .65000005 .04 .61700006 C .04 .58100005 .069 .559 .09700001 .559 C .12900001 .559 .155 .58400007 .155 .61700006 M .0030000024 .43 L .0030000024 .39400003 C .06600001 .39400003 .07500001 .388 .07500001 .33900002 L .07500001 .079 C .07500001 .036000002 .065000005 .036000002 0 .036000002 L 0 0 C .0020000003 0 .072000003 .004 .11200001 .004 C .14700002 .004 .183 .003 .21800003 0 L .21800003 .036000002 C .16 .036000002 .15 .036000002 .15 .078 L .15 .441 L .0030000024 .43 Z "/>
</symbol><symbol id="font_5_2"><path d="M .31 .693 L .31 .657 C .377 .657 .38500002 .65000005 .38500002 .601 L .38500002 .394 C .34800003 .43 .3 .451 .245 .451 C .112 .451 0 .351 0 .22500001 C 0 .1 .106000009 0 .23300001 0 C .31500004 0 .36400003 .044000005 .381 .062000003 L .381 0 L .535 .010000001 L .535 .046000004 C .468 .046000004 .46000004 .053000002 .46000004 .102000009 L .46000004 .704 L .31 .693 M .381 .115 C .35500002 .068 .30400003 .028 .23900002 .028 C .18300002 .028 .143 .061000004 .12300001 .09 C .103 .120000004 .091000004 .16000001 .091000004 .22400002 C .091000004 .24700003 .091000004 .322 .132 .36900001 C .172 .414 .22100001 .423 .25 .423 C .298 .423 .34100003 .40100003 .36900001 .365 C .381 .349 .381 .34800003 .381 .329 L .381 .115 Z "/>
</symbol><use xlink:href="#font_5_3" transform="matrix(6.9738,0,0,-6.9738,30.07653,17.107995)"/>
<use xlink:href="#font_5_2" transform="matrix(6.9738,0,0,-6.9738,32.25933,17.177733)"/>
<text fill-opacity="0" transform="matrix(1,0,0,1,-67.36,-47.08001)" font-size="4.9813" font-family="CMMI5" x="103.701999" y="65.19">
C
</text>
<symbol id="font_6_1"><path d="M .86 .71300006 C .86 .71400004 .86 .72700005 .84400006 .72700005 C .838000096 .72700005 .837 .7260001 .82500002 .71500006 L .75600005 .646 C .754 .64400006 .74700003 .637 .745 .637 C .74300004 .637 .74100008 .64000006 .74 .64000006 C .72 .66200008 .65900002 .72700005 .528 .72700005 C .25300003 .72700005 0 .512 0 .29300004 C 0 .13000001 .14000001 0 .354 0 C .45500003 0 .544 .034 .605 .07300001 C .73300005 .156 .748 .263 .748 .26400004 C .748 .27800003 .734 .27800003 .72700005 .27800003 C .716 .27800003 .71000004 .27700005 .70600005 .26500001 C .65800005 .107 .49200005 .045 .379 .045 C .262 .045 .11100001 .095000009 .11100001 .27 C .11100001 .38200002 .17000002 .49800004 .23300001 .558 C .349 .66800004 .481 .68200007 .54300004 .68200007 C .671 .68200007 .75200005 .59900003 .75200005 .48400002 C .75200005 .46200004 .75000005 .45700006 .75000005 .45100003 C .75000005 .43600006 .76400004 .43600006 .77300005 .43600006 C .79200006 .43600006 .79200006 .43900004 .79700003 .45800004 L .86 .71300006 Z "/>
</symbol><use xlink:href="#font_6_1" transform="matrix(4.9813,0,0,-4.9813,36.914845,18.219582)"/>
<path transform="matrix(1,0,0,-1,73.693,20.453995)" stroke-width=".39848" stroke-linecap="butt" stroke-miterlimit="10" stroke-linejoin="miter" fill="none" stroke="rgb(0,0,0)" d="M 13.13545 8.76726 L 44.93146 -8.57645 "/>
<path transform="matrix(.87784,.47884,.47884,-.87784,118.79934,29.125855)" stroke-width=".39848" stroke-linecap="round" stroke-linejoin="round" fill="none" stroke="rgb(0,0,0)" d="M -2.07213 2.39091 C -1.69356 .95633 -.84995 .27893 0 0 C -.84995 -.27893 -1.69356 -.95633 -2.07213 -2.39091 "/>
<text fill-opacity="0" transform="matrix(1,0,0,1,17.746,-47.08001)" font-size="6.9738" font-family="CMR7" x="87.499 89.75154" y="64.188 64.188">
id
</text>
<use xlink:href="#font_5_3" transform="matrix(6.9738,0,0,-6.9738,105.63554,17.107995)"/>
<use xlink:href="#font_5_2" transform="matrix(6.9738,0,0,-6.9738,107.81834,17.177733)"/>
<text fill-opacity="0" transform="matrix(1,0,0,1,17.746,-47.08001)" font-size="4.9813" font-family="CMMI5" x="94.155" y="65.19">
C
</text>
<use xlink:href="#font_6_1" transform="matrix(4.9813,0,0,-4.9813,112.473857,18.219582)"/>
<text fill-opacity="0" transform="matrix(1,0,0,1,17.746,-47.08001)" font-size="6.9738" font-family="CMSY7" x="99.952994" y="64.188">
&#x2297;
</text>
<use xlink:href="#font_4_1" transform="matrix(6.9738,0,0,-6.9738,118.23598,17.930903)"/>
<text fill-opacity="0" transform="matrix(1,0,0,1,17.746,-47.08001)" font-size="6.9738" font-family="CMMI7" x="106.17999" y="64.188">
&#x03f5;
</text>
<use xlink:href="#font_3_1" transform="matrix(6.9738,0,0,-6.9738,124.400212,17.177733)"/>
<path transform="matrix(1,0,0,-1,73.693,20.453995)" stroke-width=".39848" stroke-linecap="butt" stroke-miterlimit="10" stroke-linejoin="miter" fill="none" stroke="rgb(0,0,0)" d="M 0 -8.76724 L 0 8.36879 "/>
<path transform="matrix(0,-1,-1,0,73.693,11.885975)" stroke-width=".39848" stroke-linecap="round" stroke-linejoin="round" fill="none" stroke="rgb(0,0,0)" d="M -2.07213 2.39091 C -1.69356 .95633 -.84995 .27893 0 0 C -.84995 -.27893 -1.69356 -.95633 -2.07213 -2.39091 "/>
<text fill-opacity="0" transform="matrix(1,0,0,1,-22.695,-41.35101)" font-size="6.9738" font-family="CMR7" x="87.499" y="64.188">
&#x2206;
</text>
<symbol id="font_5_1"><path d="M .44000006 .69000006 C .43 .708 .42700005 .71300006 .407 .71300006 C .39500003 .71300006 .385 .71000004 .376 .694 L .0069999991 .024 C 0 .013 0 .011000001 0 .010000001 C 0 0 .008000001 0 .023999997 0 L .79100009 0 C .80700007 0 .81500006 0 .81500006 .010000001 C .81500006 .011000001 .81500006 .013 .808 .024 L .44000006 .69000006 M .374 .615 L .66800004 .082 L .08 .082 L .374 .615 Z "/>
</symbol><use xlink:href="#font_5_1" transform="matrix(6.9738,0,0,-6.9738,65.2294,22.836995)"/>
<path transform="matrix(1,0,0,-1,73.693,20.453995)" stroke-width=".39848" stroke-linecap="butt" stroke-miterlimit="10" stroke-linejoin="miter" fill="none" stroke="rgb(0,0,0)" d="M -8.40536 -16.92978 L -41.52393 -16.92978 "/>
<path transform="matrix(-1,0,0,1,31.969841,37.383774)" stroke-width=".39848" stroke-linecap="round" stroke-linejoin="round" fill="none" stroke="rgb(0,0,0)" d="M -2.07213 2.39091 C -1.69356 .95633 -.84995 .27893 0 0 C -.84995 -.27893 -1.69356 -.95633 -2.07213 -2.39091 "/>
<text fill-opacity="0" transform="matrix(1,0,0,1,-42.083,-21.016009)" font-size="6.9738" font-family="CMSY7" x="87.499" y="64.188">
&#x2243;
</text>
<symbol id="font_4_2"><path d="M .73800002 .449 C .73800002 .486 .72400003 .48700003 .721 .48700003 C .711 .48700003 .70500002 .47 .704 .46 C .703 .44 .7 .393 .661 .357 C .62200003 .32 .583 .313 .55300003 .313 C .485 .313 .436 .351 .362 .40800003 C .31200004 .446 .254 .488 .18500002 .488 C .077999993 .488 0 .391 0 .283 C 0 .24700003 .013999999 .24500002 .016999998 .24500002 C .027999998 .24500002 .033 .264 .034 .272 C .034999996 .292 .037999995 .33900002 .07700001 .375 C .116 .412 .155 .419 .18500002 .419 C .25300003 .419 .302 .381 .376 .324 C .426 .286 .48400002 .244 .55300003 .244 C .66 .244 .73800002 .341 .73800002 .449 M .04 .049000001 C .022999995 .049000001 0 .049000001 0 .024 C 0 0 .023999997 0 .04 0 L .698 0 C .714 0 .73800002 0 .73800002 .024 C .73800002 .049000001 .71500006 .049000001 .698 .049000001 L .04 .049000001 Z "/>
</symbol><use xlink:href="#font_4_2" transform="matrix(6.9738,0,0,-6.9738,45.952983,43.130155)"/>
<path transform="matrix(1,0,0,-1,73.693,20.453995)" stroke-width=".39848" stroke-linecap="butt" stroke-miterlimit="10" stroke-linejoin="miter" fill="none" stroke="rgb(0,0,0)" d="M 8.40536 -16.92978 L 41.52393 -16.92978 "/>
<path transform="matrix(1,0,0,-1,115.41616,37.383774)" stroke-width=".39848" stroke-linecap="round" stroke-linejoin="round" fill="none" stroke="rgb(0,0,0)" d="M -2.07213 2.39091 C -1.69356 .95633 -.84995 .27893 0 0 C -.84995 -.27893 -1.69356 -.95633 -2.07213 -2.39091 "/>
<text fill-opacity="0" transform="matrix(1,0,0,1,8.2439995,-21.016009)" font-size="6.9738" font-family="CMSY7" x="87.499" y="64.188">
&#x2243;
</text>
<use xlink:href="#font_4_2" transform="matrix(6.9738,0,0,-6.9738,96.279974,43.130155)"/>
</g>
</svg>
