<?xml version="1.0" standalone="no"?>
<!DOCTYPE svg PUBLIC "-//W3C//DTD SVG 1.1//EN" "http://www.w3.org/Graphics/SVG/1.1/DTD/svg11.dtd">
<svg xmlns="http://www.w3.org/2000/svg" xmlns:xlink="http://www.w3.org/1999/xlink" version="1.1" width="5.1568347cm" height="1.52527cm" viewBox="0 0 146.178 43.236">
<clipPath id="cp0">
<path transform="matrix(1,0,0,-1,-85.806,726.26401)" d="M 0 0 L 595.28 0 L 595.28 841.889963 L 0 841.889963 Z "/>
</clipPath>
<g clip-path="url(#cp0)">
<text fill-opacity="0" transform="matrix(1,0,0,1,-104.995991,-24.205977)" font-size="9.9626" font-family="CMMI10" x="164.406" y="31.325">
A
</text>
<symbol id="font_1_1"><path d="M .14400001 .115 C .10400002 .048 .065 .034 .021000002 .031000002 C .009000003 .030000001 0 .030000001 0 .011000001 C 0 .0050000005 .0050000029 0 .013 0 C .040000004 0 .07100001 .003 .09900001 .003 C .13200002 .003 .16700001 0 .19900002 0 C .20500002 0 .21800003 0 .21800003 .019000001 C .21800003 .030000001 .20900002 .031000002 .20200002 .031000002 C .17900002 .033 .15500002 .041 .15500002 .066 C .15500002 .078 .16100002 .089 .16900002 .10300001 L .245 .231 L .49600001 .231 C .49800005 .21000001 .512 .074 .512 .064 C .512 .034 .46000004 .031000002 .44000002 .031000002 C .42600003 .031000002 .41600004 .031000002 .41600004 .011000001 C .41600004 0 .42800003 0 .43000003 0 C .47100006 0 .514 .003 .555 .003 C .58 .003 .643 0 .668 0 C .674 0 .686 0 .686 .020000002 C .686 .031000002 .676 .031000002 .663 .031000002 C .601 .031000002 .601 .038000002 .598 .067 L .537 .69200001 C .535 .712 .535 .716 .518 .716 C .502 .716 .49800005 .70900007 .492 .69900008 L .14400001 .115 M .26400004 .26200003 L .46100002 .592 L .493 .26200003 L .26400004 .26200003 Z "/>
</symbol><use xlink:href="#font_1_1" transform="matrix(9.9626,0,0,-9.9626,59.7587,7.1190243)"/>
<text fill-opacity="0" transform="matrix(1,0,0,1,-104.995991,-24.205977)" font-size="9.9626" font-family="CMSY10" x="174.09201" y="31.325">
&#x2297;
</text>
<symbol id="font_2_1"><path d="M .66700006 .333 C .66700006 .517 .517 .666 .33400002 .666 C .148 .666 0 .515 0 .333 C 0 .149 .15 0 .333 0 C .519 0 .66700006 .15100001 .66700006 .333 M .135 .54800005 C .133 .55 .126 .55700007 .126 .559 C .126 .563 .20700002 .64100004 .333 .64100004 C .368 .64100004 .46000004 .63600006 .542 .559 L .33400002 .35000003 L .135 .54800005 M .106000009 .124000009 C .044999999 .192 .025000003 .269 .025000003 .333 C .025000003 .41000004 .054 .483 .106000009 .54200006 L .315 .333 L .106000009 .124000009 M .56 .54200006 C .60800005 .49100004 .642 .41500001 .642 .333 C .642 .256 .61300002 .183 .56100007 .124000009 L .352 .333 L .56 .54200006 M .532 .118 C .53400002 .116000007 .541 .109000003 .541 .10700001 C .541 .10300001 .46000004 .025000003 .33400002 .025000003 C .299 .025000003 .20700002 .030000001 .125 .10700001 L .333 .316 L .532 .118 Z "/>
</symbol><use xlink:href="#font_2_1" transform="matrix(9.9626,0,0,-9.9626,69.64396,7.94592)"/>
<text fill-opacity="0" transform="matrix(1,0,0,1,-104.995991,-24.205977)" font-size="9.9626" font-family="CMMI10" x="184.05402" y="31.325">
A
</text>
<use xlink:href="#font_1_1" transform="matrix(9.9626,0,0,-9.9626,79.406715,7.1190243)"/>
<text fill-opacity="0" transform="matrix(1,0,0,1,-105.08099,-24.205978)" font-size="9.9626" font-family="CMMI10" x="104.711" y="64.188">
R
</text>
<symbol id="font_1_2"><path d="M .33400002 .63600006 C .34 .66 .343 .67 .36200002 .67300005 C .37100003 .674 .40300003 .674 .423 .674 C .49400001 .674 .605 .674 .605 .57500005 C .605 .54100009 .58900004 .47200003 .55 .43300004 C .524 .40700003 .47100001 .37500003 .381 .37500003 L .269 .37500003 L .33400002 .63600006 M .47800005 .36200002 C .579 .38400004 .698 .45400004 .698 .55500007 C .698 .64100004 .60800005 .70500002 .477 .70500002 L .192 .70500002 C .17200002 .70500002 .16300002 .70500002 .16300002 .68500004 C .16300002 .674 .17200002 .674 .19100001 .674 C .19300002 .674 .21200001 .674 .229 .67200003 C .24700001 .67 .256 .669 .256 .656 C .256 .65200009 .255 .64900007 .252 .637 L .11800001 .1 C .108 .061000004 .106 .053000002 .027000003 .053000002 C .009 .053000002 0 .053000002 0 .033000005 C 0 .022000002 .012000002 .022000002 .014000002 .022000002 C .042000003 .022000002 .11200001 .025000003 .14000001 .025000003 C .16800001 .025000003 .239 .022000002 .26700001 .022000002 C .275 .022000002 .287 .022000002 .287 .042000003 C .287 .053000002 .278 .053000002 .259 .053000002 C .222 .053000002 .194 .053000002 .194 .071 C .194 .07700001 .19600001 .082 .197 .088 L .263 .35300005 L .382 .35300005 C .473 .35300005 .491 .29700003 .491 .26200003 C .491 .24700001 .48300005 .216 .477 .193 C .47000003 .165 .46100002 .128 .46100002 .108 C .46100002 0 .58100005 0 .59400006 0 C .679 0 .71400004 .101 .71400004 .115 C .71400004 .127 .703 .127 .702 .127 C .693 .127 .69100004 .120000004 .689 .113000009 C .66400004 .039000006 .62100006 .022000002 .59800005 .022000002 C .565 .022000002 .558 .044000005 .558 .083000002 C .558 .11400001 .564 .165 .568 .19700001 C .57 .21100001 .572 .23 .572 .24400002 C .572 .32100005 .505 .35200003 .47800005 .36200002 Z "/>
</symbol><use xlink:href="#font_1_2" transform="matrix(9.9626,0,0,-9.9626,.038471482,40.201202)"/>
<text fill-opacity="0" transform="matrix(1,0,0,1,-105.08099,-24.205978)" font-size="9.9626" font-family="CMSY10" x="114.567" y="64.188">
&#x2297;
</text>
<use xlink:href="#font_2_1" transform="matrix(9.9626,0,0,-9.9626,10.033951,40.80892)"/>
<text fill-opacity="0" transform="matrix(1,0,0,1,-105.08099,-24.205978)" font-size="9.9626" font-family="CMMI10" x="124.529" y="64.188">
A
</text>
<use xlink:href="#font_1_1" transform="matrix(9.9626,0,0,-9.9626,19.796698,39.982026)"/>
<text fill-opacity="0" transform="matrix(1,0,0,1,-95.172,-24.205978)" font-size="9.9626" font-family="CMMI10" x="164.406" y="64.188">
A
</text>
<use xlink:href="#font_1_1" transform="matrix(9.9626,0,0,-9.9626,69.5827,39.982026)"/>
<text fill-opacity="0" transform="matrix(1,0,0,1,-105.08101,-24.205978)" font-size="9.9626" font-family="CMMI10" x="224.1" y="64.188">
A
</text>
<use xlink:href="#font_1_1" transform="matrix(9.9626,0,0,-9.9626,119.36769,39.982026)"/>
<text fill-opacity="0" transform="matrix(1,0,0,1,-105.08101,-24.205978)" font-size="9.9626" font-family="CMSY10" x="233.78601" y="64.188">
&#x2297;
</text>
<use xlink:href="#font_2_1" transform="matrix(9.9626,0,0,-9.9626,129.25295,40.80892)"/>
<text fill-opacity="0" transform="matrix(1,0,0,1,-105.08101,-24.205978)" font-size="9.9626" font-family="CMMI10" x="243.74901" y="64.188">
R
</text>
<use xlink:href="#font_1_2" transform="matrix(9.9626,0,0,-9.9626,139.07646,40.201202)"/>
<path transform="matrix(1,0,0,-1,72.971,20.562027)" stroke-width=".39848" stroke-linecap="butt" stroke-miterlimit="10" stroke-linejoin="miter" fill="none" stroke="rgb(0,0,0)" d="M 0 8.76726 L 0 -8.36877 "/>
<path transform="matrix(0,1,1,0,72.971,29.130038)" stroke-width=".39848" stroke-linecap="round" stroke-linejoin="round" fill="none" stroke="rgb(0,0,0)" d="M -2.07213 2.39091 C -1.69356 .95633 -.84995 .27893 0 0 C -.84995 -.27893 -1.69356 -.95633 -2.07213 -2.39091 "/>
<path transform="matrix(1,0,0,-1,-11.462,-41.277977)" stroke-width=".3387" stroke-linecap="butt" stroke-miterlimit="10" stroke-linejoin="miter" fill="none" stroke="rgb(0,0,0)" d="M 86.777 -60 L 93.847 -60 "/>
<text fill-opacity="0" transform="matrix(1,0,0,1,-11.462,-41.277977)" font-size="6.9738" font-family="CMMI7" x="86.777" y="64.188">
m
</text>
<symbol id="font_3_1"><path d="M .38700003 .091 C .38200002 .071 .37300003 .037 .37300003 .032 C .37300003 .010000001 .39100004 0 .40700003 0 C .42500005 0 .44100004 .013 .44600005 .022 C .45100003 .031000004 .45900006 .063 .46400004 .084 C .46900005 .103 .48000002 .14900002 .48600007 .17400001 C .49200005 .19600001 .49800004 .21800001 .503 .24100001 C .51400004 .284 .51400004 .286 .53400002 .317 C .56600004 .366 .61600008 .423 .69400006 .423 C .75000005 .423 .753 .377 .753 .35300002 C .753 .293 .71000004 .18200001 .69400006 .14000001 C .683 .112 .679 .103 .679 .086 C .679 .033000005 .72300005 0 .77400007 0 C .8740001 0 .91800004 .13800001 .91800004 .15300001 C .91800004 .16600001 .90500002 .16600001 .90200009 .16600001 C .8880001 .16600001 .887 .16000001 .8830001 .14900002 C .8600001 .069000006 .81700001 .028 .77700009 .028 C .75600005 .028 .75200005 .042000003 .75200005 .063 C .75200005 .086 .757 .099 .77500005 .14400001 C .78700008 .17500001 .82800007 .28100003 .82800007 .337 C .82800007 .35300002 .82800007 .395 .79100009 .42400003 C .77400007 .437 .74500008 .451 .6980001 .451 C .60800005 .451 .55300003 .39200001 .521 .35 C .513 .435 .44200002 .451 .39100004 .451 C .30800004 .451 .25200004 .4 .22200002 .36 C .21500002 .42900001 .156 .451 .114999997 .451 C .072 .451 .049 .42000003 .036000002 .397 C .014000002 .36 0 .303 0 .298 C 0 .285 .014000002 .285 .017 .285 C .031 .285 .032 .28800002 .039 .315 C .054 .374 .073 .423 .112 .423 C .138 .423 .145 .40100003 .145 .374 C .145 .35500002 .136 .31800003 .12900001 .291 C .12200001 .264 .112 .22300002 .10700001 .20100002 L .075 .073 C .07100001 .060000001 .065 .035 .065 .032 C .065 .010000001 .083000002 0 .09900001 0 C .117 0 .133 .013 .138 .022 C .143 .031000004 .15100001 .063 .156 .084 C .161 .103 .172 .14900002 .178 .17400001 C .184 .19600001 .19000001 .21800001 .19500001 .24100001 C .20600002 .282 .20800002 .29 .237 .331 C .26500001 .37100003 .31200004 .423 .38700003 .423 C .44500003 .423 .44600005 .372 .44600005 .35300002 C .44600005 .328 .44300003 .315 .42900001 .259 L .38700003 .091 Z "/>
</symbol><use xlink:href="#font_3_1" transform="matrix(6.9738,0,0,-6.9738,75.64277,22.979765)"/>
<path transform="matrix(1,0,0,-1,72.971,20.562027)" stroke-width=".39848" stroke-linecap="butt" stroke-miterlimit="10" stroke-linejoin="miter" fill="none" stroke="rgb(0,0,0)" d="M -44.87146 -8.76724 L -13.3612 8.57513 "/>
<path transform="matrix(.87605,-.48215,-.48215,-.87605,59.78432,11.890827)" stroke-width=".39848" stroke-linecap="round" stroke-linejoin="round" fill="none" stroke="rgb(0,0,0)" d="M -2.07213 2.39091 C -1.69356 .95633 -.84995 .27893 0 0 C -.84995 -.27893 -1.69356 -.95633 -2.07213 -2.39091 "/>
<text fill-opacity="0" transform="matrix(1,0,0,1,-68.343997,-46.971979)" font-size="6.9738" font-family="CMMI7" x="86.777" y="64.188">
u
</text>
<symbol id="font_3_2"><path d="M .37600003 .172 C .37100003 .15200001 .36200002 .114 .36 .113000009 C .34100003 .082 .30100003 .028 .23900001 .028 C .17 .028 .17 .093 .17 .111 C .17 .17000002 .198 .24100001 .226 .314 C .23400001 .334 .24 .349 .24 .365 C .24 .417 .19600001 .451 .145 .451 C .045000005 .451 0 .314 0 .298 C 0 .285 .014000002 .285 .017 .285 C .031 .285 .032 .29 .035 .301 C .059000005 .38300002 .103 .423 .142 .423 C .15900001 .423 .16700001 .412 .16700001 .388 C .16700001 .365 .15900001 .344 .149 .321 C .095 .18300002 .095 .15400002 .095 .127 C .095 .11 .095 .064 .132 .032 C .161 .008 .2 0 .235 0 C .29800005 0 .33200002 .034 .36500004 .066 C .38700003 .0020000003 .45400005 0 .46600003 0 C .50000005 0 .526 .020000002 .545 .053000002 C .56700001 .092 .58100005 .15 .58100005 .15300001 C .58100005 .16600001 .56700001 .16600001 .564 .16600001 C .55 .16600001 .549 .16200002 .54200006 .135 C .53000002 .088 .51100006 .028 .46900005 .028 C .44300003 .028 .43600002 .051000004 .43600002 .077 C .43600002 .094000006 .44400005 .13000001 .45100003 .15600002 C .458 .18300002 .46800005 .22400002 .47300005 .24600002 L .49600006 .335 C .50200005 .36 .513 .404 .513 .409 C .513 .42900001 .49700003 .441 .48000002 .441 C .44300003 .441 .43600002 .412 .42800003 .38 L .37600003 .172 Z "/>
</symbol><use xlink:href="#font_3_2" transform="matrix(6.9738,0,0,-6.9738,18.760775,17.285765)"/>
<text fill-opacity="0" transform="matrix(1,0,0,1,-68.343997,-46.971979)" font-size="6.9738" font-family="CMSY7" x="91.487" y="64.188">
&#x2297;
</text>
<symbol id="font_4_1"><path d="M .73800002 .368 C .73800002 .573 .571 .73700004 .36900001 .73700004 C .165 .73700004 0 .57000008 0 .36900001 C 0 .164 .16700001 0 .36900001 0 C .573 0 .73800002 .16700001 .73800002 .368 M .14500001 .61700006 C .186 .65400005 .263 .70300007 .36900001 .70300007 C .47500001 .70300007 .552 .65400005 .593 .61700006 L .36900001 .393 L .14500001 .61700006 M .12100001 .14500001 C .066 .20200002 .034 .286 .034 .368 C .034 .45600004 .069000006 .53800006 .12100001 .59200006 L .34500003 .36900001 L .12100001 .14500001 M .617 .59200006 C .672 .535 .704 .451 .704 .36900001 C .704 .28100003 .669 .199 .617 .14500001 L .393 .368 L .617 .59200006 M .593 .120000004 C .552 .083000002 .47500001 .034 .36900001 .034 C .263 .034 .186 .083000002 .14500001 .120000004 L .36900001 .344 L .593 .120000004 Z "/>
</symbol><use xlink:href="#font_4_1" transform="matrix(6.9738,0,0,-6.9738,23.679989,18.038935)"/>
<text fill-opacity="0" transform="matrix(1,0,0,1,-68.343997,-46.971979)" font-size="6.9738" font-family="CMR7" x="97.714 99.96654" y="64.188 64.188">
id
</text>
<symbol id="font_5_2"><path d="M .155 .61700006 C .155 .646 .13100001 .674 .09700001 .674 C .067 .674 .04 .65000005 .04 .61700006 C .04 .58100005 .069 .559 .09700001 .559 C .12900001 .559 .155 .58400007 .155 .61700006 M .0030000024 .43 L .0030000024 .39400003 C .06600001 .39400003 .07500001 .388 .07500001 .33900002 L .07500001 .079 C .07500001 .036000002 .065000005 .036000002 0 .036000002 L 0 0 C .0020000003 0 .072000003 .004 .11200001 .004 C .14700002 .004 .183 .003 .21800003 0 L .21800003 .036000002 C .16 .036000002 .15 .036000002 .15 .078 L .15 .441 L .0030000024 .43 Z "/>
</symbol><symbol id="font_5_1"><path d="M .31 .693 L .31 .657 C .377 .657 .38500002 .65000005 .38500002 .601 L .38500002 .394 C .34800003 .43 .3 .451 .245 .451 C .112 .451 0 .351 0 .22500001 C 0 .1 .106000009 0 .23300001 0 C .31500004 0 .36400003 .044000005 .381 .062000003 L .381 0 L .535 .010000001 L .535 .046000004 C .468 .046000004 .46000004 .053000002 .46000004 .102000009 L .46000004 .704 L .31 .693 M .381 .115 C .35500002 .068 .30400003 .028 .23900002 .028 C .18300002 .028 .143 .061000004 .12300001 .09 C .103 .120000004 .091000004 .16000001 .091000004 .22400002 C .091000004 .24700003 .091000004 .322 .132 .36900001 C .172 .414 .22100001 .423 .25 .423 C .298 .423 .34100003 .40100003 .36900001 .365 C .381 .349 .381 .34800003 .381 .329 L .381 .115 Z "/>
</symbol><use xlink:href="#font_5_2" transform="matrix(6.9738,0,0,-6.9738,29.760537,17.216027)"/>
<use xlink:href="#font_5_1" transform="matrix(6.9738,0,0,-6.9738,31.943338,17.285765)"/>
<text fill-opacity="0" transform="matrix(1,0,0,1,-68.343997,-46.971979)" font-size="4.9813" font-family="CMMI5" x="104.369997" y="65.19">
A
</text>
<symbol id="font_6_1"><path d="M .623 .689 C .6190001 .71000004 .615 .716 .59300004 .716 C .569 .716 .5630001 .708 .553 .693 L .16100002 .125 C .119 .064 .08400001 .048 .019000001 .045 C 0 .044000005 0 .018000001 0 .017 C 0 .003 .012000002 0 .016000003 0 C .030000001 0 .047000007 .003 .061000004 .003 C .07800001 .003 .09500001 .004 .112 .004 C .13100001 .004 .14900002 .003 .16700003 .003 C .185 .003 .206 0 .224 0 C .231 0 .24800003 0 .24800003 .028 C .24800003 .044000005 .23300001 .045 .229 .045 C .22100001 .045 .18200001 .047000003 .18200001 .071 C .18200001 .083000002 .194 .1 .201 .11000001 L .27400003 .21700001 C .279 .223 .28 .224 .29900003 .224 L .602 .224 C .604 .21200001 .605 .20700002 .60800005 .19500001 C .61100007 .177 .63100005 .07700001 .63100005 .067 C .63100005 .045 .5680001 .045 .5630001 .045 C .548 .045 .53200007 .045 .53200007 .017 C .53200007 .007 .53900004 0 .5500001 0 C .571 0 .595 .003 .617 .003 C .64100004 .003 .66400004 .004 .6880001 .004 C .709 .004 .73100005 .003 .7520001 .003 C .7720001 .003 .7950001 0 .81500006 0 C .832 0 .838999948 .012 .838999948 .028 C .838999948 .045 .8230001 .045 .809 .045 C .74300004 .045 .742 .052 .73800002 .074 L .623 .689 M .533 .59300004 L .594 .26900003 L .31000004 .26900003 L .533 .59300004 Z "/>
</symbol><use xlink:href="#font_6_1" transform="matrix(4.9813,0,0,-4.9813,36.544056,18.218026)"/>
<path transform="matrix(1,0,0,-1,72.971,20.562027)" stroke-width=".39848" stroke-linecap="butt" stroke-miterlimit="10" stroke-linejoin="miter" fill="none" stroke="rgb(0,0,0)" d="M -41.56128 -16.92978 L -8.62328 -16.92978 "/>
<path transform="matrix(1,0,0,-1,64.54697,37.491806)" stroke-width=".39848" stroke-linecap="round" stroke-linejoin="round" fill="none" stroke="rgb(0,0,0)" d="M -2.07213 2.39091 C -1.69356 .95633 -.84995 .27893 0 0 C -.84995 -.27893 -1.69356 -.95633 -2.07213 -2.39091 "/>
<text fill-opacity="0" transform="matrix(1,0,0,1,-41.812,-20.907977)" font-size="6.9738" font-family="CMSY7" x="86.777" y="64.188">
&#x2243;
</text>
<symbol id="font_4_2"><path d="M .73800002 .449 C .73800002 .486 .72400003 .48700003 .721 .48700003 C .711 .48700003 .70500002 .47 .704 .46 C .703 .44 .7 .393 .661 .357 C .62200003 .32 .583 .313 .55300003 .313 C .485 .313 .436 .351 .362 .40800003 C .31200004 .446 .254 .488 .18500002 .488 C .077999993 .488 0 .391 0 .283 C 0 .24700003 .013999999 .24500002 .016999998 .24500002 C .027999998 .24500002 .033 .264 .034 .272 C .034999996 .292 .037999995 .33900002 .07700001 .375 C .116 .412 .155 .419 .18500002 .419 C .25300003 .419 .302 .381 .376 .324 C .426 .286 .48400002 .244 .55300003 .244 C .66 .244 .73800002 .341 .73800002 .449 M .04 .049000001 C .022999995 .049000001 0 .049000001 0 .024 C 0 0 .023999997 0 .04 0 L .698 0 C .714 0 .73800002 0 .73800002 .024 C .73800002 .049000001 .71500006 .049000001 .698 .049000001 L .04 .049000001 Z "/>
</symbol><use xlink:href="#font_4_2" transform="matrix(6.9738,0,0,-6.9738,45.501985,43.238187)"/>
<path transform="matrix(1,0,0,-1,72.971,20.562027)" stroke-width=".39848" stroke-linecap="butt" stroke-miterlimit="10" stroke-linejoin="miter" fill="none" stroke="rgb(0,0,0)" d="M 44.87146 -8.76724 L 13.3612 8.57513 "/>
<path transform="matrix(-.87605,-.48215,-.48215,.87605,86.157685,11.890827)" stroke-width=".39848" stroke-linecap="round" stroke-linejoin="round" fill="none" stroke="rgb(0,0,0)" d="M -2.07213 2.39091 C -1.69356 .95633 -.84995 .27893 0 0 C -.84995 -.27893 -1.69356 -.95633 -2.07213 -2.39091 "/>
<text fill-opacity="0" transform="matrix(1,0,0,1,17.48,-46.971979)" font-size="6.9738" font-family="CMR7" x="86.777 89.02954" y="64.188 64.188">
id
</text>
<use xlink:href="#font_5_2" transform="matrix(6.9738,0,0,-6.9738,104.64754,17.216027)"/>
<use xlink:href="#font_5_1" transform="matrix(6.9738,0,0,-6.9738,106.83033,17.285765)"/>
<text fill-opacity="0" transform="matrix(1,0,0,1,17.48,-46.971979)" font-size="4.9813" font-family="CMMI5" x="93.433" y="65.19">
A
</text>
<use xlink:href="#font_6_1" transform="matrix(4.9813,0,0,-4.9813,111.43105,18.218026)"/>
<text fill-opacity="0" transform="matrix(1,0,0,1,17.48,-46.971979)" font-size="6.9738" font-family="CMSY7" x="99.091998" y="64.188">
&#x2297;
</text>
<use xlink:href="#font_4_1" transform="matrix(6.9738,0,0,-6.9738,117.10897,18.038935)"/>
<text fill-opacity="0" transform="matrix(1,0,0,1,17.48,-46.971979)" font-size="6.9738" font-family="CMMI7" x="105.31899" y="64.188">
u
</text>
<use xlink:href="#font_3_2" transform="matrix(6.9738,0,0,-6.9738,123.12676,17.285765)"/>
<path transform="matrix(1,0,0,-1,72.971,20.562027)" stroke-width=".39848" stroke-linecap="butt" stroke-miterlimit="10" stroke-linejoin="miter" fill="none" stroke="rgb(0,0,0)" d="M 41.56128 -16.92978 L 8.62328 -16.92978 "/>
<path transform="matrix(-1,0,0,1,81.395035,37.491806)" stroke-width=".39848" stroke-linecap="round" stroke-linejoin="round" fill="none" stroke="rgb(0,0,0)" d="M -2.07213 2.39091 C -1.69356 .95633 -.84995 .27893 0 0 C -.84995 -.27893 -1.69356 -.95633 -2.07213 -2.39091 "/>
<text fill-opacity="0" transform="matrix(1,0,0,1,7.974001,-20.907977)" font-size="6.9738" font-family="CMSY7" x="86.777" y="64.188">
&#x2243;
</text>
<use xlink:href="#font_4_2" transform="matrix(6.9738,0,0,-6.9738,95.28798,43.238187)"/>
</g>
</svg>
