<?xml version="1.0" standalone="no"?>
<!DOCTYPE svg PUBLIC "-//W3C//DTD SVG 1.1//EN" "http://www.w3.org/Graphics/SVG/1.1/DTD/svg11.dtd">
<svg xmlns="http://www.w3.org/2000/svg" xmlns:xlink="http://www.w3.org/1999/xlink" version="1.1" width="5.9213753cm" height="2.57302cm" viewBox="0 0 167.85 72.936">
<clipPath id="cp0">
<path transform="matrix(1,0,0,-1,-85.806,726.138)" d="M 0 0 L 595.28 0 L 595.28 841.889963 L 0 841.889963 Z "/>
</clipPath>
<g clip-path="url(#cp0)">
<text fill-opacity="0" transform="matrix(1,0,0,1,-126.281009,-7.485016)" font-size="9.9626" font-family="CMMI10" x="186.243" y="14.479">
C
</text>
<symbol id="font_1_1"><path d="M .71000004 .71700006 C .71000004 .72 .708 .72700005 .699 .72700005 C .69600006 .72700005 .69500008 .7260001 .684 .71500006 L .614 .6380001 C .605 .65200009 .559 .72700005 .448 .72700005 C .22500001 .72700005 0 .50600005 0 .27400003 C 0 .109000003 .118000019 0 .271 0 C .358 0 .43400002 .040000004 .487 .086 C .58000002 .16800001 .597 .25900004 .597 .26200003 C .597 .272 .587 .272 .58500004 .272 C .579 .272 .574 .27 .572 .26200003 C .563 .23300001 .54 .162 .47100001 .104 C .402 .048 .33900002 .031000004 .287 .031000004 C .19700001 .031000004 .091000004 .083000002 .091000004 .23900001 C .091000004 .29600003 .112 .45800004 .21200003 .57500005 C .273 .646 .367 .69600006 .45600004 .69600006 C .558 .69600006 .61700006 .619 .61700006 .503 C .61700006 .46300002 .614 .46200004 .614 .45200003 C .614 .44200002 .625 .44200002 .629 .44200002 C .642 .44200002 .642 .44400005 .647 .46200004 L .71000004 .71700006 Z "/>
</symbol><use xlink:href="#font_1_1" transform="matrix(9.9626,0,0,-9.9626,60.46012,7.2131615)"/>
<text fill-opacity="0" transform="matrix(1,0,0,1,-126.281009,-7.485016)" font-size="9.9626" font-family="CMSY10" x="196.29" y="14.479">
&#x2297;
</text>
<symbol id="font_2_1"><path d="M .66700006 .333 C .66700006 .517 .517 .666 .33400002 .666 C .148 .666 0 .515 0 .333 C 0 .149 .15 0 .333 0 C .519 0 .66700006 .15100001 .66700006 .333 M .135 .54800005 C .133 .55 .126 .55700007 .126 .559 C .126 .563 .20700002 .64100004 .333 .64100004 C .368 .64100004 .46000004 .63600006 .542 .559 L .33400002 .35000003 L .135 .54800005 M .106000009 .124000009 C .044999999 .192 .025000003 .269 .025000003 .333 C .025000003 .41000004 .054 .483 .106000009 .54200006 L .315 .333 L .106000009 .124000009 M .56 .54200006 C .60800005 .49100004 .642 .41500001 .642 .333 C .642 .256 .61300002 .183 .56100007 .124000009 L .352 .333 L .56 .54200006 M .532 .118 C .53400002 .116000007 .541 .109000003 .541 .10700001 C .541 .10300001 .46000004 .025000003 .33400002 .025000003 C .299 .025000003 .20700002 .030000001 .125 .10700001 L .333 .316 L .532 .118 Z "/>
</symbol><use xlink:href="#font_2_1" transform="matrix(9.9626,0,0,-9.9626,70.55693,7.82088)"/>
<text fill-opacity="0" transform="matrix(1,0,0,1,-126.281009,-7.485016)" font-size="9.9626" font-family="CMMI10" x="206.25299" y="14.479">
C
</text>
<use xlink:href="#font_1_1" transform="matrix(9.9626,0,0,-9.9626,80.470114,7.2131615)"/>
<text fill-opacity="0" transform="matrix(1,0,0,1,-126.281009,-7.485016)" font-size="9.9626" font-family="CMSY10" x="216.29999" y="14.479">
&#x2297;
</text>
<use xlink:href="#font_2_1" transform="matrix(9.9626,0,0,-9.9626,90.5669297,7.82088)"/>
<text fill-opacity="0" transform="matrix(1,0,0,1,-126.281009,-7.485016)" font-size="9.9626" font-family="CMMI10" x="226.262" y="14.479">
C
</text>
<use xlink:href="#font_1_1" transform="matrix(9.9626,0,0,-9.9626,100.47912,7.2131615)"/>
<text fill-opacity="0" transform="matrix(1,0,0,1,-116.277,-7.485016)" font-size="9.9626" font-family="CMMI10" x="115.906" y="47.342">
C
</text>
<use xlink:href="#font_1_1" transform="matrix(9.9626,0,0,-9.9626,.1271278,40.07616)"/>
<text fill-opacity="0" transform="matrix(1,0,0,1,-116.277,-7.485016)" font-size="9.9626" font-family="CMSY10" x="125.952999" y="47.342">
&#x2297;
</text>
<use xlink:href="#font_2_1" transform="matrix(9.9626,0,0,-9.9626,10.223938,40.68388)"/>
<text fill-opacity="0" transform="matrix(1,0,0,1,-116.277,-7.485016)" font-size="9.9626" font-family="CMMI10" x="135.916" y="47.342">
C
</text>
<use xlink:href="#font_1_1" transform="matrix(9.9626,0,0,-9.9626,20.13713,40.07616)"/>
<text fill-opacity="0" transform="matrix(1,0,0,1,-116.27701,-7.485016)" font-size="9.9626" font-family="CMMI10" x="256.58" y="47.342">
C
</text>
<use xlink:href="#font_1_1" transform="matrix(9.9626,0,0,-9.9626,140.8011,40.07616)"/>
<text fill-opacity="0" transform="matrix(1,0,0,1,-116.27701,-7.485016)" font-size="9.9626" font-family="CMSY10" x="266.62698" y="47.342">
&#x2297;
</text>
<use xlink:href="#font_2_1" transform="matrix(9.9626,0,0,-9.9626,150.89792,40.68388)"/>
<text fill-opacity="0" transform="matrix(1,0,0,1,-116.27701,-7.485016)" font-size="9.9626" font-family="CMMI10" x="276.59" y="47.342">
C
</text>
<use xlink:href="#font_1_1" transform="matrix(9.9626,0,0,-9.9626,160.81111,40.07616)"/>
<text fill-opacity="0" transform="matrix(1,0,0,1,-106.272,-7.485016)" font-size="9.9626" font-family="CMMI10" x="186.243" y="80.204">
C
</text>
<use xlink:href="#font_1_1" transform="matrix(9.9626,0,0,-9.9626,80.469122,72.93816)"/>
<path transform="matrix(1,0,0,-1,83.89,36.45199)" stroke-width=".39848" stroke-linecap="butt" stroke-miterlimit="10" stroke-linejoin="miter" fill="none" stroke="rgb(0,0,0)" d="M -52.87117 7.24928 L -15.69296 24.61519 "/>
<path transform="matrix(.906,-.42319,-.42319,-.906,68.37755,11.752489)" stroke-width=".39848" stroke-linecap="round" stroke-linejoin="round" fill="none" stroke="rgb(0,0,0)" d="M -2.07213 2.39091 C -1.69356 .95633 -.84995 .27893 0 0 C -.84995 -.27893 -1.69356 -.95633 -2.07213 -2.39091 "/>
<text fill-opacity="0" transform="matrix(1,0,0,1,-75.478,-63.114014)" font-size="6.9738" font-family="CMR7" x="97.696" y="80.204">
&#x2206;
</text>
<symbol id="font_3_1"><path d="M .44000006 .69000006 C .43 .708 .42700005 .71300006 .407 .71300006 C .39500003 .71300006 .385 .71000004 .376 .694 L .0069999991 .024 C 0 .013 0 .011000001 0 .010000001 C 0 0 .008000001 0 .023999997 0 L .79100009 0 C .80700007 0 .81500006 0 .81500006 .010000001 C .81500006 .011000001 .81500006 .013 .808 .024 L .44000006 .69000006 M .374 .615 L .66800004 .082 L .08 .082 L .374 .615 Z "/>
</symbol><use xlink:href="#font_3_1" transform="matrix(6.9738,0,0,-6.9738,22.643404,17.089989)"/>
<text fill-opacity="0" transform="matrix(1,0,0,1,-75.478,-63.114014)" font-size="6.9738" font-family="CMSY7" x="104.241" y="80.204">
&#x2297;
</text>
<symbol id="font_4_1"><path d="M .73800002 .368 C .73800002 .573 .571 .73700004 .36900001 .73700004 C .165 .73700004 0 .57000008 0 .36900001 C 0 .164 .16700001 0 .36900001 0 C .573 0 .73800002 .16700001 .73800002 .368 M .14500001 .61700006 C .186 .65400005 .263 .70300007 .36900001 .70300007 C .47500001 .70300007 .552 .65400005 .593 .61700006 L .36900001 .393 L .14500001 .61700006 M .12100001 .14500001 C .066 .20200002 .034 .286 .034 .368 C .034 .45600004 .069000006 .53800006 .12100001 .59200006 L .34500003 .36900001 L .12100001 .14500001 M .617 .59200006 C .672 .535 .704 .451 .704 .36900001 C .704 .28100003 .669 .199 .617 .14500001 L .393 .368 L .617 .59200006 M .593 .120000004 C .552 .083000002 .47500001 .034 .36900001 .034 C .263 .034 .186 .083000002 .14500001 .120000004 L .36900001 .344 L .593 .120000004 Z "/>
</symbol><use xlink:href="#font_4_1" transform="matrix(6.9738,0,0,-6.9738,29.299984,17.912898)"/>
<text fill-opacity="0" transform="matrix(1,0,0,1,-75.478,-63.114014)" font-size="6.9738" font-family="CMR7" x="110.466999 112.719539" y="80.204 80.204">
id
</text>
<symbol id="font_3_3"><path d="M .155 .61700006 C .155 .646 .13100001 .674 .09700001 .674 C .067 .674 .04 .65000005 .04 .61700006 C .04 .58100005 .069 .559 .09700001 .559 C .12900001 .559 .155 .58400007 .155 .61700006 M .0030000024 .43 L .0030000024 .39400003 C .06600001 .39400003 .07500001 .388 .07500001 .33900002 L .07500001 .079 C .07500001 .036000002 .065000005 .036000002 0 .036000002 L 0 0 C .0020000003 0 .072000003 .004 .11200001 .004 C .14700002 .004 .183 .003 .21800003 0 L .21800003 .036000002 C .16 .036000002 .15 .036000002 .15 .078 L .15 .441 L .0030000024 .43 Z "/>
</symbol><symbol id="font_3_2"><path d="M .31 .693 L .31 .657 C .377 .657 .38500002 .65000005 .38500002 .601 L .38500002 .394 C .34800003 .43 .3 .451 .245 .451 C .112 .451 0 .351 0 .22500001 C 0 .1 .106000009 0 .23300001 0 C .31500004 0 .36400003 .044000005 .381 .062000003 L .381 0 L .535 .010000001 L .535 .046000004 C .468 .046000004 .46000004 .053000002 .46000004 .102000009 L .46000004 .704 L .31 .693 M .381 .115 C .35500002 .068 .30400003 .028 .23900002 .028 C .18300002 .028 .143 .061000004 .12300001 .09 C .103 .120000004 .091000004 .16000001 .091000004 .22400002 C .091000004 .24700003 .091000004 .322 .132 .36900001 C .172 .414 .22100001 .423 .25 .423 C .298 .423 .34100003 .40100003 .36900001 .365 C .381 .349 .381 .34800003 .381 .329 L .381 .115 Z "/>
</symbol><use xlink:href="#font_3_3" transform="matrix(6.9738,0,0,-6.9738,35.37953,17.089989)"/>
<use xlink:href="#font_3_2" transform="matrix(6.9738,0,0,-6.9738,37.562333,17.159728)"/>
<text fill-opacity="0" transform="matrix(1,0,0,1,-75.478,-63.114014)" font-size="4.9813" font-family="CMMI5" x="117.12299" y="81.206">
C
</text>
<symbol id="font_5_1"><path d="M .86 .71300006 C .86 .71400004 .86 .72700005 .84400006 .72700005 C .838000096 .72700005 .837 .7260001 .82500002 .71500006 L .75600005 .646 C .754 .64400006 .74700003 .637 .745 .637 C .74300004 .637 .74100008 .64000006 .74 .64000006 C .72 .66200008 .65900002 .72700005 .528 .72700005 C .25300003 .72700005 0 .512 0 .29300004 C 0 .13000001 .14000001 0 .354 0 C .45500003 0 .544 .034 .605 .07300001 C .73300005 .156 .748 .263 .748 .26400004 C .748 .27800003 .734 .27800003 .72700005 .27800003 C .716 .27800003 .71000004 .27700005 .70600005 .26500001 C .65800005 .107 .49200005 .045 .379 .045 C .262 .045 .11100001 .095000009 .11100001 .27 C .11100001 .38200002 .17000002 .49800004 .23300001 .558 C .349 .66800004 .481 .68200007 .54300004 .68200007 C .671 .68200007 .75200005 .59900003 .75200005 .48400002 C .75200005 .46200004 .75000005 .45700006 .75000005 .45100003 C .75000005 .43600006 .76400004 .43600006 .77300005 .43600006 C .79200006 .43600006 .79200006 .43900004 .79700003 .45800004 L .86 .71300006 Z "/>
</symbol><use xlink:href="#font_5_1" transform="matrix(4.9813,0,0,-4.9813,42.217846,18.201577)"/>
<path transform="matrix(1,0,0,-1,83.89,36.45199)" stroke-width=".39848" stroke-linecap="butt" stroke-miterlimit="10" stroke-linejoin="miter" fill="none" stroke="rgb(0,0,0)" d="M 52.87117 7.24928 L 15.69296 24.61519 "/>
<path transform="matrix(-.906,-.42319,-.42319,.906,99.4024552,11.752489)" stroke-width=".39848" stroke-linecap="round" stroke-linejoin="round" fill="none" stroke="rgb(0,0,0)" d="M -2.07213 2.39091 C -1.69356 .95633 -.84995 .27893 0 0 C -.84995 -.27893 -1.69356 -.95633 -2.07213 -2.39091 "/>
<text fill-opacity="0" transform="matrix(1,0,0,1,22.64,-63.114014)" font-size="6.9738" font-family="CMR7" x="97.696 99.94854" y="80.204 80.204">
id
</text>
<use xlink:href="#font_3_3" transform="matrix(6.9738,0,0,-6.9738,120.72653,17.089989)"/>
<use xlink:href="#font_3_2" transform="matrix(6.9738,0,0,-6.9738,122.90933,17.159728)"/>
<text fill-opacity="0" transform="matrix(1,0,0,1,22.64,-63.114014)" font-size="4.9813" font-family="CMMI5" x="104.351" y="81.206">
C
</text>
<use xlink:href="#font_5_1" transform="matrix(4.9813,0,0,-4.9813,127.56385,18.201577)"/>
<text fill-opacity="0" transform="matrix(1,0,0,1,22.64,-63.114014)" font-size="6.9738" font-family="CMSY7" x="110.149991" y="80.204">
&#x2297;
</text>
<use xlink:href="#font_4_1" transform="matrix(6.9738,0,0,-6.9738,133.32698,17.912898)"/>
<text fill-opacity="0" transform="matrix(1,0,0,1,22.64,-63.114014)" font-size="6.9738" font-family="CMR7" x="116.37599" y="80.204">
&#x2206;
</text>
<use xlink:href="#font_3_1" transform="matrix(6.9738,0,0,-6.9738,139.44139,17.089989)"/>
<path transform="matrix(1,0,0,-1,83.89,36.45199)" stroke-width=".39848" stroke-linecap="butt" stroke-miterlimit="10" stroke-linejoin="miter" fill="none" stroke="rgb(0,0,0)" d="M -8.40536 -29.84988 L -54.64465 -8.24814 "/>
<path transform="matrix(-.90598,-.42325,-.42325,.90598,29.06485,44.615808)" stroke-width=".39848" stroke-linecap="round" stroke-linejoin="round" fill="none" stroke="rgb(0,0,0)" d="M -2.07213 2.39091 C -1.69356 .95633 -.84995 .27893 0 0 C -.84995 -.27893 -1.69356 -.95633 -2.07213 -2.39091 "/>
<text fill-opacity="0" transform="matrix(1,0,0,1,-54.4,-17.678015)" font-size="6.9738" font-family="CMR7" x="97.696" y="80.204">
&#x2206;
</text>
<use xlink:href="#font_3_1" transform="matrix(6.9738,0,0,-6.9738,43.7214,62.525987)"/>
<path transform="matrix(1,0,0,-1,83.89,36.45199)" stroke-width=".39848" stroke-linecap="butt" stroke-miterlimit="10" stroke-linejoin="miter" fill="none" stroke="rgb(0,0,0)" d="M 8.40536 -29.84988 L 54.64465 -8.24814 "/>
<path transform="matrix(.90598,-.42325,-.42325,-.90598,138.71515,44.615808)" stroke-width=".39848" stroke-linecap="round" stroke-linejoin="round" fill="none" stroke="rgb(0,0,0)" d="M -2.07213 2.39091 C -1.69356 .95633 -.84995 .27893 0 0 C -.84995 -.27893 -1.69356 -.95633 -2.07213 -2.39091 "/>
<text fill-opacity="0" transform="matrix(1,0,0,1,20.244,-17.678015)" font-size="6.9738" font-family="CMR7" x="97.696" y="80.204">
&#x2206;
</text>
<use xlink:href="#font_3_1" transform="matrix(6.9738,0,0,-6.9738,118.3654,62.525987)"/>
</g>
</svg>
